<svg xmlns="http://www.w3.org/2000/svg" width="1600" height="160" viewBox="0 0 1600 160" role="img" aria-label="Divider Blue Light">
  <defs>
    <linearGradient id="bg" x1="0" y1="0" x2="1" y2="1"><stop offset="0%" stop-color="#ffffff"/><stop offset="50%" stop-color="#eff6ff"/><stop offset="100%" stop-color="#f8fafc"/></linearGradient>
    <radialGradient id="glow" cx="50%" cy="38%" r="70%"><stop offset="0%" stop-color="#2563eb" stop-opacity="0.22"/><stop offset="40%" stop-color="#2563eb" stop-opacity="0.08"/><stop offset="100%" stop-color="#2563eb" stop-opacity="0"/></radialGradient>
    <pattern id="grid" width="48" height="48" patternUnits="userSpaceOnUse">
      <path d="M48 0H0V48" fill="none" stroke="#ffffff" stroke-opacity="0.20" stroke-width="1"/>
    </pattern>
  </defs>
  <rect width="1600" height="160" fill="url(#bg)"/>
  <rect width="1600" height="160" fill="url(#grid)"/>
  <rect x="-120" y="-120" width="1840" height="400" fill="url(#glow)"/>
  <path d="M0 115 C 320 96, 576 144, 864 115 S 1280 74, 1600 96" fill="none" stroke="#2563eb" stroke-opacity="0.16" stroke-width="7"/>
  <g><circle cx="209" cy="133" r="1" fill="#2563eb" opacity="0.20"/><circle cx="331" cy="108" r="2" fill="#2563eb" opacity="0.10"/><circle cx="719" cy="2" r="4" fill="#2563eb" opacity="0.21"/><circle cx="402" cy="61" r="2" fill="#2563eb" opacity="0.24"/><circle cx="2" cy="134" r="3" fill="#2563eb" opacity="0.17"/><circle cx="466" cy="60" r="5" fill="#2563eb" opacity="0.18"/><circle cx="654" cy="137" r="5" fill="#2563eb" opacity="0.11"/><circle cx="92" cy="153" r="4" fill="#2563eb" opacity="0.15"/><circle cx="1431" cy="126" r="1" fill="#2563eb" opacity="0.16"/><circle cx="927" cy="6" r="3" fill="#2563eb" opacity="0.14"/><circle cx="288" cy="145" r="5" fill="#2563eb" opacity="0.24"/><circle cx="1366" cy="25" r="5" fill="#2563eb" opacity="0.13"/><circle cx="745" cy="42" r="4" fill="#2563eb" opacity="0.13"/><circle cx="795" cy="8" r="5" fill="#2563eb" opacity="0.23"/><circle cx="724" cy="59" r="2" fill="#2563eb" opacity="0.15"/><circle cx="878" cy="79" r="3" fill="#2563eb" opacity="0.18"/><circle cx="317" cy="78" r="1" fill="#2563eb" opacity="0.21"/><circle cx="727" cy="105" r="4" fill="#2563eb" opacity="0.18"/><circle cx="368" cy="92" r="4" fill="#2563eb" opacity="0.22"/><circle cx="154" cy="123" r="4" fill="#2563eb" opacity="0.17"/><circle cx="780" cy="30" r="5" fill="#2563eb" opacity="0.19"/><circle cx="780" cy="63" r="2" fill="#2563eb" opacity="0.18"/><circle cx="1332" cy="88" r="2" fill="#2563eb" opacity="0.13"/><circle cx="223" cy="111" r="1" fill="#2563eb" opacity="0.17"/><circle cx="768" cy="112" r="4" fill="#2563eb" opacity="0.16"/><circle cx="599" cy="96" r="4" fill="#2563eb" opacity="0.17"/><circle cx="1217" cy="149" r="5" fill="#2563eb" opacity="0.17"/><circle cx="849" cy="33" r="1" fill="#2563eb" opacity="0.18"/><circle cx="122" cy="149" r="5" fill="#2563eb" opacity="0.11"/><circle cx="9" cy="43" r="2" fill="#2563eb" opacity="0.15"/><circle cx="1556" cy="113" r="5" fill="#2563eb" opacity="0.09"/><circle cx="994" cy="5" r="3" fill="#2563eb" opacity="0.19"/><circle cx="603" cy="147" r="3" fill="#2563eb" opacity="0.16"/><circle cx="1105" cy="51" r="4" fill="#2563eb" opacity="0.14"/><circle cx="1019" cy="103" r="5" fill="#2563eb" opacity="0.23"/><circle cx="589" cy="93" r="4" fill="#2563eb" opacity="0.08"/><circle cx="1382" cy="106" r="3" fill="#2563eb" opacity="0.22"/><circle cx="623" cy="160" r="3" fill="#2563eb" opacity="0.20"/><circle cx="1490" cy="135" r="3" fill="#2563eb" opacity="0.23"/><circle cx="295" cy="96" r="4" fill="#2563eb" opacity="0.14"/><circle cx="1410" cy="16" r="2" fill="#2563eb" opacity="0.12"/><circle cx="699" cy="83" r="5" fill="#2563eb" opacity="0.10"/><circle cx="763" cy="117" r="1" fill="#2563eb" opacity="0.24"/><circle cx="626" cy="67" r="5" fill="#2563eb" opacity="0.09"/><circle cx="1214" cy="27" r="1" fill="#2563eb" opacity="0.20"/><circle cx="1213" cy="83" r="2" fill="#2563eb" opacity="0.13"/><circle cx="456" cy="104" r="5" fill="#2563eb" opacity="0.11"/><circle cx="78" cy="83" r="1" fill="#2563eb" opacity="0.18"/><circle cx="490" cy="46" r="1" fill="#2563eb" opacity="0.20"/><circle cx="718" cy="135" r="2" fill="#2563eb" opacity="0.20"/><circle cx="594" cy="157" r="5" fill="#2563eb" opacity="0.24"/><circle cx="881" cy="12" r="4" fill="#2563eb" opacity="0.13"/><circle cx="1372" cy="128" r="2" fill="#2563eb" opacity="0.08"/><circle cx="796" cy="23" r="4" fill="#2563eb" opacity="0.10"/><circle cx="517" cy="10" r="1" fill="#2563eb" opacity="0.23"/><circle cx="139" cy="96" r="1" fill="#2563eb" opacity="0.12"/><circle cx="1398" cy="141" r="3" fill="#2563eb" opacity="0.15"/><circle cx="264" cy="58" r="3" fill="#2563eb" opacity="0.10"/><circle cx="726" cy="115" r="1" fill="#2563eb" opacity="0.09"/><circle cx="220" cy="45" r="5" fill="#2563eb" opacity="0.23"/><circle cx="1309" cy="75" r="3" fill="#2563eb" opacity="0.23"/><circle cx="1254" cy="33" r="1" fill="#2563eb" opacity="0.21"/><circle cx="597" cy="14" r="3" fill="#2563eb" opacity="0.16"/><circle cx="1318" cy="116" r="4" fill="#2563eb" opacity="0.21"/><circle cx="1504" cy="34" r="2" fill="#2563eb" opacity="0.19"/><circle cx="1106" cy="117" r="1" fill="#2563eb" opacity="0.09"/><circle cx="1265" cy="81" r="1" fill="#2563eb" opacity="0.22"/><circle cx="40" cy="26" r="2" fill="#2563eb" opacity="0.24"/><circle cx="1508" cy="142" r="5" fill="#2563eb" opacity="0.09"/><circle cx="1225" cy="28" r="3" fill="#2563eb" opacity="0.11"/><circle cx="386" cy="18" r="4" fill="#2563eb" opacity="0.15"/><circle cx="744" cy="3" r="2" fill="#2563eb" opacity="0.14"/><circle cx="750" cy="67" r="2" fill="#2563eb" opacity="0.20"/><circle cx="419" cy="31" r="1" fill="#2563eb" opacity="0.15"/><circle cx="68" cy="17" r="4" fill="#2563eb" opacity="0.14"/><circle cx="261" cy="82" r="3" fill="#2563eb" opacity="0.25"/><circle cx="957" cy="48" r="5" fill="#2563eb" opacity="0.24"/><circle cx="1051" cy="0" r="1" fill="#2563eb" opacity="0.15"/><circle cx="424" cy="87" r="1" fill="#2563eb" opacity="0.24"/><circle cx="142" cy="24" r="3" fill="#2563eb" opacity="0.21"/><circle cx="745" cy="85" r="3" fill="#2563eb" opacity="0.20"/><circle cx="578" cy="122" r="3" fill="#2563eb" opacity="0.13"/><circle cx="443" cy="108" r="3" fill="#2563eb" opacity="0.12"/><circle cx="857" cy="80" r="3" fill="#2563eb" opacity="0.13"/><circle cx="1373" cy="13" r="1" fill="#2563eb" opacity="0.09"/><circle cx="1384" cy="153" r="2" fill="#2563eb" opacity="0.14"/><circle cx="390" cy="42" r="5" fill="#2563eb" opacity="0.14"/><circle cx="820" cy="67" r="4" fill="#2563eb" opacity="0.21"/><circle cx="124" cy="82" r="4" fill="#2563eb" opacity="0.22"/><circle cx="1015" cy="47" r="3" fill="#2563eb" opacity="0.13"/></g>
  <g transform="translate(64,64)">
    <rect x="-24" y="-22" rx="24" ry="24" width="620" height="168" fill="#ffffff" fill-opacity="0.72" stroke="#2563eb" stroke-opacity="0.18"/>
    <text x="0" y="30" fill="#0f172a" font-family="Inter, Arial, sans-serif" font-size="40" font-weight="800">Divider Blue Light</text>
    <text x="0" y="80" fill="#64748b" font-family="Inter, Arial, sans-serif" font-size="22">LIGHT · overlays</text>
    <text x="0" y="120" fill="#64748b" font-family="Inter, Arial, sans-serif" font-size="18">K-LOL.GG theme asset placeholder</text>
  </g>
</svg>