<svg xmlns="http://www.w3.org/2000/svg" width="1600" height="900" viewBox="0 0 1600 900" role="img" aria-label="Grid Thin Light">
  <defs>
    <linearGradient id="bg" x1="0" y1="0" x2="1" y2="1"><stop offset="0%" stop-color="#ffffff"/><stop offset="50%" stop-color="#eff6ff"/><stop offset="100%" stop-color="#f8fafc"/></linearGradient>
    <radialGradient id="glow" cx="50%" cy="38%" r="70%"><stop offset="0%" stop-color="#2563eb" stop-opacity="0.22"/><stop offset="40%" stop-color="#2563eb" stop-opacity="0.08"/><stop offset="100%" stop-color="#2563eb" stop-opacity="0"/></radialGradient>
    <pattern id="grid" width="48" height="48" patternUnits="userSpaceOnUse">
      <path d="M48 0H0V48" fill="none" stroke="#ffffff" stroke-opacity="0.20" stroke-width="1"/>
    </pattern>
  </defs>
  <rect width="1600" height="900" fill="url(#bg)"/>
  <rect width="1600" height="900" fill="url(#grid)"/>
  <rect x="-120" y="-120" width="1840" height="1140" fill="url(#glow)"/>
  <path d="M0 648 C 320 540, 576 810, 864 648 S 1280 414, 1600 540" fill="none" stroke="#2563eb" stroke-opacity="0.16" stroke-width="7"/>
  <g><path d="M837 137 l102 -51.0" stroke="#fff" stroke-opacity="0.09" stroke-width="1"/><path d="M495 343 l136 -68.0" stroke="#fff" stroke-opacity="0.05" stroke-width="1"/><path d="M124 430 l44 -22.0" stroke="#fff" stroke-opacity="0.07" stroke-width="1"/><path d="M181 562 l107 -53.5" stroke="#fff" stroke-opacity="0.04" stroke-width="1"/><path d="M7 588 l150 -75.0" stroke="#fff" stroke-opacity="0.06" stroke-width="1"/><path d="M768 750 l37 -18.5" stroke="#fff" stroke-opacity="0.04" stroke-width="1"/><path d="M1515 703 l112 -56.0" stroke="#fff" stroke-opacity="0.05" stroke-width="1"/><path d="M1098 462 l145 -72.5" stroke="#fff" stroke-opacity="0.03" stroke-width="1"/><path d="M1265 633 l67 -33.5" stroke="#fff" stroke-opacity="0.08" stroke-width="1"/><path d="M580 152 l118 -59.0" stroke="#fff" stroke-opacity="0.07" stroke-width="1"/><path d="M603 50 l88 -44.0" stroke="#fff" stroke-opacity="0.07" stroke-width="1"/><path d="M1393 104 l139 -69.5" stroke="#fff" stroke-opacity="0.09" stroke-width="1"/><path d="M436 808 l67 -33.5" stroke="#fff" stroke-opacity="0.04" stroke-width="1"/><path d="M1191 0 l145 -72.5" stroke="#fff" stroke-opacity="0.07" stroke-width="1"/><path d="M1298 56 l103 -51.5" stroke="#fff" stroke-opacity="0.07" stroke-width="1"/><path d="M551 516 l72 -36.0" stroke="#fff" stroke-opacity="0.05" stroke-width="1"/><path d="M965 505 l49 -24.5" stroke="#fff" stroke-opacity="0.04" stroke-width="1"/><path d="M192 855 l147 -73.5" stroke="#fff" stroke-opacity="0.04" stroke-width="1"/><path d="M1373 363 l149 -74.5" stroke="#fff" stroke-opacity="0.03" stroke-width="1"/><path d="M1093 619 l135 -67.5" stroke="#fff" stroke-opacity="0.09" stroke-width="1"/><path d="M1218 817 l67 -33.5" stroke="#fff" stroke-opacity="0.06" stroke-width="1"/><path d="M783 353 l63 -31.5" stroke="#fff" stroke-opacity="0.04" stroke-width="1"/><path d="M276 160 l87 -43.5" stroke="#fff" stroke-opacity="0.07" stroke-width="1"/><path d="M1303 809 l114 -57.0" stroke="#fff" stroke-opacity="0.04" stroke-width="1"/><path d="M1515 745 l40 -20.0" stroke="#fff" stroke-opacity="0.03" stroke-width="1"/><path d="M552 596 l108 -54.0" stroke="#fff" stroke-opacity="0.03" stroke-width="1"/><path d="M506 205 l120 -60.0" stroke="#fff" stroke-opacity="0.06" stroke-width="1"/><path d="M145 895 l146 -73.0" stroke="#fff" stroke-opacity="0.08" stroke-width="1"/><path d="M275 471 l102 -51.0" stroke="#fff" stroke-opacity="0.03" stroke-width="1"/><path d="M297 355 l97 -48.5" stroke="#fff" stroke-opacity="0.06" stroke-width="1"/><path d="M1284 85 l134 -67.0" stroke="#fff" stroke-opacity="0.07" stroke-width="1"/><path d="M624 121 l87 -43.5" stroke="#fff" stroke-opacity="0.07" stroke-width="1"/><path d="M1070 288 l25 -12.5" stroke="#fff" stroke-opacity="0.09" stroke-width="1"/><path d="M105 785 l46 -23.0" stroke="#fff" stroke-opacity="0.06" stroke-width="1"/><path d="M667 171 l60 -30.0" stroke="#fff" stroke-opacity="0.05" stroke-width="1"/><path d="M230 235 l158 -79.0" stroke="#fff" stroke-opacity="0.05" stroke-width="1"/><path d="M518 702 l159 -79.5" stroke="#fff" stroke-opacity="0.09" stroke-width="1"/><path d="M862 629 l128 -64.0" stroke="#fff" stroke-opacity="0.07" stroke-width="1"/><path d="M1170 152 l153 -76.5" stroke="#fff" stroke-opacity="0.07" stroke-width="1"/><path d="M1338 773 l50 -25.0" stroke="#fff" stroke-opacity="0.06" stroke-width="1"/><path d="M1017 598 l137 -68.5" stroke="#fff" stroke-opacity="0.08" stroke-width="1"/><path d="M956 150 l67 -33.5" stroke="#fff" stroke-opacity="0.05" stroke-width="1"/><path d="M831 440 l21 -10.5" stroke="#fff" stroke-opacity="0.06" stroke-width="1"/><path d="M1125 60 l87 -43.5" stroke="#fff" stroke-opacity="0.03" stroke-width="1"/><path d="M538 19 l77 -38.5" stroke="#fff" stroke-opacity="0.07" stroke-width="1"/><path d="M134 536 l57 -28.5" stroke="#fff" stroke-opacity="0.04" stroke-width="1"/><path d="M580 625 l92 -46.0" stroke="#fff" stroke-opacity="0.05" stroke-width="1"/><path d="M848 123 l119 -59.5" stroke="#fff" stroke-opacity="0.06" stroke-width="1"/><path d="M760 149 l72 -36.0" stroke="#fff" stroke-opacity="0.07" stroke-width="1"/><path d="M852 672 l47 -23.5" stroke="#fff" stroke-opacity="0.04" stroke-width="1"/><path d="M464 757 l63 -31.5" stroke="#fff" stroke-opacity="0.04" stroke-width="1"/><path d="M1585 550 l144 -72.0" stroke="#fff" stroke-opacity="0.07" stroke-width="1"/><path d="M158 840 l70 -35.0" stroke="#fff" stroke-opacity="0.08" stroke-width="1"/><path d="M253 445 l144 -72.0" stroke="#fff" stroke-opacity="0.05" stroke-width="1"/><path d="M1547 387 l106 -53.0" stroke="#fff" stroke-opacity="0.08" stroke-width="1"/><path d="M110 264 l157 -78.5" stroke="#fff" stroke-opacity="0.04" stroke-width="1"/><path d="M391 509 l64 -32.0" stroke="#fff" stroke-opacity="0.07" stroke-width="1"/><path d="M1439 854 l65 -32.5" stroke="#fff" stroke-opacity="0.06" stroke-width="1"/><path d="M283 810 l146 -73.0" stroke="#fff" stroke-opacity="0.05" stroke-width="1"/><path d="M272 618 l71 -35.5" stroke="#fff" stroke-opacity="0.03" stroke-width="1"/><path d="M406 641 l71 -35.5" stroke="#fff" stroke-opacity="0.07" stroke-width="1"/><path d="M725 747 l46 -23.0" stroke="#fff" stroke-opacity="0.04" stroke-width="1"/><path d="M1119 844 l66 -33.0" stroke="#fff" stroke-opacity="0.07" stroke-width="1"/><path d="M478 101 l87 -43.5" stroke="#fff" stroke-opacity="0.06" stroke-width="1"/><path d="M1235 338 l119 -59.5" stroke="#fff" stroke-opacity="0.08" stroke-width="1"/><path d="M698 259 l139 -69.5" stroke="#fff" stroke-opacity="0.07" stroke-width="1"/><path d="M710 160 l91 -45.5" stroke="#fff" stroke-opacity="0.04" stroke-width="1"/><path d="M1 587 l151 -75.5" stroke="#fff" stroke-opacity="0.04" stroke-width="1"/><path d="M623 469 l155 -77.5" stroke="#fff" stroke-opacity="0.03" stroke-width="1"/><path d="M1439 258 l125 -62.5" stroke="#fff" stroke-opacity="0.08" stroke-width="1"/><path d="M946 287 l43 -21.5" stroke="#fff" stroke-opacity="0.06" stroke-width="1"/><path d="M685 842 l158 -79.0" stroke="#fff" stroke-opacity="0.07" stroke-width="1"/><path d="M729 278 l119 -59.5" stroke="#fff" stroke-opacity="0.05" stroke-width="1"/><path d="M283 713 l21 -10.5" stroke="#fff" stroke-opacity="0.06" stroke-width="1"/><path d="M670 664 l130 -65.0" stroke="#fff" stroke-opacity="0.07" stroke-width="1"/><path d="M1305 275 l119 -59.5" stroke="#fff" stroke-opacity="0.08" stroke-width="1"/><path d="M1569 820 l153 -76.5" stroke="#fff" stroke-opacity="0.07" stroke-width="1"/><path d="M1264 849 l144 -72.0" stroke="#fff" stroke-opacity="0.05" stroke-width="1"/><path d="M176 96 l142 -71.0" stroke="#fff" stroke-opacity="0.07" stroke-width="1"/><path d="M1107 618 l159 -79.5" stroke="#fff" stroke-opacity="0.08" stroke-width="1"/><path d="M1301 355 l76 -38.0" stroke="#fff" stroke-opacity="0.08" stroke-width="1"/><path d="M398 167 l152 -76.0" stroke="#fff" stroke-opacity="0.07" stroke-width="1"/><path d="M35 643 l144 -72.0" stroke="#fff" stroke-opacity="0.03" stroke-width="1"/><path d="M307 659 l135 -67.5" stroke="#fff" stroke-opacity="0.05" stroke-width="1"/><path d="M235 352 l20 -10.0" stroke="#fff" stroke-opacity="0.09" stroke-width="1"/><path d="M340 621 l138 -69.0" stroke="#fff" stroke-opacity="0.09" stroke-width="1"/><path d="M913 213 l60 -30.0" stroke="#fff" stroke-opacity="0.07" stroke-width="1"/><path d="M228 676 l46 -23.0" stroke="#fff" stroke-opacity="0.05" stroke-width="1"/><path d="M1450 713 l38 -19.0" stroke="#fff" stroke-opacity="0.07" stroke-width="1"/><path d="M926 517 l147 -73.5" stroke="#fff" stroke-opacity="0.09" stroke-width="1"/><path d="M1011 305 l106 -53.0" stroke="#fff" stroke-opacity="0.04" stroke-width="1"/><path d="M639 395 l106 -53.0" stroke="#fff" stroke-opacity="0.03" stroke-width="1"/><path d="M223 369 l39 -19.5" stroke="#fff" stroke-opacity="0.04" stroke-width="1"/><path d="M1037 323 l86 -43.0" stroke="#fff" stroke-opacity="0.04" stroke-width="1"/><path d="M809 630 l88 -44.0" stroke="#fff" stroke-opacity="0.05" stroke-width="1"/><path d="M514 16 l125 -62.5" stroke="#fff" stroke-opacity="0.07" stroke-width="1"/><path d="M604 41 l120 -60.0" stroke="#fff" stroke-opacity="0.05" stroke-width="1"/><path d="M850 852 l105 -52.5" stroke="#fff" stroke-opacity="0.05" stroke-width="1"/><path d="M200 437 l88 -44.0" stroke="#fff" stroke-opacity="0.04" stroke-width="1"/><path d="M1339 136 l33 -16.5" stroke="#fff" stroke-opacity="0.09" stroke-width="1"/><path d="M31 295 l26 -13.0" stroke="#fff" stroke-opacity="0.04" stroke-width="1"/><path d="M461 520 l57 -28.5" stroke="#fff" stroke-opacity="0.06" stroke-width="1"/><path d="M1551 660 l56 -28.0" stroke="#fff" stroke-opacity="0.07" stroke-width="1"/><path d="M340 318 l38 -19.0" stroke="#fff" stroke-opacity="0.03" stroke-width="1"/><path d="M1421 241 l134 -67.0" stroke="#fff" stroke-opacity="0.08" stroke-width="1"/><path d="M533 870 l21 -10.5" stroke="#fff" stroke-opacity="0.07" stroke-width="1"/><path d="M789 486 l39 -19.5" stroke="#fff" stroke-opacity="0.03" stroke-width="1"/><path d="M455 165 l134 -67.0" stroke="#fff" stroke-opacity="0.04" stroke-width="1"/><path d="M806 18 l26 -13.0" stroke="#fff" stroke-opacity="0.09" stroke-width="1"/><path d="M1556 64 l96 -48.0" stroke="#fff" stroke-opacity="0.05" stroke-width="1"/><path d="M1450 352 l83 -41.5" stroke="#fff" stroke-opacity="0.04" stroke-width="1"/><path d="M1200 495 l75 -37.5" stroke="#fff" stroke-opacity="0.04" stroke-width="1"/><path d="M1055 250 l42 -21.0" stroke="#fff" stroke-opacity="0.08" stroke-width="1"/><path d="M830 867 l74 -37.0" stroke="#fff" stroke-opacity="0.03" stroke-width="1"/><path d="M375 402 l123 -61.5" stroke="#fff" stroke-opacity="0.03" stroke-width="1"/><path d="M409 707 l64 -32.0" stroke="#fff" stroke-opacity="0.08" stroke-width="1"/><path d="M1184 579 l96 -48.0" stroke="#fff" stroke-opacity="0.05" stroke-width="1"/><path d="M1089 596 l114 -57.0" stroke="#fff" stroke-opacity="0.07" stroke-width="1"/><path d="M390 683 l39 -19.5" stroke="#fff" stroke-opacity="0.08" stroke-width="1"/><path d="M9 230 l61 -30.5" stroke="#fff" stroke-opacity="0.09" stroke-width="1"/></g>
  <g transform="translate(64,64)">
    <rect x="-24" y="-22" rx="24" ry="24" width="620" height="168" fill="#ffffff" fill-opacity="0.72" stroke="#2563eb" stroke-opacity="0.18"/>
    <text x="0" y="30" fill="#0f172a" font-family="Inter, Arial, sans-serif" font-size="40" font-weight="800">Grid Thin Light</text>
    <text x="0" y="80" fill="#64748b" font-family="Inter, Arial, sans-serif" font-size="22">LIGHT · overlays</text>
    <text x="0" y="120" fill="#64748b" font-family="Inter, Arial, sans-serif" font-size="18">K-LOL.GG theme asset placeholder</text>
  </g>
</svg>