<svg xmlns="http://www.w3.org/2000/svg" width="1600" height="900" viewBox="0 0 1600 900" role="img" aria-label="Noise Soft Light">
  <defs>
    <linearGradient id="bg" x1="0" y1="0" x2="1" y2="1"><stop offset="0%" stop-color="#ffffff"/><stop offset="50%" stop-color="#eff6ff"/><stop offset="100%" stop-color="#f8fafc"/></linearGradient>
    <radialGradient id="glow" cx="50%" cy="38%" r="70%"><stop offset="0%" stop-color="#2563eb" stop-opacity="0.22"/><stop offset="40%" stop-color="#2563eb" stop-opacity="0.08"/><stop offset="100%" stop-color="#2563eb" stop-opacity="0"/></radialGradient>
    <pattern id="grid" width="48" height="48" patternUnits="userSpaceOnUse">
      <path d="M48 0H0V48" fill="none" stroke="#ffffff" stroke-opacity="0.20" stroke-width="1"/>
    </pattern>
  </defs>
  <rect width="1600" height="900" fill="url(#bg)"/>
  <rect width="1600" height="900" fill="url(#grid)"/>
  <rect x="-120" y="-120" width="1840" height="1140" fill="url(#glow)"/>
  <path d="M0 648 C 320 540, 576 810, 864 648 S 1280 414, 1600 540" fill="none" stroke="#2563eb" stroke-opacity="0.16" stroke-width="7"/>
  <g><path d="M1272 306 l101 -50.5" stroke="#fff" stroke-opacity="0.07" stroke-width="1"/><path d="M1425 679 l104 -52.0" stroke="#fff" stroke-opacity="0.06" stroke-width="1"/><path d="M277 888 l132 -66.0" stroke="#fff" stroke-opacity="0.06" stroke-width="1"/><path d="M1569 235 l113 -56.5" stroke="#fff" stroke-opacity="0.05" stroke-width="1"/><path d="M1470 264 l73 -36.5" stroke="#fff" stroke-opacity="0.04" stroke-width="1"/><path d="M590 813 l112 -56.0" stroke="#fff" stroke-opacity="0.06" stroke-width="1"/><path d="M1380 823 l83 -41.5" stroke="#fff" stroke-opacity="0.03" stroke-width="1"/><path d="M897 38 l152 -76.0" stroke="#fff" stroke-opacity="0.04" stroke-width="1"/><path d="M1544 671 l98 -49.0" stroke="#fff" stroke-opacity="0.03" stroke-width="1"/><path d="M280 581 l155 -77.5" stroke="#fff" stroke-opacity="0.06" stroke-width="1"/><path d="M108 508 l149 -74.5" stroke="#fff" stroke-opacity="0.07" stroke-width="1"/><path d="M207 369 l37 -18.5" stroke="#fff" stroke-opacity="0.07" stroke-width="1"/><path d="M50 184 l138 -69.0" stroke="#fff" stroke-opacity="0.07" stroke-width="1"/><path d="M553 541 l127 -63.5" stroke="#fff" stroke-opacity="0.05" stroke-width="1"/><path d="M29 853 l132 -66.0" stroke="#fff" stroke-opacity="0.03" stroke-width="1"/><path d="M174 500 l94 -47.0" stroke="#fff" stroke-opacity="0.08" stroke-width="1"/><path d="M702 32 l151 -75.5" stroke="#fff" stroke-opacity="0.03" stroke-width="1"/><path d="M253 557 l129 -64.5" stroke="#fff" stroke-opacity="0.03" stroke-width="1"/><path d="M587 221 l148 -74.0" stroke="#fff" stroke-opacity="0.09" stroke-width="1"/><path d="M1497 798 l155 -77.5" stroke="#fff" stroke-opacity="0.07" stroke-width="1"/><path d="M126 112 l40 -20.0" stroke="#fff" stroke-opacity="0.08" stroke-width="1"/><path d="M1363 525 l124 -62.0" stroke="#fff" stroke-opacity="0.05" stroke-width="1"/><path d="M614 136 l60 -30.0" stroke="#fff" stroke-opacity="0.04" stroke-width="1"/><path d="M59 176 l143 -71.5" stroke="#fff" stroke-opacity="0.08" stroke-width="1"/><path d="M63 140 l43 -21.5" stroke="#fff" stroke-opacity="0.03" stroke-width="1"/><path d="M827 847 l31 -15.5" stroke="#fff" stroke-opacity="0.08" stroke-width="1"/><path d="M256 356 l30 -15.0" stroke="#fff" stroke-opacity="0.05" stroke-width="1"/><path d="M16 860 l134 -67.0" stroke="#fff" stroke-opacity="0.06" stroke-width="1"/><path d="M1542 430 l28 -14.0" stroke="#fff" stroke-opacity="0.05" stroke-width="1"/><path d="M1502 808 l97 -48.5" stroke="#fff" stroke-opacity="0.04" stroke-width="1"/><path d="M449 897 l75 -37.5" stroke="#fff" stroke-opacity="0.08" stroke-width="1"/><path d="M84 4 l158 -79.0" stroke="#fff" stroke-opacity="0.04" stroke-width="1"/><path d="M267 794 l31 -15.5" stroke="#fff" stroke-opacity="0.04" stroke-width="1"/><path d="M1094 805 l71 -35.5" stroke="#fff" stroke-opacity="0.07" stroke-width="1"/><path d="M393 671 l47 -23.5" stroke="#fff" stroke-opacity="0.03" stroke-width="1"/><path d="M40 241 l60 -30.0" stroke="#fff" stroke-opacity="0.04" stroke-width="1"/><path d="M576 640 l66 -33.0" stroke="#fff" stroke-opacity="0.08" stroke-width="1"/><path d="M955 796 l49 -24.5" stroke="#fff" stroke-opacity="0.08" stroke-width="1"/><path d="M1115 759 l141 -70.5" stroke="#fff" stroke-opacity="0.04" stroke-width="1"/><path d="M1132 42 l93 -46.5" stroke="#fff" stroke-opacity="0.03" stroke-width="1"/><path d="M511 71 l149 -74.5" stroke="#fff" stroke-opacity="0.05" stroke-width="1"/><path d="M751 651 l21 -10.5" stroke="#fff" stroke-opacity="0.08" stroke-width="1"/><path d="M1249 395 l109 -54.5" stroke="#fff" stroke-opacity="0.07" stroke-width="1"/><path d="M561 217 l30 -15.0" stroke="#fff" stroke-opacity="0.09" stroke-width="1"/><path d="M659 509 l45 -22.5" stroke="#fff" stroke-opacity="0.06" stroke-width="1"/><path d="M1045 30 l137 -68.5" stroke="#fff" stroke-opacity="0.07" stroke-width="1"/><path d="M754 895 l155 -77.5" stroke="#fff" stroke-opacity="0.09" stroke-width="1"/><path d="M855 453 l83 -41.5" stroke="#fff" stroke-opacity="0.04" stroke-width="1"/><path d="M599 137 l113 -56.5" stroke="#fff" stroke-opacity="0.03" stroke-width="1"/><path d="M719 389 l23 -11.5" stroke="#fff" stroke-opacity="0.08" stroke-width="1"/><path d="M588 531 l117 -58.5" stroke="#fff" stroke-opacity="0.04" stroke-width="1"/><path d="M256 232 l40 -20.0" stroke="#fff" stroke-opacity="0.03" stroke-width="1"/><path d="M236 523 l40 -20.0" stroke="#fff" stroke-opacity="0.04" stroke-width="1"/><path d="M1575 858 l107 -53.5" stroke="#fff" stroke-opacity="0.09" stroke-width="1"/><path d="M104 479 l47 -23.5" stroke="#fff" stroke-opacity="0.06" stroke-width="1"/><path d="M1375 233 l84 -42.0" stroke="#fff" stroke-opacity="0.05" stroke-width="1"/><path d="M78 96 l30 -15.0" stroke="#fff" stroke-opacity="0.06" stroke-width="1"/><path d="M499 745 l129 -64.5" stroke="#fff" stroke-opacity="0.03" stroke-width="1"/><path d="M715 812 l107 -53.5" stroke="#fff" stroke-opacity="0.07" stroke-width="1"/><path d="M156 529 l100 -50.0" stroke="#fff" stroke-opacity="0.08" stroke-width="1"/><path d="M1361 785 l46 -23.0" stroke="#fff" stroke-opacity="0.06" stroke-width="1"/><path d="M1207 814 l150 -75.0" stroke="#fff" stroke-opacity="0.08" stroke-width="1"/><path d="M956 34 l91 -45.5" stroke="#fff" stroke-opacity="0.03" stroke-width="1"/><path d="M810 176 l98 -49.0" stroke="#fff" stroke-opacity="0.04" stroke-width="1"/><path d="M1175 887 l67 -33.5" stroke="#fff" stroke-opacity="0.06" stroke-width="1"/><path d="M199 727 l140 -70.0" stroke="#fff" stroke-opacity="0.03" stroke-width="1"/><path d="M129 782 l86 -43.0" stroke="#fff" stroke-opacity="0.06" stroke-width="1"/><path d="M534 474 l112 -56.0" stroke="#fff" stroke-opacity="0.05" stroke-width="1"/><path d="M1307 177 l153 -76.5" stroke="#fff" stroke-opacity="0.05" stroke-width="1"/><path d="M895 198 l77 -38.5" stroke="#fff" stroke-opacity="0.04" stroke-width="1"/><path d="M573 859 l39 -19.5" stroke="#fff" stroke-opacity="0.07" stroke-width="1"/><path d="M970 416 l93 -46.5" stroke="#fff" stroke-opacity="0.08" stroke-width="1"/><path d="M223 136 l160 -80.0" stroke="#fff" stroke-opacity="0.07" stroke-width="1"/><path d="M1366 239 l44 -22.0" stroke="#fff" stroke-opacity="0.04" stroke-width="1"/><path d="M1492 304 l117 -58.5" stroke="#fff" stroke-opacity="0.07" stroke-width="1"/><path d="M1350 593 l82 -41.0" stroke="#fff" stroke-opacity="0.03" stroke-width="1"/><path d="M1427 797 l45 -22.5" stroke="#fff" stroke-opacity="0.03" stroke-width="1"/><path d="M620 596 l61 -30.5" stroke="#fff" stroke-opacity="0.09" stroke-width="1"/><path d="M1041 412 l123 -61.5" stroke="#fff" stroke-opacity="0.06" stroke-width="1"/><path d="M1320 47 l122 -61.0" stroke="#fff" stroke-opacity="0.06" stroke-width="1"/><path d="M893 532 l23 -11.5" stroke="#fff" stroke-opacity="0.05" stroke-width="1"/><path d="M734 189 l40 -20.0" stroke="#fff" stroke-opacity="0.07" stroke-width="1"/><path d="M571 638 l139 -69.5" stroke="#fff" stroke-opacity="0.07" stroke-width="1"/><path d="M604 838 l118 -59.0" stroke="#fff" stroke-opacity="0.08" stroke-width="1"/><path d="M99 755 l59 -29.5" stroke="#fff" stroke-opacity="0.08" stroke-width="1"/><path d="M1350 763 l155 -77.5" stroke="#fff" stroke-opacity="0.06" stroke-width="1"/><path d="M377 3 l25 -12.5" stroke="#fff" stroke-opacity="0.03" stroke-width="1"/><path d="M1001 499 l66 -33.0" stroke="#fff" stroke-opacity="0.05" stroke-width="1"/><path d="M1225 673 l89 -44.5" stroke="#fff" stroke-opacity="0.06" stroke-width="1"/><path d="M450 317 l30 -15.0" stroke="#fff" stroke-opacity="0.06" stroke-width="1"/><path d="M1314 815 l146 -73.0" stroke="#fff" stroke-opacity="0.03" stroke-width="1"/><path d="M954 174 l106 -53.0" stroke="#fff" stroke-opacity="0.07" stroke-width="1"/><path d="M1235 510 l87 -43.5" stroke="#fff" stroke-opacity="0.07" stroke-width="1"/><path d="M728 274 l59 -29.5" stroke="#fff" stroke-opacity="0.07" stroke-width="1"/><path d="M1492 814 l122 -61.0" stroke="#fff" stroke-opacity="0.04" stroke-width="1"/><path d="M278 660 l121 -60.5" stroke="#fff" stroke-opacity="0.09" stroke-width="1"/><path d="M283 395 l20 -10.0" stroke="#fff" stroke-opacity="0.05" stroke-width="1"/><path d="M951 716 l36 -18.0" stroke="#fff" stroke-opacity="0.08" stroke-width="1"/><path d="M502 702 l122 -61.0" stroke="#fff" stroke-opacity="0.04" stroke-width="1"/><path d="M956 217 l91 -45.5" stroke="#fff" stroke-opacity="0.08" stroke-width="1"/><path d="M1028 116 l75 -37.5" stroke="#fff" stroke-opacity="0.06" stroke-width="1"/><path d="M161 7 l82 -41.0" stroke="#fff" stroke-opacity="0.03" stroke-width="1"/><path d="M1030 725 l117 -58.5" stroke="#fff" stroke-opacity="0.06" stroke-width="1"/><path d="M1053 821 l48 -24.0" stroke="#fff" stroke-opacity="0.05" stroke-width="1"/><path d="M1536 598 l115 -57.5" stroke="#fff" stroke-opacity="0.07" stroke-width="1"/><path d="M539 448 l42 -21.0" stroke="#fff" stroke-opacity="0.08" stroke-width="1"/><path d="M1098 60 l80 -40.0" stroke="#fff" stroke-opacity="0.07" stroke-width="1"/><path d="M197 525 l84 -42.0" stroke="#fff" stroke-opacity="0.07" stroke-width="1"/><path d="M1367 206 l150 -75.0" stroke="#fff" stroke-opacity="0.06" stroke-width="1"/><path d="M54 713 l87 -43.5" stroke="#fff" stroke-opacity="0.08" stroke-width="1"/><path d="M862 165 l23 -11.5" stroke="#fff" stroke-opacity="0.04" stroke-width="1"/><path d="M551 244 l105 -52.5" stroke="#fff" stroke-opacity="0.09" stroke-width="1"/><path d="M1172 836 l109 -54.5" stroke="#fff" stroke-opacity="0.08" stroke-width="1"/><path d="M1273 755 l97 -48.5" stroke="#fff" stroke-opacity="0.05" stroke-width="1"/><path d="M921 361 l88 -44.0" stroke="#fff" stroke-opacity="0.03" stroke-width="1"/><path d="M80 203 l149 -74.5" stroke="#fff" stroke-opacity="0.08" stroke-width="1"/><path d="M1271 552 l47 -23.5" stroke="#fff" stroke-opacity="0.03" stroke-width="1"/><path d="M95 40 l80 -40.0" stroke="#fff" stroke-opacity="0.05" stroke-width="1"/><path d="M1528 118 l48 -24.0" stroke="#fff" stroke-opacity="0.04" stroke-width="1"/><path d="M544 203 l106 -53.0" stroke="#fff" stroke-opacity="0.08" stroke-width="1"/></g>
  <g transform="translate(64,64)">
    <rect x="-24" y="-22" rx="24" ry="24" width="620" height="168" fill="#ffffff" fill-opacity="0.72" stroke="#2563eb" stroke-opacity="0.18"/>
    <text x="0" y="30" fill="#0f172a" font-family="Inter, Arial, sans-serif" font-size="40" font-weight="800">Noise Soft Light</text>
    <text x="0" y="80" fill="#64748b" font-family="Inter, Arial, sans-serif" font-size="22">LIGHT · overlays</text>
    <text x="0" y="120" fill="#64748b" font-family="Inter, Arial, sans-serif" font-size="18">K-LOL.GG theme asset placeholder</text>
  </g>
</svg>