<svg xmlns="http://www.w3.org/2000/svg" width="1600" height="500" viewBox="0 0 1600 500" role="img" aria-label="Community Board Bg Light">
  <defs>
    <linearGradient id="bg" x1="0" y1="0" x2="1" y2="1"><stop offset="0%" stop-color="#ffffff"/><stop offset="50%" stop-color="#eff6ff"/><stop offset="100%" stop-color="#f8fafc"/></linearGradient>
    <radialGradient id="glow" cx="50%" cy="38%" r="70%"><stop offset="0%" stop-color="#2563eb" stop-opacity="0.22"/><stop offset="40%" stop-color="#2563eb" stop-opacity="0.08"/><stop offset="100%" stop-color="#2563eb" stop-opacity="0"/></radialGradient>
    <pattern id="grid" width="48" height="48" patternUnits="userSpaceOnUse">
      <path d="M48 0H0V48" fill="none" stroke="#ffffff" stroke-opacity="0.20" stroke-width="1"/>
    </pattern>
  </defs>
  <rect width="1600" height="500" fill="url(#bg)"/>
  <rect width="1600" height="500" fill="url(#grid)"/>
  <rect x="-120" y="-120" width="1840" height="740" fill="url(#glow)"/>
  <path d="M0 360 C 320 300, 576 450, 864 360 S 1280 230, 1600 300" fill="none" stroke="#2563eb" stroke-opacity="0.16" stroke-width="7"/>
  <g><path d="M571 417 l112 -56.0" stroke="#fff" stroke-opacity="0.09" stroke-width="1"/><path d="M640 436 l68 -34.0" stroke="#fff" stroke-opacity="0.07" stroke-width="1"/><path d="M734 412 l77 -38.5" stroke="#fff" stroke-opacity="0.07" stroke-width="1"/><path d="M1413 226 l132 -66.0" stroke="#fff" stroke-opacity="0.07" stroke-width="1"/><path d="M523 346 l41 -20.5" stroke="#fff" stroke-opacity="0.04" stroke-width="1"/><path d="M731 259 l153 -76.5" stroke="#fff" stroke-opacity="0.05" stroke-width="1"/><path d="M921 304 l116 -58.0" stroke="#fff" stroke-opacity="0.08" stroke-width="1"/><path d="M1030 250 l109 -54.5" stroke="#fff" stroke-opacity="0.08" stroke-width="1"/><path d="M358 237 l88 -44.0" stroke="#fff" stroke-opacity="0.04" stroke-width="1"/><path d="M1108 304 l94 -47.0" stroke="#fff" stroke-opacity="0.07" stroke-width="1"/><path d="M81 3 l88 -44.0" stroke="#fff" stroke-opacity="0.08" stroke-width="1"/><path d="M682 484 l133 -66.5" stroke="#fff" stroke-opacity="0.07" stroke-width="1"/><path d="M727 281 l120 -60.0" stroke="#fff" stroke-opacity="0.08" stroke-width="1"/><path d="M1572 273 l88 -44.0" stroke="#fff" stroke-opacity="0.06" stroke-width="1"/><path d="M1311 135 l62 -31.0" stroke="#fff" stroke-opacity="0.06" stroke-width="1"/><path d="M686 415 l102 -51.0" stroke="#fff" stroke-opacity="0.07" stroke-width="1"/><path d="M363 380 l157 -78.5" stroke="#fff" stroke-opacity="0.04" stroke-width="1"/><path d="M466 118 l78 -39.0" stroke="#fff" stroke-opacity="0.07" stroke-width="1"/><path d="M1456 108 l53 -26.5" stroke="#fff" stroke-opacity="0.05" stroke-width="1"/><path d="M176 120 l145 -72.5" stroke="#fff" stroke-opacity="0.05" stroke-width="1"/><path d="M1454 114 l69 -34.5" stroke="#fff" stroke-opacity="0.08" stroke-width="1"/><path d="M1156 275 l69 -34.5" stroke="#fff" stroke-opacity="0.06" stroke-width="1"/><path d="M1325 253 l100 -50.0" stroke="#fff" stroke-opacity="0.08" stroke-width="1"/><path d="M1392 177 l27 -13.5" stroke="#fff" stroke-opacity="0.04" stroke-width="1"/><path d="M18 466 l106 -53.0" stroke="#fff" stroke-opacity="0.03" stroke-width="1"/><path d="M165 291 l107 -53.5" stroke="#fff" stroke-opacity="0.05" stroke-width="1"/><path d="M1099 292 l29 -14.5" stroke="#fff" stroke-opacity="0.07" stroke-width="1"/><path d="M232 377 l91 -45.5" stroke="#fff" stroke-opacity="0.06" stroke-width="1"/><path d="M1182 425 l96 -48.0" stroke="#fff" stroke-opacity="0.06" stroke-width="1"/><path d="M572 385 l135 -67.5" stroke="#fff" stroke-opacity="0.05" stroke-width="1"/><path d="M390 345 l35 -17.5" stroke="#fff" stroke-opacity="0.04" stroke-width="1"/><path d="M633 313 l86 -43.0" stroke="#fff" stroke-opacity="0.08" stroke-width="1"/><path d="M1392 354 l138 -69.0" stroke="#fff" stroke-opacity="0.06" stroke-width="1"/><path d="M1095 399 l28 -14.0" stroke="#fff" stroke-opacity="0.09" stroke-width="1"/><path d="M1187 140 l29 -14.5" stroke="#fff" stroke-opacity="0.06" stroke-width="1"/><path d="M1593 38 l100 -50.0" stroke="#fff" stroke-opacity="0.06" stroke-width="1"/><path d="M484 324 l136 -68.0" stroke="#fff" stroke-opacity="0.07" stroke-width="1"/><path d="M464 294 l134 -67.0" stroke="#fff" stroke-opacity="0.03" stroke-width="1"/><path d="M1583 430 l94 -47.0" stroke="#fff" stroke-opacity="0.06" stroke-width="1"/><path d="M1582 49 l107 -53.5" stroke="#fff" stroke-opacity="0.09" stroke-width="1"/><path d="M996 456 l144 -72.0" stroke="#fff" stroke-opacity="0.06" stroke-width="1"/><path d="M1195 204 l69 -34.5" stroke="#fff" stroke-opacity="0.05" stroke-width="1"/><path d="M1033 85 l77 -38.5" stroke="#fff" stroke-opacity="0.07" stroke-width="1"/><path d="M1359 119 l34 -17.0" stroke="#fff" stroke-opacity="0.04" stroke-width="1"/><path d="M371 92 l153 -76.5" stroke="#fff" stroke-opacity="0.09" stroke-width="1"/><path d="M1543 180 l118 -59.0" stroke="#fff" stroke-opacity="0.09" stroke-width="1"/><path d="M942 229 l50 -25.0" stroke="#fff" stroke-opacity="0.05" stroke-width="1"/><path d="M601 500 l68 -34.0" stroke="#fff" stroke-opacity="0.09" stroke-width="1"/><path d="M1600 384 l138 -69.0" stroke="#fff" stroke-opacity="0.07" stroke-width="1"/><path d="M341 356 l43 -21.5" stroke="#fff" stroke-opacity="0.08" stroke-width="1"/><path d="M1 457 l111 -55.5" stroke="#fff" stroke-opacity="0.03" stroke-width="1"/><path d="M830 377 l109 -54.5" stroke="#fff" stroke-opacity="0.03" stroke-width="1"/><path d="M740 39 l111 -55.5" stroke="#fff" stroke-opacity="0.04" stroke-width="1"/><path d="M206 108 l153 -76.5" stroke="#fff" stroke-opacity="0.08" stroke-width="1"/><path d="M1480 306 l31 -15.5" stroke="#fff" stroke-opacity="0.06" stroke-width="1"/><path d="M1014 440 l119 -59.5" stroke="#fff" stroke-opacity="0.04" stroke-width="1"/><path d="M116 336 l158 -79.0" stroke="#fff" stroke-opacity="0.03" stroke-width="1"/><path d="M39 202 l33 -16.5" stroke="#fff" stroke-opacity="0.04" stroke-width="1"/><path d="M1348 187 l127 -63.5" stroke="#fff" stroke-opacity="0.08" stroke-width="1"/><path d="M582 429 l140 -70.0" stroke="#fff" stroke-opacity="0.08" stroke-width="1"/><path d="M434 156 l139 -69.5" stroke="#fff" stroke-opacity="0.07" stroke-width="1"/><path d="M1504 18 l27 -13.5" stroke="#fff" stroke-opacity="0.08" stroke-width="1"/><path d="M1579 348 l120 -60.0" stroke="#fff" stroke-opacity="0.05" stroke-width="1"/><path d="M880 322 l50 -25.0" stroke="#fff" stroke-opacity="0.05" stroke-width="1"/><path d="M348 172 l44 -22.0" stroke="#fff" stroke-opacity="0.08" stroke-width="1"/><path d="M1305 135 l70 -35.0" stroke="#fff" stroke-opacity="0.05" stroke-width="1"/><path d="M183 78 l145 -72.5" stroke="#fff" stroke-opacity="0.03" stroke-width="1"/><path d="M1259 12 l127 -63.5" stroke="#fff" stroke-opacity="0.05" stroke-width="1"/><path d="M668 130 l100 -50.0" stroke="#fff" stroke-opacity="0.05" stroke-width="1"/><path d="M1036 193 l73 -36.5" stroke="#fff" stroke-opacity="0.05" stroke-width="1"/><path d="M292 69 l75 -37.5" stroke="#fff" stroke-opacity="0.05" stroke-width="1"/><path d="M464 462 l119 -59.5" stroke="#fff" stroke-opacity="0.03" stroke-width="1"/><path d="M575 240 l138 -69.0" stroke="#fff" stroke-opacity="0.04" stroke-width="1"/><path d="M1029 312 l41 -20.5" stroke="#fff" stroke-opacity="0.07" stroke-width="1"/><path d="M422 56 l24 -12.0" stroke="#fff" stroke-opacity="0.07" stroke-width="1"/><path d="M811 77 l149 -74.5" stroke="#fff" stroke-opacity="0.09" stroke-width="1"/><path d="M1212 286 l105 -52.5" stroke="#fff" stroke-opacity="0.05" stroke-width="1"/><path d="M824 186 l75 -37.5" stroke="#fff" stroke-opacity="0.04" stroke-width="1"/><path d="M1422 431 l154 -77.0" stroke="#fff" stroke-opacity="0.07" stroke-width="1"/><path d="M1206 398 l61 -30.5" stroke="#fff" stroke-opacity="0.05" stroke-width="1"/><path d="M1472 479 l20 -10.0" stroke="#fff" stroke-opacity="0.07" stroke-width="1"/><path d="M1507 427 l31 -15.5" stroke="#fff" stroke-opacity="0.04" stroke-width="1"/><path d="M1300 118 l65 -32.5" stroke="#fff" stroke-opacity="0.04" stroke-width="1"/><path d="M445 204 l149 -74.5" stroke="#fff" stroke-opacity="0.03" stroke-width="1"/><path d="M1419 161 l100 -50.0" stroke="#fff" stroke-opacity="0.05" stroke-width="1"/><path d="M693 449 l30 -15.0" stroke="#fff" stroke-opacity="0.03" stroke-width="1"/><path d="M995 80 l107 -53.5" stroke="#fff" stroke-opacity="0.06" stroke-width="1"/><path d="M1298 68 l56 -28.0" stroke="#fff" stroke-opacity="0.03" stroke-width="1"/><path d="M1163 250 l69 -34.5" stroke="#fff" stroke-opacity="0.05" stroke-width="1"/><path d="M357 87 l77 -38.5" stroke="#fff" stroke-opacity="0.07" stroke-width="1"/><path d="M1574 190 l151 -75.5" stroke="#fff" stroke-opacity="0.03" stroke-width="1"/><path d="M72 97 l81 -40.5" stroke="#fff" stroke-opacity="0.05" stroke-width="1"/><path d="M562 217 l40 -20.0" stroke="#fff" stroke-opacity="0.04" stroke-width="1"/><path d="M1336 316 l157 -78.5" stroke="#fff" stroke-opacity="0.08" stroke-width="1"/><path d="M721 462 l136 -68.0" stroke="#fff" stroke-opacity="0.03" stroke-width="1"/><path d="M959 89 l85 -42.5" stroke="#fff" stroke-opacity="0.08" stroke-width="1"/><path d="M139 383 l22 -11.0" stroke="#fff" stroke-opacity="0.06" stroke-width="1"/><path d="M643 131 l138 -69.0" stroke="#fff" stroke-opacity="0.05" stroke-width="1"/><path d="M1145 259 l144 -72.0" stroke="#fff" stroke-opacity="0.06" stroke-width="1"/><path d="M169 212 l69 -34.5" stroke="#fff" stroke-opacity="0.08" stroke-width="1"/><path d="M1153 327 l58 -29.0" stroke="#fff" stroke-opacity="0.09" stroke-width="1"/><path d="M906 344 l73 -36.5" stroke="#fff" stroke-opacity="0.04" stroke-width="1"/><path d="M1344 236 l154 -77.0" stroke="#fff" stroke-opacity="0.04" stroke-width="1"/><path d="M1062 117 l118 -59.0" stroke="#fff" stroke-opacity="0.03" stroke-width="1"/><path d="M1460 224 l159 -79.5" stroke="#fff" stroke-opacity="0.09" stroke-width="1"/><path d="M1269 231 l49 -24.5" stroke="#fff" stroke-opacity="0.08" stroke-width="1"/><path d="M1347 443 l65 -32.5" stroke="#fff" stroke-opacity="0.04" stroke-width="1"/><path d="M49 359 l140 -70.0" stroke="#fff" stroke-opacity="0.08" stroke-width="1"/><path d="M145 466 l94 -47.0" stroke="#fff" stroke-opacity="0.03" stroke-width="1"/><path d="M564 299 l26 -13.0" stroke="#fff" stroke-opacity="0.07" stroke-width="1"/><path d="M1169 432 l24 -12.0" stroke="#fff" stroke-opacity="0.05" stroke-width="1"/><path d="M451 462 l123 -61.5" stroke="#fff" stroke-opacity="0.07" stroke-width="1"/><path d="M895 370 l53 -26.5" stroke="#fff" stroke-opacity="0.04" stroke-width="1"/><path d="M404 209 l55 -27.5" stroke="#fff" stroke-opacity="0.03" stroke-width="1"/><path d="M895 290 l86 -43.0" stroke="#fff" stroke-opacity="0.07" stroke-width="1"/><path d="M1137 64 l66 -33.0" stroke="#fff" stroke-opacity="0.06" stroke-width="1"/><path d="M1288 67 l132 -66.0" stroke="#fff" stroke-opacity="0.09" stroke-width="1"/><path d="M1059 251 l43 -21.5" stroke="#fff" stroke-opacity="0.07" stroke-width="1"/><path d="M652 317 l53 -26.5" stroke="#fff" stroke-opacity="0.09" stroke-width="1"/><path d="M1515 169 l99 -49.5" stroke="#fff" stroke-opacity="0.06" stroke-width="1"/></g>
  <g transform="translate(64,64)">
    <rect x="-24" y="-22" rx="24" ry="24" width="620" height="168" fill="#ffffff" fill-opacity="0.72" stroke="#2563eb" stroke-opacity="0.18"/>
    <text x="0" y="30" fill="#0f172a" font-family="Inter, Arial, sans-serif" font-size="40" font-weight="800">Community Board Bg Light</text>
    <text x="0" y="80" fill="#64748b" font-family="Inter, Arial, sans-serif" font-size="22">LIGHT · community</text>
    <text x="0" y="120" fill="#64748b" font-family="Inter, Arial, sans-serif" font-size="18">K-LOL.GG theme asset placeholder</text>
  </g>
</svg>