<svg xmlns="http://www.w3.org/2000/svg" width="1600" height="500" viewBox="0 0 1600 500" role="img" aria-label="Match Detail Banner Light">
  <defs>
    <linearGradient id="bg" x1="0" y1="0" x2="1" y2="1"><stop offset="0%" stop-color="#ffffff"/><stop offset="50%" stop-color="#eff6ff"/><stop offset="100%" stop-color="#f8fafc"/></linearGradient>
    <radialGradient id="glow" cx="50%" cy="38%" r="70%"><stop offset="0%" stop-color="#2563eb" stop-opacity="0.22"/><stop offset="40%" stop-color="#2563eb" stop-opacity="0.08"/><stop offset="100%" stop-color="#2563eb" stop-opacity="0"/></radialGradient>
    <pattern id="grid" width="48" height="48" patternUnits="userSpaceOnUse">
      <path d="M48 0H0V48" fill="none" stroke="#ffffff" stroke-opacity="0.20" stroke-width="1"/>
    </pattern>
  </defs>
  <rect width="1600" height="500" fill="url(#bg)"/>
  <rect width="1600" height="500" fill="url(#grid)"/>
  <rect x="-120" y="-120" width="1840" height="740" fill="url(#glow)"/>
  <path d="M0 360 C 320 300, 576 450, 864 360 S 1280 230, 1600 300" fill="none" stroke="#2563eb" stroke-opacity="0.16" stroke-width="7"/>
  
        <g opacity="0.38">
          <path d="M320.0 400.0 L1280.0 100.0" stroke="#2563eb" stroke-width="10" stroke-linecap="round"/>
          <path d="M288.0 90.0 L1312.0 410.0" stroke="#2563eb" stroke-width="5" stroke-linecap="round" opacity=".55"/>
          <path d="M800.0 50.0 L800.0 450.0" stroke="#fff" stroke-opacity=".14" stroke-width="2"/>
          <circle cx="800.0" cy="250.0" r="78" fill="none" stroke="#2563eb" stroke-width="8" opacity=".65"/>
        </g>
  <g transform="translate(64,64)">
    <rect x="-24" y="-22" rx="24" ry="24" width="620" height="168" fill="#ffffff" fill-opacity="0.72" stroke="#2563eb" stroke-opacity="0.18"/>
    <text x="0" y="30" fill="#0f172a" font-family="Inter, Arial, sans-serif" font-size="40" font-weight="800">Match Detail Banner Light</text>
    <text x="0" y="80" fill="#64748b" font-family="Inter, Arial, sans-serif" font-size="22">LIGHT · matches</text>
    <text x="0" y="120" fill="#64748b" font-family="Inter, Arial, sans-serif" font-size="18">K-LOL.GG theme asset placeholder</text>
  </g>
</svg>