<svg xmlns="http://www.w3.org/2000/svg" width="1000" height="300" viewBox="0 0 1000 300" role="img" aria-label="Match Row Watermark Light">
  <defs>
    <linearGradient id="bg" x1="0" y1="0" x2="1" y2="1"><stop offset="0%" stop-color="#ffffff"/><stop offset="50%" stop-color="#eff6ff"/><stop offset="100%" stop-color="#f8fafc"/></linearGradient>
    <radialGradient id="glow" cx="50%" cy="38%" r="70%"><stop offset="0%" stop-color="#2563eb" stop-opacity="0.22"/><stop offset="40%" stop-color="#2563eb" stop-opacity="0.08"/><stop offset="100%" stop-color="#2563eb" stop-opacity="0"/></radialGradient>
    <pattern id="grid" width="48" height="48" patternUnits="userSpaceOnUse">
      <path d="M48 0H0V48" fill="none" stroke="#ffffff" stroke-opacity="0.20" stroke-width="1"/>
    </pattern>
  </defs>
  <rect width="1000" height="300" fill="url(#bg)"/>
  <rect width="1000" height="300" fill="url(#grid)"/>
  <rect x="-120" y="-120" width="1240" height="540" fill="url(#glow)"/>
  <path d="M0 216 C 200 180, 360 270, 540 216 S 800 138, 1000 180" fill="none" stroke="#2563eb" stroke-opacity="0.16" stroke-width="7"/>
  <g><path d="M297 52 l142 -71.0" stroke="#fff" stroke-opacity="0.04" stroke-width="1"/><path d="M595 135 l58 -29.0" stroke="#fff" stroke-opacity="0.08" stroke-width="1"/><path d="M601 266 l140 -70.0" stroke="#fff" stroke-opacity="0.09" stroke-width="1"/><path d="M155 49 l145 -72.5" stroke="#fff" stroke-opacity="0.09" stroke-width="1"/><path d="M257 92 l107 -53.5" stroke="#fff" stroke-opacity="0.08" stroke-width="1"/><path d="M968 163 l156 -78.0" stroke="#fff" stroke-opacity="0.03" stroke-width="1"/><path d="M891 232 l94 -47.0" stroke="#fff" stroke-opacity="0.09" stroke-width="1"/><path d="M558 181 l75 -37.5" stroke="#fff" stroke-opacity="0.04" stroke-width="1"/><path d="M344 57 l54 -27.0" stroke="#fff" stroke-opacity="0.07" stroke-width="1"/><path d="M105 80 l75 -37.5" stroke="#fff" stroke-opacity="0.04" stroke-width="1"/><path d="M680 299 l93 -46.5" stroke="#fff" stroke-opacity="0.05" stroke-width="1"/><path d="M198 108 l79 -39.5" stroke="#fff" stroke-opacity="0.05" stroke-width="1"/><path d="M996 58 l46 -23.0" stroke="#fff" stroke-opacity="0.06" stroke-width="1"/><path d="M24 218 l31 -15.5" stroke="#fff" stroke-opacity="0.09" stroke-width="1"/><path d="M960 274 l150 -75.0" stroke="#fff" stroke-opacity="0.03" stroke-width="1"/><path d="M703 27 l103 -51.5" stroke="#fff" stroke-opacity="0.08" stroke-width="1"/><path d="M151 239 l62 -31.0" stroke="#fff" stroke-opacity="0.04" stroke-width="1"/><path d="M484 96 l58 -29.0" stroke="#fff" stroke-opacity="0.07" stroke-width="1"/><path d="M853 81 l152 -76.0" stroke="#fff" stroke-opacity="0.03" stroke-width="1"/><path d="M571 119 l136 -68.0" stroke="#fff" stroke-opacity="0.06" stroke-width="1"/><path d="M744 162 l147 -73.5" stroke="#fff" stroke-opacity="0.03" stroke-width="1"/><path d="M507 67 l158 -79.0" stroke="#fff" stroke-opacity="0.04" stroke-width="1"/><path d="M219 44 l99 -49.5" stroke="#fff" stroke-opacity="0.06" stroke-width="1"/><path d="M196 184 l100 -50.0" stroke="#fff" stroke-opacity="0.05" stroke-width="1"/><path d="M696 239 l119 -59.5" stroke="#fff" stroke-opacity="0.08" stroke-width="1"/><path d="M509 291 l145 -72.5" stroke="#fff" stroke-opacity="0.05" stroke-width="1"/><path d="M20 22 l46 -23.0" stroke="#fff" stroke-opacity="0.07" stroke-width="1"/><path d="M354 110 l30 -15.0" stroke="#fff" stroke-opacity="0.07" stroke-width="1"/><path d="M931 83 l67 -33.5" stroke="#fff" stroke-opacity="0.03" stroke-width="1"/><path d="M992 56 l138 -69.0" stroke="#fff" stroke-opacity="0.07" stroke-width="1"/><path d="M577 40 l117 -58.5" stroke="#fff" stroke-opacity="0.04" stroke-width="1"/><path d="M30 41 l59 -29.5" stroke="#fff" stroke-opacity="0.09" stroke-width="1"/><path d="M135 92 l150 -75.0" stroke="#fff" stroke-opacity="0.06" stroke-width="1"/><path d="M188 32 l24 -12.0" stroke="#fff" stroke-opacity="0.06" stroke-width="1"/><path d="M804 286 l110 -55.0" stroke="#fff" stroke-opacity="0.05" stroke-width="1"/><path d="M623 5 l55 -27.5" stroke="#fff" stroke-opacity="0.06" stroke-width="1"/><path d="M897 243 l159 -79.5" stroke="#fff" stroke-opacity="0.03" stroke-width="1"/><path d="M882 25 l129 -64.5" stroke="#fff" stroke-opacity="0.09" stroke-width="1"/><path d="M29 283 l102 -51.0" stroke="#fff" stroke-opacity="0.03" stroke-width="1"/><path d="M675 240 l131 -65.5" stroke="#fff" stroke-opacity="0.04" stroke-width="1"/><path d="M747 268 l113 -56.5" stroke="#fff" stroke-opacity="0.05" stroke-width="1"/><path d="M332 31 l90 -45.0" stroke="#fff" stroke-opacity="0.08" stroke-width="1"/><path d="M671 223 l61 -30.5" stroke="#fff" stroke-opacity="0.08" stroke-width="1"/><path d="M292 59 l151 -75.5" stroke="#fff" stroke-opacity="0.03" stroke-width="1"/><path d="M911 76 l97 -48.5" stroke="#fff" stroke-opacity="0.05" stroke-width="1"/><path d="M396 119 l86 -43.0" stroke="#fff" stroke-opacity="0.04" stroke-width="1"/><path d="M261 58 l35 -17.5" stroke="#fff" stroke-opacity="0.07" stroke-width="1"/><path d="M643 8 l158 -79.0" stroke="#fff" stroke-opacity="0.05" stroke-width="1"/><path d="M137 26 l109 -54.5" stroke="#fff" stroke-opacity="0.07" stroke-width="1"/><path d="M418 240 l109 -54.5" stroke="#fff" stroke-opacity="0.07" stroke-width="1"/><path d="M515 108 l102 -51.0" stroke="#fff" stroke-opacity="0.08" stroke-width="1"/><path d="M585 64 l88 -44.0" stroke="#fff" stroke-opacity="0.03" stroke-width="1"/><path d="M783 164 l157 -78.5" stroke="#fff" stroke-opacity="0.08" stroke-width="1"/><path d="M949 73 l86 -43.0" stroke="#fff" stroke-opacity="0.07" stroke-width="1"/><path d="M467 238 l118 -59.0" stroke="#fff" stroke-opacity="0.05" stroke-width="1"/><path d="M479 121 l26 -13.0" stroke="#fff" stroke-opacity="0.08" stroke-width="1"/><path d="M754 234 l47 -23.5" stroke="#fff" stroke-opacity="0.05" stroke-width="1"/><path d="M710 118 l26 -13.0" stroke="#fff" stroke-opacity="0.03" stroke-width="1"/><path d="M698 147 l60 -30.0" stroke="#fff" stroke-opacity="0.07" stroke-width="1"/><path d="M276 45 l135 -67.5" stroke="#fff" stroke-opacity="0.07" stroke-width="1"/><path d="M239 143 l147 -73.5" stroke="#fff" stroke-opacity="0.08" stroke-width="1"/><path d="M552 68 l52 -26.0" stroke="#fff" stroke-opacity="0.09" stroke-width="1"/><path d="M304 173 l122 -61.0" stroke="#fff" stroke-opacity="0.09" stroke-width="1"/><path d="M199 18 l83 -41.5" stroke="#fff" stroke-opacity="0.05" stroke-width="1"/><path d="M275 256 l155 -77.5" stroke="#fff" stroke-opacity="0.03" stroke-width="1"/><path d="M816 228 l29 -14.5" stroke="#fff" stroke-opacity="0.06" stroke-width="1"/><path d="M333 112 l126 -63.0" stroke="#fff" stroke-opacity="0.05" stroke-width="1"/><path d="M33 141 l114 -57.0" stroke="#fff" stroke-opacity="0.07" stroke-width="1"/><path d="M269 208 l56 -28.0" stroke="#fff" stroke-opacity="0.06" stroke-width="1"/><path d="M276 115 l69 -34.5" stroke="#fff" stroke-opacity="0.05" stroke-width="1"/><path d="M755 147 l23 -11.5" stroke="#fff" stroke-opacity="0.05" stroke-width="1"/><path d="M363 8 l33 -16.5" stroke="#fff" stroke-opacity="0.06" stroke-width="1"/><path d="M190 250 l62 -31.0" stroke="#fff" stroke-opacity="0.04" stroke-width="1"/><path d="M214 166 l72 -36.0" stroke="#fff" stroke-opacity="0.03" stroke-width="1"/><path d="M434 275 l24 -12.0" stroke="#fff" stroke-opacity="0.05" stroke-width="1"/><path d="M663 124 l103 -51.5" stroke="#fff" stroke-opacity="0.04" stroke-width="1"/><path d="M401 126 l149 -74.5" stroke="#fff" stroke-opacity="0.05" stroke-width="1"/><path d="M685 169 l156 -78.0" stroke="#fff" stroke-opacity="0.09" stroke-width="1"/><path d="M405 180 l156 -78.0" stroke="#fff" stroke-opacity="0.08" stroke-width="1"/><path d="M402 245 l73 -36.5" stroke="#fff" stroke-opacity="0.05" stroke-width="1"/><path d="M482 67 l21 -10.5" stroke="#fff" stroke-opacity="0.03" stroke-width="1"/><path d="M951 244 l116 -58.0" stroke="#fff" stroke-opacity="0.04" stroke-width="1"/><path d="M766 68 l147 -73.5" stroke="#fff" stroke-opacity="0.06" stroke-width="1"/><path d="M171 255 l105 -52.5" stroke="#fff" stroke-opacity="0.06" stroke-width="1"/><path d="M32 260 l131 -65.5" stroke="#fff" stroke-opacity="0.04" stroke-width="1"/><path d="M232 148 l115 -57.5" stroke="#fff" stroke-opacity="0.09" stroke-width="1"/><path d="M775 10 l64 -32.0" stroke="#fff" stroke-opacity="0.07" stroke-width="1"/><path d="M451 167 l60 -30.0" stroke="#fff" stroke-opacity="0.05" stroke-width="1"/><path d="M47 287 l28 -14.0" stroke="#fff" stroke-opacity="0.07" stroke-width="1"/><path d="M51 224 l68 -34.0" stroke="#fff" stroke-opacity="0.03" stroke-width="1"/><path d="M905 71 l121 -60.5" stroke="#fff" stroke-opacity="0.03" stroke-width="1"/><path d="M171 103 l155 -77.5" stroke="#fff" stroke-opacity="0.05" stroke-width="1"/><path d="M269 97 l81 -40.5" stroke="#fff" stroke-opacity="0.03" stroke-width="1"/><path d="M239 66 l27 -13.5" stroke="#fff" stroke-opacity="0.06" stroke-width="1"/><path d="M32 96 l158 -79.0" stroke="#fff" stroke-opacity="0.07" stroke-width="1"/><path d="M284 58 l58 -29.0" stroke="#fff" stroke-opacity="0.07" stroke-width="1"/><path d="M466 220 l73 -36.5" stroke="#fff" stroke-opacity="0.06" stroke-width="1"/><path d="M353 17 l77 -38.5" stroke="#fff" stroke-opacity="0.03" stroke-width="1"/><path d="M747 58 l56 -28.0" stroke="#fff" stroke-opacity="0.04" stroke-width="1"/><path d="M436 209 l107 -53.5" stroke="#fff" stroke-opacity="0.07" stroke-width="1"/><path d="M52 82 l100 -50.0" stroke="#fff" stroke-opacity="0.05" stroke-width="1"/><path d="M668 139 l57 -28.5" stroke="#fff" stroke-opacity="0.07" stroke-width="1"/><path d="M280 65 l145 -72.5" stroke="#fff" stroke-opacity="0.06" stroke-width="1"/><path d="M759 167 l44 -22.0" stroke="#fff" stroke-opacity="0.07" stroke-width="1"/><path d="M460 246 l22 -11.0" stroke="#fff" stroke-opacity="0.08" stroke-width="1"/><path d="M289 275 l158 -79.0" stroke="#fff" stroke-opacity="0.05" stroke-width="1"/><path d="M307 258 l60 -30.0" stroke="#fff" stroke-opacity="0.07" stroke-width="1"/><path d="M690 5 l41 -20.5" stroke="#fff" stroke-opacity="0.09" stroke-width="1"/><path d="M511 84 l115 -57.5" stroke="#fff" stroke-opacity="0.06" stroke-width="1"/><path d="M243 24 l135 -67.5" stroke="#fff" stroke-opacity="0.07" stroke-width="1"/><path d="M177 42 l80 -40.0" stroke="#fff" stroke-opacity="0.05" stroke-width="1"/><path d="M191 187 l160 -80.0" stroke="#fff" stroke-opacity="0.08" stroke-width="1"/><path d="M492 109 l87 -43.5" stroke="#fff" stroke-opacity="0.06" stroke-width="1"/><path d="M754 251 l123 -61.5" stroke="#fff" stroke-opacity="0.06" stroke-width="1"/><path d="M643 75 l131 -65.5" stroke="#fff" stroke-opacity="0.09" stroke-width="1"/><path d="M569 127 l24 -12.0" stroke="#fff" stroke-opacity="0.06" stroke-width="1"/><path d="M632 176 l39 -19.5" stroke="#fff" stroke-opacity="0.03" stroke-width="1"/><path d="M642 286 l152 -76.0" stroke="#fff" stroke-opacity="0.04" stroke-width="1"/><path d="M700 174 l101 -50.5" stroke="#fff" stroke-opacity="0.06" stroke-width="1"/><path d="M907 210 l99 -49.5" stroke="#fff" stroke-opacity="0.03" stroke-width="1"/></g>
  <g transform="translate(64,64)">
    <rect x="-24" y="-22" rx="24" ry="24" width="620" height="168" fill="#ffffff" fill-opacity="0.72" stroke="#2563eb" stroke-opacity="0.18"/>
    <text x="0" y="30" fill="#0f172a" font-family="Inter, Arial, sans-serif" font-size="40" font-weight="800">Match Row Watermark Light</text>
    <text x="0" y="80" fill="#64748b" font-family="Inter, Arial, sans-serif" font-size="22">LIGHT · matches</text>
    <text x="0" y="120" fill="#64748b" font-family="Inter, Arial, sans-serif" font-size="18">K-LOL.GG theme asset placeholder</text>
  </g>
</svg>