<svg xmlns="http://www.w3.org/2000/svg" width="1200" height="400" viewBox="0 0 1200 400" role="img" aria-label="Match Victory Blue Light">
  <defs>
    <linearGradient id="bg" x1="0" y1="0" x2="1" y2="1"><stop offset="0%" stop-color="#ffffff"/><stop offset="50%" stop-color="#eff6ff"/><stop offset="100%" stop-color="#f8fafc"/></linearGradient>
    <radialGradient id="glow" cx="50%" cy="38%" r="70%"><stop offset="0%" stop-color="#2563eb" stop-opacity="0.22"/><stop offset="40%" stop-color="#2563eb" stop-opacity="0.08"/><stop offset="100%" stop-color="#2563eb" stop-opacity="0"/></radialGradient>
    <pattern id="grid" width="48" height="48" patternUnits="userSpaceOnUse">
      <path d="M48 0H0V48" fill="none" stroke="#ffffff" stroke-opacity="0.20" stroke-width="1"/>
    </pattern>
  </defs>
  <rect width="1200" height="400" fill="url(#bg)"/>
  <rect width="1200" height="400" fill="url(#grid)"/>
  <rect x="-120" y="-120" width="1440" height="640" fill="url(#glow)"/>
  <path d="M0 288 C 240 240, 432 360, 648 288 S 960 184, 1200 240" fill="none" stroke="#2563eb" stroke-opacity="0.16" stroke-width="7"/>
  <g><circle cx="715" cy="214" r="1" fill="#2563eb" opacity="0.22"/><circle cx="1046" cy="315" r="1" fill="#2563eb" opacity="0.14"/><circle cx="331" cy="371" r="3" fill="#2563eb" opacity="0.13"/><circle cx="884" cy="360" r="2" fill="#2563eb" opacity="0.14"/><circle cx="1037" cy="7" r="3" fill="#2563eb" opacity="0.14"/><circle cx="537" cy="173" r="1" fill="#2563eb" opacity="0.22"/><circle cx="281" cy="148" r="4" fill="#2563eb" opacity="0.21"/><circle cx="107" cy="287" r="1" fill="#2563eb" opacity="0.08"/><circle cx="1115" cy="234" r="1" fill="#2563eb" opacity="0.09"/><circle cx="790" cy="57" r="2" fill="#2563eb" opacity="0.23"/><circle cx="36" cy="289" r="5" fill="#2563eb" opacity="0.11"/><circle cx="877" cy="273" r="5" fill="#2563eb" opacity="0.24"/><circle cx="510" cy="298" r="5" fill="#2563eb" opacity="0.15"/><circle cx="23" cy="259" r="2" fill="#2563eb" opacity="0.24"/><circle cx="358" cy="48" r="5" fill="#2563eb" opacity="0.14"/><circle cx="1097" cy="178" r="4" fill="#2563eb" opacity="0.14"/><circle cx="527" cy="372" r="4" fill="#2563eb" opacity="0.16"/><circle cx="353" cy="195" r="1" fill="#2563eb" opacity="0.21"/><circle cx="289" cy="287" r="1" fill="#2563eb" opacity="0.12"/><circle cx="81" cy="107" r="2" fill="#2563eb" opacity="0.10"/><circle cx="343" cy="324" r="3" fill="#2563eb" opacity="0.16"/><circle cx="1135" cy="120" r="4" fill="#2563eb" opacity="0.20"/><circle cx="1063" cy="240" r="2" fill="#2563eb" opacity="0.14"/><circle cx="979" cy="356" r="1" fill="#2563eb" opacity="0.18"/><circle cx="571" cy="380" r="3" fill="#2563eb" opacity="0.12"/><circle cx="810" cy="217" r="5" fill="#2563eb" opacity="0.16"/><circle cx="167" cy="280" r="4" fill="#2563eb" opacity="0.09"/><circle cx="884" cy="16" r="5" fill="#2563eb" opacity="0.20"/><circle cx="933" cy="202" r="4" fill="#2563eb" opacity="0.16"/><circle cx="57" cy="91" r="1" fill="#2563eb" opacity="0.10"/><circle cx="30" cy="222" r="5" fill="#2563eb" opacity="0.25"/><circle cx="993" cy="291" r="4" fill="#2563eb" opacity="0.10"/><circle cx="134" cy="91" r="2" fill="#2563eb" opacity="0.24"/><circle cx="581" cy="175" r="5" fill="#2563eb" opacity="0.12"/><circle cx="324" cy="115" r="1" fill="#2563eb" opacity="0.24"/><circle cx="73" cy="311" r="4" fill="#2563eb" opacity="0.18"/><circle cx="53" cy="361" r="1" fill="#2563eb" opacity="0.11"/><circle cx="526" cy="155" r="3" fill="#2563eb" opacity="0.22"/><circle cx="150" cy="65" r="2" fill="#2563eb" opacity="0.15"/><circle cx="111" cy="390" r="5" fill="#2563eb" opacity="0.15"/><circle cx="627" cy="189" r="4" fill="#2563eb" opacity="0.21"/><circle cx="339" cy="3" r="1" fill="#2563eb" opacity="0.11"/><circle cx="1147" cy="246" r="5" fill="#2563eb" opacity="0.22"/><circle cx="1079" cy="253" r="1" fill="#2563eb" opacity="0.11"/><circle cx="784" cy="143" r="4" fill="#2563eb" opacity="0.13"/><circle cx="1074" cy="343" r="4" fill="#2563eb" opacity="0.25"/><circle cx="745" cy="190" r="4" fill="#2563eb" opacity="0.09"/><circle cx="540" cy="291" r="2" fill="#2563eb" opacity="0.12"/><circle cx="764" cy="0" r="3" fill="#2563eb" opacity="0.11"/><circle cx="853" cy="319" r="3" fill="#2563eb" opacity="0.24"/><circle cx="695" cy="64" r="2" fill="#2563eb" opacity="0.11"/><circle cx="657" cy="343" r="2" fill="#2563eb" opacity="0.25"/><circle cx="277" cy="349" r="2" fill="#2563eb" opacity="0.22"/><circle cx="275" cy="358" r="5" fill="#2563eb" opacity="0.11"/><circle cx="1064" cy="75" r="5" fill="#2563eb" opacity="0.09"/><circle cx="414" cy="153" r="2" fill="#2563eb" opacity="0.23"/><circle cx="562" cy="236" r="1" fill="#2563eb" opacity="0.15"/><circle cx="730" cy="304" r="3" fill="#2563eb" opacity="0.13"/><circle cx="1008" cy="131" r="3" fill="#2563eb" opacity="0.10"/><circle cx="89" cy="321" r="4" fill="#2563eb" opacity="0.22"/><circle cx="946" cy="111" r="1" fill="#2563eb" opacity="0.13"/><circle cx="336" cy="321" r="2" fill="#2563eb" opacity="0.15"/><circle cx="535" cy="397" r="3" fill="#2563eb" opacity="0.19"/><circle cx="182" cy="114" r="4" fill="#2563eb" opacity="0.24"/><circle cx="1193" cy="42" r="1" fill="#2563eb" opacity="0.17"/><circle cx="34" cy="104" r="2" fill="#2563eb" opacity="0.17"/><circle cx="408" cy="7" r="3" fill="#2563eb" opacity="0.12"/><circle cx="449" cy="245" r="3" fill="#2563eb" opacity="0.09"/><circle cx="393" cy="332" r="1" fill="#2563eb" opacity="0.24"/><circle cx="446" cy="291" r="4" fill="#2563eb" opacity="0.18"/><circle cx="936" cy="290" r="2" fill="#2563eb" opacity="0.15"/><circle cx="648" cy="324" r="3" fill="#2563eb" opacity="0.21"/><circle cx="280" cy="134" r="1" fill="#2563eb" opacity="0.11"/><circle cx="965" cy="315" r="2" fill="#2563eb" opacity="0.16"/><circle cx="581" cy="97" r="2" fill="#2563eb" opacity="0.19"/><circle cx="156" cy="170" r="1" fill="#2563eb" opacity="0.21"/><circle cx="961" cy="385" r="3" fill="#2563eb" opacity="0.08"/><circle cx="445" cy="271" r="3" fill="#2563eb" opacity="0.16"/><circle cx="308" cy="0" r="3" fill="#2563eb" opacity="0.22"/><circle cx="314" cy="328" r="4" fill="#2563eb" opacity="0.19"/><circle cx="524" cy="72" r="1" fill="#2563eb" opacity="0.20"/><circle cx="565" cy="309" r="4" fill="#2563eb" opacity="0.19"/><circle cx="1019" cy="249" r="2" fill="#2563eb" opacity="0.13"/><circle cx="914" cy="36" r="4" fill="#2563eb" opacity="0.16"/><circle cx="382" cy="14" r="4" fill="#2563eb" opacity="0.09"/><circle cx="82" cy="313" r="1" fill="#2563eb" opacity="0.21"/><circle cx="345" cy="190" r="5" fill="#2563eb" opacity="0.11"/><circle cx="55" cy="253" r="4" fill="#2563eb" opacity="0.12"/><circle cx="650" cy="225" r="1" fill="#2563eb" opacity="0.21"/><circle cx="130" cy="389" r="2" fill="#2563eb" opacity="0.25"/></g>
  <g transform="translate(64,64)">
    <rect x="-24" y="-22" rx="24" ry="24" width="620" height="168" fill="#ffffff" fill-opacity="0.72" stroke="#2563eb" stroke-opacity="0.18"/>
    <text x="0" y="30" fill="#0f172a" font-family="Inter, Arial, sans-serif" font-size="40" font-weight="800">Match Victory Blue Light</text>
    <text x="0" y="80" fill="#64748b" font-family="Inter, Arial, sans-serif" font-size="22">LIGHT · matches</text>
    <text x="0" y="120" fill="#64748b" font-family="Inter, Arial, sans-serif" font-size="18">K-LOL.GG theme asset placeholder</text>
  </g>
</svg>