<svg xmlns="http://www.w3.org/2000/svg" width="1200" height="400" viewBox="0 0 1200 400" role="img" aria-label="Match Victory Red Light">
  <defs>
    <linearGradient id="bg" x1="0" y1="0" x2="1" y2="1"><stop offset="0%" stop-color="#ffffff"/><stop offset="50%" stop-color="#eff6ff"/><stop offset="100%" stop-color="#f8fafc"/></linearGradient>
    <radialGradient id="glow" cx="50%" cy="38%" r="70%"><stop offset="0%" stop-color="#2563eb" stop-opacity="0.22"/><stop offset="40%" stop-color="#2563eb" stop-opacity="0.08"/><stop offset="100%" stop-color="#2563eb" stop-opacity="0"/></radialGradient>
    <pattern id="grid" width="48" height="48" patternUnits="userSpaceOnUse">
      <path d="M48 0H0V48" fill="none" stroke="#ffffff" stroke-opacity="0.20" stroke-width="1"/>
    </pattern>
  </defs>
  <rect width="1200" height="400" fill="url(#bg)"/>
  <rect width="1200" height="400" fill="url(#grid)"/>
  <rect x="-120" y="-120" width="1440" height="640" fill="url(#glow)"/>
  <path d="M0 288 C 240 240, 432 360, 648 288 S 960 184, 1200 240" fill="none" stroke="#2563eb" stroke-opacity="0.16" stroke-width="7"/>
  <g><circle cx="702" cy="168" r="2" fill="#2563eb" opacity="0.13"/><circle cx="588" cy="361" r="1" fill="#2563eb" opacity="0.20"/><circle cx="897" cy="376" r="3" fill="#2563eb" opacity="0.17"/><circle cx="656" cy="346" r="1" fill="#2563eb" opacity="0.17"/><circle cx="1150" cy="398" r="5" fill="#2563eb" opacity="0.14"/><circle cx="73" cy="269" r="3" fill="#2563eb" opacity="0.11"/><circle cx="479" cy="21" r="1" fill="#2563eb" opacity="0.25"/><circle cx="127" cy="326" r="2" fill="#2563eb" opacity="0.24"/><circle cx="379" cy="386" r="1" fill="#2563eb" opacity="0.15"/><circle cx="963" cy="92" r="5" fill="#2563eb" opacity="0.16"/><circle cx="685" cy="88" r="1" fill="#2563eb" opacity="0.12"/><circle cx="1075" cy="371" r="1" fill="#2563eb" opacity="0.25"/><circle cx="19" cy="109" r="2" fill="#2563eb" opacity="0.09"/><circle cx="451" cy="8" r="2" fill="#2563eb" opacity="0.16"/><circle cx="811" cy="390" r="3" fill="#2563eb" opacity="0.16"/><circle cx="235" cy="363" r="4" fill="#2563eb" opacity="0.19"/><circle cx="943" cy="188" r="2" fill="#2563eb" opacity="0.11"/><circle cx="107" cy="184" r="3" fill="#2563eb" opacity="0.18"/><circle cx="1053" cy="249" r="1" fill="#2563eb" opacity="0.09"/><circle cx="103" cy="205" r="2" fill="#2563eb" opacity="0.15"/><circle cx="773" cy="36" r="1" fill="#2563eb" opacity="0.19"/><circle cx="549" cy="85" r="3" fill="#2563eb" opacity="0.24"/><circle cx="725" cy="306" r="4" fill="#2563eb" opacity="0.12"/><circle cx="430" cy="204" r="1" fill="#2563eb" opacity="0.19"/><circle cx="478" cy="228" r="2" fill="#2563eb" opacity="0.21"/><circle cx="1038" cy="159" r="5" fill="#2563eb" opacity="0.10"/><circle cx="318" cy="165" r="5" fill="#2563eb" opacity="0.15"/><circle cx="53" cy="180" r="1" fill="#2563eb" opacity="0.14"/><circle cx="1057" cy="51" r="3" fill="#2563eb" opacity="0.20"/><circle cx="1077" cy="235" r="3" fill="#2563eb" opacity="0.15"/><circle cx="620" cy="281" r="1" fill="#2563eb" opacity="0.09"/><circle cx="143" cy="229" r="1" fill="#2563eb" opacity="0.14"/><circle cx="534" cy="293" r="4" fill="#2563eb" opacity="0.14"/><circle cx="966" cy="193" r="1" fill="#2563eb" opacity="0.21"/><circle cx="119" cy="43" r="4" fill="#2563eb" opacity="0.15"/><circle cx="416" cy="245" r="2" fill="#2563eb" opacity="0.16"/><circle cx="394" cy="230" r="5" fill="#2563eb" opacity="0.23"/><circle cx="64" cy="204" r="2" fill="#2563eb" opacity="0.23"/><circle cx="625" cy="310" r="1" fill="#2563eb" opacity="0.21"/><circle cx="540" cy="97" r="4" fill="#2563eb" opacity="0.18"/><circle cx="490" cy="375" r="4" fill="#2563eb" opacity="0.18"/><circle cx="228" cy="72" r="3" fill="#2563eb" opacity="0.11"/><circle cx="1005" cy="132" r="5" fill="#2563eb" opacity="0.18"/><circle cx="519" cy="244" r="3" fill="#2563eb" opacity="0.15"/><circle cx="502" cy="107" r="4" fill="#2563eb" opacity="0.18"/><circle cx="236" cy="26" r="5" fill="#2563eb" opacity="0.19"/><circle cx="31" cy="248" r="2" fill="#2563eb" opacity="0.19"/><circle cx="1086" cy="216" r="2" fill="#2563eb" opacity="0.20"/><circle cx="31" cy="42" r="3" fill="#2563eb" opacity="0.17"/><circle cx="196" cy="369" r="3" fill="#2563eb" opacity="0.13"/><circle cx="304" cy="371" r="1" fill="#2563eb" opacity="0.18"/><circle cx="723" cy="66" r="1" fill="#2563eb" opacity="0.17"/><circle cx="54" cy="276" r="3" fill="#2563eb" opacity="0.23"/><circle cx="260" cy="228" r="1" fill="#2563eb" opacity="0.23"/><circle cx="126" cy="368" r="5" fill="#2563eb" opacity="0.17"/><circle cx="1130" cy="143" r="3" fill="#2563eb" opacity="0.20"/><circle cx="11" cy="290" r="1" fill="#2563eb" opacity="0.13"/><circle cx="193" cy="117" r="4" fill="#2563eb" opacity="0.17"/><circle cx="123" cy="1" r="1" fill="#2563eb" opacity="0.14"/><circle cx="697" cy="384" r="4" fill="#2563eb" opacity="0.19"/><circle cx="243" cy="92" r="1" fill="#2563eb" opacity="0.11"/><circle cx="402" cy="6" r="2" fill="#2563eb" opacity="0.16"/><circle cx="624" cy="285" r="3" fill="#2563eb" opacity="0.15"/><circle cx="532" cy="39" r="3" fill="#2563eb" opacity="0.14"/><circle cx="645" cy="142" r="1" fill="#2563eb" opacity="0.09"/><circle cx="730" cy="117" r="3" fill="#2563eb" opacity="0.11"/><circle cx="151" cy="294" r="4" fill="#2563eb" opacity="0.18"/><circle cx="155" cy="358" r="5" fill="#2563eb" opacity="0.15"/><circle cx="683" cy="108" r="4" fill="#2563eb" opacity="0.24"/><circle cx="822" cy="372" r="4" fill="#2563eb" opacity="0.08"/><circle cx="130" cy="64" r="2" fill="#2563eb" opacity="0.12"/><circle cx="208" cy="106" r="4" fill="#2563eb" opacity="0.18"/><circle cx="675" cy="311" r="5" fill="#2563eb" opacity="0.15"/><circle cx="626" cy="317" r="1" fill="#2563eb" opacity="0.17"/><circle cx="660" cy="201" r="1" fill="#2563eb" opacity="0.12"/><circle cx="1037" cy="281" r="3" fill="#2563eb" opacity="0.13"/><circle cx="651" cy="190" r="4" fill="#2563eb" opacity="0.13"/><circle cx="872" cy="90" r="2" fill="#2563eb" opacity="0.25"/><circle cx="581" cy="306" r="3" fill="#2563eb" opacity="0.09"/><circle cx="410" cy="69" r="5" fill="#2563eb" opacity="0.14"/><circle cx="586" cy="294" r="5" fill="#2563eb" opacity="0.19"/><circle cx="754" cy="211" r="1" fill="#2563eb" opacity="0.22"/><circle cx="627" cy="356" r="4" fill="#2563eb" opacity="0.10"/><circle cx="792" cy="131" r="4" fill="#2563eb" opacity="0.12"/><circle cx="963" cy="399" r="3" fill="#2563eb" opacity="0.16"/><circle cx="683" cy="268" r="4" fill="#2563eb" opacity="0.19"/><circle cx="344" cy="3" r="1" fill="#2563eb" opacity="0.13"/><circle cx="763" cy="364" r="3" fill="#2563eb" opacity="0.19"/><circle cx="980" cy="235" r="4" fill="#2563eb" opacity="0.12"/><circle cx="409" cy="51" r="3" fill="#2563eb" opacity="0.09"/></g>
  <g transform="translate(64,64)">
    <rect x="-24" y="-22" rx="24" ry="24" width="620" height="168" fill="#ffffff" fill-opacity="0.72" stroke="#2563eb" stroke-opacity="0.18"/>
    <text x="0" y="30" fill="#0f172a" font-family="Inter, Arial, sans-serif" font-size="40" font-weight="800">Match Victory Red Light</text>
    <text x="0" y="80" fill="#64748b" font-family="Inter, Arial, sans-serif" font-size="22">LIGHT · matches</text>
    <text x="0" y="120" fill="#64748b" font-family="Inter, Arial, sans-serif" font-size="18">K-LOL.GG theme asset placeholder</text>
  </g>
</svg>