<svg xmlns="http://www.w3.org/2000/svg" width="1920" height="1080" viewBox="0 0 1920 1080" role="img" aria-label="Page Bg Depth">
  <defs>
    <linearGradient id="bg" x1="0" y1="0" x2="1" y2="1"><stop offset="0%" stop-color="#020617"/><stop offset="50%" stop-color="#07111f"/><stop offset="100%" stop-color="#0f172a"/></linearGradient>
    <radialGradient id="glow" cx="50%" cy="38%" r="70%"><stop offset="0%" stop-color="#3b82f6" stop-opacity="0.42"/><stop offset="40%" stop-color="#3b82f6" stop-opacity="0.14"/><stop offset="100%" stop-color="#3b82f6" stop-opacity="0"/></radialGradient>
    <pattern id="grid" width="48" height="48" patternUnits="userSpaceOnUse">
      <path d="M48 0H0V48" fill="none" stroke="#ffffff" stroke-opacity="0.10" stroke-width="1"/>
    </pattern>
  </defs>
  <rect width="1920" height="1080" fill="url(#bg)"/>
  <rect width="1920" height="1080" fill="url(#grid)"/>
  <rect x="-120" y="-120" width="2160" height="1320" fill="url(#glow)"/>
  <path d="M0 778 C 384 648, 691 972, 1037 778 S 1536 497, 1920 648" fill="none" stroke="#3b82f6" stroke-opacity="0.28" stroke-width="7"/>
  <g><circle cx="508" cy="1012" r="2" fill="#3b82f6" opacity="0.28"/><circle cx="445" cy="397" r="2" fill="#3b82f6" opacity="0.33"/><circle cx="1232" cy="236" r="3" fill="#3b82f6" opacity="0.44"/><circle cx="842" cy="145" r="4" fill="#3b82f6" opacity="0.14"/><circle cx="417" cy="232" r="3" fill="#3b82f6" opacity="0.26"/><circle cx="132" cy="611" r="3" fill="#3b82f6" opacity="0.14"/><circle cx="1464" cy="61" r="3" fill="#3b82f6" opacity="0.18"/><circle cx="1088" cy="430" r="4" fill="#3b82f6" opacity="0.17"/><circle cx="471" cy="612" r="1" fill="#3b82f6" opacity="0.46"/><circle cx="997" cy="201" r="1" fill="#3b82f6" opacity="0.51"/><circle cx="244" cy="978" r="3" fill="#3b82f6" opacity="0.32"/><circle cx="421" cy="418" r="5" fill="#3b82f6" opacity="0.51"/><circle cx="221" cy="111" r="5" fill="#3b82f6" opacity="0.48"/><circle cx="334" cy="738" r="2" fill="#3b82f6" opacity="0.40"/><circle cx="145" cy="87" r="5" fill="#3b82f6" opacity="0.16"/><circle cx="493" cy="111" r="5" fill="#3b82f6" opacity="0.26"/><circle cx="769" cy="348" r="5" fill="#3b82f6" opacity="0.15"/><circle cx="1651" cy="211" r="4" fill="#3b82f6" opacity="0.29"/><circle cx="1542" cy="566" r="3" fill="#3b82f6" opacity="0.43"/><circle cx="1497" cy="223" r="5" fill="#3b82f6" opacity="0.55"/><circle cx="1109" cy="588" r="5" fill="#3b82f6" opacity="0.29"/><circle cx="309" cy="475" r="3" fill="#3b82f6" opacity="0.39"/><circle cx="559" cy="414" r="3" fill="#3b82f6" opacity="0.23"/><circle cx="719" cy="828" r="5" fill="#3b82f6" opacity="0.29"/><circle cx="511" cy="872" r="2" fill="#3b82f6" opacity="0.51"/><circle cx="897" cy="295" r="1" fill="#3b82f6" opacity="0.53"/><circle cx="1258" cy="30" r="3" fill="#3b82f6" opacity="0.52"/><circle cx="1682" cy="20" r="2" fill="#3b82f6" opacity="0.38"/><circle cx="363" cy="937" r="5" fill="#3b82f6" opacity="0.49"/><circle cx="906" cy="136" r="1" fill="#3b82f6" opacity="0.37"/><circle cx="168" cy="1076" r="1" fill="#3b82f6" opacity="0.44"/><circle cx="758" cy="459" r="4" fill="#3b82f6" opacity="0.22"/><circle cx="1511" cy="379" r="3" fill="#3b82f6" opacity="0.16"/><circle cx="85" cy="168" r="5" fill="#3b82f6" opacity="0.14"/><circle cx="574" cy="163" r="2" fill="#3b82f6" opacity="0.23"/><circle cx="13" cy="798" r="5" fill="#3b82f6" opacity="0.32"/><circle cx="773" cy="905" r="3" fill="#3b82f6" opacity="0.17"/><circle cx="667" cy="270" r="1" fill="#3b82f6" opacity="0.47"/><circle cx="889" cy="183" r="4" fill="#3b82f6" opacity="0.45"/><circle cx="711" cy="343" r="4" fill="#3b82f6" opacity="0.30"/><circle cx="1745" cy="853" r="5" fill="#3b82f6" opacity="0.52"/><circle cx="1319" cy="574" r="3" fill="#3b82f6" opacity="0.16"/><circle cx="1449" cy="732" r="5" fill="#3b82f6" opacity="0.18"/><circle cx="1320" cy="820" r="1" fill="#3b82f6" opacity="0.26"/><circle cx="487" cy="69" r="4" fill="#3b82f6" opacity="0.54"/><circle cx="642" cy="972" r="2" fill="#3b82f6" opacity="0.29"/><circle cx="253" cy="149" r="4" fill="#3b82f6" opacity="0.18"/><circle cx="489" cy="651" r="2" fill="#3b82f6" opacity="0.44"/><circle cx="1849" cy="528" r="1" fill="#3b82f6" opacity="0.19"/><circle cx="1272" cy="863" r="5" fill="#3b82f6" opacity="0.47"/><circle cx="476" cy="91" r="3" fill="#3b82f6" opacity="0.42"/><circle cx="1026" cy="274" r="4" fill="#3b82f6" opacity="0.45"/><circle cx="1873" cy="850" r="1" fill="#3b82f6" opacity="0.42"/><circle cx="552" cy="447" r="2" fill="#3b82f6" opacity="0.51"/><circle cx="313" cy="1040" r="1" fill="#3b82f6" opacity="0.24"/><circle cx="1590" cy="555" r="2" fill="#3b82f6" opacity="0.39"/><circle cx="242" cy="124" r="2" fill="#3b82f6" opacity="0.28"/><circle cx="1022" cy="604" r="2" fill="#3b82f6" opacity="0.53"/><circle cx="197" cy="785" r="4" fill="#3b82f6" opacity="0.51"/><circle cx="1872" cy="619" r="3" fill="#3b82f6" opacity="0.41"/><circle cx="1629" cy="1033" r="1" fill="#3b82f6" opacity="0.23"/><circle cx="1062" cy="397" r="5" fill="#3b82f6" opacity="0.29"/><circle cx="636" cy="470" r="5" fill="#3b82f6" opacity="0.23"/><circle cx="224" cy="300" r="3" fill="#3b82f6" opacity="0.26"/><circle cx="759" cy="251" r="3" fill="#3b82f6" opacity="0.52"/><circle cx="22" cy="459" r="2" fill="#3b82f6" opacity="0.39"/><circle cx="1426" cy="837" r="3" fill="#3b82f6" opacity="0.30"/><circle cx="1543" cy="1064" r="3" fill="#3b82f6" opacity="0.32"/><circle cx="1171" cy="842" r="1" fill="#3b82f6" opacity="0.24"/><circle cx="311" cy="623" r="5" fill="#3b82f6" opacity="0.35"/><circle cx="27" cy="688" r="2" fill="#3b82f6" opacity="0.36"/><circle cx="1603" cy="601" r="3" fill="#3b82f6" opacity="0.35"/><circle cx="1131" cy="837" r="3" fill="#3b82f6" opacity="0.17"/><circle cx="601" cy="18" r="3" fill="#3b82f6" opacity="0.14"/><circle cx="153" cy="917" r="1" fill="#3b82f6" opacity="0.18"/><circle cx="1067" cy="747" r="2" fill="#3b82f6" opacity="0.40"/><circle cx="678" cy="924" r="3" fill="#3b82f6" opacity="0.37"/><circle cx="951" cy="484" r="2" fill="#3b82f6" opacity="0.23"/><circle cx="709" cy="202" r="4" fill="#3b82f6" opacity="0.38"/><circle cx="741" cy="862" r="1" fill="#3b82f6" opacity="0.18"/><circle cx="1919" cy="1060" r="5" fill="#3b82f6" opacity="0.46"/><circle cx="906" cy="840" r="3" fill="#3b82f6" opacity="0.37"/><circle cx="1703" cy="28" r="1" fill="#3b82f6" opacity="0.23"/><circle cx="568" cy="809" r="1" fill="#3b82f6" opacity="0.25"/><circle cx="1190" cy="995" r="1" fill="#3b82f6" opacity="0.49"/><circle cx="1068" cy="294" r="4" fill="#3b82f6" opacity="0.33"/><circle cx="506" cy="848" r="2" fill="#3b82f6" opacity="0.33"/><circle cx="1230" cy="108" r="4" fill="#3b82f6" opacity="0.15"/><circle cx="53" cy="949" r="4" fill="#3b82f6" opacity="0.28"/><circle cx="1576" cy="355" r="3" fill="#3b82f6" opacity="0.19"/></g>
  <g transform="translate(64,64)">
    <rect x="-24" y="-22" rx="24" ry="24" width="620" height="168" fill="#020617" fill-opacity="0.40" stroke="#3b82f6" stroke-opacity="0.25"/>
    <text x="0" y="30" fill="#e5f2ff" font-family="Inter, Arial, sans-serif" font-size="40" font-weight="800">Page Bg Depth</text>
    <text x="0" y="80" fill="#8aa4c7" font-family="Inter, Arial, sans-serif" font-size="22">DARK · backgrounds</text>
    <text x="0" y="120" fill="#8aa4c7" font-family="Inter, Arial, sans-serif" font-size="18">K-LOL.GG theme asset placeholder</text>
  </g>
</svg>