<svg xmlns="http://www.w3.org/2000/svg" width="1920" height="1080" viewBox="0 0 1920 1080" role="img" aria-label="Page Bg Grid">
  <defs>
    <linearGradient id="bg" x1="0" y1="0" x2="1" y2="1"><stop offset="0%" stop-color="#020617"/><stop offset="50%" stop-color="#07111f"/><stop offset="100%" stop-color="#0f172a"/></linearGradient>
    <radialGradient id="glow" cx="50%" cy="38%" r="70%"><stop offset="0%" stop-color="#3b82f6" stop-opacity="0.42"/><stop offset="40%" stop-color="#3b82f6" stop-opacity="0.14"/><stop offset="100%" stop-color="#3b82f6" stop-opacity="0"/></radialGradient>
    <pattern id="grid" width="48" height="48" patternUnits="userSpaceOnUse">
      <path d="M48 0H0V48" fill="none" stroke="#ffffff" stroke-opacity="0.10" stroke-width="1"/>
    </pattern>
  </defs>
  <rect width="1920" height="1080" fill="url(#bg)"/>
  <rect width="1920" height="1080" fill="url(#grid)"/>
  <rect x="-120" y="-120" width="2160" height="1320" fill="url(#glow)"/>
  <path d="M0 778 C 384 648, 691 972, 1037 778 S 1536 497, 1920 648" fill="none" stroke="#3b82f6" stroke-opacity="0.28" stroke-width="7"/>
  <g><path d="M325 285 l43 -21.5" stroke="#fff" stroke-opacity="0.08" stroke-width="1"/><path d="M1603 360 l66 -33.0" stroke="#fff" stroke-opacity="0.09" stroke-width="1"/><path d="M909 856 l48 -24.0" stroke="#fff" stroke-opacity="0.06" stroke-width="1"/><path d="M526 676 l33 -16.5" stroke="#fff" stroke-opacity="0.06" stroke-width="1"/><path d="M1183 211 l31 -15.5" stroke="#fff" stroke-opacity="0.10" stroke-width="1"/><path d="M1671 590 l87 -43.5" stroke="#fff" stroke-opacity="0.13" stroke-width="1"/><path d="M1271 594 l49 -24.5" stroke="#fff" stroke-opacity="0.05" stroke-width="1"/><path d="M1166 888 l152 -76.0" stroke="#fff" stroke-opacity="0.09" stroke-width="1"/><path d="M175 137 l21 -10.5" stroke="#fff" stroke-opacity="0.09" stroke-width="1"/><path d="M735 230 l116 -58.0" stroke="#fff" stroke-opacity="0.07" stroke-width="1"/><path d="M1883 1055 l159 -79.5" stroke="#fff" stroke-opacity="0.07" stroke-width="1"/><path d="M499 581 l32 -16.0" stroke="#fff" stroke-opacity="0.09" stroke-width="1"/><path d="M544 574 l24 -12.0" stroke="#fff" stroke-opacity="0.06" stroke-width="1"/><path d="M1199 761 l80 -40.0" stroke="#fff" stroke-opacity="0.11" stroke-width="1"/><path d="M1901 270 l56 -28.0" stroke="#fff" stroke-opacity="0.13" stroke-width="1"/><path d="M1021 1009 l31 -15.5" stroke="#fff" stroke-opacity="0.07" stroke-width="1"/><path d="M891 560 l44 -22.0" stroke="#fff" stroke-opacity="0.11" stroke-width="1"/><path d="M1395 312 l64 -32.0" stroke="#fff" stroke-opacity="0.14" stroke-width="1"/><path d="M1337 563 l153 -76.5" stroke="#fff" stroke-opacity="0.12" stroke-width="1"/><path d="M279 217 l26 -13.0" stroke="#fff" stroke-opacity="0.05" stroke-width="1"/><path d="M1226 45 l136 -68.0" stroke="#fff" stroke-opacity="0.06" stroke-width="1"/><path d="M1237 512 l130 -65.0" stroke="#fff" stroke-opacity="0.05" stroke-width="1"/><path d="M542 1036 l92 -46.0" stroke="#fff" stroke-opacity="0.04" stroke-width="1"/><path d="M1574 369 l51 -25.5" stroke="#fff" stroke-opacity="0.13" stroke-width="1"/><path d="M1807 383 l145 -72.5" stroke="#fff" stroke-opacity="0.06" stroke-width="1"/><path d="M503 213 l123 -61.5" stroke="#fff" stroke-opacity="0.12" stroke-width="1"/><path d="M1381 340 l38 -19.0" stroke="#fff" stroke-opacity="0.10" stroke-width="1"/><path d="M50 847 l143 -71.5" stroke="#fff" stroke-opacity="0.11" stroke-width="1"/><path d="M671 0 l90 -45.0" stroke="#fff" stroke-opacity="0.14" stroke-width="1"/><path d="M67 941 l110 -55.0" stroke="#fff" stroke-opacity="0.04" stroke-width="1"/><path d="M986 358 l109 -54.5" stroke="#fff" stroke-opacity="0.05" stroke-width="1"/><path d="M1719 151 l63 -31.5" stroke="#fff" stroke-opacity="0.10" stroke-width="1"/><path d="M1857 1053 l136 -68.0" stroke="#fff" stroke-opacity="0.12" stroke-width="1"/><path d="M1148 746 l45 -22.5" stroke="#fff" stroke-opacity="0.13" stroke-width="1"/><path d="M969 730 l66 -33.0" stroke="#fff" stroke-opacity="0.08" stroke-width="1"/><path d="M862 551 l48 -24.0" stroke="#fff" stroke-opacity="0.10" stroke-width="1"/><path d="M1763 610 l90 -45.0" stroke="#fff" stroke-opacity="0.09" stroke-width="1"/><path d="M888 667 l47 -23.5" stroke="#fff" stroke-opacity="0.11" stroke-width="1"/><path d="M1586 802 l23 -11.5" stroke="#fff" stroke-opacity="0.11" stroke-width="1"/><path d="M300 831 l114 -57.0" stroke="#fff" stroke-opacity="0.09" stroke-width="1"/><path d="M865 81 l137 -68.5" stroke="#fff" stroke-opacity="0.11" stroke-width="1"/><path d="M589 511 l80 -40.0" stroke="#fff" stroke-opacity="0.12" stroke-width="1"/><path d="M1406 414 l97 -48.5" stroke="#fff" stroke-opacity="0.04" stroke-width="1"/><path d="M608 602 l41 -20.5" stroke="#fff" stroke-opacity="0.09" stroke-width="1"/><path d="M271 940 l38 -19.0" stroke="#fff" stroke-opacity="0.06" stroke-width="1"/><path d="M1620 363 l48 -24.0" stroke="#fff" stroke-opacity="0.12" stroke-width="1"/><path d="M169 144 l53 -26.5" stroke="#fff" stroke-opacity="0.12" stroke-width="1"/><path d="M343 65 l160 -80.0" stroke="#fff" stroke-opacity="0.07" stroke-width="1"/><path d="M504 321 l134 -67.0" stroke="#fff" stroke-opacity="0.12" stroke-width="1"/><path d="M1246 221 l107 -53.5" stroke="#fff" stroke-opacity="0.12" stroke-width="1"/><path d="M305 517 l26 -13.0" stroke="#fff" stroke-opacity="0.04" stroke-width="1"/><path d="M283 101 l95 -47.5" stroke="#fff" stroke-opacity="0.13" stroke-width="1"/><path d="M16 384 l64 -32.0" stroke="#fff" stroke-opacity="0.08" stroke-width="1"/><path d="M747 856 l22 -11.0" stroke="#fff" stroke-opacity="0.05" stroke-width="1"/><path d="M869 860 l62 -31.0" stroke="#fff" stroke-opacity="0.13" stroke-width="1"/><path d="M122 220 l59 -29.5" stroke="#fff" stroke-opacity="0.09" stroke-width="1"/><path d="M371 676 l103 -51.5" stroke="#fff" stroke-opacity="0.09" stroke-width="1"/><path d="M530 591 l118 -59.0" stroke="#fff" stroke-opacity="0.13" stroke-width="1"/><path d="M624 63 l151 -75.5" stroke="#fff" stroke-opacity="0.09" stroke-width="1"/><path d="M1302 995 l95 -47.5" stroke="#fff" stroke-opacity="0.07" stroke-width="1"/><path d="M1212 409 l56 -28.0" stroke="#fff" stroke-opacity="0.11" stroke-width="1"/><path d="M1520 679 l101 -50.5" stroke="#fff" stroke-opacity="0.10" stroke-width="1"/><path d="M1890 384 l148 -74.0" stroke="#fff" stroke-opacity="0.09" stroke-width="1"/><path d="M356 690 l155 -77.5" stroke="#fff" stroke-opacity="0.11" stroke-width="1"/><path d="M458 282 l147 -73.5" stroke="#fff" stroke-opacity="0.13" stroke-width="1"/><path d="M433 118 l102 -51.0" stroke="#fff" stroke-opacity="0.09" stroke-width="1"/><path d="M1021 839 l147 -73.5" stroke="#fff" stroke-opacity="0.06" stroke-width="1"/><path d="M1014 128 l26 -13.0" stroke="#fff" stroke-opacity="0.09" stroke-width="1"/><path d="M34 111 l24 -12.0" stroke="#fff" stroke-opacity="0.13" stroke-width="1"/><path d="M328 6 l121 -60.5" stroke="#fff" stroke-opacity="0.10" stroke-width="1"/><path d="M1764 431 l138 -69.0" stroke="#fff" stroke-opacity="0.13" stroke-width="1"/><path d="M785 117 l39 -19.5" stroke="#fff" stroke-opacity="0.07" stroke-width="1"/><path d="M1803 621 l103 -51.5" stroke="#fff" stroke-opacity="0.04" stroke-width="1"/><path d="M1567 544 l157 -78.5" stroke="#fff" stroke-opacity="0.06" stroke-width="1"/><path d="M895 368 l27 -13.5" stroke="#fff" stroke-opacity="0.11" stroke-width="1"/><path d="M730 550 l112 -56.0" stroke="#fff" stroke-opacity="0.05" stroke-width="1"/><path d="M87 870 l24 -12.0" stroke="#fff" stroke-opacity="0.13" stroke-width="1"/><path d="M873 431 l115 -57.5" stroke="#fff" stroke-opacity="0.09" stroke-width="1"/><path d="M403 201 l119 -59.5" stroke="#fff" stroke-opacity="0.14" stroke-width="1"/><path d="M451 299 l26 -13.0" stroke="#fff" stroke-opacity="0.12" stroke-width="1"/><path d="M182 1 l104 -52.0" stroke="#fff" stroke-opacity="0.13" stroke-width="1"/><path d="M16 966 l43 -21.5" stroke="#fff" stroke-opacity="0.07" stroke-width="1"/><path d="M796 916 l52 -26.0" stroke="#fff" stroke-opacity="0.12" stroke-width="1"/><path d="M585 326 l59 -29.5" stroke="#fff" stroke-opacity="0.13" stroke-width="1"/><path d="M512 447 l94 -47.0" stroke="#fff" stroke-opacity="0.04" stroke-width="1"/><path d="M98 1060 l94 -47.0" stroke="#fff" stroke-opacity="0.05" stroke-width="1"/><path d="M1336 318 l91 -45.5" stroke="#fff" stroke-opacity="0.04" stroke-width="1"/><path d="M134 520 l66 -33.0" stroke="#fff" stroke-opacity="0.10" stroke-width="1"/><path d="M1758 745 l117 -58.5" stroke="#fff" stroke-opacity="0.08" stroke-width="1"/><path d="M1580 726 l126 -63.0" stroke="#fff" stroke-opacity="0.10" stroke-width="1"/><path d="M864 208 l144 -72.0" stroke="#fff" stroke-opacity="0.09" stroke-width="1"/><path d="M1818 373 l77 -38.5" stroke="#fff" stroke-opacity="0.10" stroke-width="1"/><path d="M1332 424 l92 -46.0" stroke="#fff" stroke-opacity="0.12" stroke-width="1"/><path d="M1619 630 l159 -79.5" stroke="#fff" stroke-opacity="0.11" stroke-width="1"/><path d="M1776 470 l42 -21.0" stroke="#fff" stroke-opacity="0.10" stroke-width="1"/><path d="M1185 1052 l150 -75.0" stroke="#fff" stroke-opacity="0.12" stroke-width="1"/><path d="M111 298 l110 -55.0" stroke="#fff" stroke-opacity="0.11" stroke-width="1"/><path d="M1125 147 l35 -17.5" stroke="#fff" stroke-opacity="0.12" stroke-width="1"/><path d="M1606 396 l37 -18.5" stroke="#fff" stroke-opacity="0.11" stroke-width="1"/><path d="M543 938 l155 -77.5" stroke="#fff" stroke-opacity="0.13" stroke-width="1"/><path d="M17 305 l153 -76.5" stroke="#fff" stroke-opacity="0.07" stroke-width="1"/><path d="M414 768 l103 -51.5" stroke="#fff" stroke-opacity="0.11" stroke-width="1"/><path d="M857 1051 l93 -46.5" stroke="#fff" stroke-opacity="0.13" stroke-width="1"/><path d="M367 1042 l50 -25.0" stroke="#fff" stroke-opacity="0.09" stroke-width="1"/><path d="M173 775 l49 -24.5" stroke="#fff" stroke-opacity="0.08" stroke-width="1"/><path d="M1143 1040 l78 -39.0" stroke="#fff" stroke-opacity="0.11" stroke-width="1"/><path d="M55 323 l138 -69.0" stroke="#fff" stroke-opacity="0.05" stroke-width="1"/><path d="M848 925 l82 -41.0" stroke="#fff" stroke-opacity="0.06" stroke-width="1"/><path d="M341 954 l144 -72.0" stroke="#fff" stroke-opacity="0.12" stroke-width="1"/><path d="M1421 102 l146 -73.0" stroke="#fff" stroke-opacity="0.10" stroke-width="1"/><path d="M1428 908 l137 -68.5" stroke="#fff" stroke-opacity="0.09" stroke-width="1"/><path d="M289 235 l80 -40.0" stroke="#fff" stroke-opacity="0.13" stroke-width="1"/><path d="M1690 263 l23 -11.5" stroke="#fff" stroke-opacity="0.11" stroke-width="1"/><path d="M1670 428 l105 -52.5" stroke="#fff" stroke-opacity="0.13" stroke-width="1"/><path d="M615 365 l151 -75.5" stroke="#fff" stroke-opacity="0.13" stroke-width="1"/><path d="M566 221 l49 -24.5" stroke="#fff" stroke-opacity="0.07" stroke-width="1"/><path d="M1213 356 l140 -70.0" stroke="#fff" stroke-opacity="0.13" stroke-width="1"/><path d="M117 665 l24 -12.0" stroke="#fff" stroke-opacity="0.06" stroke-width="1"/><path d="M1714 656 l27 -13.5" stroke="#fff" stroke-opacity="0.10" stroke-width="1"/><path d="M1436 812 l54 -27.0" stroke="#fff" stroke-opacity="0.12" stroke-width="1"/></g>
  <g transform="translate(64,64)">
    <rect x="-24" y="-22" rx="24" ry="24" width="620" height="168" fill="#020617" fill-opacity="0.40" stroke="#3b82f6" stroke-opacity="0.25"/>
    <text x="0" y="30" fill="#e5f2ff" font-family="Inter, Arial, sans-serif" font-size="40" font-weight="800">Page Bg Grid</text>
    <text x="0" y="80" fill="#8aa4c7" font-family="Inter, Arial, sans-serif" font-size="22">DARK · backgrounds</text>
    <text x="0" y="120" fill="#8aa4c7" font-family="Inter, Arial, sans-serif" font-size="18">K-LOL.GG theme asset placeholder</text>
  </g>
</svg>