<svg xmlns="http://www.w3.org/2000/svg" width="1920" height="1080" viewBox="0 0 1920 1080" role="img" aria-label="Page Bg Smoke">
  <defs>
    <linearGradient id="bg" x1="0" y1="0" x2="1" y2="1"><stop offset="0%" stop-color="#020617"/><stop offset="50%" stop-color="#07111f"/><stop offset="100%" stop-color="#0f172a"/></linearGradient>
    <radialGradient id="glow" cx="50%" cy="38%" r="70%"><stop offset="0%" stop-color="#3b82f6" stop-opacity="0.42"/><stop offset="40%" stop-color="#3b82f6" stop-opacity="0.14"/><stop offset="100%" stop-color="#3b82f6" stop-opacity="0"/></radialGradient>
    <pattern id="grid" width="48" height="48" patternUnits="userSpaceOnUse">
      <path d="M48 0H0V48" fill="none" stroke="#ffffff" stroke-opacity="0.10" stroke-width="1"/>
    </pattern>
  </defs>
  <rect width="1920" height="1080" fill="url(#bg)"/>
  <rect width="1920" height="1080" fill="url(#grid)"/>
  <rect x="-120" y="-120" width="2160" height="1320" fill="url(#glow)"/>
  <path d="M0 778 C 384 648, 691 972, 1037 778 S 1536 497, 1920 648" fill="none" stroke="#3b82f6" stroke-opacity="0.28" stroke-width="7"/>
  <g><circle cx="1427" cy="449" r="4" fill="#3b82f6" opacity="0.51"/><circle cx="1699" cy="548" r="4" fill="#3b82f6" opacity="0.30"/><circle cx="267" cy="917" r="1" fill="#3b82f6" opacity="0.23"/><circle cx="323" cy="1058" r="4" fill="#3b82f6" opacity="0.28"/><circle cx="272" cy="713" r="3" fill="#3b82f6" opacity="0.19"/><circle cx="814" cy="1013" r="2" fill="#3b82f6" opacity="0.49"/><circle cx="1110" cy="540" r="1" fill="#3b82f6" opacity="0.36"/><circle cx="166" cy="847" r="5" fill="#3b82f6" opacity="0.38"/><circle cx="745" cy="927" r="3" fill="#3b82f6" opacity="0.49"/><circle cx="1917" cy="873" r="2" fill="#3b82f6" opacity="0.27"/><circle cx="1359" cy="440" r="1" fill="#3b82f6" opacity="0.27"/><circle cx="1194" cy="59" r="2" fill="#3b82f6" opacity="0.29"/><circle cx="816" cy="1046" r="4" fill="#3b82f6" opacity="0.46"/><circle cx="988" cy="315" r="3" fill="#3b82f6" opacity="0.52"/><circle cx="535" cy="8" r="5" fill="#3b82f6" opacity="0.28"/><circle cx="1481" cy="500" r="3" fill="#3b82f6" opacity="0.27"/><circle cx="758" cy="745" r="2" fill="#3b82f6" opacity="0.21"/><circle cx="852" cy="1028" r="3" fill="#3b82f6" opacity="0.18"/><circle cx="198" cy="360" r="2" fill="#3b82f6" opacity="0.44"/><circle cx="1651" cy="333" r="4" fill="#3b82f6" opacity="0.33"/><circle cx="1468" cy="989" r="5" fill="#3b82f6" opacity="0.25"/><circle cx="1764" cy="286" r="5" fill="#3b82f6" opacity="0.14"/><circle cx="284" cy="425" r="1" fill="#3b82f6" opacity="0.26"/><circle cx="1789" cy="818" r="4" fill="#3b82f6" opacity="0.47"/><circle cx="1238" cy="967" r="5" fill="#3b82f6" opacity="0.46"/><circle cx="1542" cy="56" r="5" fill="#3b82f6" opacity="0.43"/><circle cx="81" cy="579" r="3" fill="#3b82f6" opacity="0.18"/><circle cx="127" cy="563" r="4" fill="#3b82f6" opacity="0.50"/><circle cx="995" cy="445" r="4" fill="#3b82f6" opacity="0.43"/><circle cx="1253" cy="11" r="2" fill="#3b82f6" opacity="0.20"/><circle cx="1214" cy="178" r="2" fill="#3b82f6" opacity="0.48"/><circle cx="653" cy="836" r="2" fill="#3b82f6" opacity="0.51"/><circle cx="757" cy="496" r="4" fill="#3b82f6" opacity="0.36"/><circle cx="472" cy="767" r="4" fill="#3b82f6" opacity="0.28"/><circle cx="133" cy="752" r="5" fill="#3b82f6" opacity="0.34"/><circle cx="1418" cy="792" r="3" fill="#3b82f6" opacity="0.30"/><circle cx="90" cy="623" r="2" fill="#3b82f6" opacity="0.50"/><circle cx="1238" cy="743" r="5" fill="#3b82f6" opacity="0.12"/><circle cx="234" cy="481" r="2" fill="#3b82f6" opacity="0.20"/><circle cx="340" cy="672" r="2" fill="#3b82f6" opacity="0.53"/><circle cx="763" cy="816" r="3" fill="#3b82f6" opacity="0.20"/><circle cx="1624" cy="733" r="3" fill="#3b82f6" opacity="0.15"/><circle cx="639" cy="387" r="5" fill="#3b82f6" opacity="0.43"/><circle cx="981" cy="503" r="3" fill="#3b82f6" opacity="0.52"/><circle cx="1154" cy="155" r="3" fill="#3b82f6" opacity="0.49"/><circle cx="995" cy="8" r="1" fill="#3b82f6" opacity="0.24"/><circle cx="1365" cy="56" r="3" fill="#3b82f6" opacity="0.44"/><circle cx="1351" cy="83" r="5" fill="#3b82f6" opacity="0.48"/><circle cx="1049" cy="53" r="4" fill="#3b82f6" opacity="0.51"/><circle cx="124" cy="275" r="2" fill="#3b82f6" opacity="0.43"/><circle cx="1631" cy="937" r="3" fill="#3b82f6" opacity="0.47"/><circle cx="282" cy="531" r="2" fill="#3b82f6" opacity="0.25"/><circle cx="313" cy="1020" r="1" fill="#3b82f6" opacity="0.35"/><circle cx="1834" cy="743" r="1" fill="#3b82f6" opacity="0.17"/><circle cx="1852" cy="514" r="3" fill="#3b82f6" opacity="0.21"/><circle cx="177" cy="76" r="4" fill="#3b82f6" opacity="0.18"/><circle cx="858" cy="224" r="1" fill="#3b82f6" opacity="0.51"/><circle cx="1278" cy="901" r="5" fill="#3b82f6" opacity="0.37"/><circle cx="1723" cy="104" r="1" fill="#3b82f6" opacity="0.33"/><circle cx="984" cy="926" r="5" fill="#3b82f6" opacity="0.26"/><circle cx="1228" cy="1052" r="4" fill="#3b82f6" opacity="0.13"/><circle cx="217" cy="384" r="3" fill="#3b82f6" opacity="0.27"/><circle cx="1537" cy="566" r="2" fill="#3b82f6" opacity="0.15"/><circle cx="13" cy="927" r="4" fill="#3b82f6" opacity="0.28"/><circle cx="473" cy="100" r="4" fill="#3b82f6" opacity="0.16"/><circle cx="546" cy="813" r="3" fill="#3b82f6" opacity="0.43"/><circle cx="1109" cy="831" r="3" fill="#3b82f6" opacity="0.21"/><circle cx="460" cy="138" r="5" fill="#3b82f6" opacity="0.20"/><circle cx="807" cy="795" r="1" fill="#3b82f6" opacity="0.44"/><circle cx="524" cy="1071" r="2" fill="#3b82f6" opacity="0.17"/><circle cx="1297" cy="595" r="4" fill="#3b82f6" opacity="0.15"/><circle cx="1449" cy="88" r="2" fill="#3b82f6" opacity="0.32"/><circle cx="1700" cy="867" r="5" fill="#3b82f6" opacity="0.27"/><circle cx="1221" cy="89" r="5" fill="#3b82f6" opacity="0.35"/><circle cx="1001" cy="903" r="5" fill="#3b82f6" opacity="0.31"/><circle cx="1540" cy="229" r="4" fill="#3b82f6" opacity="0.37"/><circle cx="52" cy="104" r="2" fill="#3b82f6" opacity="0.31"/><circle cx="1284" cy="31" r="4" fill="#3b82f6" opacity="0.36"/><circle cx="1805" cy="749" r="5" fill="#3b82f6" opacity="0.39"/><circle cx="896" cy="155" r="1" fill="#3b82f6" opacity="0.19"/><circle cx="453" cy="298" r="1" fill="#3b82f6" opacity="0.52"/><circle cx="1085" cy="340" r="3" fill="#3b82f6" opacity="0.24"/><circle cx="1564" cy="702" r="5" fill="#3b82f6" opacity="0.28"/><circle cx="286" cy="299" r="3" fill="#3b82f6" opacity="0.39"/><circle cx="1294" cy="759" r="1" fill="#3b82f6" opacity="0.46"/><circle cx="607" cy="632" r="5" fill="#3b82f6" opacity="0.52"/><circle cx="691" cy="777" r="2" fill="#3b82f6" opacity="0.48"/><circle cx="228" cy="519" r="1" fill="#3b82f6" opacity="0.20"/><circle cx="226" cy="797" r="5" fill="#3b82f6" opacity="0.17"/><circle cx="1647" cy="974" r="3" fill="#3b82f6" opacity="0.30"/></g>
  <g transform="translate(64,64)">
    <rect x="-24" y="-22" rx="24" ry="24" width="620" height="168" fill="#020617" fill-opacity="0.40" stroke="#3b82f6" stroke-opacity="0.25"/>
    <text x="0" y="30" fill="#e5f2ff" font-family="Inter, Arial, sans-serif" font-size="40" font-weight="800">Page Bg Smoke</text>
    <text x="0" y="80" fill="#8aa4c7" font-family="Inter, Arial, sans-serif" font-size="22">DARK · backgrounds</text>
    <text x="0" y="120" fill="#8aa4c7" font-family="Inter, Arial, sans-serif" font-size="18">K-LOL.GG theme asset placeholder</text>
  </g>
</svg>