<svg xmlns="http://www.w3.org/2000/svg" width="1920" height="1080" viewBox="0 0 1920 1080" role="img" aria-label="Page Bg Arena">
  <defs>
    <linearGradient id="bg" x1="0" y1="0" x2="1" y2="1"><stop offset="0%" stop-color="#020617"/><stop offset="50%" stop-color="#07111f"/><stop offset="100%" stop-color="#0f172a"/></linearGradient>
    <radialGradient id="glow" cx="50%" cy="38%" r="70%"><stop offset="0%" stop-color="#3b82f6" stop-opacity="0.42"/><stop offset="40%" stop-color="#3b82f6" stop-opacity="0.14"/><stop offset="100%" stop-color="#3b82f6" stop-opacity="0"/></radialGradient>
    <pattern id="grid" width="48" height="48" patternUnits="userSpaceOnUse">
      <path d="M48 0H0V48" fill="none" stroke="#ffffff" stroke-opacity="0.10" stroke-width="1"/>
    </pattern>
  </defs>
  <rect width="1920" height="1080" fill="url(#bg)"/>
  <rect width="1920" height="1080" fill="url(#grid)"/>
  <rect x="-120" y="-120" width="2160" height="1320" fill="url(#glow)"/>
  <path d="M0 778 C 384 648, 691 972, 1037 778 S 1536 497, 1920 648" fill="none" stroke="#3b82f6" stroke-opacity="0.28" stroke-width="7"/>
  
        <g opacity="0.65">
          <ellipse cx="1267.2" cy="712.8000000000001" rx="537.6" ry="172.8" fill="none" stroke="#3b82f6" stroke-width="10"/>
          <ellipse cx="1267.2" cy="712.8000000000001" rx="384.0" ry="108.0" fill="none" stroke="#3b82f6" stroke-width="5" opacity=".55"/>
          <path d="M748.8000000000001 669.6 C1056.0 518.4, 1497.6000000000001 518.4, 1804.8 669.6" fill="none" stroke="#fff" stroke-opacity=".16" stroke-width="3"/>
        </g>
  <g transform="translate(64,64)">
    <rect x="-24" y="-22" rx="24" ry="24" width="620" height="168" fill="#020617" fill-opacity="0.40" stroke="#3b82f6" stroke-opacity="0.25"/>
    <text x="0" y="30" fill="#e5f2ff" font-family="Inter, Arial, sans-serif" font-size="40" font-weight="800">Page Bg Arena</text>
    <text x="0" y="80" fill="#8aa4c7" font-family="Inter, Arial, sans-serif" font-size="22">DARK · backgrounds</text>
    <text x="0" y="120" fill="#8aa4c7" font-family="Inter, Arial, sans-serif" font-size="18">K-LOL.GG theme asset placeholder</text>
  </g>
</svg>