<svg xmlns="http://www.w3.org/2000/svg" width="1600" height="600" viewBox="0 0 1600 600" role="img" aria-label="Section Bg Blue Flare">
  <defs>
    <linearGradient id="bg" x1="0" y1="0" x2="1" y2="1"><stop offset="0%" stop-color="#020617"/><stop offset="50%" stop-color="#07111f"/><stop offset="100%" stop-color="#0f172a"/></linearGradient>
    <radialGradient id="glow" cx="50%" cy="38%" r="70%"><stop offset="0%" stop-color="#3b82f6" stop-opacity="0.42"/><stop offset="40%" stop-color="#3b82f6" stop-opacity="0.14"/><stop offset="100%" stop-color="#3b82f6" stop-opacity="0"/></radialGradient>
    <pattern id="grid" width="48" height="48" patternUnits="userSpaceOnUse">
      <path d="M48 0H0V48" fill="none" stroke="#ffffff" stroke-opacity="0.10" stroke-width="1"/>
    </pattern>
  </defs>
  <rect width="1600" height="600" fill="url(#bg)"/>
  <rect width="1600" height="600" fill="url(#grid)"/>
  <rect x="-120" y="-120" width="1840" height="840" fill="url(#glow)"/>
  <path d="M0 432 C 320 360, 576 540, 864 432 S 1280 276, 1600 360" fill="none" stroke="#3b82f6" stroke-opacity="0.28" stroke-width="7"/>
  <g><circle cx="356" cy="466" r="5" fill="#3b82f6" opacity="0.13"/><circle cx="1119" cy="538" r="4" fill="#3b82f6" opacity="0.15"/><circle cx="1127" cy="333" r="2" fill="#3b82f6" opacity="0.33"/><circle cx="1578" cy="467" r="2" fill="#3b82f6" opacity="0.45"/><circle cx="1449" cy="193" r="1" fill="#3b82f6" opacity="0.32"/><circle cx="548" cy="177" r="3" fill="#3b82f6" opacity="0.12"/><circle cx="1453" cy="436" r="3" fill="#3b82f6" opacity="0.26"/><circle cx="523" cy="512" r="5" fill="#3b82f6" opacity="0.15"/><circle cx="1297" cy="565" r="2" fill="#3b82f6" opacity="0.44"/><circle cx="1554" cy="414" r="1" fill="#3b82f6" opacity="0.54"/><circle cx="58" cy="44" r="1" fill="#3b82f6" opacity="0.22"/><circle cx="860" cy="408" r="1" fill="#3b82f6" opacity="0.20"/><circle cx="1437" cy="292" r="2" fill="#3b82f6" opacity="0.26"/><circle cx="723" cy="571" r="5" fill="#3b82f6" opacity="0.38"/><circle cx="862" cy="363" r="3" fill="#3b82f6" opacity="0.29"/><circle cx="181" cy="440" r="3" fill="#3b82f6" opacity="0.15"/><circle cx="748" cy="419" r="2" fill="#3b82f6" opacity="0.48"/><circle cx="269" cy="263" r="5" fill="#3b82f6" opacity="0.34"/><circle cx="877" cy="479" r="4" fill="#3b82f6" opacity="0.55"/><circle cx="969" cy="363" r="1" fill="#3b82f6" opacity="0.34"/><circle cx="270" cy="114" r="3" fill="#3b82f6" opacity="0.28"/><circle cx="1381" cy="217" r="3" fill="#3b82f6" opacity="0.13"/><circle cx="445" cy="79" r="4" fill="#3b82f6" opacity="0.51"/><circle cx="1531" cy="316" r="5" fill="#3b82f6" opacity="0.32"/><circle cx="1038" cy="305" r="1" fill="#3b82f6" opacity="0.35"/><circle cx="1196" cy="188" r="5" fill="#3b82f6" opacity="0.26"/><circle cx="136" cy="461" r="5" fill="#3b82f6" opacity="0.48"/><circle cx="297" cy="248" r="2" fill="#3b82f6" opacity="0.31"/><circle cx="1586" cy="425" r="1" fill="#3b82f6" opacity="0.30"/><circle cx="36" cy="568" r="1" fill="#3b82f6" opacity="0.51"/><circle cx="392" cy="6" r="5" fill="#3b82f6" opacity="0.51"/><circle cx="1194" cy="496" r="4" fill="#3b82f6" opacity="0.45"/><circle cx="142" cy="377" r="1" fill="#3b82f6" opacity="0.50"/><circle cx="261" cy="600" r="4" fill="#3b82f6" opacity="0.29"/><circle cx="1368" cy="493" r="2" fill="#3b82f6" opacity="0.38"/><circle cx="20" cy="97" r="3" fill="#3b82f6" opacity="0.40"/><circle cx="912" cy="198" r="3" fill="#3b82f6" opacity="0.32"/><circle cx="1401" cy="221" r="3" fill="#3b82f6" opacity="0.25"/><circle cx="1567" cy="170" r="4" fill="#3b82f6" opacity="0.17"/><circle cx="180" cy="259" r="5" fill="#3b82f6" opacity="0.32"/><circle cx="1150" cy="498" r="5" fill="#3b82f6" opacity="0.34"/><circle cx="874" cy="430" r="5" fill="#3b82f6" opacity="0.20"/><circle cx="214" cy="363" r="2" fill="#3b82f6" opacity="0.32"/><circle cx="439" cy="107" r="2" fill="#3b82f6" opacity="0.49"/><circle cx="367" cy="323" r="2" fill="#3b82f6" opacity="0.42"/><circle cx="67" cy="399" r="1" fill="#3b82f6" opacity="0.35"/><circle cx="1077" cy="218" r="4" fill="#3b82f6" opacity="0.49"/><circle cx="1010" cy="117" r="4" fill="#3b82f6" opacity="0.19"/><circle cx="175" cy="435" r="3" fill="#3b82f6" opacity="0.36"/><circle cx="1507" cy="229" r="5" fill="#3b82f6" opacity="0.39"/><circle cx="1182" cy="237" r="1" fill="#3b82f6" opacity="0.32"/><circle cx="786" cy="385" r="5" fill="#3b82f6" opacity="0.50"/><circle cx="859" cy="5" r="1" fill="#3b82f6" opacity="0.36"/><circle cx="1508" cy="550" r="1" fill="#3b82f6" opacity="0.44"/><circle cx="35" cy="76" r="4" fill="#3b82f6" opacity="0.22"/><circle cx="825" cy="48" r="3" fill="#3b82f6" opacity="0.52"/><circle cx="1591" cy="583" r="1" fill="#3b82f6" opacity="0.22"/><circle cx="1262" cy="187" r="4" fill="#3b82f6" opacity="0.21"/><circle cx="1450" cy="324" r="2" fill="#3b82f6" opacity="0.25"/><circle cx="329" cy="300" r="2" fill="#3b82f6" opacity="0.34"/><circle cx="1351" cy="104" r="4" fill="#3b82f6" opacity="0.33"/><circle cx="133" cy="440" r="5" fill="#3b82f6" opacity="0.32"/><circle cx="1416" cy="451" r="4" fill="#3b82f6" opacity="0.25"/><circle cx="323" cy="573" r="2" fill="#3b82f6" opacity="0.29"/><circle cx="416" cy="154" r="3" fill="#3b82f6" opacity="0.15"/><circle cx="408" cy="586" r="2" fill="#3b82f6" opacity="0.25"/><circle cx="893" cy="444" r="2" fill="#3b82f6" opacity="0.21"/><circle cx="1146" cy="166" r="2" fill="#3b82f6" opacity="0.41"/><circle cx="1299" cy="314" r="5" fill="#3b82f6" opacity="0.26"/><circle cx="922" cy="330" r="2" fill="#3b82f6" opacity="0.23"/><circle cx="356" cy="595" r="2" fill="#3b82f6" opacity="0.14"/><circle cx="1266" cy="535" r="4" fill="#3b82f6" opacity="0.31"/><circle cx="1321" cy="165" r="5" fill="#3b82f6" opacity="0.45"/><circle cx="767" cy="519" r="4" fill="#3b82f6" opacity="0.20"/><circle cx="447" cy="518" r="3" fill="#3b82f6" opacity="0.48"/><circle cx="1346" cy="516" r="3" fill="#3b82f6" opacity="0.18"/><circle cx="749" cy="16" r="5" fill="#3b82f6" opacity="0.52"/><circle cx="807" cy="544" r="4" fill="#3b82f6" opacity="0.54"/><circle cx="769" cy="27" r="1" fill="#3b82f6" opacity="0.26"/><circle cx="612" cy="235" r="1" fill="#3b82f6" opacity="0.38"/><circle cx="397" cy="111" r="5" fill="#3b82f6" opacity="0.14"/><circle cx="140" cy="55" r="3" fill="#3b82f6" opacity="0.16"/><circle cx="211" cy="366" r="2" fill="#3b82f6" opacity="0.41"/><circle cx="1091" cy="126" r="2" fill="#3b82f6" opacity="0.54"/><circle cx="1214" cy="244" r="4" fill="#3b82f6" opacity="0.53"/><circle cx="252" cy="587" r="2" fill="#3b82f6" opacity="0.30"/><circle cx="621" cy="297" r="2" fill="#3b82f6" opacity="0.26"/><circle cx="677" cy="106" r="4" fill="#3b82f6" opacity="0.23"/><circle cx="1157" cy="211" r="5" fill="#3b82f6" opacity="0.21"/><circle cx="312" cy="12" r="5" fill="#3b82f6" opacity="0.39"/></g>
  <g transform="translate(64,64)">
    <rect x="-24" y="-22" rx="24" ry="24" width="620" height="168" fill="#020617" fill-opacity="0.40" stroke="#3b82f6" stroke-opacity="0.25"/>
    <text x="0" y="30" fill="#e5f2ff" font-family="Inter, Arial, sans-serif" font-size="40" font-weight="800">Section Bg Blue Flare</text>
    <text x="0" y="80" fill="#8aa4c7" font-family="Inter, Arial, sans-serif" font-size="22">DARK · backgrounds</text>
    <text x="0" y="120" fill="#8aa4c7" font-family="Inter, Arial, sans-serif" font-size="18">K-LOL.GG theme asset placeholder</text>
  </g>
</svg>