<svg xmlns="http://www.w3.org/2000/svg" width="1600" height="600" viewBox="0 0 1600 600" role="img" aria-label="Section Bg Midnight">
  <defs>
    <linearGradient id="bg" x1="0" y1="0" x2="1" y2="1"><stop offset="0%" stop-color="#020617"/><stop offset="50%" stop-color="#07111f"/><stop offset="100%" stop-color="#0f172a"/></linearGradient>
    <radialGradient id="glow" cx="50%" cy="38%" r="70%"><stop offset="0%" stop-color="#3b82f6" stop-opacity="0.42"/><stop offset="40%" stop-color="#3b82f6" stop-opacity="0.14"/><stop offset="100%" stop-color="#3b82f6" stop-opacity="0"/></radialGradient>
    <pattern id="grid" width="48" height="48" patternUnits="userSpaceOnUse">
      <path d="M48 0H0V48" fill="none" stroke="#ffffff" stroke-opacity="0.10" stroke-width="1"/>
    </pattern>
  </defs>
  <rect width="1600" height="600" fill="url(#bg)"/>
  <rect width="1600" height="600" fill="url(#grid)"/>
  <rect x="-120" y="-120" width="1840" height="840" fill="url(#glow)"/>
  <path d="M0 432 C 320 360, 576 540, 864 432 S 1280 276, 1600 360" fill="none" stroke="#3b82f6" stroke-opacity="0.28" stroke-width="7"/>
  <g><path d="M1255 299 l81 -40.5" stroke="#fff" stroke-opacity="0.08" stroke-width="1"/><path d="M559 92 l150 -75.0" stroke="#fff" stroke-opacity="0.10" stroke-width="1"/><path d="M1555 363 l91 -45.5" stroke="#fff" stroke-opacity="0.09" stroke-width="1"/><path d="M751 530 l149 -74.5" stroke="#fff" stroke-opacity="0.11" stroke-width="1"/><path d="M1558 6 l119 -59.5" stroke="#fff" stroke-opacity="0.11" stroke-width="1"/><path d="M643 552 l121 -60.5" stroke="#fff" stroke-opacity="0.10" stroke-width="1"/><path d="M265 31 l120 -60.0" stroke="#fff" stroke-opacity="0.08" stroke-width="1"/><path d="M424 102 l85 -42.5" stroke="#fff" stroke-opacity="0.13" stroke-width="1"/><path d="M261 591 l44 -22.0" stroke="#fff" stroke-opacity="0.11" stroke-width="1"/><path d="M333 37 l46 -23.0" stroke="#fff" stroke-opacity="0.11" stroke-width="1"/><path d="M1082 498 l100 -50.0" stroke="#fff" stroke-opacity="0.09" stroke-width="1"/><path d="M738 473 l113 -56.5" stroke="#fff" stroke-opacity="0.05" stroke-width="1"/><path d="M1418 330 l122 -61.0" stroke="#fff" stroke-opacity="0.06" stroke-width="1"/><path d="M503 271 l157 -78.5" stroke="#fff" stroke-opacity="0.06" stroke-width="1"/><path d="M933 381 l130 -65.0" stroke="#fff" stroke-opacity="0.11" stroke-width="1"/><path d="M1097 498 l117 -58.5" stroke="#fff" stroke-opacity="0.12" stroke-width="1"/><path d="M1002 259 l74 -37.0" stroke="#fff" stroke-opacity="0.07" stroke-width="1"/><path d="M502 510 l111 -55.5" stroke="#fff" stroke-opacity="0.05" stroke-width="1"/><path d="M1000 389 l133 -66.5" stroke="#fff" stroke-opacity="0.07" stroke-width="1"/><path d="M42 137 l25 -12.5" stroke="#fff" stroke-opacity="0.05" stroke-width="1"/><path d="M945 449 l82 -41.0" stroke="#fff" stroke-opacity="0.04" stroke-width="1"/><path d="M556 165 l39 -19.5" stroke="#fff" stroke-opacity="0.08" stroke-width="1"/><path d="M249 338 l94 -47.0" stroke="#fff" stroke-opacity="0.13" stroke-width="1"/><path d="M760 117 l53 -26.5" stroke="#fff" stroke-opacity="0.14" stroke-width="1"/><path d="M1135 438 l51 -25.5" stroke="#fff" stroke-opacity="0.07" stroke-width="1"/><path d="M998 361 l99 -49.5" stroke="#fff" stroke-opacity="0.05" stroke-width="1"/><path d="M51 489 l62 -31.0" stroke="#fff" stroke-opacity="0.13" stroke-width="1"/><path d="M977 517 l106 -53.0" stroke="#fff" stroke-opacity="0.04" stroke-width="1"/><path d="M312 5 l145 -72.5" stroke="#fff" stroke-opacity="0.13" stroke-width="1"/><path d="M573 538 l145 -72.5" stroke="#fff" stroke-opacity="0.07" stroke-width="1"/><path d="M753 263 l75 -37.5" stroke="#fff" stroke-opacity="0.05" stroke-width="1"/><path d="M200 113 l66 -33.0" stroke="#fff" stroke-opacity="0.06" stroke-width="1"/><path d="M369 496 l135 -67.5" stroke="#fff" stroke-opacity="0.05" stroke-width="1"/><path d="M1299 82 l104 -52.0" stroke="#fff" stroke-opacity="0.12" stroke-width="1"/><path d="M1573 26 l37 -18.5" stroke="#fff" stroke-opacity="0.13" stroke-width="1"/><path d="M1110 406 l42 -21.0" stroke="#fff" stroke-opacity="0.05" stroke-width="1"/><path d="M39 205 l92 -46.0" stroke="#fff" stroke-opacity="0.06" stroke-width="1"/><path d="M909 310 l58 -29.0" stroke="#fff" stroke-opacity="0.11" stroke-width="1"/><path d="M671 281 l152 -76.0" stroke="#fff" stroke-opacity="0.09" stroke-width="1"/><path d="M975 231 l41 -20.5" stroke="#fff" stroke-opacity="0.09" stroke-width="1"/><path d="M235 213 l99 -49.5" stroke="#fff" stroke-opacity="0.09" stroke-width="1"/><path d="M64 391 l126 -63.0" stroke="#fff" stroke-opacity="0.11" stroke-width="1"/><path d="M850 303 l126 -63.0" stroke="#fff" stroke-opacity="0.11" stroke-width="1"/><path d="M731 109 l111 -55.5" stroke="#fff" stroke-opacity="0.05" stroke-width="1"/><path d="M387 20 l149 -74.5" stroke="#fff" stroke-opacity="0.13" stroke-width="1"/><path d="M14 508 l39 -19.5" stroke="#fff" stroke-opacity="0.05" stroke-width="1"/><path d="M114 559 l34 -17.0" stroke="#fff" stroke-opacity="0.06" stroke-width="1"/><path d="M148 221 l53 -26.5" stroke="#fff" stroke-opacity="0.09" stroke-width="1"/><path d="M1085 393 l109 -54.5" stroke="#fff" stroke-opacity="0.12" stroke-width="1"/><path d="M1561 104 l150 -75.0" stroke="#fff" stroke-opacity="0.06" stroke-width="1"/><path d="M829 389 l98 -49.0" stroke="#fff" stroke-opacity="0.11" stroke-width="1"/><path d="M854 253 l44 -22.0" stroke="#fff" stroke-opacity="0.05" stroke-width="1"/><path d="M520 327 l134 -67.0" stroke="#fff" stroke-opacity="0.14" stroke-width="1"/><path d="M690 197 l155 -77.5" stroke="#fff" stroke-opacity="0.10" stroke-width="1"/><path d="M969 408 l139 -69.5" stroke="#fff" stroke-opacity="0.07" stroke-width="1"/><path d="M115 60 l92 -46.0" stroke="#fff" stroke-opacity="0.11" stroke-width="1"/><path d="M1363 23 l80 -40.0" stroke="#fff" stroke-opacity="0.07" stroke-width="1"/><path d="M319 56 l145 -72.5" stroke="#fff" stroke-opacity="0.11" stroke-width="1"/><path d="M1155 590 l102 -51.0" stroke="#fff" stroke-opacity="0.14" stroke-width="1"/><path d="M878 508 l62 -31.0" stroke="#fff" stroke-opacity="0.08" stroke-width="1"/><path d="M760 239 l136 -68.0" stroke="#fff" stroke-opacity="0.09" stroke-width="1"/><path d="M996 164 l22 -11.0" stroke="#fff" stroke-opacity="0.08" stroke-width="1"/><path d="M8 394 l130 -65.0" stroke="#fff" stroke-opacity="0.10" stroke-width="1"/><path d="M195 385 l112 -56.0" stroke="#fff" stroke-opacity="0.06" stroke-width="1"/><path d="M837 197 l101 -50.5" stroke="#fff" stroke-opacity="0.05" stroke-width="1"/><path d="M542 41 l62 -31.0" stroke="#fff" stroke-opacity="0.07" stroke-width="1"/><path d="M825 441 l103 -51.5" stroke="#fff" stroke-opacity="0.05" stroke-width="1"/><path d="M1032 465 l35 -17.5" stroke="#fff" stroke-opacity="0.07" stroke-width="1"/><path d="M16 550 l72 -36.0" stroke="#fff" stroke-opacity="0.06" stroke-width="1"/><path d="M42 556 l45 -22.5" stroke="#fff" stroke-opacity="0.04" stroke-width="1"/><path d="M900 528 l96 -48.0" stroke="#fff" stroke-opacity="0.11" stroke-width="1"/><path d="M1490 18 l28 -14.0" stroke="#fff" stroke-opacity="0.07" stroke-width="1"/><path d="M757 524 l81 -40.5" stroke="#fff" stroke-opacity="0.12" stroke-width="1"/><path d="M1421 140 l40 -20.0" stroke="#fff" stroke-opacity="0.04" stroke-width="1"/><path d="M1586 171 l79 -39.5" stroke="#fff" stroke-opacity="0.11" stroke-width="1"/><path d="M667 532 l109 -54.5" stroke="#fff" stroke-opacity="0.10" stroke-width="1"/><path d="M1481 46 l21 -10.5" stroke="#fff" stroke-opacity="0.14" stroke-width="1"/><path d="M795 287 l149 -74.5" stroke="#fff" stroke-opacity="0.04" stroke-width="1"/><path d="M1521 39 l106 -53.0" stroke="#fff" stroke-opacity="0.12" stroke-width="1"/><path d="M155 251 l59 -29.5" stroke="#fff" stroke-opacity="0.05" stroke-width="1"/><path d="M673 429 l72 -36.0" stroke="#fff" stroke-opacity="0.08" stroke-width="1"/><path d="M109 485 l132 -66.0" stroke="#fff" stroke-opacity="0.08" stroke-width="1"/><path d="M1350 20 l68 -34.0" stroke="#fff" stroke-opacity="0.13" stroke-width="1"/><path d="M1075 232 l114 -57.0" stroke="#fff" stroke-opacity="0.08" stroke-width="1"/><path d="M101 537 l142 -71.0" stroke="#fff" stroke-opacity="0.13" stroke-width="1"/><path d="M1498 31 l108 -54.0" stroke="#fff" stroke-opacity="0.05" stroke-width="1"/><path d="M680 500 l79 -39.5" stroke="#fff" stroke-opacity="0.11" stroke-width="1"/><path d="M683 397 l77 -38.5" stroke="#fff" stroke-opacity="0.10" stroke-width="1"/><path d="M141 419 l31 -15.5" stroke="#fff" stroke-opacity="0.08" stroke-width="1"/><path d="M495 139 l24 -12.0" stroke="#fff" stroke-opacity="0.11" stroke-width="1"/><path d="M583 273 l53 -26.5" stroke="#fff" stroke-opacity="0.07" stroke-width="1"/><path d="M612 435 l73 -36.5" stroke="#fff" stroke-opacity="0.12" stroke-width="1"/><path d="M186 179 l82 -41.0" stroke="#fff" stroke-opacity="0.13" stroke-width="1"/><path d="M880 363 l86 -43.0" stroke="#fff" stroke-opacity="0.09" stroke-width="1"/><path d="M189 69 l91 -45.5" stroke="#fff" stroke-opacity="0.09" stroke-width="1"/><path d="M86 585 l77 -38.5" stroke="#fff" stroke-opacity="0.13" stroke-width="1"/><path d="M3 8 l51 -25.5" stroke="#fff" stroke-opacity="0.08" stroke-width="1"/><path d="M424 408 l110 -55.0" stroke="#fff" stroke-opacity="0.08" stroke-width="1"/><path d="M408 48 l23 -11.5" stroke="#fff" stroke-opacity="0.06" stroke-width="1"/><path d="M487 222 l39 -19.5" stroke="#fff" stroke-opacity="0.09" stroke-width="1"/><path d="M985 385 l99 -49.5" stroke="#fff" stroke-opacity="0.05" stroke-width="1"/><path d="M1556 389 l46 -23.0" stroke="#fff" stroke-opacity="0.08" stroke-width="1"/><path d="M500 397 l66 -33.0" stroke="#fff" stroke-opacity="0.05" stroke-width="1"/><path d="M470 299 l34 -17.0" stroke="#fff" stroke-opacity="0.14" stroke-width="1"/><path d="M1477 279 l39 -19.5" stroke="#fff" stroke-opacity="0.12" stroke-width="1"/><path d="M508 578 l29 -14.5" stroke="#fff" stroke-opacity="0.11" stroke-width="1"/><path d="M353 104 l143 -71.5" stroke="#fff" stroke-opacity="0.12" stroke-width="1"/><path d="M1297 379 l93 -46.5" stroke="#fff" stroke-opacity="0.14" stroke-width="1"/><path d="M1114 199 l121 -60.5" stroke="#fff" stroke-opacity="0.10" stroke-width="1"/><path d="M130 564 l38 -19.0" stroke="#fff" stroke-opacity="0.11" stroke-width="1"/><path d="M998 483 l53 -26.5" stroke="#fff" stroke-opacity="0.13" stroke-width="1"/><path d="M329 201 l88 -44.0" stroke="#fff" stroke-opacity="0.07" stroke-width="1"/><path d="M703 216 l48 -24.0" stroke="#fff" stroke-opacity="0.06" stroke-width="1"/><path d="M816 525 l75 -37.5" stroke="#fff" stroke-opacity="0.13" stroke-width="1"/><path d="M1191 385 l63 -31.5" stroke="#fff" stroke-opacity="0.07" stroke-width="1"/><path d="M121 82 l103 -51.5" stroke="#fff" stroke-opacity="0.12" stroke-width="1"/><path d="M1080 472 l123 -61.5" stroke="#fff" stroke-opacity="0.06" stroke-width="1"/><path d="M61 174 l27 -13.5" stroke="#fff" stroke-opacity="0.07" stroke-width="1"/><path d="M787 88 l119 -59.5" stroke="#fff" stroke-opacity="0.09" stroke-width="1"/><path d="M504 111 l72 -36.0" stroke="#fff" stroke-opacity="0.10" stroke-width="1"/></g>
  <g transform="translate(64,64)">
    <rect x="-24" y="-22" rx="24" ry="24" width="620" height="168" fill="#020617" fill-opacity="0.40" stroke="#3b82f6" stroke-opacity="0.25"/>
    <text x="0" y="30" fill="#e5f2ff" font-family="Inter, Arial, sans-serif" font-size="40" font-weight="800">Section Bg Midnight</text>
    <text x="0" y="80" fill="#8aa4c7" font-family="Inter, Arial, sans-serif" font-size="22">DARK · backgrounds</text>
    <text x="0" y="120" fill="#8aa4c7" font-family="Inter, Arial, sans-serif" font-size="18">K-LOL.GG theme asset placeholder</text>
  </g>
</svg>