<svg xmlns="http://www.w3.org/2000/svg" width="900" height="900" viewBox="0 0 900 900" role="img" aria-label="Auction Card Glow Master">
  <defs>
    <linearGradient id="bg" x1="0" y1="0" x2="1" y2="1"><stop offset="0%" stop-color="#020617"/><stop offset="50%" stop-color="#07111f"/><stop offset="100%" stop-color="#0f172a"/></linearGradient>
    <radialGradient id="glow" cx="50%" cy="38%" r="70%"><stop offset="0%" stop-color="#3b82f6" stop-opacity="0.42"/><stop offset="40%" stop-color="#3b82f6" stop-opacity="0.14"/><stop offset="100%" stop-color="#3b82f6" stop-opacity="0"/></radialGradient>
    <pattern id="grid" width="48" height="48" patternUnits="userSpaceOnUse">
      <path d="M48 0H0V48" fill="none" stroke="#ffffff" stroke-opacity="0.10" stroke-width="1"/>
    </pattern>
  </defs>
  <rect width="900" height="900" fill="url(#bg)"/>
  <rect width="900" height="900" fill="url(#grid)"/>
  <rect x="-120" y="-120" width="1140" height="1140" fill="url(#glow)"/>
  <path d="M0 648 C 180 540, 324 810, 486 648 S 720 414, 900 540" fill="none" stroke="#3b82f6" stroke-opacity="0.28" stroke-width="7"/>
  <g><circle cx="329" cy="484" r="5" fill="#3b82f6" opacity="0.17"/><circle cx="676" cy="522" r="2" fill="#3b82f6" opacity="0.34"/><circle cx="317" cy="350" r="3" fill="#3b82f6" opacity="0.49"/><circle cx="202" cy="115" r="5" fill="#3b82f6" opacity="0.20"/><circle cx="754" cy="557" r="3" fill="#3b82f6" opacity="0.16"/><circle cx="256" cy="41" r="1" fill="#3b82f6" opacity="0.38"/><circle cx="767" cy="565" r="2" fill="#3b82f6" opacity="0.53"/><circle cx="623" cy="648" r="4" fill="#3b82f6" opacity="0.52"/><circle cx="185" cy="753" r="4" fill="#3b82f6" opacity="0.36"/><circle cx="283" cy="190" r="1" fill="#3b82f6" opacity="0.25"/><circle cx="169" cy="637" r="3" fill="#3b82f6" opacity="0.48"/><circle cx="539" cy="356" r="5" fill="#3b82f6" opacity="0.24"/><circle cx="899" cy="331" r="1" fill="#3b82f6" opacity="0.14"/><circle cx="421" cy="896" r="2" fill="#3b82f6" opacity="0.23"/><circle cx="856" cy="519" r="1" fill="#3b82f6" opacity="0.33"/><circle cx="434" cy="845" r="5" fill="#3b82f6" opacity="0.22"/><circle cx="665" cy="534" r="2" fill="#3b82f6" opacity="0.36"/><circle cx="802" cy="549" r="2" fill="#3b82f6" opacity="0.24"/><circle cx="116" cy="581" r="1" fill="#3b82f6" opacity="0.13"/><circle cx="490" cy="409" r="1" fill="#3b82f6" opacity="0.43"/><circle cx="866" cy="758" r="5" fill="#3b82f6" opacity="0.31"/><circle cx="855" cy="619" r="3" fill="#3b82f6" opacity="0.15"/><circle cx="475" cy="806" r="3" fill="#3b82f6" opacity="0.31"/><circle cx="727" cy="439" r="3" fill="#3b82f6" opacity="0.38"/><circle cx="879" cy="64" r="4" fill="#3b82f6" opacity="0.26"/><circle cx="142" cy="124" r="3" fill="#3b82f6" opacity="0.16"/><circle cx="241" cy="216" r="5" fill="#3b82f6" opacity="0.31"/><circle cx="260" cy="600" r="2" fill="#3b82f6" opacity="0.21"/><circle cx="824" cy="642" r="4" fill="#3b82f6" opacity="0.45"/><circle cx="446" cy="499" r="1" fill="#3b82f6" opacity="0.37"/><circle cx="881" cy="127" r="5" fill="#3b82f6" opacity="0.14"/><circle cx="126" cy="442" r="4" fill="#3b82f6" opacity="0.52"/><circle cx="290" cy="688" r="3" fill="#3b82f6" opacity="0.27"/><circle cx="357" cy="108" r="5" fill="#3b82f6" opacity="0.19"/><circle cx="32" cy="7" r="2" fill="#3b82f6" opacity="0.27"/><circle cx="185" cy="514" r="4" fill="#3b82f6" opacity="0.23"/><circle cx="107" cy="545" r="4" fill="#3b82f6" opacity="0.48"/><circle cx="468" cy="485" r="5" fill="#3b82f6" opacity="0.28"/><circle cx="440" cy="717" r="4" fill="#3b82f6" opacity="0.49"/><circle cx="439" cy="213" r="5" fill="#3b82f6" opacity="0.25"/><circle cx="301" cy="370" r="2" fill="#3b82f6" opacity="0.52"/><circle cx="648" cy="334" r="4" fill="#3b82f6" opacity="0.27"/><circle cx="650" cy="651" r="3" fill="#3b82f6" opacity="0.25"/><circle cx="549" cy="349" r="3" fill="#3b82f6" opacity="0.51"/><circle cx="89" cy="683" r="1" fill="#3b82f6" opacity="0.33"/><circle cx="328" cy="198" r="3" fill="#3b82f6" opacity="0.24"/><circle cx="790" cy="33" r="4" fill="#3b82f6" opacity="0.47"/><circle cx="624" cy="219" r="4" fill="#3b82f6" opacity="0.30"/><circle cx="113" cy="362" r="5" fill="#3b82f6" opacity="0.22"/><circle cx="139" cy="132" r="1" fill="#3b82f6" opacity="0.47"/><circle cx="807" cy="893" r="2" fill="#3b82f6" opacity="0.20"/><circle cx="134" cy="419" r="2" fill="#3b82f6" opacity="0.50"/><circle cx="527" cy="18" r="2" fill="#3b82f6" opacity="0.12"/><circle cx="664" cy="815" r="2" fill="#3b82f6" opacity="0.23"/><circle cx="525" cy="236" r="4" fill="#3b82f6" opacity="0.40"/><circle cx="320" cy="489" r="4" fill="#3b82f6" opacity="0.32"/><circle cx="480" cy="696" r="3" fill="#3b82f6" opacity="0.15"/><circle cx="206" cy="418" r="5" fill="#3b82f6" opacity="0.53"/><circle cx="316" cy="154" r="2" fill="#3b82f6" opacity="0.25"/><circle cx="134" cy="703" r="2" fill="#3b82f6" opacity="0.42"/><circle cx="24" cy="250" r="5" fill="#3b82f6" opacity="0.25"/><circle cx="659" cy="712" r="2" fill="#3b82f6" opacity="0.31"/><circle cx="27" cy="244" r="3" fill="#3b82f6" opacity="0.54"/><circle cx="275" cy="385" r="4" fill="#3b82f6" opacity="0.47"/><circle cx="497" cy="754" r="2" fill="#3b82f6" opacity="0.35"/><circle cx="752" cy="724" r="3" fill="#3b82f6" opacity="0.14"/><circle cx="872" cy="823" r="4" fill="#3b82f6" opacity="0.25"/><circle cx="542" cy="835" r="3" fill="#3b82f6" opacity="0.52"/><circle cx="508" cy="678" r="2" fill="#3b82f6" opacity="0.22"/><circle cx="228" cy="324" r="5" fill="#3b82f6" opacity="0.32"/><circle cx="897" cy="801" r="4" fill="#3b82f6" opacity="0.25"/><circle cx="683" cy="510" r="3" fill="#3b82f6" opacity="0.54"/><circle cx="85" cy="714" r="5" fill="#3b82f6" opacity="0.41"/><circle cx="222" cy="649" r="2" fill="#3b82f6" opacity="0.51"/><circle cx="899" cy="164" r="2" fill="#3b82f6" opacity="0.53"/><circle cx="767" cy="682" r="5" fill="#3b82f6" opacity="0.48"/><circle cx="515" cy="668" r="5" fill="#3b82f6" opacity="0.32"/><circle cx="535" cy="666" r="2" fill="#3b82f6" opacity="0.24"/><circle cx="421" cy="686" r="3" fill="#3b82f6" opacity="0.25"/><circle cx="356" cy="281" r="3" fill="#3b82f6" opacity="0.30"/><circle cx="314" cy="362" r="3" fill="#3b82f6" opacity="0.21"/><circle cx="115" cy="211" r="4" fill="#3b82f6" opacity="0.15"/><circle cx="687" cy="164" r="2" fill="#3b82f6" opacity="0.15"/><circle cx="152" cy="593" r="5" fill="#3b82f6" opacity="0.30"/><circle cx="285" cy="599" r="4" fill="#3b82f6" opacity="0.16"/><circle cx="212" cy="458" r="5" fill="#3b82f6" opacity="0.54"/><circle cx="690" cy="230" r="2" fill="#3b82f6" opacity="0.24"/><circle cx="4" cy="210" r="4" fill="#3b82f6" opacity="0.23"/><circle cx="287" cy="579" r="4" fill="#3b82f6" opacity="0.28"/><circle cx="382" cy="289" r="3" fill="#3b82f6" opacity="0.54"/></g>
  <g transform="translate(64,64)">
    <rect x="-24" y="-22" rx="24" ry="24" width="620" height="168" fill="#020617" fill-opacity="0.40" stroke="#3b82f6" stroke-opacity="0.25"/>
    <text x="0" y="30" fill="#e5f2ff" font-family="Inter, Arial, sans-serif" font-size="40" font-weight="800">Auction Card Glow Master</text>
    <text x="0" y="80" fill="#8aa4c7" font-family="Inter, Arial, sans-serif" font-size="22">DARK · auction</text>
    <text x="0" y="120" fill="#8aa4c7" font-family="Inter, Arial, sans-serif" font-size="18">K-LOL.GG theme asset placeholder</text>
  </g>
</svg>