<svg xmlns="http://www.w3.org/2000/svg" width="900" height="900" viewBox="0 0 900 900" role="img" aria-label="Auction Card Glow Challenger">
  <defs>
    <linearGradient id="bg" x1="0" y1="0" x2="1" y2="1"><stop offset="0%" stop-color="#020617"/><stop offset="50%" stop-color="#07111f"/><stop offset="100%" stop-color="#0f172a"/></linearGradient>
    <radialGradient id="glow" cx="50%" cy="38%" r="70%"><stop offset="0%" stop-color="#3b82f6" stop-opacity="0.42"/><stop offset="40%" stop-color="#3b82f6" stop-opacity="0.14"/><stop offset="100%" stop-color="#3b82f6" stop-opacity="0"/></radialGradient>
    <pattern id="grid" width="48" height="48" patternUnits="userSpaceOnUse">
      <path d="M48 0H0V48" fill="none" stroke="#ffffff" stroke-opacity="0.10" stroke-width="1"/>
    </pattern>
  </defs>
  <rect width="900" height="900" fill="url(#bg)"/>
  <rect width="900" height="900" fill="url(#grid)"/>
  <rect x="-120" y="-120" width="1140" height="1140" fill="url(#glow)"/>
  <path d="M0 648 C 180 540, 324 810, 486 648 S 720 414, 900 540" fill="none" stroke="#3b82f6" stroke-opacity="0.28" stroke-width="7"/>
  <g><circle cx="55" cy="727" r="4" fill="#3b82f6" opacity="0.18"/><circle cx="452" cy="246" r="1" fill="#3b82f6" opacity="0.28"/><circle cx="631" cy="736" r="2" fill="#3b82f6" opacity="0.23"/><circle cx="333" cy="48" r="3" fill="#3b82f6" opacity="0.24"/><circle cx="146" cy="298" r="2" fill="#3b82f6" opacity="0.35"/><circle cx="783" cy="899" r="4" fill="#3b82f6" opacity="0.39"/><circle cx="608" cy="221" r="1" fill="#3b82f6" opacity="0.50"/><circle cx="252" cy="803" r="3" fill="#3b82f6" opacity="0.31"/><circle cx="426" cy="892" r="5" fill="#3b82f6" opacity="0.32"/><circle cx="318" cy="571" r="5" fill="#3b82f6" opacity="0.35"/><circle cx="211" cy="780" r="1" fill="#3b82f6" opacity="0.47"/><circle cx="29" cy="442" r="2" fill="#3b82f6" opacity="0.43"/><circle cx="223" cy="101" r="3" fill="#3b82f6" opacity="0.36"/><circle cx="145" cy="439" r="4" fill="#3b82f6" opacity="0.20"/><circle cx="720" cy="367" r="2" fill="#3b82f6" opacity="0.44"/><circle cx="66" cy="8" r="3" fill="#3b82f6" opacity="0.51"/><circle cx="356" cy="834" r="4" fill="#3b82f6" opacity="0.52"/><circle cx="226" cy="460" r="5" fill="#3b82f6" opacity="0.27"/><circle cx="154" cy="689" r="4" fill="#3b82f6" opacity="0.33"/><circle cx="214" cy="704" r="5" fill="#3b82f6" opacity="0.29"/><circle cx="738" cy="526" r="1" fill="#3b82f6" opacity="0.21"/><circle cx="490" cy="722" r="2" fill="#3b82f6" opacity="0.46"/><circle cx="782" cy="704" r="2" fill="#3b82f6" opacity="0.38"/><circle cx="502" cy="333" r="5" fill="#3b82f6" opacity="0.46"/><circle cx="853" cy="317" r="4" fill="#3b82f6" opacity="0.44"/><circle cx="275" cy="62" r="4" fill="#3b82f6" opacity="0.17"/><circle cx="124" cy="194" r="1" fill="#3b82f6" opacity="0.22"/><circle cx="72" cy="782" r="4" fill="#3b82f6" opacity="0.26"/><circle cx="832" cy="546" r="3" fill="#3b82f6" opacity="0.46"/><circle cx="495" cy="729" r="1" fill="#3b82f6" opacity="0.18"/><circle cx="640" cy="504" r="4" fill="#3b82f6" opacity="0.24"/><circle cx="712" cy="474" r="3" fill="#3b82f6" opacity="0.37"/><circle cx="91" cy="200" r="4" fill="#3b82f6" opacity="0.40"/><circle cx="439" cy="232" r="3" fill="#3b82f6" opacity="0.50"/><circle cx="350" cy="471" r="2" fill="#3b82f6" opacity="0.55"/><circle cx="805" cy="86" r="5" fill="#3b82f6" opacity="0.52"/><circle cx="583" cy="14" r="1" fill="#3b82f6" opacity="0.13"/><circle cx="592" cy="564" r="3" fill="#3b82f6" opacity="0.27"/><circle cx="413" cy="593" r="4" fill="#3b82f6" opacity="0.19"/><circle cx="814" cy="52" r="1" fill="#3b82f6" opacity="0.24"/><circle cx="74" cy="678" r="5" fill="#3b82f6" opacity="0.19"/><circle cx="502" cy="216" r="4" fill="#3b82f6" opacity="0.30"/><circle cx="234" cy="348" r="3" fill="#3b82f6" opacity="0.37"/><circle cx="892" cy="819" r="3" fill="#3b82f6" opacity="0.53"/><circle cx="227" cy="281" r="2" fill="#3b82f6" opacity="0.16"/><circle cx="892" cy="222" r="1" fill="#3b82f6" opacity="0.47"/><circle cx="178" cy="401" r="2" fill="#3b82f6" opacity="0.16"/><circle cx="521" cy="376" r="2" fill="#3b82f6" opacity="0.22"/><circle cx="791" cy="830" r="4" fill="#3b82f6" opacity="0.37"/><circle cx="127" cy="779" r="4" fill="#3b82f6" opacity="0.44"/><circle cx="561" cy="709" r="3" fill="#3b82f6" opacity="0.23"/><circle cx="633" cy="593" r="3" fill="#3b82f6" opacity="0.44"/><circle cx="511" cy="728" r="4" fill="#3b82f6" opacity="0.39"/><circle cx="431" cy="426" r="4" fill="#3b82f6" opacity="0.36"/><circle cx="483" cy="503" r="2" fill="#3b82f6" opacity="0.28"/><circle cx="25" cy="559" r="4" fill="#3b82f6" opacity="0.41"/><circle cx="402" cy="318" r="5" fill="#3b82f6" opacity="0.52"/><circle cx="784" cy="709" r="4" fill="#3b82f6" opacity="0.13"/><circle cx="873" cy="654" r="2" fill="#3b82f6" opacity="0.18"/><circle cx="167" cy="510" r="1" fill="#3b82f6" opacity="0.47"/><circle cx="891" cy="369" r="2" fill="#3b82f6" opacity="0.25"/><circle cx="558" cy="126" r="3" fill="#3b82f6" opacity="0.47"/><circle cx="731" cy="618" r="3" fill="#3b82f6" opacity="0.40"/><circle cx="476" cy="520" r="2" fill="#3b82f6" opacity="0.52"/><circle cx="501" cy="430" r="3" fill="#3b82f6" opacity="0.38"/><circle cx="639" cy="508" r="4" fill="#3b82f6" opacity="0.33"/><circle cx="418" cy="103" r="2" fill="#3b82f6" opacity="0.47"/><circle cx="197" cy="702" r="4" fill="#3b82f6" opacity="0.52"/><circle cx="66" cy="823" r="5" fill="#3b82f6" opacity="0.46"/><circle cx="362" cy="98" r="3" fill="#3b82f6" opacity="0.22"/><circle cx="439" cy="467" r="5" fill="#3b82f6" opacity="0.49"/><circle cx="160" cy="357" r="3" fill="#3b82f6" opacity="0.45"/><circle cx="577" cy="204" r="1" fill="#3b82f6" opacity="0.19"/><circle cx="446" cy="28" r="3" fill="#3b82f6" opacity="0.54"/><circle cx="364" cy="547" r="2" fill="#3b82f6" opacity="0.31"/><circle cx="817" cy="638" r="2" fill="#3b82f6" opacity="0.47"/><circle cx="752" cy="170" r="1" fill="#3b82f6" opacity="0.51"/><circle cx="27" cy="881" r="1" fill="#3b82f6" opacity="0.49"/><circle cx="802" cy="616" r="5" fill="#3b82f6" opacity="0.53"/><circle cx="105" cy="154" r="3" fill="#3b82f6" opacity="0.22"/><circle cx="646" cy="635" r="2" fill="#3b82f6" opacity="0.53"/><circle cx="533" cy="347" r="3" fill="#3b82f6" opacity="0.37"/><circle cx="143" cy="804" r="4" fill="#3b82f6" opacity="0.13"/><circle cx="42" cy="596" r="4" fill="#3b82f6" opacity="0.19"/><circle cx="559" cy="274" r="3" fill="#3b82f6" opacity="0.48"/><circle cx="730" cy="131" r="1" fill="#3b82f6" opacity="0.30"/><circle cx="617" cy="482" r="4" fill="#3b82f6" opacity="0.14"/><circle cx="218" cy="553" r="5" fill="#3b82f6" opacity="0.24"/><circle cx="159" cy="546" r="2" fill="#3b82f6" opacity="0.31"/><circle cx="228" cy="769" r="5" fill="#3b82f6" opacity="0.18"/></g>
  <g transform="translate(64,64)">
    <rect x="-24" y="-22" rx="24" ry="24" width="620" height="168" fill="#020617" fill-opacity="0.40" stroke="#3b82f6" stroke-opacity="0.25"/>
    <text x="0" y="30" fill="#e5f2ff" font-family="Inter, Arial, sans-serif" font-size="40" font-weight="800">Auction Card Glow Challenger</text>
    <text x="0" y="80" fill="#8aa4c7" font-family="Inter, Arial, sans-serif" font-size="22">DARK · auction</text>
    <text x="0" y="120" fill="#8aa4c7" font-family="Inter, Arial, sans-serif" font-size="18">K-LOL.GG theme asset placeholder</text>
  </g>
</svg>