<svg xmlns="http://www.w3.org/2000/svg" width="1200" height="700" viewBox="0 0 1200 700" role="img" aria-label="Auction Reveal Flash">
  <defs>
    <linearGradient id="bg" x1="0" y1="0" x2="1" y2="1"><stop offset="0%" stop-color="#020617"/><stop offset="50%" stop-color="#07111f"/><stop offset="100%" stop-color="#0f172a"/></linearGradient>
    <radialGradient id="glow" cx="50%" cy="38%" r="70%"><stop offset="0%" stop-color="#3b82f6" stop-opacity="0.42"/><stop offset="40%" stop-color="#3b82f6" stop-opacity="0.14"/><stop offset="100%" stop-color="#3b82f6" stop-opacity="0"/></radialGradient>
    <pattern id="grid" width="48" height="48" patternUnits="userSpaceOnUse">
      <path d="M48 0H0V48" fill="none" stroke="#ffffff" stroke-opacity="0.10" stroke-width="1"/>
    </pattern>
  </defs>
  <rect width="1200" height="700" fill="url(#bg)"/>
  <rect width="1200" height="700" fill="url(#grid)"/>
  <rect x="-120" y="-120" width="1440" height="940" fill="url(#glow)"/>
  <path d="M0 504 C 240 420, 432 630, 648 504 S 960 322, 1200 420" fill="none" stroke="#3b82f6" stroke-opacity="0.28" stroke-width="7"/>
  <g><circle cx="796" cy="74" r="2" fill="#3b82f6" opacity="0.20"/><circle cx="831" cy="510" r="3" fill="#3b82f6" opacity="0.27"/><circle cx="14" cy="322" r="1" fill="#3b82f6" opacity="0.52"/><circle cx="246" cy="42" r="4" fill="#3b82f6" opacity="0.30"/><circle cx="228" cy="389" r="4" fill="#3b82f6" opacity="0.39"/><circle cx="976" cy="218" r="4" fill="#3b82f6" opacity="0.43"/><circle cx="184" cy="295" r="5" fill="#3b82f6" opacity="0.16"/><circle cx="419" cy="442" r="3" fill="#3b82f6" opacity="0.48"/><circle cx="952" cy="274" r="1" fill="#3b82f6" opacity="0.14"/><circle cx="540" cy="683" r="2" fill="#3b82f6" opacity="0.43"/><circle cx="56" cy="478" r="3" fill="#3b82f6" opacity="0.47"/><circle cx="369" cy="666" r="1" fill="#3b82f6" opacity="0.47"/><circle cx="732" cy="102" r="5" fill="#3b82f6" opacity="0.24"/><circle cx="1010" cy="116" r="2" fill="#3b82f6" opacity="0.49"/><circle cx="770" cy="466" r="4" fill="#3b82f6" opacity="0.43"/><circle cx="345" cy="385" r="1" fill="#3b82f6" opacity="0.45"/><circle cx="643" cy="574" r="2" fill="#3b82f6" opacity="0.46"/><circle cx="1157" cy="87" r="1" fill="#3b82f6" opacity="0.21"/><circle cx="507" cy="181" r="3" fill="#3b82f6" opacity="0.13"/><circle cx="803" cy="31" r="5" fill="#3b82f6" opacity="0.14"/><circle cx="1089" cy="310" r="2" fill="#3b82f6" opacity="0.30"/><circle cx="925" cy="638" r="5" fill="#3b82f6" opacity="0.16"/><circle cx="416" cy="274" r="3" fill="#3b82f6" opacity="0.37"/><circle cx="301" cy="484" r="1" fill="#3b82f6" opacity="0.21"/><circle cx="609" cy="1" r="5" fill="#3b82f6" opacity="0.44"/><circle cx="557" cy="473" r="5" fill="#3b82f6" opacity="0.18"/><circle cx="146" cy="172" r="5" fill="#3b82f6" opacity="0.22"/><circle cx="631" cy="549" r="1" fill="#3b82f6" opacity="0.43"/><circle cx="59" cy="77" r="4" fill="#3b82f6" opacity="0.17"/><circle cx="71" cy="537" r="5" fill="#3b82f6" opacity="0.16"/><circle cx="543" cy="392" r="5" fill="#3b82f6" opacity="0.44"/><circle cx="729" cy="454" r="4" fill="#3b82f6" opacity="0.23"/><circle cx="727" cy="125" r="2" fill="#3b82f6" opacity="0.25"/><circle cx="1077" cy="183" r="1" fill="#3b82f6" opacity="0.45"/><circle cx="609" cy="620" r="1" fill="#3b82f6" opacity="0.45"/><circle cx="2" cy="454" r="2" fill="#3b82f6" opacity="0.12"/><circle cx="339" cy="671" r="3" fill="#3b82f6" opacity="0.32"/><circle cx="537" cy="541" r="4" fill="#3b82f6" opacity="0.48"/><circle cx="56" cy="373" r="5" fill="#3b82f6" opacity="0.38"/><circle cx="281" cy="433" r="5" fill="#3b82f6" opacity="0.54"/><circle cx="89" cy="81" r="4" fill="#3b82f6" opacity="0.54"/><circle cx="302" cy="408" r="5" fill="#3b82f6" opacity="0.25"/><circle cx="440" cy="285" r="1" fill="#3b82f6" opacity="0.51"/><circle cx="878" cy="14" r="2" fill="#3b82f6" opacity="0.23"/><circle cx="144" cy="106" r="1" fill="#3b82f6" opacity="0.16"/><circle cx="856" cy="137" r="1" fill="#3b82f6" opacity="0.37"/><circle cx="578" cy="612" r="4" fill="#3b82f6" opacity="0.44"/><circle cx="945" cy="667" r="4" fill="#3b82f6" opacity="0.51"/><circle cx="1073" cy="86" r="4" fill="#3b82f6" opacity="0.36"/><circle cx="598" cy="629" r="2" fill="#3b82f6" opacity="0.31"/><circle cx="336" cy="87" r="4" fill="#3b82f6" opacity="0.49"/><circle cx="664" cy="144" r="1" fill="#3b82f6" opacity="0.55"/><circle cx="51" cy="610" r="4" fill="#3b82f6" opacity="0.49"/><circle cx="416" cy="199" r="1" fill="#3b82f6" opacity="0.26"/><circle cx="1097" cy="548" r="1" fill="#3b82f6" opacity="0.19"/><circle cx="599" cy="430" r="1" fill="#3b82f6" opacity="0.31"/><circle cx="309" cy="335" r="5" fill="#3b82f6" opacity="0.45"/><circle cx="168" cy="179" r="4" fill="#3b82f6" opacity="0.31"/><circle cx="444" cy="479" r="2" fill="#3b82f6" opacity="0.25"/><circle cx="557" cy="616" r="2" fill="#3b82f6" opacity="0.20"/><circle cx="1184" cy="552" r="1" fill="#3b82f6" opacity="0.19"/><circle cx="106" cy="79" r="2" fill="#3b82f6" opacity="0.16"/><circle cx="916" cy="569" r="3" fill="#3b82f6" opacity="0.29"/><circle cx="793" cy="652" r="3" fill="#3b82f6" opacity="0.36"/><circle cx="962" cy="348" r="5" fill="#3b82f6" opacity="0.36"/><circle cx="773" cy="197" r="4" fill="#3b82f6" opacity="0.32"/><circle cx="96" cy="283" r="2" fill="#3b82f6" opacity="0.20"/><circle cx="1137" cy="532" r="5" fill="#3b82f6" opacity="0.18"/><circle cx="625" cy="87" r="5" fill="#3b82f6" opacity="0.45"/><circle cx="559" cy="676" r="3" fill="#3b82f6" opacity="0.37"/><circle cx="254" cy="540" r="5" fill="#3b82f6" opacity="0.32"/><circle cx="592" cy="35" r="3" fill="#3b82f6" opacity="0.24"/><circle cx="630" cy="578" r="5" fill="#3b82f6" opacity="0.17"/><circle cx="1149" cy="374" r="4" fill="#3b82f6" opacity="0.32"/><circle cx="913" cy="603" r="3" fill="#3b82f6" opacity="0.48"/><circle cx="114" cy="263" r="4" fill="#3b82f6" opacity="0.43"/><circle cx="545" cy="662" r="3" fill="#3b82f6" opacity="0.24"/><circle cx="79" cy="162" r="5" fill="#3b82f6" opacity="0.39"/><circle cx="740" cy="405" r="5" fill="#3b82f6" opacity="0.39"/><circle cx="70" cy="43" r="5" fill="#3b82f6" opacity="0.45"/><circle cx="790" cy="99" r="5" fill="#3b82f6" opacity="0.31"/><circle cx="717" cy="669" r="4" fill="#3b82f6" opacity="0.18"/><circle cx="692" cy="195" r="2" fill="#3b82f6" opacity="0.30"/><circle cx="299" cy="48" r="3" fill="#3b82f6" opacity="0.48"/><circle cx="830" cy="316" r="3" fill="#3b82f6" opacity="0.34"/><circle cx="158" cy="392" r="1" fill="#3b82f6" opacity="0.45"/><circle cx="904" cy="19" r="5" fill="#3b82f6" opacity="0.53"/><circle cx="362" cy="549" r="1" fill="#3b82f6" opacity="0.27"/><circle cx="635" cy="530" r="5" fill="#3b82f6" opacity="0.14"/><circle cx="832" cy="691" r="1" fill="#3b82f6" opacity="0.14"/></g>
  <g transform="translate(64,64)">
    <rect x="-24" y="-22" rx="24" ry="24" width="620" height="168" fill="#020617" fill-opacity="0.40" stroke="#3b82f6" stroke-opacity="0.25"/>
    <text x="0" y="30" fill="#e5f2ff" font-family="Inter, Arial, sans-serif" font-size="40" font-weight="800">Auction Reveal Flash</text>
    <text x="0" y="80" fill="#8aa4c7" font-family="Inter, Arial, sans-serif" font-size="22">DARK · auction</text>
    <text x="0" y="120" fill="#8aa4c7" font-family="Inter, Arial, sans-serif" font-size="18">K-LOL.GG theme asset placeholder</text>
  </g>
</svg>