<svg xmlns="http://www.w3.org/2000/svg" width="1600" height="160" viewBox="0 0 1600 160" role="img" aria-label="Divider Lightning">
  <defs>
    <linearGradient id="bg" x1="0" y1="0" x2="1" y2="1"><stop offset="0%" stop-color="#020617"/><stop offset="50%" stop-color="#07111f"/><stop offset="100%" stop-color="#0f172a"/></linearGradient>
    <radialGradient id="glow" cx="50%" cy="38%" r="70%"><stop offset="0%" stop-color="#3b82f6" stop-opacity="0.42"/><stop offset="40%" stop-color="#3b82f6" stop-opacity="0.14"/><stop offset="100%" stop-color="#3b82f6" stop-opacity="0"/></radialGradient>
    <pattern id="grid" width="48" height="48" patternUnits="userSpaceOnUse">
      <path d="M48 0H0V48" fill="none" stroke="#ffffff" stroke-opacity="0.10" stroke-width="1"/>
    </pattern>
  </defs>
  <rect width="1600" height="160" fill="url(#bg)"/>
  <rect width="1600" height="160" fill="url(#grid)"/>
  <rect x="-120" y="-120" width="1840" height="400" fill="url(#glow)"/>
  <path d="M0 115 C 320 96, 576 144, 864 115 S 1280 74, 1600 96" fill="none" stroke="#3b82f6" stroke-opacity="0.28" stroke-width="7"/>
  <g><circle cx="918" cy="100" r="2" fill="#3b82f6" opacity="0.34"/><circle cx="1401" cy="132" r="5" fill="#3b82f6" opacity="0.55"/><circle cx="142" cy="0" r="1" fill="#3b82f6" opacity="0.22"/><circle cx="211" cy="156" r="5" fill="#3b82f6" opacity="0.52"/><circle cx="17" cy="159" r="3" fill="#3b82f6" opacity="0.51"/><circle cx="151" cy="154" r="3" fill="#3b82f6" opacity="0.45"/><circle cx="570" cy="88" r="4" fill="#3b82f6" opacity="0.29"/><circle cx="700" cy="40" r="1" fill="#3b82f6" opacity="0.24"/><circle cx="754" cy="116" r="3" fill="#3b82f6" opacity="0.43"/><circle cx="486" cy="28" r="5" fill="#3b82f6" opacity="0.31"/><circle cx="499" cy="119" r="1" fill="#3b82f6" opacity="0.26"/><circle cx="45" cy="73" r="5" fill="#3b82f6" opacity="0.13"/><circle cx="580" cy="145" r="4" fill="#3b82f6" opacity="0.47"/><circle cx="983" cy="30" r="5" fill="#3b82f6" opacity="0.17"/><circle cx="519" cy="33" r="2" fill="#3b82f6" opacity="0.26"/><circle cx="1388" cy="9" r="4" fill="#3b82f6" opacity="0.20"/><circle cx="809" cy="128" r="1" fill="#3b82f6" opacity="0.26"/><circle cx="1060" cy="68" r="1" fill="#3b82f6" opacity="0.41"/><circle cx="697" cy="100" r="3" fill="#3b82f6" opacity="0.32"/><circle cx="771" cy="10" r="5" fill="#3b82f6" opacity="0.32"/><circle cx="1462" cy="84" r="3" fill="#3b82f6" opacity="0.43"/><circle cx="1355" cy="56" r="2" fill="#3b82f6" opacity="0.36"/><circle cx="138" cy="153" r="4" fill="#3b82f6" opacity="0.33"/><circle cx="1293" cy="15" r="2" fill="#3b82f6" opacity="0.49"/><circle cx="707" cy="91" r="1" fill="#3b82f6" opacity="0.53"/><circle cx="157" cy="70" r="4" fill="#3b82f6" opacity="0.19"/><circle cx="492" cy="69" r="2" fill="#3b82f6" opacity="0.24"/><circle cx="1130" cy="57" r="4" fill="#3b82f6" opacity="0.29"/><circle cx="375" cy="73" r="4" fill="#3b82f6" opacity="0.15"/><circle cx="88" cy="129" r="5" fill="#3b82f6" opacity="0.36"/><circle cx="1287" cy="46" r="4" fill="#3b82f6" opacity="0.29"/><circle cx="9" cy="111" r="2" fill="#3b82f6" opacity="0.54"/><circle cx="1285" cy="51" r="4" fill="#3b82f6" opacity="0.46"/><circle cx="518" cy="152" r="1" fill="#3b82f6" opacity="0.33"/><circle cx="975" cy="153" r="4" fill="#3b82f6" opacity="0.20"/><circle cx="660" cy="127" r="2" fill="#3b82f6" opacity="0.31"/><circle cx="1123" cy="78" r="2" fill="#3b82f6" opacity="0.29"/><circle cx="1014" cy="28" r="5" fill="#3b82f6" opacity="0.39"/><circle cx="388" cy="8" r="2" fill="#3b82f6" opacity="0.34"/><circle cx="1156" cy="66" r="4" fill="#3b82f6" opacity="0.47"/><circle cx="37" cy="107" r="1" fill="#3b82f6" opacity="0.20"/><circle cx="505" cy="49" r="5" fill="#3b82f6" opacity="0.34"/><circle cx="287" cy="47" r="3" fill="#3b82f6" opacity="0.31"/><circle cx="710" cy="139" r="5" fill="#3b82f6" opacity="0.21"/><circle cx="1168" cy="154" r="5" fill="#3b82f6" opacity="0.39"/><circle cx="333" cy="18" r="5" fill="#3b82f6" opacity="0.27"/><circle cx="1498" cy="147" r="2" fill="#3b82f6" opacity="0.16"/><circle cx="1454" cy="126" r="4" fill="#3b82f6" opacity="0.36"/><circle cx="1139" cy="22" r="5" fill="#3b82f6" opacity="0.44"/><circle cx="759" cy="87" r="2" fill="#3b82f6" opacity="0.13"/><circle cx="681" cy="37" r="1" fill="#3b82f6" opacity="0.16"/><circle cx="1241" cy="148" r="4" fill="#3b82f6" opacity="0.46"/><circle cx="926" cy="77" r="1" fill="#3b82f6" opacity="0.48"/><circle cx="1423" cy="91" r="1" fill="#3b82f6" opacity="0.14"/><circle cx="207" cy="63" r="1" fill="#3b82f6" opacity="0.19"/><circle cx="191" cy="127" r="1" fill="#3b82f6" opacity="0.45"/><circle cx="1157" cy="77" r="3" fill="#3b82f6" opacity="0.54"/><circle cx="47" cy="68" r="4" fill="#3b82f6" opacity="0.37"/><circle cx="1296" cy="160" r="5" fill="#3b82f6" opacity="0.18"/><circle cx="1008" cy="157" r="1" fill="#3b82f6" opacity="0.52"/><circle cx="790" cy="55" r="1" fill="#3b82f6" opacity="0.36"/><circle cx="1101" cy="55" r="4" fill="#3b82f6" opacity="0.18"/><circle cx="231" cy="6" r="1" fill="#3b82f6" opacity="0.23"/><circle cx="1459" cy="66" r="2" fill="#3b82f6" opacity="0.14"/><circle cx="504" cy="43" r="5" fill="#3b82f6" opacity="0.13"/><circle cx="1342" cy="87" r="4" fill="#3b82f6" opacity="0.21"/><circle cx="260" cy="132" r="1" fill="#3b82f6" opacity="0.47"/><circle cx="472" cy="75" r="2" fill="#3b82f6" opacity="0.37"/><circle cx="563" cy="101" r="4" fill="#3b82f6" opacity="0.33"/><circle cx="842" cy="68" r="3" fill="#3b82f6" opacity="0.19"/><circle cx="1325" cy="72" r="5" fill="#3b82f6" opacity="0.19"/><circle cx="1170" cy="82" r="2" fill="#3b82f6" opacity="0.52"/><circle cx="634" cy="32" r="3" fill="#3b82f6" opacity="0.38"/><circle cx="1186" cy="64" r="4" fill="#3b82f6" opacity="0.48"/><circle cx="1083" cy="116" r="5" fill="#3b82f6" opacity="0.48"/><circle cx="1530" cy="152" r="4" fill="#3b82f6" opacity="0.36"/><circle cx="551" cy="131" r="2" fill="#3b82f6" opacity="0.43"/><circle cx="74" cy="84" r="3" fill="#3b82f6" opacity="0.17"/><circle cx="448" cy="109" r="1" fill="#3b82f6" opacity="0.28"/><circle cx="914" cy="79" r="5" fill="#3b82f6" opacity="0.22"/><circle cx="937" cy="117" r="3" fill="#3b82f6" opacity="0.54"/><circle cx="248" cy="126" r="1" fill="#3b82f6" opacity="0.18"/><circle cx="611" cy="82" r="1" fill="#3b82f6" opacity="0.44"/><circle cx="450" cy="27" r="1" fill="#3b82f6" opacity="0.55"/><circle cx="1171" cy="105" r="5" fill="#3b82f6" opacity="0.40"/><circle cx="1122" cy="153" r="1" fill="#3b82f6" opacity="0.43"/><circle cx="1393" cy="56" r="3" fill="#3b82f6" opacity="0.18"/><circle cx="859" cy="106" r="4" fill="#3b82f6" opacity="0.53"/><circle cx="594" cy="40" r="1" fill="#3b82f6" opacity="0.30"/><circle cx="80" cy="23" r="2" fill="#3b82f6" opacity="0.42"/></g>
  <g transform="translate(64,64)">
    <rect x="-24" y="-22" rx="24" ry="24" width="620" height="168" fill="#020617" fill-opacity="0.40" stroke="#3b82f6" stroke-opacity="0.25"/>
    <text x="0" y="30" fill="#e5f2ff" font-family="Inter, Arial, sans-serif" font-size="40" font-weight="800">Divider Lightning</text>
    <text x="0" y="80" fill="#8aa4c7" font-family="Inter, Arial, sans-serif" font-size="22">DARK · overlays</text>
    <text x="0" y="120" fill="#8aa4c7" font-family="Inter, Arial, sans-serif" font-size="18">K-LOL.GG theme asset placeholder</text>
  </g>
</svg>