<svg xmlns="http://www.w3.org/2000/svg" width="1600" height="900" viewBox="0 0 1600 900" role="img" aria-label="Grid Thin">
  <defs>
    <linearGradient id="bg" x1="0" y1="0" x2="1" y2="1"><stop offset="0%" stop-color="#020617"/><stop offset="50%" stop-color="#07111f"/><stop offset="100%" stop-color="#0f172a"/></linearGradient>
    <radialGradient id="glow" cx="50%" cy="38%" r="70%"><stop offset="0%" stop-color="#3b82f6" stop-opacity="0.42"/><stop offset="40%" stop-color="#3b82f6" stop-opacity="0.14"/><stop offset="100%" stop-color="#3b82f6" stop-opacity="0"/></radialGradient>
    <pattern id="grid" width="48" height="48" patternUnits="userSpaceOnUse">
      <path d="M48 0H0V48" fill="none" stroke="#ffffff" stroke-opacity="0.10" stroke-width="1"/>
    </pattern>
  </defs>
  <rect width="1600" height="900" fill="url(#bg)"/>
  <rect width="1600" height="900" fill="url(#grid)"/>
  <rect x="-120" y="-120" width="1840" height="1140" fill="url(#glow)"/>
  <path d="M0 648 C 320 540, 576 810, 864 648 S 1280 414, 1600 540" fill="none" stroke="#3b82f6" stroke-opacity="0.28" stroke-width="7"/>
  <g><path d="M521 291 l53 -26.5" stroke="#fff" stroke-opacity="0.11" stroke-width="1"/><path d="M413 40 l146 -73.0" stroke="#fff" stroke-opacity="0.07" stroke-width="1"/><path d="M1215 455 l40 -20.0" stroke="#fff" stroke-opacity="0.07" stroke-width="1"/><path d="M848 127 l34 -17.0" stroke="#fff" stroke-opacity="0.11" stroke-width="1"/><path d="M295 893 l100 -50.0" stroke="#fff" stroke-opacity="0.05" stroke-width="1"/><path d="M77 169 l102 -51.0" stroke="#fff" stroke-opacity="0.07" stroke-width="1"/><path d="M1377 265 l97 -48.5" stroke="#fff" stroke-opacity="0.10" stroke-width="1"/><path d="M231 368 l58 -29.0" stroke="#fff" stroke-opacity="0.12" stroke-width="1"/><path d="M464 149 l146 -73.0" stroke="#fff" stroke-opacity="0.12" stroke-width="1"/><path d="M86 233 l124 -62.0" stroke="#fff" stroke-opacity="0.10" stroke-width="1"/><path d="M471 178 l25 -12.5" stroke="#fff" stroke-opacity="0.12" stroke-width="1"/><path d="M191 368 l83 -41.5" stroke="#fff" stroke-opacity="0.06" stroke-width="1"/><path d="M1104 553 l49 -24.5" stroke="#fff" stroke-opacity="0.12" stroke-width="1"/><path d="M1044 279 l137 -68.5" stroke="#fff" stroke-opacity="0.10" stroke-width="1"/><path d="M394 896 l115 -57.5" stroke="#fff" stroke-opacity="0.10" stroke-width="1"/><path d="M434 584 l155 -77.5" stroke="#fff" stroke-opacity="0.09" stroke-width="1"/><path d="M919 8 l78 -39.0" stroke="#fff" stroke-opacity="0.08" stroke-width="1"/><path d="M650 663 l108 -54.0" stroke="#fff" stroke-opacity="0.11" stroke-width="1"/><path d="M1239 194 l44 -22.0" stroke="#fff" stroke-opacity="0.12" stroke-width="1"/><path d="M652 479 l133 -66.5" stroke="#fff" stroke-opacity="0.11" stroke-width="1"/><path d="M570 16 l58 -29.0" stroke="#fff" stroke-opacity="0.07" stroke-width="1"/><path d="M1112 505 l153 -76.5" stroke="#fff" stroke-opacity="0.08" stroke-width="1"/><path d="M214 40 l134 -67.0" stroke="#fff" stroke-opacity="0.04" stroke-width="1"/><path d="M297 718 l40 -20.0" stroke="#fff" stroke-opacity="0.04" stroke-width="1"/><path d="M560 510 l48 -24.0" stroke="#fff" stroke-opacity="0.08" stroke-width="1"/><path d="M1561 190 l100 -50.0" stroke="#fff" stroke-opacity="0.06" stroke-width="1"/><path d="M436 76 l159 -79.5" stroke="#fff" stroke-opacity="0.09" stroke-width="1"/><path d="M329 214 l122 -61.0" stroke="#fff" stroke-opacity="0.13" stroke-width="1"/><path d="M99 7 l123 -61.5" stroke="#fff" stroke-opacity="0.07" stroke-width="1"/><path d="M629 229 l62 -31.0" stroke="#fff" stroke-opacity="0.06" stroke-width="1"/><path d="M300 330 l21 -10.5" stroke="#fff" stroke-opacity="0.10" stroke-width="1"/><path d="M1324 57 l25 -12.5" stroke="#fff" stroke-opacity="0.11" stroke-width="1"/><path d="M1180 310 l78 -39.0" stroke="#fff" stroke-opacity="0.07" stroke-width="1"/><path d="M641 540 l154 -77.0" stroke="#fff" stroke-opacity="0.13" stroke-width="1"/><path d="M855 252 l98 -49.0" stroke="#fff" stroke-opacity="0.13" stroke-width="1"/><path d="M524 673 l157 -78.5" stroke="#fff" stroke-opacity="0.10" stroke-width="1"/><path d="M305 420 l74 -37.0" stroke="#fff" stroke-opacity="0.12" stroke-width="1"/><path d="M587 333 l46 -23.0" stroke="#fff" stroke-opacity="0.13" stroke-width="1"/><path d="M171 779 l72 -36.0" stroke="#fff" stroke-opacity="0.04" stroke-width="1"/><path d="M1051 4 l152 -76.0" stroke="#fff" stroke-opacity="0.07" stroke-width="1"/><path d="M1011 565 l126 -63.0" stroke="#fff" stroke-opacity="0.12" stroke-width="1"/><path d="M110 636 l144 -72.0" stroke="#fff" stroke-opacity="0.07" stroke-width="1"/><path d="M1191 713 l105 -52.5" stroke="#fff" stroke-opacity="0.11" stroke-width="1"/><path d="M188 704 l149 -74.5" stroke="#fff" stroke-opacity="0.08" stroke-width="1"/><path d="M670 384 l45 -22.5" stroke="#fff" stroke-opacity="0.06" stroke-width="1"/><path d="M742 723 l125 -62.5" stroke="#fff" stroke-opacity="0.09" stroke-width="1"/><path d="M407 514 l42 -21.0" stroke="#fff" stroke-opacity="0.11" stroke-width="1"/><path d="M1084 169 l133 -66.5" stroke="#fff" stroke-opacity="0.12" stroke-width="1"/><path d="M954 536 l105 -52.5" stroke="#fff" stroke-opacity="0.11" stroke-width="1"/><path d="M1229 365 l91 -45.5" stroke="#fff" stroke-opacity="0.06" stroke-width="1"/><path d="M753 22 l91 -45.5" stroke="#fff" stroke-opacity="0.09" stroke-width="1"/><path d="M647 743 l78 -39.0" stroke="#fff" stroke-opacity="0.08" stroke-width="1"/><path d="M889 699 l66 -33.0" stroke="#fff" stroke-opacity="0.05" stroke-width="1"/><path d="M825 827 l146 -73.0" stroke="#fff" stroke-opacity="0.05" stroke-width="1"/><path d="M1439 133 l144 -72.0" stroke="#fff" stroke-opacity="0.08" stroke-width="1"/><path d="M60 333 l114 -57.0" stroke="#fff" stroke-opacity="0.10" stroke-width="1"/><path d="M102 780 l86 -43.0" stroke="#fff" stroke-opacity="0.11" stroke-width="1"/><path d="M132 145 l26 -13.0" stroke="#fff" stroke-opacity="0.09" stroke-width="1"/><path d="M768 373 l38 -19.0" stroke="#fff" stroke-opacity="0.10" stroke-width="1"/><path d="M1293 285 l127 -63.5" stroke="#fff" stroke-opacity="0.11" stroke-width="1"/><path d="M620 32 l128 -64.0" stroke="#fff" stroke-opacity="0.08" stroke-width="1"/><path d="M28 103 l120 -60.0" stroke="#fff" stroke-opacity="0.11" stroke-width="1"/><path d="M678 731 l76 -38.0" stroke="#fff" stroke-opacity="0.08" stroke-width="1"/><path d="M409 784 l120 -60.0" stroke="#fff" stroke-opacity="0.12" stroke-width="1"/><path d="M1332 770 l99 -49.5" stroke="#fff" stroke-opacity="0.06" stroke-width="1"/><path d="M151 348 l88 -44.0" stroke="#fff" stroke-opacity="0.06" stroke-width="1"/><path d="M1074 734 l97 -48.5" stroke="#fff" stroke-opacity="0.12" stroke-width="1"/><path d="M651 206 l60 -30.0" stroke="#fff" stroke-opacity="0.07" stroke-width="1"/><path d="M827 34 l70 -35.0" stroke="#fff" stroke-opacity="0.06" stroke-width="1"/><path d="M411 535 l57 -28.5" stroke="#fff" stroke-opacity="0.12" stroke-width="1"/><path d="M1168 860 l40 -20.0" stroke="#fff" stroke-opacity="0.04" stroke-width="1"/><path d="M231 818 l26 -13.0" stroke="#fff" stroke-opacity="0.05" stroke-width="1"/><path d="M820 219 l58 -29.0" stroke="#fff" stroke-opacity="0.10" stroke-width="1"/><path d="M1148 411 l67 -33.5" stroke="#fff" stroke-opacity="0.06" stroke-width="1"/><path d="M1136 843 l151 -75.5" stroke="#fff" stroke-opacity="0.12" stroke-width="1"/><path d="M806 429 l41 -20.5" stroke="#fff" stroke-opacity="0.11" stroke-width="1"/><path d="M1403 165 l60 -30.0" stroke="#fff" stroke-opacity="0.13" stroke-width="1"/><path d="M56 679 l123 -61.5" stroke="#fff" stroke-opacity="0.14" stroke-width="1"/><path d="M853 718 l88 -44.0" stroke="#fff" stroke-opacity="0.09" stroke-width="1"/><path d="M531 404 l33 -16.5" stroke="#fff" stroke-opacity="0.10" stroke-width="1"/><path d="M1508 436 l103 -51.5" stroke="#fff" stroke-opacity="0.06" stroke-width="1"/><path d="M483 65 l116 -58.0" stroke="#fff" stroke-opacity="0.08" stroke-width="1"/><path d="M961 746 l92 -46.0" stroke="#fff" stroke-opacity="0.09" stroke-width="1"/><path d="M1344 801 l67 -33.5" stroke="#fff" stroke-opacity="0.04" stroke-width="1"/><path d="M1538 117 l93 -46.5" stroke="#fff" stroke-opacity="0.11" stroke-width="1"/><path d="M402 781 l79 -39.5" stroke="#fff" stroke-opacity="0.05" stroke-width="1"/><path d="M1192 761 l115 -57.5" stroke="#fff" stroke-opacity="0.11" stroke-width="1"/><path d="M426 27 l52 -26.0" stroke="#fff" stroke-opacity="0.13" stroke-width="1"/><path d="M1308 425 l103 -51.5" stroke="#fff" stroke-opacity="0.11" stroke-width="1"/><path d="M1561 96 l104 -52.0" stroke="#fff" stroke-opacity="0.13" stroke-width="1"/><path d="M726 262 l53 -26.5" stroke="#fff" stroke-opacity="0.10" stroke-width="1"/><path d="M511 628 l122 -61.0" stroke="#fff" stroke-opacity="0.13" stroke-width="1"/><path d="M1159 110 l108 -54.0" stroke="#fff" stroke-opacity="0.07" stroke-width="1"/><path d="M1253 872 l28 -14.0" stroke="#fff" stroke-opacity="0.10" stroke-width="1"/><path d="M1276 121 l38 -19.0" stroke="#fff" stroke-opacity="0.07" stroke-width="1"/><path d="M947 345 l37 -18.5" stroke="#fff" stroke-opacity="0.07" stroke-width="1"/><path d="M1267 777 l40 -20.0" stroke="#fff" stroke-opacity="0.13" stroke-width="1"/><path d="M1201 347 l100 -50.0" stroke="#fff" stroke-opacity="0.10" stroke-width="1"/><path d="M1468 302 l80 -40.0" stroke="#fff" stroke-opacity="0.07" stroke-width="1"/><path d="M359 309 l24 -12.0" stroke="#fff" stroke-opacity="0.07" stroke-width="1"/><path d="M1487 174 l68 -34.0" stroke="#fff" stroke-opacity="0.04" stroke-width="1"/><path d="M745 426 l32 -16.0" stroke="#fff" stroke-opacity="0.07" stroke-width="1"/><path d="M685 390 l22 -11.0" stroke="#fff" stroke-opacity="0.13" stroke-width="1"/><path d="M620 145 l50 -25.0" stroke="#fff" stroke-opacity="0.08" stroke-width="1"/><path d="M769 611 l125 -62.5" stroke="#fff" stroke-opacity="0.13" stroke-width="1"/><path d="M1384 443 l89 -44.5" stroke="#fff" stroke-opacity="0.13" stroke-width="1"/><path d="M294 407 l142 -71.0" stroke="#fff" stroke-opacity="0.12" stroke-width="1"/><path d="M888 615 l109 -54.5" stroke="#fff" stroke-opacity="0.08" stroke-width="1"/><path d="M1356 82 l122 -61.0" stroke="#fff" stroke-opacity="0.11" stroke-width="1"/><path d="M827 552 l35 -17.5" stroke="#fff" stroke-opacity="0.07" stroke-width="1"/><path d="M967 233 l152 -76.0" stroke="#fff" stroke-opacity="0.06" stroke-width="1"/><path d="M1047 91 l104 -52.0" stroke="#fff" stroke-opacity="0.07" stroke-width="1"/><path d="M522 858 l160 -80.0" stroke="#fff" stroke-opacity="0.10" stroke-width="1"/><path d="M627 409 l160 -80.0" stroke="#fff" stroke-opacity="0.05" stroke-width="1"/><path d="M886 578 l33 -16.5" stroke="#fff" stroke-opacity="0.06" stroke-width="1"/><path d="M267 661 l47 -23.5" stroke="#fff" stroke-opacity="0.14" stroke-width="1"/><path d="M533 271 l128 -64.0" stroke="#fff" stroke-opacity="0.09" stroke-width="1"/><path d="M1547 312 l145 -72.5" stroke="#fff" stroke-opacity="0.11" stroke-width="1"/><path d="M485 191 l160 -80.0" stroke="#fff" stroke-opacity="0.11" stroke-width="1"/><path d="M1278 789 l92 -46.0" stroke="#fff" stroke-opacity="0.07" stroke-width="1"/></g>
  <g transform="translate(64,64)">
    <rect x="-24" y="-22" rx="24" ry="24" width="620" height="168" fill="#020617" fill-opacity="0.40" stroke="#3b82f6" stroke-opacity="0.25"/>
    <text x="0" y="30" fill="#e5f2ff" font-family="Inter, Arial, sans-serif" font-size="40" font-weight="800">Grid Thin</text>
    <text x="0" y="80" fill="#8aa4c7" font-family="Inter, Arial, sans-serif" font-size="22">DARK · overlays</text>
    <text x="0" y="120" fill="#8aa4c7" font-family="Inter, Arial, sans-serif" font-size="18">K-LOL.GG theme asset placeholder</text>
  </g>
</svg>