<svg xmlns="http://www.w3.org/2000/svg" width="1600" height="900" viewBox="0 0 1600 900" role="img" aria-label="Noise Soft">
  <defs>
    <linearGradient id="bg" x1="0" y1="0" x2="1" y2="1"><stop offset="0%" stop-color="#020617"/><stop offset="50%" stop-color="#07111f"/><stop offset="100%" stop-color="#0f172a"/></linearGradient>
    <radialGradient id="glow" cx="50%" cy="38%" r="70%"><stop offset="0%" stop-color="#3b82f6" stop-opacity="0.42"/><stop offset="40%" stop-color="#3b82f6" stop-opacity="0.14"/><stop offset="100%" stop-color="#3b82f6" stop-opacity="0"/></radialGradient>
    <pattern id="grid" width="48" height="48" patternUnits="userSpaceOnUse">
      <path d="M48 0H0V48" fill="none" stroke="#ffffff" stroke-opacity="0.10" stroke-width="1"/>
    </pattern>
  </defs>
  <rect width="1600" height="900" fill="url(#bg)"/>
  <rect width="1600" height="900" fill="url(#grid)"/>
  <rect x="-120" y="-120" width="1840" height="1140" fill="url(#glow)"/>
  <path d="M0 648 C 320 540, 576 810, 864 648 S 1280 414, 1600 540" fill="none" stroke="#3b82f6" stroke-opacity="0.28" stroke-width="7"/>
  <g><path d="M511 23 l70 -35.0" stroke="#fff" stroke-opacity="0.09" stroke-width="1"/><path d="M695 29 l51 -25.5" stroke="#fff" stroke-opacity="0.05" stroke-width="1"/><path d="M1398 840 l90 -45.0" stroke="#fff" stroke-opacity="0.12" stroke-width="1"/><path d="M577 488 l97 -48.5" stroke="#fff" stroke-opacity="0.11" stroke-width="1"/><path d="M1360 2 l98 -49.0" stroke="#fff" stroke-opacity="0.13" stroke-width="1"/><path d="M360 864 l53 -26.5" stroke="#fff" stroke-opacity="0.10" stroke-width="1"/><path d="M1514 591 l129 -64.5" stroke="#fff" stroke-opacity="0.10" stroke-width="1"/><path d="M454 213 l140 -70.0" stroke="#fff" stroke-opacity="0.09" stroke-width="1"/><path d="M412 732 l115 -57.5" stroke="#fff" stroke-opacity="0.11" stroke-width="1"/><path d="M265 421 l97 -48.5" stroke="#fff" stroke-opacity="0.12" stroke-width="1"/><path d="M729 233 l132 -66.0" stroke="#fff" stroke-opacity="0.10" stroke-width="1"/><path d="M1458 775 l54 -27.0" stroke="#fff" stroke-opacity="0.07" stroke-width="1"/><path d="M1565 399 l92 -46.0" stroke="#fff" stroke-opacity="0.05" stroke-width="1"/><path d="M1056 272 l57 -28.5" stroke="#fff" stroke-opacity="0.07" stroke-width="1"/><path d="M1172 104 l110 -55.0" stroke="#fff" stroke-opacity="0.05" stroke-width="1"/><path d="M440 454 l140 -70.0" stroke="#fff" stroke-opacity="0.13" stroke-width="1"/><path d="M94 758 l88 -44.0" stroke="#fff" stroke-opacity="0.07" stroke-width="1"/><path d="M138 502 l35 -17.5" stroke="#fff" stroke-opacity="0.11" stroke-width="1"/><path d="M1392 757 l158 -79.0" stroke="#fff" stroke-opacity="0.05" stroke-width="1"/><path d="M166 384 l33 -16.5" stroke="#fff" stroke-opacity="0.09" stroke-width="1"/><path d="M754 708 l58 -29.0" stroke="#fff" stroke-opacity="0.07" stroke-width="1"/><path d="M29 385 l98 -49.0" stroke="#fff" stroke-opacity="0.12" stroke-width="1"/><path d="M907 502 l70 -35.0" stroke="#fff" stroke-opacity="0.08" stroke-width="1"/><path d="M885 294 l55 -27.5" stroke="#fff" stroke-opacity="0.07" stroke-width="1"/><path d="M268 688 l75 -37.5" stroke="#fff" stroke-opacity="0.05" stroke-width="1"/><path d="M307 181 l100 -50.0" stroke="#fff" stroke-opacity="0.08" stroke-width="1"/><path d="M1086 338 l118 -59.0" stroke="#fff" stroke-opacity="0.09" stroke-width="1"/><path d="M210 140 l122 -61.0" stroke="#fff" stroke-opacity="0.10" stroke-width="1"/><path d="M258 62 l64 -32.0" stroke="#fff" stroke-opacity="0.13" stroke-width="1"/><path d="M1104 544 l79 -39.5" stroke="#fff" stroke-opacity="0.14" stroke-width="1"/><path d="M238 55 l150 -75.0" stroke="#fff" stroke-opacity="0.07" stroke-width="1"/><path d="M257 754 l30 -15.0" stroke="#fff" stroke-opacity="0.05" stroke-width="1"/><path d="M296 848 l149 -74.5" stroke="#fff" stroke-opacity="0.11" stroke-width="1"/><path d="M1417 53 l131 -65.5" stroke="#fff" stroke-opacity="0.06" stroke-width="1"/><path d="M560 759 l67 -33.5" stroke="#fff" stroke-opacity="0.12" stroke-width="1"/><path d="M934 468 l73 -36.5" stroke="#fff" stroke-opacity="0.06" stroke-width="1"/><path d="M1508 844 l45 -22.5" stroke="#fff" stroke-opacity="0.05" stroke-width="1"/><path d="M313 52 l111 -55.5" stroke="#fff" stroke-opacity="0.06" stroke-width="1"/><path d="M386 491 l71 -35.5" stroke="#fff" stroke-opacity="0.14" stroke-width="1"/><path d="M1560 295 l37 -18.5" stroke="#fff" stroke-opacity="0.13" stroke-width="1"/><path d="M1596 483 l85 -42.5" stroke="#fff" stroke-opacity="0.13" stroke-width="1"/><path d="M161 748 l63 -31.5" stroke="#fff" stroke-opacity="0.13" stroke-width="1"/><path d="M503 49 l77 -38.5" stroke="#fff" stroke-opacity="0.05" stroke-width="1"/><path d="M1536 424 l67 -33.5" stroke="#fff" stroke-opacity="0.09" stroke-width="1"/><path d="M532 259 l35 -17.5" stroke="#fff" stroke-opacity="0.09" stroke-width="1"/><path d="M657 717 l70 -35.0" stroke="#fff" stroke-opacity="0.11" stroke-width="1"/><path d="M298 256 l23 -11.5" stroke="#fff" stroke-opacity="0.08" stroke-width="1"/><path d="M1282 386 l94 -47.0" stroke="#fff" stroke-opacity="0.09" stroke-width="1"/><path d="M538 125 l134 -67.0" stroke="#fff" stroke-opacity="0.11" stroke-width="1"/><path d="M30 532 l52 -26.0" stroke="#fff" stroke-opacity="0.04" stroke-width="1"/><path d="M217 688 l53 -26.5" stroke="#fff" stroke-opacity="0.05" stroke-width="1"/><path d="M779 541 l150 -75.0" stroke="#fff" stroke-opacity="0.12" stroke-width="1"/><path d="M329 263 l31 -15.5" stroke="#fff" stroke-opacity="0.09" stroke-width="1"/><path d="M714 768 l120 -60.0" stroke="#fff" stroke-opacity="0.08" stroke-width="1"/><path d="M141 888 l86 -43.0" stroke="#fff" stroke-opacity="0.09" stroke-width="1"/><path d="M468 283 l146 -73.0" stroke="#fff" stroke-opacity="0.07" stroke-width="1"/><path d="M1100 146 l55 -27.5" stroke="#fff" stroke-opacity="0.10" stroke-width="1"/><path d="M641 787 l73 -36.5" stroke="#fff" stroke-opacity="0.09" stroke-width="1"/><path d="M1081 708 l59 -29.5" stroke="#fff" stroke-opacity="0.14" stroke-width="1"/><path d="M1343 282 l124 -62.0" stroke="#fff" stroke-opacity="0.10" stroke-width="1"/><path d="M69 234 l44 -22.0" stroke="#fff" stroke-opacity="0.05" stroke-width="1"/><path d="M639 142 l116 -58.0" stroke="#fff" stroke-opacity="0.10" stroke-width="1"/><path d="M568 315 l67 -33.5" stroke="#fff" stroke-opacity="0.07" stroke-width="1"/><path d="M1407 98 l113 -56.5" stroke="#fff" stroke-opacity="0.07" stroke-width="1"/><path d="M1306 363 l75 -37.5" stroke="#fff" stroke-opacity="0.07" stroke-width="1"/><path d="M1312 871 l22 -11.0" stroke="#fff" stroke-opacity="0.08" stroke-width="1"/><path d="M1384 319 l89 -44.5" stroke="#fff" stroke-opacity="0.05" stroke-width="1"/><path d="M945 526 l81 -40.5" stroke="#fff" stroke-opacity="0.13" stroke-width="1"/><path d="M468 421 l56 -28.0" stroke="#fff" stroke-opacity="0.14" stroke-width="1"/><path d="M1311 151 l27 -13.5" stroke="#fff" stroke-opacity="0.14" stroke-width="1"/><path d="M768 310 l96 -48.0" stroke="#fff" stroke-opacity="0.12" stroke-width="1"/><path d="M153 577 l87 -43.5" stroke="#fff" stroke-opacity="0.09" stroke-width="1"/><path d="M144 162 l86 -43.0" stroke="#fff" stroke-opacity="0.08" stroke-width="1"/><path d="M1203 190 l92 -46.0" stroke="#fff" stroke-opacity="0.12" stroke-width="1"/><path d="M1384 568 l30 -15.0" stroke="#fff" stroke-opacity="0.04" stroke-width="1"/><path d="M738 613 l79 -39.5" stroke="#fff" stroke-opacity="0.12" stroke-width="1"/><path d="M1502 442 l56 -28.0" stroke="#fff" stroke-opacity="0.08" stroke-width="1"/><path d="M334 88 l43 -21.5" stroke="#fff" stroke-opacity="0.13" stroke-width="1"/><path d="M703 282 l139 -69.5" stroke="#fff" stroke-opacity="0.12" stroke-width="1"/><path d="M832 182 l70 -35.0" stroke="#fff" stroke-opacity="0.14" stroke-width="1"/><path d="M1009 236 l43 -21.5" stroke="#fff" stroke-opacity="0.10" stroke-width="1"/><path d="M486 1 l123 -61.5" stroke="#fff" stroke-opacity="0.10" stroke-width="1"/><path d="M1034 166 l118 -59.0" stroke="#fff" stroke-opacity="0.09" stroke-width="1"/><path d="M94 820 l46 -23.0" stroke="#fff" stroke-opacity="0.07" stroke-width="1"/><path d="M366 803 l23 -11.5" stroke="#fff" stroke-opacity="0.12" stroke-width="1"/><path d="M1551 80 l95 -47.5" stroke="#fff" stroke-opacity="0.04" stroke-width="1"/><path d="M1394 216 l101 -50.5" stroke="#fff" stroke-opacity="0.13" stroke-width="1"/><path d="M1046 880 l37 -18.5" stroke="#fff" stroke-opacity="0.13" stroke-width="1"/><path d="M1221 428 l113 -56.5" stroke="#fff" stroke-opacity="0.11" stroke-width="1"/><path d="M543 844 l122 -61.0" stroke="#fff" stroke-opacity="0.11" stroke-width="1"/><path d="M1347 234 l97 -48.5" stroke="#fff" stroke-opacity="0.05" stroke-width="1"/><path d="M681 19 l23 -11.5" stroke="#fff" stroke-opacity="0.08" stroke-width="1"/><path d="M1211 535 l111 -55.5" stroke="#fff" stroke-opacity="0.13" stroke-width="1"/><path d="M681 353 l134 -67.0" stroke="#fff" stroke-opacity="0.05" stroke-width="1"/><path d="M728 429 l48 -24.0" stroke="#fff" stroke-opacity="0.10" stroke-width="1"/><path d="M891 17 l121 -60.5" stroke="#fff" stroke-opacity="0.10" stroke-width="1"/><path d="M910 523 l37 -18.5" stroke="#fff" stroke-opacity="0.04" stroke-width="1"/><path d="M575 473 l43 -21.5" stroke="#fff" stroke-opacity="0.08" stroke-width="1"/><path d="M531 502 l101 -50.5" stroke="#fff" stroke-opacity="0.11" stroke-width="1"/><path d="M605 894 l68 -34.0" stroke="#fff" stroke-opacity="0.07" stroke-width="1"/><path d="M175 93 l31 -15.5" stroke="#fff" stroke-opacity="0.05" stroke-width="1"/><path d="M752 893 l122 -61.0" stroke="#fff" stroke-opacity="0.08" stroke-width="1"/><path d="M667 809 l21 -10.5" stroke="#fff" stroke-opacity="0.10" stroke-width="1"/><path d="M422 201 l43 -21.5" stroke="#fff" stroke-opacity="0.12" stroke-width="1"/><path d="M1337 27 l20 -10.0" stroke="#fff" stroke-opacity="0.12" stroke-width="1"/><path d="M475 862 l118 -59.0" stroke="#fff" stroke-opacity="0.13" stroke-width="1"/><path d="M388 216 l105 -52.5" stroke="#fff" stroke-opacity="0.07" stroke-width="1"/><path d="M728 305 l51 -25.5" stroke="#fff" stroke-opacity="0.06" stroke-width="1"/><path d="M1107 862 l116 -58.0" stroke="#fff" stroke-opacity="0.11" stroke-width="1"/><path d="M81 871 l73 -36.5" stroke="#fff" stroke-opacity="0.13" stroke-width="1"/><path d="M828 534 l108 -54.0" stroke="#fff" stroke-opacity="0.14" stroke-width="1"/><path d="M580 269 l129 -64.5" stroke="#fff" stroke-opacity="0.05" stroke-width="1"/><path d="M890 490 l56 -28.0" stroke="#fff" stroke-opacity="0.14" stroke-width="1"/><path d="M1288 184 l85 -42.5" stroke="#fff" stroke-opacity="0.09" stroke-width="1"/><path d="M1356 808 l135 -67.5" stroke="#fff" stroke-opacity="0.12" stroke-width="1"/><path d="M670 295 l89 -44.5" stroke="#fff" stroke-opacity="0.05" stroke-width="1"/><path d="M837 706 l56 -28.0" stroke="#fff" stroke-opacity="0.05" stroke-width="1"/><path d="M1044 627 l103 -51.5" stroke="#fff" stroke-opacity="0.05" stroke-width="1"/><path d="M558 214 l140 -70.0" stroke="#fff" stroke-opacity="0.06" stroke-width="1"/><path d="M1232 663 l154 -77.0" stroke="#fff" stroke-opacity="0.10" stroke-width="1"/></g>
  <g transform="translate(64,64)">
    <rect x="-24" y="-22" rx="24" ry="24" width="620" height="168" fill="#020617" fill-opacity="0.40" stroke="#3b82f6" stroke-opacity="0.25"/>
    <text x="0" y="30" fill="#e5f2ff" font-family="Inter, Arial, sans-serif" font-size="40" font-weight="800">Noise Soft</text>
    <text x="0" y="80" fill="#8aa4c7" font-family="Inter, Arial, sans-serif" font-size="22">DARK · overlays</text>
    <text x="0" y="120" fill="#8aa4c7" font-family="Inter, Arial, sans-serif" font-size="18">K-LOL.GG theme asset placeholder</text>
  </g>
</svg>