<svg xmlns="http://www.w3.org/2000/svg" width="1080" height="1920" viewBox="0 0 1080 1920" role="img" aria-label="Mobile App Bg Light">
  <defs>
    <linearGradient id="bg" x1="0" y1="0" x2="1" y2="1"><stop offset="0%" stop-color="#ffffff"/><stop offset="50%" stop-color="#eff6ff"/><stop offset="100%" stop-color="#f8fafc"/></linearGradient>
    <radialGradient id="glow" cx="50%" cy="38%" r="70%"><stop offset="0%" stop-color="#2563eb" stop-opacity="0.22"/><stop offset="40%" stop-color="#2563eb" stop-opacity="0.08"/><stop offset="100%" stop-color="#2563eb" stop-opacity="0"/></radialGradient>
    <pattern id="grid" width="48" height="48" patternUnits="userSpaceOnUse">
      <path d="M48 0H0V48" fill="none" stroke="#ffffff" stroke-opacity="0.20" stroke-width="1"/>
    </pattern>
  </defs>
  <rect width="1080" height="1920" fill="url(#bg)"/>
  <rect width="1080" height="1920" fill="url(#grid)"/>
  <rect x="-120" y="-120" width="1320" height="2160" fill="url(#glow)"/>
  <path d="M0 1382 C 216 1152, 389 1728, 583 1382 S 864 883, 1080 1152" fill="none" stroke="#2563eb" stroke-opacity="0.16" stroke-width="7"/>
  <g><circle cx="58" cy="1115" r="4" fill="#2563eb" opacity="0.12"/><circle cx="1047" cy="455" r="1" fill="#2563eb" opacity="0.21"/><circle cx="7" cy="241" r="2" fill="#2563eb" opacity="0.11"/><circle cx="1001" cy="807" r="1" fill="#2563eb" opacity="0.24"/><circle cx="296" cy="914" r="2" fill="#2563eb" opacity="0.20"/><circle cx="690" cy="899" r="1" fill="#2563eb" opacity="0.12"/><circle cx="406" cy="82" r="5" fill="#2563eb" opacity="0.15"/><circle cx="179" cy="77" r="2" fill="#2563eb" opacity="0.18"/><circle cx="710" cy="1394" r="4" fill="#2563eb" opacity="0.10"/><circle cx="634" cy="1356" r="2" fill="#2563eb" opacity="0.21"/><circle cx="745" cy="1100" r="1" fill="#2563eb" opacity="0.10"/><circle cx="495" cy="379" r="3" fill="#2563eb" opacity="0.08"/><circle cx="35" cy="631" r="5" fill="#2563eb" opacity="0.22"/><circle cx="28" cy="348" r="3" fill="#2563eb" opacity="0.12"/><circle cx="462" cy="16" r="4" fill="#2563eb" opacity="0.12"/><circle cx="819" cy="1422" r="5" fill="#2563eb" opacity="0.15"/><circle cx="938" cy="793" r="3" fill="#2563eb" opacity="0.13"/><circle cx="333" cy="358" r="2" fill="#2563eb" opacity="0.23"/><circle cx="952" cy="970" r="2" fill="#2563eb" opacity="0.24"/><circle cx="496" cy="1335" r="3" fill="#2563eb" opacity="0.22"/><circle cx="522" cy="53" r="5" fill="#2563eb" opacity="0.18"/><circle cx="175" cy="316" r="1" fill="#2563eb" opacity="0.24"/><circle cx="749" cy="1077" r="5" fill="#2563eb" opacity="0.21"/><circle cx="984" cy="1785" r="4" fill="#2563eb" opacity="0.18"/><circle cx="330" cy="463" r="3" fill="#2563eb" opacity="0.20"/><circle cx="305" cy="1634" r="2" fill="#2563eb" opacity="0.13"/><circle cx="229" cy="680" r="2" fill="#2563eb" opacity="0.22"/><circle cx="145" cy="947" r="2" fill="#2563eb" opacity="0.18"/><circle cx="1001" cy="1836" r="1" fill="#2563eb" opacity="0.17"/><circle cx="819" cy="15" r="2" fill="#2563eb" opacity="0.22"/><circle cx="972" cy="307" r="3" fill="#2563eb" opacity="0.17"/><circle cx="649" cy="513" r="2" fill="#2563eb" opacity="0.15"/><circle cx="608" cy="133" r="3" fill="#2563eb" opacity="0.08"/><circle cx="870" cy="1912" r="4" fill="#2563eb" opacity="0.21"/><circle cx="526" cy="734" r="4" fill="#2563eb" opacity="0.18"/><circle cx="854" cy="1736" r="2" fill="#2563eb" opacity="0.20"/><circle cx="30" cy="1581" r="2" fill="#2563eb" opacity="0.14"/><circle cx="1052" cy="1875" r="5" fill="#2563eb" opacity="0.11"/><circle cx="1009" cy="1835" r="2" fill="#2563eb" opacity="0.14"/><circle cx="646" cy="981" r="5" fill="#2563eb" opacity="0.16"/><circle cx="468" cy="413" r="2" fill="#2563eb" opacity="0.21"/><circle cx="440" cy="804" r="2" fill="#2563eb" opacity="0.16"/><circle cx="293" cy="1279" r="4" fill="#2563eb" opacity="0.22"/><circle cx="408" cy="1486" r="5" fill="#2563eb" opacity="0.15"/><circle cx="874" cy="979" r="1" fill="#2563eb" opacity="0.22"/><circle cx="100" cy="1539" r="2" fill="#2563eb" opacity="0.23"/><circle cx="152" cy="1027" r="4" fill="#2563eb" opacity="0.09"/><circle cx="1021" cy="650" r="5" fill="#2563eb" opacity="0.17"/><circle cx="571" cy="21" r="2" fill="#2563eb" opacity="0.22"/><circle cx="729" cy="1532" r="3" fill="#2563eb" opacity="0.16"/><circle cx="733" cy="1404" r="2" fill="#2563eb" opacity="0.12"/><circle cx="566" cy="578" r="2" fill="#2563eb" opacity="0.16"/><circle cx="786" cy="182" r="3" fill="#2563eb" opacity="0.16"/><circle cx="509" cy="1058" r="3" fill="#2563eb" opacity="0.22"/><circle cx="468" cy="394" r="4" fill="#2563eb" opacity="0.17"/><circle cx="1050" cy="398" r="2" fill="#2563eb" opacity="0.20"/><circle cx="263" cy="801" r="2" fill="#2563eb" opacity="0.10"/><circle cx="868" cy="248" r="1" fill="#2563eb" opacity="0.12"/><circle cx="989" cy="761" r="5" fill="#2563eb" opacity="0.24"/><circle cx="110" cy="1759" r="4" fill="#2563eb" opacity="0.21"/><circle cx="980" cy="680" r="1" fill="#2563eb" opacity="0.09"/><circle cx="903" cy="1140" r="3" fill="#2563eb" opacity="0.22"/><circle cx="665" cy="828" r="1" fill="#2563eb" opacity="0.24"/><circle cx="744" cy="1071" r="4" fill="#2563eb" opacity="0.18"/><circle cx="595" cy="1652" r="2" fill="#2563eb" opacity="0.16"/><circle cx="130" cy="20" r="3" fill="#2563eb" opacity="0.24"/><circle cx="939" cy="1056" r="4" fill="#2563eb" opacity="0.12"/><circle cx="920" cy="798" r="1" fill="#2563eb" opacity="0.22"/><circle cx="805" cy="1731" r="3" fill="#2563eb" opacity="0.10"/><circle cx="312" cy="1598" r="1" fill="#2563eb" opacity="0.22"/><circle cx="64" cy="1177" r="5" fill="#2563eb" opacity="0.13"/><circle cx="567" cy="29" r="4" fill="#2563eb" opacity="0.16"/><circle cx="330" cy="861" r="4" fill="#2563eb" opacity="0.14"/><circle cx="380" cy="25" r="3" fill="#2563eb" opacity="0.12"/><circle cx="776" cy="349" r="5" fill="#2563eb" opacity="0.08"/><circle cx="886" cy="1280" r="1" fill="#2563eb" opacity="0.10"/><circle cx="380" cy="1036" r="3" fill="#2563eb" opacity="0.20"/><circle cx="604" cy="614" r="5" fill="#2563eb" opacity="0.13"/><circle cx="558" cy="895" r="5" fill="#2563eb" opacity="0.09"/><circle cx="883" cy="298" r="5" fill="#2563eb" opacity="0.21"/><circle cx="1025" cy="1131" r="4" fill="#2563eb" opacity="0.09"/><circle cx="1071" cy="727" r="5" fill="#2563eb" opacity="0.11"/><circle cx="221" cy="1901" r="3" fill="#2563eb" opacity="0.10"/><circle cx="139" cy="1360" r="4" fill="#2563eb" opacity="0.23"/><circle cx="893" cy="1277" r="5" fill="#2563eb" opacity="0.13"/><circle cx="614" cy="344" r="3" fill="#2563eb" opacity="0.15"/><circle cx="930" cy="1474" r="2" fill="#2563eb" opacity="0.22"/><circle cx="81" cy="1012" r="5" fill="#2563eb" opacity="0.19"/><circle cx="606" cy="1167" r="3" fill="#2563eb" opacity="0.10"/><circle cx="652" cy="351" r="4" fill="#2563eb" opacity="0.14"/></g>
  <g transform="translate(64,64)">
    <rect x="-24" y="-22" rx="24" ry="24" width="620" height="168" fill="#ffffff" fill-opacity="0.72" stroke="#2563eb" stroke-opacity="0.18"/>
    <text x="0" y="30" fill="#0f172a" font-family="Inter, Arial, sans-serif" font-size="40" font-weight="800">Mobile App Bg Light</text>
    <text x="0" y="80" fill="#64748b" font-family="Inter, Arial, sans-serif" font-size="22">LIGHT · app</text>
    <text x="0" y="120" fill="#64748b" font-family="Inter, Arial, sans-serif" font-size="18">K-LOL.GG theme asset placeholder</text>
  </g>
</svg>