<svg xmlns="http://www.w3.org/2000/svg" width="1600" height="1000" viewBox="0 0 1600 1000" role="img" aria-label="Login Bg Light">
  <defs>
    <linearGradient id="bg" x1="0" y1="0" x2="1" y2="1"><stop offset="0%" stop-color="#ffffff"/><stop offset="50%" stop-color="#eff6ff"/><stop offset="100%" stop-color="#f8fafc"/></linearGradient>
    <radialGradient id="glow" cx="50%" cy="38%" r="70%"><stop offset="0%" stop-color="#2563eb" stop-opacity="0.22"/><stop offset="40%" stop-color="#2563eb" stop-opacity="0.08"/><stop offset="100%" stop-color="#2563eb" stop-opacity="0"/></radialGradient>
    <pattern id="grid" width="48" height="48" patternUnits="userSpaceOnUse">
      <path d="M48 0H0V48" fill="none" stroke="#ffffff" stroke-opacity="0.20" stroke-width="1"/>
    </pattern>
  </defs>
  <rect width="1600" height="1000" fill="url(#bg)"/>
  <rect width="1600" height="1000" fill="url(#grid)"/>
  <rect x="-120" y="-120" width="1840" height="1240" fill="url(#glow)"/>
  <path d="M0 720 C 320 600, 576 900, 864 720 S 1280 460, 1600 600" fill="none" stroke="#2563eb" stroke-opacity="0.16" stroke-width="7"/>
  <g><circle cx="307" cy="461" r="5" fill="#2563eb" opacity="0.21"/><circle cx="219" cy="208" r="2" fill="#2563eb" opacity="0.10"/><circle cx="1556" cy="864" r="3" fill="#2563eb" opacity="0.14"/><circle cx="265" cy="624" r="3" fill="#2563eb" opacity="0.23"/><circle cx="1483" cy="637" r="4" fill="#2563eb" opacity="0.10"/><circle cx="190" cy="279" r="1" fill="#2563eb" opacity="0.08"/><circle cx="987" cy="993" r="1" fill="#2563eb" opacity="0.22"/><circle cx="1338" cy="200" r="2" fill="#2563eb" opacity="0.14"/><circle cx="13" cy="298" r="3" fill="#2563eb" opacity="0.15"/><circle cx="255" cy="905" r="5" fill="#2563eb" opacity="0.25"/><circle cx="84" cy="207" r="3" fill="#2563eb" opacity="0.23"/><circle cx="1000" cy="441" r="5" fill="#2563eb" opacity="0.16"/><circle cx="279" cy="232" r="3" fill="#2563eb" opacity="0.16"/><circle cx="212" cy="0" r="3" fill="#2563eb" opacity="0.23"/><circle cx="111" cy="391" r="1" fill="#2563eb" opacity="0.22"/><circle cx="568" cy="603" r="3" fill="#2563eb" opacity="0.19"/><circle cx="1101" cy="319" r="3" fill="#2563eb" opacity="0.14"/><circle cx="312" cy="569" r="5" fill="#2563eb" opacity="0.18"/><circle cx="667" cy="248" r="5" fill="#2563eb" opacity="0.11"/><circle cx="187" cy="297" r="2" fill="#2563eb" opacity="0.09"/><circle cx="584" cy="811" r="3" fill="#2563eb" opacity="0.18"/><circle cx="1042" cy="622" r="1" fill="#2563eb" opacity="0.18"/><circle cx="522" cy="927" r="4" fill="#2563eb" opacity="0.15"/><circle cx="1146" cy="726" r="3" fill="#2563eb" opacity="0.22"/><circle cx="617" cy="404" r="3" fill="#2563eb" opacity="0.22"/><circle cx="981" cy="735" r="2" fill="#2563eb" opacity="0.09"/><circle cx="88" cy="796" r="3" fill="#2563eb" opacity="0.12"/><circle cx="389" cy="585" r="1" fill="#2563eb" opacity="0.11"/><circle cx="1354" cy="133" r="5" fill="#2563eb" opacity="0.20"/><circle cx="473" cy="593" r="5" fill="#2563eb" opacity="0.14"/><circle cx="1179" cy="759" r="1" fill="#2563eb" opacity="0.13"/><circle cx="280" cy="613" r="1" fill="#2563eb" opacity="0.14"/><circle cx="1029" cy="921" r="4" fill="#2563eb" opacity="0.12"/><circle cx="971" cy="326" r="2" fill="#2563eb" opacity="0.19"/><circle cx="224" cy="403" r="3" fill="#2563eb" opacity="0.18"/><circle cx="125" cy="682" r="2" fill="#2563eb" opacity="0.23"/><circle cx="1371" cy="152" r="4" fill="#2563eb" opacity="0.22"/><circle cx="885" cy="752" r="3" fill="#2563eb" opacity="0.25"/><circle cx="236" cy="94" r="1" fill="#2563eb" opacity="0.12"/><circle cx="464" cy="185" r="2" fill="#2563eb" opacity="0.11"/><circle cx="1037" cy="871" r="3" fill="#2563eb" opacity="0.17"/><circle cx="114" cy="79" r="2" fill="#2563eb" opacity="0.11"/><circle cx="1400" cy="766" r="2" fill="#2563eb" opacity="0.17"/><circle cx="155" cy="92" r="1" fill="#2563eb" opacity="0.17"/><circle cx="895" cy="986" r="2" fill="#2563eb" opacity="0.09"/><circle cx="346" cy="608" r="2" fill="#2563eb" opacity="0.08"/><circle cx="1118" cy="360" r="5" fill="#2563eb" opacity="0.23"/><circle cx="1090" cy="486" r="3" fill="#2563eb" opacity="0.20"/><circle cx="387" cy="54" r="5" fill="#2563eb" opacity="0.23"/><circle cx="665" cy="706" r="4" fill="#2563eb" opacity="0.19"/><circle cx="749" cy="8" r="5" fill="#2563eb" opacity="0.10"/><circle cx="1105" cy="843" r="5" fill="#2563eb" opacity="0.24"/><circle cx="617" cy="327" r="5" fill="#2563eb" opacity="0.09"/><circle cx="575" cy="412" r="5" fill="#2563eb" opacity="0.16"/><circle cx="57" cy="296" r="3" fill="#2563eb" opacity="0.16"/><circle cx="643" cy="601" r="1" fill="#2563eb" opacity="0.10"/><circle cx="979" cy="860" r="1" fill="#2563eb" opacity="0.09"/><circle cx="1303" cy="824" r="2" fill="#2563eb" opacity="0.15"/><circle cx="45" cy="553" r="4" fill="#2563eb" opacity="0.15"/><circle cx="1218" cy="142" r="3" fill="#2563eb" opacity="0.19"/><circle cx="520" cy="683" r="2" fill="#2563eb" opacity="0.09"/><circle cx="347" cy="988" r="1" fill="#2563eb" opacity="0.25"/><circle cx="518" cy="753" r="3" fill="#2563eb" opacity="0.16"/><circle cx="1479" cy="593" r="4" fill="#2563eb" opacity="0.19"/><circle cx="875" cy="252" r="1" fill="#2563eb" opacity="0.08"/><circle cx="71" cy="968" r="5" fill="#2563eb" opacity="0.16"/><circle cx="95" cy="813" r="1" fill="#2563eb" opacity="0.09"/><circle cx="1150" cy="444" r="2" fill="#2563eb" opacity="0.16"/><circle cx="97" cy="324" r="4" fill="#2563eb" opacity="0.18"/><circle cx="1268" cy="36" r="5" fill="#2563eb" opacity="0.13"/><circle cx="1355" cy="766" r="1" fill="#2563eb" opacity="0.12"/><circle cx="934" cy="504" r="5" fill="#2563eb" opacity="0.20"/><circle cx="793" cy="584" r="4" fill="#2563eb" opacity="0.13"/><circle cx="1361" cy="769" r="3" fill="#2563eb" opacity="0.19"/><circle cx="820" cy="293" r="5" fill="#2563eb" opacity="0.20"/><circle cx="1397" cy="605" r="2" fill="#2563eb" opacity="0.23"/><circle cx="1367" cy="350" r="3" fill="#2563eb" opacity="0.23"/><circle cx="343" cy="81" r="3" fill="#2563eb" opacity="0.17"/><circle cx="1342" cy="510" r="4" fill="#2563eb" opacity="0.09"/><circle cx="261" cy="336" r="4" fill="#2563eb" opacity="0.12"/><circle cx="273" cy="268" r="1" fill="#2563eb" opacity="0.14"/><circle cx="1209" cy="428" r="5" fill="#2563eb" opacity="0.21"/><circle cx="105" cy="736" r="1" fill="#2563eb" opacity="0.13"/><circle cx="1340" cy="601" r="3" fill="#2563eb" opacity="0.22"/><circle cx="441" cy="421" r="2" fill="#2563eb" opacity="0.11"/><circle cx="1163" cy="35" r="5" fill="#2563eb" opacity="0.15"/><circle cx="1079" cy="492" r="2" fill="#2563eb" opacity="0.11"/><circle cx="54" cy="567" r="5" fill="#2563eb" opacity="0.24"/><circle cx="888" cy="358" r="2" fill="#2563eb" opacity="0.14"/><circle cx="55" cy="185" r="3" fill="#2563eb" opacity="0.19"/></g>
  <g transform="translate(64,64)">
    <rect x="-24" y="-22" rx="24" ry="24" width="620" height="168" fill="#ffffff" fill-opacity="0.72" stroke="#2563eb" stroke-opacity="0.18"/>
    <text x="0" y="30" fill="#0f172a" font-family="Inter, Arial, sans-serif" font-size="40" font-weight="800">Login Bg Light</text>
    <text x="0" y="80" fill="#64748b" font-family="Inter, Arial, sans-serif" font-size="22">LIGHT · auth</text>
    <text x="0" y="120" fill="#64748b" font-family="Inter, Arial, sans-serif" font-size="18">K-LOL.GG theme asset placeholder</text>
  </g>
</svg>