<svg xmlns="http://www.w3.org/2000/svg" width="1600" height="900" viewBox="0 0 1600 900" role="img" aria-label="Hero Cup Mountain">
  <defs>
    <linearGradient id="bg" x1="0" y1="0" x2="1" y2="1"><stop offset="0%" stop-color="#ffffff"/><stop offset="50%" stop-color="#eff6ff"/><stop offset="100%" stop-color="#f8fafc"/></linearGradient>
    <radialGradient id="glow" cx="50%" cy="38%" r="70%"><stop offset="0%" stop-color="#2563eb" stop-opacity="0.22"/><stop offset="40%" stop-color="#2563eb" stop-opacity="0.08"/><stop offset="100%" stop-color="#2563eb" stop-opacity="0"/></radialGradient>
    <pattern id="grid" width="48" height="48" patternUnits="userSpaceOnUse">
      <path d="M48 0H0V48" fill="none" stroke="#ffffff" stroke-opacity="0.20" stroke-width="1"/>
    </pattern>
  </defs>
  <rect width="1600" height="900" fill="url(#bg)"/>
  <rect width="1600" height="900" fill="url(#grid)"/>
  <rect x="-120" y="-120" width="1840" height="1140" fill="url(#glow)"/>
  <path d="M0 648 C 320 540, 576 810, 864 648 S 1280 414, 1600 540" fill="none" stroke="#2563eb" stroke-opacity="0.16" stroke-width="7"/>
  
        <g opacity="0.5">
          <ellipse cx="1056.0" cy="594.0" rx="448.00000000000006" ry="144.0" fill="none" stroke="#2563eb" stroke-width="10"/>
          <ellipse cx="1056.0" cy="594.0" rx="320.0" ry="90.0" fill="none" stroke="#2563eb" stroke-width="5" opacity=".55"/>
          <path d="M624.0 558.0 C880.0000000000001 432.0, 1248.0 432.0, 1504.0 558.0" fill="none" stroke="#fff" stroke-opacity=".16" stroke-width="3"/>
        </g>
  <g transform="translate(64,64)">
    <rect x="-24" y="-22" rx="24" ry="24" width="620" height="168" fill="#ffffff" fill-opacity="0.72" stroke="#2563eb" stroke-opacity="0.18"/>
    <text x="0" y="30" fill="#0f172a" font-family="Inter, Arial, sans-serif" font-size="40" font-weight="800">Hero Cup Mountain</text>
    <text x="0" y="80" fill="#64748b" font-family="Inter, Arial, sans-serif" font-size="22">LIGHT · hero</text>
    <text x="0" y="120" fill="#64748b" font-family="Inter, Arial, sans-serif" font-size="18">K-LOL.GG theme asset placeholder</text>
  </g>
</svg>