<svg xmlns="http://www.w3.org/2000/svg" width="1000" height="360" viewBox="0 0 1000 360" role="img" aria-label="Lane Support Banner">
  <defs>
    <linearGradient id="bg" x1="0" y1="0" x2="1" y2="1"><stop offset="0%" stop-color="#0f172a"/><stop offset="50%" stop-color="#1e293b"/><stop offset="100%" stop-color="#111827"/></linearGradient>
    <radialGradient id="glow" cx="50%" cy="38%" r="70%"><stop offset="0%" stop-color="#60a5fa" stop-opacity="0.22"/><stop offset="40%" stop-color="#60a5fa" stop-opacity="0.08"/><stop offset="100%" stop-color="#60a5fa" stop-opacity="0"/></radialGradient>
    <pattern id="grid" width="48" height="48" patternUnits="userSpaceOnUse">
      <path d="M48 0H0V48" fill="none" stroke="#ffffff" stroke-opacity="0.20" stroke-width="1"/>
    </pattern>
  </defs>
  <rect width="1000" height="360" fill="url(#bg)"/>
  <rect width="1000" height="360" fill="url(#grid)"/>
  <rect x="-120" y="-120" width="1240" height="600" fill="url(#glow)"/>
  <path d="M0 259 C 200 216, 360 324, 540 259 S 800 166, 1000 216" fill="none" stroke="#60a5fa" stroke-opacity="0.16" stroke-width="7"/>
  
        <g opacity="0.38">
          <path d="M200.0 288.0 L800.0 72.0" stroke="#60a5fa" stroke-width="10" stroke-linecap="round"/>
          <path d="M180.0 64.8 L820.0 295.2" stroke="#60a5fa" stroke-width="5" stroke-linecap="round" opacity=".55"/>
          <path d="M500.0 36.0 L500.0 324.0" stroke="#fff" stroke-opacity=".14" stroke-width="2"/>
          <circle cx="500.0" cy="180.0" r="78" fill="none" stroke="#60a5fa" stroke-width="8" opacity=".65"/>
        </g>
  <g transform="translate(64,64)">
    <rect x="-24" y="-22" rx="24" ry="24" width="620" height="168" fill="#0f172a" fill-opacity="0.72" stroke="#60a5fa" stroke-opacity="0.18"/>
    <text x="0" y="30" fill="#0f172a" font-family="Inter, Arial, sans-serif" font-size="40" font-weight="800">Lane Support Banner</text>
    <text x="0" y="80" fill="#64748b" font-family="Inter, Arial, sans-serif" font-size="22">NEUTRAL · lines</text>
    <text x="0" y="120" fill="#64748b" font-family="Inter, Arial, sans-serif" font-size="18">K-LOL.GG theme asset placeholder</text>
  </g>
</svg>