<svg xmlns="http://www.w3.org/2000/svg" width="1400" height="600" viewBox="0 0 1400 600" role="img" aria-label="Ranking Top3 Podium Light">
  <defs>
    <linearGradient id="bg" x1="0" y1="0" x2="1" y2="1"><stop offset="0%" stop-color="#ffffff"/><stop offset="50%" stop-color="#eff6ff"/><stop offset="100%" stop-color="#f8fafc"/></linearGradient>
    <radialGradient id="glow" cx="50%" cy="38%" r="70%"><stop offset="0%" stop-color="#2563eb" stop-opacity="0.22"/><stop offset="40%" stop-color="#2563eb" stop-opacity="0.08"/><stop offset="100%" stop-color="#2563eb" stop-opacity="0"/></radialGradient>
    <pattern id="grid" width="48" height="48" patternUnits="userSpaceOnUse">
      <path d="M48 0H0V48" fill="none" stroke="#ffffff" stroke-opacity="0.20" stroke-width="1"/>
    </pattern>
  </defs>
  <rect width="1400" height="600" fill="url(#bg)"/>
  <rect width="1400" height="600" fill="url(#grid)"/>
  <rect x="-120" y="-120" width="1640" height="840" fill="url(#glow)"/>
  <path d="M0 432 C 280 360, 504 540, 756 432 S 1120 276, 1400 360" fill="none" stroke="#2563eb" stroke-opacity="0.16" stroke-width="7"/>
  
        <g transform="translate(770.0000000000001,162.0) scale(1.25)" opacity="0.7">
          <path d="M0 170 L55 48 L126 140 L205 25 L284 140 L355 48 L410 170 Z" fill="none" stroke="#facc15" stroke-width="14" stroke-linejoin="round"/>
          <path d="M35 196 H375" stroke="#facc15" stroke-width="20" stroke-linecap="round"/>
          <circle cx="55" cy="48" r="18" fill="#facc15"/>
          <circle cx="205" cy="25" r="20" fill="#facc15"/>
          <circle cx="355" cy="48" r="18" fill="#facc15"/>
        </g>
  <g transform="translate(64,64)">
    <rect x="-24" y="-22" rx="24" ry="24" width="620" height="168" fill="#ffffff" fill-opacity="0.72" stroke="#2563eb" stroke-opacity="0.18"/>
    <text x="0" y="30" fill="#0f172a" font-family="Inter, Arial, sans-serif" font-size="40" font-weight="800">Ranking Top3 Podium Light</text>
    <text x="0" y="80" fill="#64748b" font-family="Inter, Arial, sans-serif" font-size="22">LIGHT · ranking</text>
    <text x="0" y="120" fill="#64748b" font-family="Inter, Arial, sans-serif" font-size="18">K-LOL.GG theme asset placeholder</text>
  </g>
</svg>