<svg xmlns="http://www.w3.org/2000/svg" width="1600" height="500" viewBox="0 0 1600 500" role="img" aria-label="Player Profile Ice">
  <defs>
    <linearGradient id="bg" x1="0" y1="0" x2="1" y2="1"><stop offset="0%" stop-color="#ffffff"/><stop offset="50%" stop-color="#eff6ff"/><stop offset="100%" stop-color="#f8fafc"/></linearGradient>
    <radialGradient id="glow" cx="50%" cy="38%" r="70%"><stop offset="0%" stop-color="#2563eb" stop-opacity="0.22"/><stop offset="40%" stop-color="#2563eb" stop-opacity="0.08"/><stop offset="100%" stop-color="#2563eb" stop-opacity="0"/></radialGradient>
    <pattern id="grid" width="48" height="48" patternUnits="userSpaceOnUse">
      <path d="M48 0H0V48" fill="none" stroke="#ffffff" stroke-opacity="0.20" stroke-width="1"/>
    </pattern>
  </defs>
  <rect width="1600" height="500" fill="url(#bg)"/>
  <rect width="1600" height="500" fill="url(#grid)"/>
  <rect x="-120" y="-120" width="1840" height="740" fill="url(#glow)"/>
  <path d="M0 360 C 320 300, 576 450, 864 360 S 1280 230, 1600 300" fill="none" stroke="#2563eb" stroke-opacity="0.16" stroke-width="7"/>
  
        <g transform="translate(992.0,100.0)" opacity="0.55">
          <path d="M170 0 L320 52 V190 C320 290 245 365 170 410 C95 365 20 290 20 190 V52 Z" fill="none" stroke="#2563eb" stroke-width="14"/>
          <path d="M170 60 V325" stroke="#fff" stroke-opacity=".18" stroke-width="5"/>
          <path d="M90 140 H250" stroke="#2563eb" stroke-opacity=".55" stroke-width="8" stroke-linecap="round"/>
        </g>
  <g transform="translate(64,64)">
    <rect x="-24" y="-22" rx="24" ry="24" width="620" height="168" fill="#ffffff" fill-opacity="0.72" stroke="#2563eb" stroke-opacity="0.18"/>
    <text x="0" y="30" fill="#0f172a" font-family="Inter, Arial, sans-serif" font-size="40" font-weight="800">Player Profile Ice</text>
    <text x="0" y="80" fill="#64748b" font-family="Inter, Arial, sans-serif" font-size="22">LIGHT · profile</text>
    <text x="0" y="120" fill="#64748b" font-family="Inter, Arial, sans-serif" font-size="18">K-LOL.GG theme asset placeholder</text>
  </g>
</svg>