<svg xmlns="http://www.w3.org/2000/svg" width="900" height="900" viewBox="0 0 900 900" role="img" aria-label="Auction Card Glow Light">
  <defs>
    <linearGradient id="bg" x1="0" y1="0" x2="1" y2="1"><stop offset="0%" stop-color="#ffffff"/><stop offset="50%" stop-color="#eff6ff"/><stop offset="100%" stop-color="#f8fafc"/></linearGradient>
    <radialGradient id="glow" cx="50%" cy="38%" r="70%"><stop offset="0%" stop-color="#2563eb" stop-opacity="0.22"/><stop offset="40%" stop-color="#2563eb" stop-opacity="0.08"/><stop offset="100%" stop-color="#2563eb" stop-opacity="0"/></radialGradient>
    <pattern id="grid" width="48" height="48" patternUnits="userSpaceOnUse">
      <path d="M48 0H0V48" fill="none" stroke="#ffffff" stroke-opacity="0.20" stroke-width="1"/>
    </pattern>
  </defs>
  <rect width="900" height="900" fill="url(#bg)"/>
  <rect width="900" height="900" fill="url(#grid)"/>
  <rect x="-120" y="-120" width="1140" height="1140" fill="url(#glow)"/>
  <path d="M0 648 C 180 540, 324 810, 486 648 S 720 414, 900 540" fill="none" stroke="#2563eb" stroke-opacity="0.16" stroke-width="7"/>
  <g><circle cx="503" cy="769" r="4" fill="#2563eb" opacity="0.19"/><circle cx="539" cy="464" r="2" fill="#2563eb" opacity="0.10"/><circle cx="583" cy="494" r="2" fill="#2563eb" opacity="0.18"/><circle cx="14" cy="167" r="4" fill="#2563eb" opacity="0.18"/><circle cx="6" cy="880" r="2" fill="#2563eb" opacity="0.22"/><circle cx="280" cy="282" r="4" fill="#2563eb" opacity="0.09"/><circle cx="600" cy="46" r="2" fill="#2563eb" opacity="0.20"/><circle cx="129" cy="77" r="3" fill="#2563eb" opacity="0.11"/><circle cx="717" cy="369" r="1" fill="#2563eb" opacity="0.24"/><circle cx="5" cy="468" r="3" fill="#2563eb" opacity="0.09"/><circle cx="857" cy="136" r="2" fill="#2563eb" opacity="0.21"/><circle cx="602" cy="137" r="3" fill="#2563eb" opacity="0.12"/><circle cx="881" cy="106" r="5" fill="#2563eb" opacity="0.08"/><circle cx="632" cy="320" r="5" fill="#2563eb" opacity="0.24"/><circle cx="53" cy="507" r="2" fill="#2563eb" opacity="0.17"/><circle cx="662" cy="688" r="1" fill="#2563eb" opacity="0.19"/><circle cx="159" cy="269" r="1" fill="#2563eb" opacity="0.09"/><circle cx="3" cy="755" r="5" fill="#2563eb" opacity="0.21"/><circle cx="579" cy="691" r="2" fill="#2563eb" opacity="0.12"/><circle cx="806" cy="220" r="1" fill="#2563eb" opacity="0.15"/><circle cx="784" cy="675" r="5" fill="#2563eb" opacity="0.11"/><circle cx="331" cy="292" r="2" fill="#2563eb" opacity="0.15"/><circle cx="360" cy="150" r="4" fill="#2563eb" opacity="0.15"/><circle cx="597" cy="531" r="4" fill="#2563eb" opacity="0.20"/><circle cx="206" cy="207" r="4" fill="#2563eb" opacity="0.21"/><circle cx="359" cy="211" r="4" fill="#2563eb" opacity="0.09"/><circle cx="679" cy="140" r="2" fill="#2563eb" opacity="0.17"/><circle cx="600" cy="629" r="4" fill="#2563eb" opacity="0.14"/><circle cx="438" cy="267" r="2" fill="#2563eb" opacity="0.20"/><circle cx="578" cy="574" r="3" fill="#2563eb" opacity="0.21"/><circle cx="401" cy="29" r="5" fill="#2563eb" opacity="0.20"/><circle cx="178" cy="438" r="5" fill="#2563eb" opacity="0.17"/><circle cx="719" cy="856" r="5" fill="#2563eb" opacity="0.18"/><circle cx="266" cy="551" r="2" fill="#2563eb" opacity="0.21"/><circle cx="121" cy="52" r="3" fill="#2563eb" opacity="0.15"/><circle cx="19" cy="744" r="2" fill="#2563eb" opacity="0.15"/><circle cx="33" cy="596" r="5" fill="#2563eb" opacity="0.20"/><circle cx="196" cy="188" r="3" fill="#2563eb" opacity="0.23"/><circle cx="264" cy="511" r="5" fill="#2563eb" opacity="0.24"/><circle cx="370" cy="681" r="3" fill="#2563eb" opacity="0.24"/><circle cx="439" cy="187" r="2" fill="#2563eb" opacity="0.10"/><circle cx="262" cy="31" r="1" fill="#2563eb" opacity="0.20"/><circle cx="896" cy="617" r="4" fill="#2563eb" opacity="0.17"/><circle cx="151" cy="272" r="5" fill="#2563eb" opacity="0.11"/><circle cx="721" cy="366" r="3" fill="#2563eb" opacity="0.25"/><circle cx="546" cy="849" r="2" fill="#2563eb" opacity="0.08"/><circle cx="20" cy="735" r="5" fill="#2563eb" opacity="0.24"/><circle cx="524" cy="355" r="3" fill="#2563eb" opacity="0.23"/><circle cx="405" cy="673" r="4" fill="#2563eb" opacity="0.18"/><circle cx="618" cy="370" r="2" fill="#2563eb" opacity="0.20"/><circle cx="636" cy="527" r="2" fill="#2563eb" opacity="0.10"/><circle cx="623" cy="527" r="1" fill="#2563eb" opacity="0.16"/><circle cx="288" cy="703" r="1" fill="#2563eb" opacity="0.23"/><circle cx="656" cy="223" r="3" fill="#2563eb" opacity="0.23"/><circle cx="810" cy="792" r="4" fill="#2563eb" opacity="0.14"/><circle cx="554" cy="529" r="1" fill="#2563eb" opacity="0.25"/><circle cx="846" cy="746" r="4" fill="#2563eb" opacity="0.09"/><circle cx="898" cy="163" r="4" fill="#2563eb" opacity="0.18"/><circle cx="563" cy="177" r="3" fill="#2563eb" opacity="0.10"/><circle cx="621" cy="612" r="4" fill="#2563eb" opacity="0.17"/><circle cx="406" cy="801" r="2" fill="#2563eb" opacity="0.19"/><circle cx="751" cy="121" r="3" fill="#2563eb" opacity="0.08"/><circle cx="454" cy="760" r="3" fill="#2563eb" opacity="0.14"/><circle cx="809" cy="233" r="5" fill="#2563eb" opacity="0.09"/><circle cx="806" cy="698" r="3" fill="#2563eb" opacity="0.20"/><circle cx="27" cy="218" r="2" fill="#2563eb" opacity="0.09"/><circle cx="591" cy="622" r="5" fill="#2563eb" opacity="0.18"/><circle cx="471" cy="734" r="4" fill="#2563eb" opacity="0.23"/><circle cx="691" cy="366" r="2" fill="#2563eb" opacity="0.13"/><circle cx="686" cy="585" r="2" fill="#2563eb" opacity="0.16"/><circle cx="99" cy="20" r="5" fill="#2563eb" opacity="0.22"/><circle cx="782" cy="214" r="5" fill="#2563eb" opacity="0.20"/><circle cx="428" cy="44" r="1" fill="#2563eb" opacity="0.21"/><circle cx="299" cy="714" r="4" fill="#2563eb" opacity="0.14"/><circle cx="193" cy="254" r="2" fill="#2563eb" opacity="0.25"/><circle cx="293" cy="892" r="5" fill="#2563eb" opacity="0.19"/><circle cx="549" cy="174" r="1" fill="#2563eb" opacity="0.23"/><circle cx="191" cy="687" r="4" fill="#2563eb" opacity="0.14"/><circle cx="840" cy="612" r="4" fill="#2563eb" opacity="0.17"/><circle cx="474" cy="354" r="5" fill="#2563eb" opacity="0.10"/><circle cx="413" cy="255" r="5" fill="#2563eb" opacity="0.22"/><circle cx="236" cy="236" r="5" fill="#2563eb" opacity="0.11"/><circle cx="580" cy="281" r="4" fill="#2563eb" opacity="0.08"/><circle cx="753" cy="858" r="2" fill="#2563eb" opacity="0.09"/><circle cx="400" cy="108" r="2" fill="#2563eb" opacity="0.15"/><circle cx="453" cy="778" r="1" fill="#2563eb" opacity="0.09"/><circle cx="493" cy="213" r="2" fill="#2563eb" opacity="0.25"/><circle cx="480" cy="751" r="1" fill="#2563eb" opacity="0.12"/><circle cx="262" cy="284" r="2" fill="#2563eb" opacity="0.23"/><circle cx="212" cy="115" r="5" fill="#2563eb" opacity="0.11"/></g>
  <g transform="translate(64,64)">
    <rect x="-24" y="-22" rx="24" ry="24" width="620" height="168" fill="#ffffff" fill-opacity="0.72" stroke="#2563eb" stroke-opacity="0.18"/>
    <text x="0" y="30" fill="#0f172a" font-family="Inter, Arial, sans-serif" font-size="40" font-weight="800">Auction Card Glow Light</text>
    <text x="0" y="80" fill="#64748b" font-family="Inter, Arial, sans-serif" font-size="22">LIGHT · auction</text>
    <text x="0" y="120" fill="#64748b" font-family="Inter, Arial, sans-serif" font-size="18">K-LOL.GG theme asset placeholder</text>
  </g>
</svg>