<svg xmlns="http://www.w3.org/2000/svg" width="1920" height="1080" viewBox="0 0 1920 1080" role="img" aria-label="Auction Stage Light">
  <defs>
    <linearGradient id="bg" x1="0" y1="0" x2="1" y2="1"><stop offset="0%" stop-color="#ffffff"/><stop offset="50%" stop-color="#eff6ff"/><stop offset="100%" stop-color="#f8fafc"/></linearGradient>
    <radialGradient id="glow" cx="50%" cy="38%" r="70%"><stop offset="0%" stop-color="#2563eb" stop-opacity="0.22"/><stop offset="40%" stop-color="#2563eb" stop-opacity="0.08"/><stop offset="100%" stop-color="#2563eb" stop-opacity="0"/></radialGradient>
    <pattern id="grid" width="48" height="48" patternUnits="userSpaceOnUse">
      <path d="M48 0H0V48" fill="none" stroke="#ffffff" stroke-opacity="0.20" stroke-width="1"/>
    </pattern>
  </defs>
  <rect width="1920" height="1080" fill="url(#bg)"/>
  <rect width="1920" height="1080" fill="url(#grid)"/>
  <rect x="-120" y="-120" width="2160" height="1320" fill="url(#glow)"/>
  <path d="M0 778 C 384 648, 691 972, 1037 778 S 1536 497, 1920 648" fill="none" stroke="#2563eb" stroke-opacity="0.16" stroke-width="7"/>
  
        <g opacity="0.5">
          <ellipse cx="1267.2" cy="712.8000000000001" rx="537.6" ry="172.8" fill="none" stroke="#2563eb" stroke-width="10"/>
          <ellipse cx="1267.2" cy="712.8000000000001" rx="384.0" ry="108.0" fill="none" stroke="#2563eb" stroke-width="5" opacity=".55"/>
          <path d="M748.8000000000001 669.6 C1056.0 518.4, 1497.6000000000001 518.4, 1804.8 669.6" fill="none" stroke="#fff" stroke-opacity=".16" stroke-width="3"/>
        </g>
  <g transform="translate(64,64)">
    <rect x="-24" y="-22" rx="24" ry="24" width="620" height="168" fill="#ffffff" fill-opacity="0.72" stroke="#2563eb" stroke-opacity="0.18"/>
    <text x="0" y="30" fill="#0f172a" font-family="Inter, Arial, sans-serif" font-size="40" font-weight="800">Auction Stage Light</text>
    <text x="0" y="80" fill="#64748b" font-family="Inter, Arial, sans-serif" font-size="22">LIGHT · auction</text>
    <text x="0" y="120" fill="#64748b" font-family="Inter, Arial, sans-serif" font-size="18">K-LOL.GG theme asset placeholder</text>
  </g>
</svg>