<svg xmlns="http://www.w3.org/2000/svg" width="1200" height="400" viewBox="0 0 1200 400" role="img" aria-label="Match Victory Blue">
  <defs>
    <linearGradient id="bg" x1="0" y1="0" x2="1" y2="1"><stop offset="0%" stop-color="#020617"/><stop offset="50%" stop-color="#07111f"/><stop offset="100%" stop-color="#0f172a"/></linearGradient>
    <radialGradient id="glow" cx="50%" cy="38%" r="70%"><stop offset="0%" stop-color="#3b82f6" stop-opacity="0.42"/><stop offset="40%" stop-color="#3b82f6" stop-opacity="0.14"/><stop offset="100%" stop-color="#3b82f6" stop-opacity="0"/></radialGradient>
    <pattern id="grid" width="48" height="48" patternUnits="userSpaceOnUse">
      <path d="M48 0H0V48" fill="none" stroke="#ffffff" stroke-opacity="0.10" stroke-width="1"/>
    </pattern>
  </defs>
  <rect width="1200" height="400" fill="url(#bg)"/>
  <rect width="1200" height="400" fill="url(#grid)"/>
  <rect x="-120" y="-120" width="1440" height="640" fill="url(#glow)"/>
  <path d="M0 288 C 240 240, 432 360, 648 288 S 960 184, 1200 240" fill="none" stroke="#3b82f6" stroke-opacity="0.28" stroke-width="7"/>
  <g><circle cx="356" cy="120" r="1" fill="#3b82f6" opacity="0.55"/><circle cx="1063" cy="35" r="2" fill="#3b82f6" opacity="0.30"/><circle cx="259" cy="187" r="5" fill="#3b82f6" opacity="0.37"/><circle cx="557" cy="175" r="4" fill="#3b82f6" opacity="0.53"/><circle cx="194" cy="226" r="1" fill="#3b82f6" opacity="0.39"/><circle cx="946" cy="129" r="2" fill="#3b82f6" opacity="0.15"/><circle cx="99" cy="292" r="5" fill="#3b82f6" opacity="0.36"/><circle cx="1077" cy="73" r="2" fill="#3b82f6" opacity="0.16"/><circle cx="1085" cy="358" r="4" fill="#3b82f6" opacity="0.19"/><circle cx="755" cy="388" r="2" fill="#3b82f6" opacity="0.33"/><circle cx="645" cy="129" r="4" fill="#3b82f6" opacity="0.53"/><circle cx="673" cy="4" r="4" fill="#3b82f6" opacity="0.31"/><circle cx="223" cy="225" r="4" fill="#3b82f6" opacity="0.15"/><circle cx="995" cy="374" r="2" fill="#3b82f6" opacity="0.26"/><circle cx="323" cy="128" r="4" fill="#3b82f6" opacity="0.23"/><circle cx="761" cy="278" r="1" fill="#3b82f6" opacity="0.13"/><circle cx="1126" cy="340" r="1" fill="#3b82f6" opacity="0.23"/><circle cx="904" cy="204" r="5" fill="#3b82f6" opacity="0.21"/><circle cx="588" cy="269" r="4" fill="#3b82f6" opacity="0.17"/><circle cx="417" cy="204" r="2" fill="#3b82f6" opacity="0.38"/><circle cx="430" cy="370" r="3" fill="#3b82f6" opacity="0.25"/><circle cx="994" cy="243" r="5" fill="#3b82f6" opacity="0.29"/><circle cx="215" cy="245" r="5" fill="#3b82f6" opacity="0.47"/><circle cx="546" cy="242" r="1" fill="#3b82f6" opacity="0.53"/><circle cx="255" cy="282" r="3" fill="#3b82f6" opacity="0.40"/><circle cx="378" cy="397" r="3" fill="#3b82f6" opacity="0.54"/><circle cx="125" cy="30" r="4" fill="#3b82f6" opacity="0.14"/><circle cx="560" cy="227" r="4" fill="#3b82f6" opacity="0.40"/><circle cx="20" cy="213" r="5" fill="#3b82f6" opacity="0.19"/><circle cx="961" cy="178" r="2" fill="#3b82f6" opacity="0.45"/><circle cx="480" cy="181" r="4" fill="#3b82f6" opacity="0.29"/><circle cx="307" cy="228" r="4" fill="#3b82f6" opacity="0.24"/><circle cx="421" cy="296" r="3" fill="#3b82f6" opacity="0.49"/><circle cx="428" cy="212" r="2" fill="#3b82f6" opacity="0.53"/><circle cx="65" cy="93" r="5" fill="#3b82f6" opacity="0.45"/><circle cx="506" cy="147" r="4" fill="#3b82f6" opacity="0.48"/><circle cx="186" cy="117" r="5" fill="#3b82f6" opacity="0.45"/><circle cx="941" cy="167" r="4" fill="#3b82f6" opacity="0.42"/><circle cx="68" cy="391" r="2" fill="#3b82f6" opacity="0.53"/><circle cx="524" cy="80" r="1" fill="#3b82f6" opacity="0.44"/><circle cx="430" cy="124" r="4" fill="#3b82f6" opacity="0.21"/><circle cx="1103" cy="324" r="3" fill="#3b82f6" opacity="0.27"/><circle cx="659" cy="190" r="1" fill="#3b82f6" opacity="0.39"/><circle cx="353" cy="57" r="1" fill="#3b82f6" opacity="0.41"/><circle cx="670" cy="56" r="1" fill="#3b82f6" opacity="0.46"/><circle cx="192" cy="270" r="3" fill="#3b82f6" opacity="0.43"/><circle cx="217" cy="195" r="3" fill="#3b82f6" opacity="0.23"/><circle cx="743" cy="257" r="5" fill="#3b82f6" opacity="0.37"/><circle cx="875" cy="363" r="5" fill="#3b82f6" opacity="0.30"/><circle cx="1192" cy="77" r="5" fill="#3b82f6" opacity="0.19"/><circle cx="413" cy="155" r="3" fill="#3b82f6" opacity="0.52"/><circle cx="1184" cy="30" r="5" fill="#3b82f6" opacity="0.38"/><circle cx="667" cy="51" r="5" fill="#3b82f6" opacity="0.21"/><circle cx="191" cy="319" r="2" fill="#3b82f6" opacity="0.42"/><circle cx="189" cy="400" r="5" fill="#3b82f6" opacity="0.27"/><circle cx="783" cy="376" r="5" fill="#3b82f6" opacity="0.55"/><circle cx="976" cy="205" r="3" fill="#3b82f6" opacity="0.46"/><circle cx="298" cy="201" r="5" fill="#3b82f6" opacity="0.47"/><circle cx="465" cy="11" r="2" fill="#3b82f6" opacity="0.24"/><circle cx="737" cy="216" r="3" fill="#3b82f6" opacity="0.21"/><circle cx="97" cy="204" r="1" fill="#3b82f6" opacity="0.16"/><circle cx="743" cy="15" r="4" fill="#3b82f6" opacity="0.42"/><circle cx="448" cy="379" r="3" fill="#3b82f6" opacity="0.33"/><circle cx="107" cy="251" r="4" fill="#3b82f6" opacity="0.38"/><circle cx="13" cy="4" r="1" fill="#3b82f6" opacity="0.47"/><circle cx="626" cy="298" r="4" fill="#3b82f6" opacity="0.33"/><circle cx="206" cy="41" r="1" fill="#3b82f6" opacity="0.26"/><circle cx="1089" cy="337" r="2" fill="#3b82f6" opacity="0.40"/><circle cx="44" cy="250" r="5" fill="#3b82f6" opacity="0.20"/><circle cx="198" cy="325" r="3" fill="#3b82f6" opacity="0.48"/><circle cx="1075" cy="294" r="2" fill="#3b82f6" opacity="0.54"/><circle cx="559" cy="298" r="4" fill="#3b82f6" opacity="0.51"/><circle cx="338" cy="186" r="5" fill="#3b82f6" opacity="0.26"/><circle cx="235" cy="153" r="5" fill="#3b82f6" opacity="0.54"/><circle cx="1070" cy="65" r="2" fill="#3b82f6" opacity="0.37"/><circle cx="254" cy="134" r="4" fill="#3b82f6" opacity="0.18"/><circle cx="1016" cy="76" r="2" fill="#3b82f6" opacity="0.43"/><circle cx="270" cy="364" r="4" fill="#3b82f6" opacity="0.13"/><circle cx="973" cy="383" r="5" fill="#3b82f6" opacity="0.47"/><circle cx="342" cy="173" r="5" fill="#3b82f6" opacity="0.27"/><circle cx="940" cy="119" r="4" fill="#3b82f6" opacity="0.45"/><circle cx="847" cy="148" r="1" fill="#3b82f6" opacity="0.16"/><circle cx="5" cy="257" r="3" fill="#3b82f6" opacity="0.16"/><circle cx="1193" cy="377" r="5" fill="#3b82f6" opacity="0.43"/><circle cx="22" cy="375" r="3" fill="#3b82f6" opacity="0.14"/><circle cx="897" cy="270" r="4" fill="#3b82f6" opacity="0.29"/><circle cx="1193" cy="225" r="5" fill="#3b82f6" opacity="0.51"/><circle cx="657" cy="328" r="2" fill="#3b82f6" opacity="0.54"/><circle cx="134" cy="263" r="2" fill="#3b82f6" opacity="0.36"/><circle cx="468" cy="249" r="1" fill="#3b82f6" opacity="0.47"/></g>
  <g transform="translate(64,64)">
    <rect x="-24" y="-22" rx="24" ry="24" width="620" height="168" fill="#020617" fill-opacity="0.40" stroke="#3b82f6" stroke-opacity="0.25"/>
    <text x="0" y="30" fill="#e5f2ff" font-family="Inter, Arial, sans-serif" font-size="40" font-weight="800">Match Victory Blue</text>
    <text x="0" y="80" fill="#8aa4c7" font-family="Inter, Arial, sans-serif" font-size="22">DARK · matches</text>
    <text x="0" y="120" fill="#8aa4c7" font-family="Inter, Arial, sans-serif" font-size="18">K-LOL.GG theme asset placeholder</text>
  </g>
</svg>