<svg xmlns="http://www.w3.org/2000/svg" width="1000" height="300" viewBox="0 0 1000 300" role="img" aria-label="Match Row Watermark">
  <defs>
    <linearGradient id="bg" x1="0" y1="0" x2="1" y2="1"><stop offset="0%" stop-color="#020617"/><stop offset="50%" stop-color="#07111f"/><stop offset="100%" stop-color="#0f172a"/></linearGradient>
    <radialGradient id="glow" cx="50%" cy="38%" r="70%"><stop offset="0%" stop-color="#3b82f6" stop-opacity="0.42"/><stop offset="40%" stop-color="#3b82f6" stop-opacity="0.14"/><stop offset="100%" stop-color="#3b82f6" stop-opacity="0"/></radialGradient>
    <pattern id="grid" width="48" height="48" patternUnits="userSpaceOnUse">
      <path d="M48 0H0V48" fill="none" stroke="#ffffff" stroke-opacity="0.10" stroke-width="1"/>
    </pattern>
  </defs>
  <rect width="1000" height="300" fill="url(#bg)"/>
  <rect width="1000" height="300" fill="url(#grid)"/>
  <rect x="-120" y="-120" width="1240" height="540" fill="url(#glow)"/>
  <path d="M0 216 C 200 180, 360 270, 540 216 S 800 138, 1000 180" fill="none" stroke="#3b82f6" stroke-opacity="0.28" stroke-width="7"/>
  <g><path d="M960 16 l132 -66.0" stroke="#fff" stroke-opacity="0.10" stroke-width="1"/><path d="M306 88 l119 -59.5" stroke="#fff" stroke-opacity="0.05" stroke-width="1"/><path d="M616 87 l124 -62.0" stroke="#fff" stroke-opacity="0.10" stroke-width="1"/><path d="M777 156 l80 -40.0" stroke="#fff" stroke-opacity="0.12" stroke-width="1"/><path d="M419 24 l146 -73.0" stroke="#fff" stroke-opacity="0.06" stroke-width="1"/><path d="M193 82 l98 -49.0" stroke="#fff" stroke-opacity="0.13" stroke-width="1"/><path d="M908 160 l39 -19.5" stroke="#fff" stroke-opacity="0.11" stroke-width="1"/><path d="M769 206 l154 -77.0" stroke="#fff" stroke-opacity="0.10" stroke-width="1"/><path d="M478 141 l94 -47.0" stroke="#fff" stroke-opacity="0.08" stroke-width="1"/><path d="M150 107 l148 -74.0" stroke="#fff" stroke-opacity="0.06" stroke-width="1"/><path d="M582 258 l94 -47.0" stroke="#fff" stroke-opacity="0.13" stroke-width="1"/><path d="M76 141 l22 -11.0" stroke="#fff" stroke-opacity="0.11" stroke-width="1"/><path d="M614 126 l133 -66.5" stroke="#fff" stroke-opacity="0.12" stroke-width="1"/><path d="M43 53 l128 -64.0" stroke="#fff" stroke-opacity="0.10" stroke-width="1"/><path d="M6 124 l127 -63.5" stroke="#fff" stroke-opacity="0.04" stroke-width="1"/><path d="M196 162 l146 -73.0" stroke="#fff" stroke-opacity="0.09" stroke-width="1"/><path d="M560 161 l40 -20.0" stroke="#fff" stroke-opacity="0.08" stroke-width="1"/><path d="M183 46 l122 -61.0" stroke="#fff" stroke-opacity="0.07" stroke-width="1"/><path d="M718 37 l104 -52.0" stroke="#fff" stroke-opacity="0.11" stroke-width="1"/><path d="M23 190 l47 -23.5" stroke="#fff" stroke-opacity="0.14" stroke-width="1"/><path d="M389 110 l76 -38.0" stroke="#fff" stroke-opacity="0.13" stroke-width="1"/><path d="M83 270 l156 -78.0" stroke="#fff" stroke-opacity="0.07" stroke-width="1"/><path d="M889 272 l84 -42.0" stroke="#fff" stroke-opacity="0.06" stroke-width="1"/><path d="M602 178 l24 -12.0" stroke="#fff" stroke-opacity="0.05" stroke-width="1"/><path d="M573 0 l128 -64.0" stroke="#fff" stroke-opacity="0.10" stroke-width="1"/><path d="M345 21 l100 -50.0" stroke="#fff" stroke-opacity="0.13" stroke-width="1"/><path d="M794 208 l50 -25.0" stroke="#fff" stroke-opacity="0.08" stroke-width="1"/><path d="M280 125 l23 -11.5" stroke="#fff" stroke-opacity="0.05" stroke-width="1"/><path d="M924 166 l80 -40.0" stroke="#fff" stroke-opacity="0.08" stroke-width="1"/><path d="M808 38 l158 -79.0" stroke="#fff" stroke-opacity="0.07" stroke-width="1"/><path d="M582 114 l61 -30.5" stroke="#fff" stroke-opacity="0.05" stroke-width="1"/><path d="M341 143 l32 -16.0" stroke="#fff" stroke-opacity="0.11" stroke-width="1"/><path d="M786 252 l71 -35.5" stroke="#fff" stroke-opacity="0.10" stroke-width="1"/><path d="M153 133 l116 -58.0" stroke="#fff" stroke-opacity="0.10" stroke-width="1"/><path d="M34 68 l145 -72.5" stroke="#fff" stroke-opacity="0.11" stroke-width="1"/><path d="M17 144 l36 -18.0" stroke="#fff" stroke-opacity="0.04" stroke-width="1"/><path d="M267 64 l66 -33.0" stroke="#fff" stroke-opacity="0.06" stroke-width="1"/><path d="M604 77 l132 -66.0" stroke="#fff" stroke-opacity="0.10" stroke-width="1"/><path d="M777 199 l135 -67.5" stroke="#fff" stroke-opacity="0.11" stroke-width="1"/><path d="M147 32 l40 -20.0" stroke="#fff" stroke-opacity="0.11" stroke-width="1"/><path d="M571 175 l110 -55.0" stroke="#fff" stroke-opacity="0.08" stroke-width="1"/><path d="M322 254 l138 -69.0" stroke="#fff" stroke-opacity="0.11" stroke-width="1"/><path d="M112 58 l85 -42.5" stroke="#fff" stroke-opacity="0.06" stroke-width="1"/><path d="M36 28 l51 -25.5" stroke="#fff" stroke-opacity="0.08" stroke-width="1"/><path d="M338 27 l28 -14.0" stroke="#fff" stroke-opacity="0.05" stroke-width="1"/><path d="M380 272 l66 -33.0" stroke="#fff" stroke-opacity="0.11" stroke-width="1"/><path d="M464 254 l89 -44.5" stroke="#fff" stroke-opacity="0.07" stroke-width="1"/><path d="M564 153 l149 -74.5" stroke="#fff" stroke-opacity="0.12" stroke-width="1"/><path d="M785 1 l133 -66.5" stroke="#fff" stroke-opacity="0.12" stroke-width="1"/><path d="M280 2 l115 -57.5" stroke="#fff" stroke-opacity="0.08" stroke-width="1"/><path d="M998 69 l84 -42.0" stroke="#fff" stroke-opacity="0.05" stroke-width="1"/><path d="M861 209 l151 -75.5" stroke="#fff" stroke-opacity="0.08" stroke-width="1"/><path d="M42 198 l106 -53.0" stroke="#fff" stroke-opacity="0.13" stroke-width="1"/><path d="M806 282 l43 -21.5" stroke="#fff" stroke-opacity="0.10" stroke-width="1"/><path d="M30 178 l151 -75.5" stroke="#fff" stroke-opacity="0.14" stroke-width="1"/><path d="M637 155 l59 -29.5" stroke="#fff" stroke-opacity="0.08" stroke-width="1"/><path d="M141 52 l126 -63.0" stroke="#fff" stroke-opacity="0.13" stroke-width="1"/><path d="M99 212 l130 -65.0" stroke="#fff" stroke-opacity="0.06" stroke-width="1"/><path d="M612 24 l126 -63.0" stroke="#fff" stroke-opacity="0.12" stroke-width="1"/><path d="M53 169 l102 -51.0" stroke="#fff" stroke-opacity="0.05" stroke-width="1"/><path d="M256 95 l59 -29.5" stroke="#fff" stroke-opacity="0.12" stroke-width="1"/><path d="M594 7 l71 -35.5" stroke="#fff" stroke-opacity="0.06" stroke-width="1"/><path d="M719 218 l54 -27.0" stroke="#fff" stroke-opacity="0.13" stroke-width="1"/><path d="M166 292 l90 -45.0" stroke="#fff" stroke-opacity="0.13" stroke-width="1"/><path d="M625 52 l159 -79.5" stroke="#fff" stroke-opacity="0.11" stroke-width="1"/><path d="M600 14 l113 -56.5" stroke="#fff" stroke-opacity="0.13" stroke-width="1"/><path d="M145 174 l100 -50.0" stroke="#fff" stroke-opacity="0.06" stroke-width="1"/><path d="M212 164 l61 -30.5" stroke="#fff" stroke-opacity="0.09" stroke-width="1"/><path d="M370 294 l153 -76.5" stroke="#fff" stroke-opacity="0.11" stroke-width="1"/><path d="M699 297 l71 -35.5" stroke="#fff" stroke-opacity="0.13" stroke-width="1"/><path d="M743 282 l42 -21.0" stroke="#fff" stroke-opacity="0.04" stroke-width="1"/><path d="M562 89 l97 -48.5" stroke="#fff" stroke-opacity="0.05" stroke-width="1"/><path d="M109 72 l50 -25.0" stroke="#fff" stroke-opacity="0.13" stroke-width="1"/><path d="M957 27 l138 -69.0" stroke="#fff" stroke-opacity="0.06" stroke-width="1"/><path d="M465 288 l62 -31.0" stroke="#fff" stroke-opacity="0.12" stroke-width="1"/><path d="M633 85 l45 -22.5" stroke="#fff" stroke-opacity="0.08" stroke-width="1"/><path d="M795 61 l24 -12.0" stroke="#fff" stroke-opacity="0.11" stroke-width="1"/><path d="M232 63 l151 -75.5" stroke="#fff" stroke-opacity="0.06" stroke-width="1"/><path d="M730 103 l84 -42.0" stroke="#fff" stroke-opacity="0.10" stroke-width="1"/><path d="M145 141 l105 -52.5" stroke="#fff" stroke-opacity="0.13" stroke-width="1"/><path d="M880 75 l124 -62.0" stroke="#fff" stroke-opacity="0.07" stroke-width="1"/><path d="M971 149 l36 -18.0" stroke="#fff" stroke-opacity="0.06" stroke-width="1"/><path d="M516 146 l55 -27.5" stroke="#fff" stroke-opacity="0.04" stroke-width="1"/><path d="M261 80 l86 -43.0" stroke="#fff" stroke-opacity="0.09" stroke-width="1"/><path d="M179 62 l103 -51.5" stroke="#fff" stroke-opacity="0.05" stroke-width="1"/><path d="M647 63 l70 -35.0" stroke="#fff" stroke-opacity="0.10" stroke-width="1"/><path d="M238 23 l20 -10.0" stroke="#fff" stroke-opacity="0.12" stroke-width="1"/><path d="M729 11 l62 -31.0" stroke="#fff" stroke-opacity="0.12" stroke-width="1"/><path d="M41 112 l21 -10.5" stroke="#fff" stroke-opacity="0.10" stroke-width="1"/><path d="M467 176 l85 -42.5" stroke="#fff" stroke-opacity="0.11" stroke-width="1"/><path d="M806 132 l154 -77.0" stroke="#fff" stroke-opacity="0.14" stroke-width="1"/><path d="M673 151 l94 -47.0" stroke="#fff" stroke-opacity="0.14" stroke-width="1"/><path d="M877 132 l77 -38.5" stroke="#fff" stroke-opacity="0.11" stroke-width="1"/><path d="M538 18 l96 -48.0" stroke="#fff" stroke-opacity="0.14" stroke-width="1"/><path d="M520 85 l61 -30.5" stroke="#fff" stroke-opacity="0.11" stroke-width="1"/><path d="M275 29 l91 -45.5" stroke="#fff" stroke-opacity="0.10" stroke-width="1"/><path d="M906 199 l26 -13.0" stroke="#fff" stroke-opacity="0.10" stroke-width="1"/><path d="M996 29 l107 -53.5" stroke="#fff" stroke-opacity="0.13" stroke-width="1"/><path d="M75 119 l150 -75.0" stroke="#fff" stroke-opacity="0.07" stroke-width="1"/><path d="M600 210 l121 -60.5" stroke="#fff" stroke-opacity="0.09" stroke-width="1"/><path d="M245 298 l53 -26.5" stroke="#fff" stroke-opacity="0.08" stroke-width="1"/><path d="M318 261 l103 -51.5" stroke="#fff" stroke-opacity="0.11" stroke-width="1"/><path d="M350 189 l92 -46.0" stroke="#fff" stroke-opacity="0.11" stroke-width="1"/><path d="M745 261 l114 -57.0" stroke="#fff" stroke-opacity="0.05" stroke-width="1"/><path d="M869 48 l159 -79.5" stroke="#fff" stroke-opacity="0.08" stroke-width="1"/><path d="M779 1 l89 -44.5" stroke="#fff" stroke-opacity="0.09" stroke-width="1"/><path d="M643 194 l84 -42.0" stroke="#fff" stroke-opacity="0.09" stroke-width="1"/><path d="M70 57 l98 -49.0" stroke="#fff" stroke-opacity="0.08" stroke-width="1"/><path d="M868 250 l22 -11.0" stroke="#fff" stroke-opacity="0.12" stroke-width="1"/><path d="M954 56 l120 -60.0" stroke="#fff" stroke-opacity="0.09" stroke-width="1"/><path d="M233 67 l136 -68.0" stroke="#fff" stroke-opacity="0.07" stroke-width="1"/><path d="M995 126 l117 -58.5" stroke="#fff" stroke-opacity="0.12" stroke-width="1"/><path d="M442 267 l41 -20.5" stroke="#fff" stroke-opacity="0.06" stroke-width="1"/><path d="M267 95 l64 -32.0" stroke="#fff" stroke-opacity="0.11" stroke-width="1"/><path d="M57 292 l64 -32.0" stroke="#fff" stroke-opacity="0.10" stroke-width="1"/><path d="M707 211 l103 -51.5" stroke="#fff" stroke-opacity="0.05" stroke-width="1"/><path d="M232 271 l116 -58.0" stroke="#fff" stroke-opacity="0.14" stroke-width="1"/><path d="M459 133 l148 -74.0" stroke="#fff" stroke-opacity="0.05" stroke-width="1"/><path d="M284 210 l136 -68.0" stroke="#fff" stroke-opacity="0.08" stroke-width="1"/><path d="M458 191 l51 -25.5" stroke="#fff" stroke-opacity="0.12" stroke-width="1"/></g>
  <g transform="translate(64,64)">
    <rect x="-24" y="-22" rx="24" ry="24" width="620" height="168" fill="#020617" fill-opacity="0.40" stroke="#3b82f6" stroke-opacity="0.25"/>
    <text x="0" y="30" fill="#e5f2ff" font-family="Inter, Arial, sans-serif" font-size="40" font-weight="800">Match Row Watermark</text>
    <text x="0" y="80" fill="#8aa4c7" font-family="Inter, Arial, sans-serif" font-size="22">DARK · matches</text>
    <text x="0" y="120" fill="#8aa4c7" font-family="Inter, Arial, sans-serif" font-size="18">K-LOL.GG theme asset placeholder</text>
  </g>
</svg>