<svg xmlns="http://www.w3.org/2000/svg" width="1200" height="400" viewBox="0 0 1200 400" role="img" aria-label="Match Victory Red">
  <defs>
    <linearGradient id="bg" x1="0" y1="0" x2="1" y2="1"><stop offset="0%" stop-color="#020617"/><stop offset="50%" stop-color="#07111f"/><stop offset="100%" stop-color="#0f172a"/></linearGradient>
    <radialGradient id="glow" cx="50%" cy="38%" r="70%"><stop offset="0%" stop-color="#3b82f6" stop-opacity="0.42"/><stop offset="40%" stop-color="#3b82f6" stop-opacity="0.14"/><stop offset="100%" stop-color="#3b82f6" stop-opacity="0"/></radialGradient>
    <pattern id="grid" width="48" height="48" patternUnits="userSpaceOnUse">
      <path d="M48 0H0V48" fill="none" stroke="#ffffff" stroke-opacity="0.10" stroke-width="1"/>
    </pattern>
  </defs>
  <rect width="1200" height="400" fill="url(#bg)"/>
  <rect width="1200" height="400" fill="url(#grid)"/>
  <rect x="-120" y="-120" width="1440" height="640" fill="url(#glow)"/>
  <path d="M0 288 C 240 240, 432 360, 648 288 S 960 184, 1200 240" fill="none" stroke="#3b82f6" stroke-opacity="0.28" stroke-width="7"/>
  <g><circle cx="1063" cy="4" r="2" fill="#3b82f6" opacity="0.52"/><circle cx="821" cy="303" r="3" fill="#3b82f6" opacity="0.48"/><circle cx="973" cy="174" r="4" fill="#3b82f6" opacity="0.23"/><circle cx="667" cy="184" r="2" fill="#3b82f6" opacity="0.55"/><circle cx="744" cy="364" r="4" fill="#3b82f6" opacity="0.21"/><circle cx="753" cy="17" r="3" fill="#3b82f6" opacity="0.52"/><circle cx="1037" cy="331" r="3" fill="#3b82f6" opacity="0.50"/><circle cx="242" cy="93" r="4" fill="#3b82f6" opacity="0.25"/><circle cx="867" cy="379" r="5" fill="#3b82f6" opacity="0.28"/><circle cx="337" cy="123" r="1" fill="#3b82f6" opacity="0.43"/><circle cx="1152" cy="171" r="5" fill="#3b82f6" opacity="0.15"/><circle cx="1009" cy="217" r="1" fill="#3b82f6" opacity="0.14"/><circle cx="42" cy="326" r="2" fill="#3b82f6" opacity="0.21"/><circle cx="320" cy="370" r="5" fill="#3b82f6" opacity="0.42"/><circle cx="291" cy="128" r="3" fill="#3b82f6" opacity="0.41"/><circle cx="428" cy="203" r="2" fill="#3b82f6" opacity="0.35"/><circle cx="563" cy="328" r="4" fill="#3b82f6" opacity="0.44"/><circle cx="552" cy="37" r="3" fill="#3b82f6" opacity="0.41"/><circle cx="1013" cy="243" r="1" fill="#3b82f6" opacity="0.43"/><circle cx="161" cy="348" r="1" fill="#3b82f6" opacity="0.43"/><circle cx="319" cy="349" r="5" fill="#3b82f6" opacity="0.27"/><circle cx="74" cy="207" r="4" fill="#3b82f6" opacity="0.18"/><circle cx="1057" cy="374" r="1" fill="#3b82f6" opacity="0.18"/><circle cx="9" cy="111" r="4" fill="#3b82f6" opacity="0.32"/><circle cx="843" cy="267" r="2" fill="#3b82f6" opacity="0.37"/><circle cx="168" cy="63" r="5" fill="#3b82f6" opacity="0.40"/><circle cx="1039" cy="232" r="3" fill="#3b82f6" opacity="0.21"/><circle cx="831" cy="396" r="4" fill="#3b82f6" opacity="0.34"/><circle cx="102" cy="28" r="1" fill="#3b82f6" opacity="0.23"/><circle cx="469" cy="361" r="4" fill="#3b82f6" opacity="0.47"/><circle cx="562" cy="223" r="5" fill="#3b82f6" opacity="0.22"/><circle cx="843" cy="2" r="4" fill="#3b82f6" opacity="0.39"/><circle cx="264" cy="82" r="3" fill="#3b82f6" opacity="0.37"/><circle cx="981" cy="54" r="4" fill="#3b82f6" opacity="0.40"/><circle cx="22" cy="95" r="1" fill="#3b82f6" opacity="0.43"/><circle cx="908" cy="119" r="3" fill="#3b82f6" opacity="0.27"/><circle cx="164" cy="190" r="1" fill="#3b82f6" opacity="0.35"/><circle cx="698" cy="340" r="5" fill="#3b82f6" opacity="0.13"/><circle cx="558" cy="193" r="3" fill="#3b82f6" opacity="0.54"/><circle cx="32" cy="223" r="5" fill="#3b82f6" opacity="0.48"/><circle cx="489" cy="158" r="4" fill="#3b82f6" opacity="0.50"/><circle cx="1054" cy="196" r="3" fill="#3b82f6" opacity="0.22"/><circle cx="1192" cy="385" r="5" fill="#3b82f6" opacity="0.54"/><circle cx="737" cy="236" r="1" fill="#3b82f6" opacity="0.16"/><circle cx="117" cy="304" r="1" fill="#3b82f6" opacity="0.21"/><circle cx="974" cy="243" r="4" fill="#3b82f6" opacity="0.23"/><circle cx="754" cy="32" r="4" fill="#3b82f6" opacity="0.27"/><circle cx="348" cy="221" r="4" fill="#3b82f6" opacity="0.47"/><circle cx="1184" cy="126" r="1" fill="#3b82f6" opacity="0.33"/><circle cx="1158" cy="227" r="5" fill="#3b82f6" opacity="0.24"/><circle cx="691" cy="305" r="3" fill="#3b82f6" opacity="0.33"/><circle cx="713" cy="97" r="5" fill="#3b82f6" opacity="0.24"/><circle cx="630" cy="384" r="1" fill="#3b82f6" opacity="0.14"/><circle cx="1195" cy="95" r="4" fill="#3b82f6" opacity="0.34"/><circle cx="170" cy="284" r="2" fill="#3b82f6" opacity="0.27"/><circle cx="835" cy="262" r="1" fill="#3b82f6" opacity="0.55"/><circle cx="869" cy="228" r="3" fill="#3b82f6" opacity="0.14"/><circle cx="932" cy="162" r="3" fill="#3b82f6" opacity="0.19"/><circle cx="294" cy="238" r="4" fill="#3b82f6" opacity="0.20"/><circle cx="134" cy="89" r="5" fill="#3b82f6" opacity="0.14"/><circle cx="555" cy="26" r="2" fill="#3b82f6" opacity="0.15"/><circle cx="589" cy="89" r="3" fill="#3b82f6" opacity="0.15"/><circle cx="1168" cy="75" r="4" fill="#3b82f6" opacity="0.52"/><circle cx="970" cy="363" r="4" fill="#3b82f6" opacity="0.35"/><circle cx="874" cy="145" r="4" fill="#3b82f6" opacity="0.40"/><circle cx="527" cy="328" r="2" fill="#3b82f6" opacity="0.31"/><circle cx="422" cy="34" r="1" fill="#3b82f6" opacity="0.54"/><circle cx="809" cy="319" r="4" fill="#3b82f6" opacity="0.44"/><circle cx="528" cy="306" r="2" fill="#3b82f6" opacity="0.39"/><circle cx="285" cy="288" r="3" fill="#3b82f6" opacity="0.32"/><circle cx="500" cy="369" r="1" fill="#3b82f6" opacity="0.35"/><circle cx="166" cy="207" r="3" fill="#3b82f6" opacity="0.42"/><circle cx="667" cy="61" r="2" fill="#3b82f6" opacity="0.51"/><circle cx="258" cy="152" r="2" fill="#3b82f6" opacity="0.27"/><circle cx="1040" cy="365" r="3" fill="#3b82f6" opacity="0.19"/><circle cx="538" cy="34" r="1" fill="#3b82f6" opacity="0.21"/><circle cx="1095" cy="42" r="3" fill="#3b82f6" opacity="0.48"/><circle cx="829" cy="201" r="2" fill="#3b82f6" opacity="0.17"/><circle cx="1024" cy="280" r="3" fill="#3b82f6" opacity="0.19"/><circle cx="323" cy="187" r="4" fill="#3b82f6" opacity="0.26"/><circle cx="1105" cy="283" r="4" fill="#3b82f6" opacity="0.24"/><circle cx="119" cy="333" r="4" fill="#3b82f6" opacity="0.44"/><circle cx="453" cy="178" r="3" fill="#3b82f6" opacity="0.16"/><circle cx="504" cy="247" r="1" fill="#3b82f6" opacity="0.50"/><circle cx="1052" cy="374" r="5" fill="#3b82f6" opacity="0.24"/><circle cx="631" cy="180" r="3" fill="#3b82f6" opacity="0.39"/><circle cx="102" cy="369" r="1" fill="#3b82f6" opacity="0.38"/><circle cx="782" cy="291" r="4" fill="#3b82f6" opacity="0.24"/><circle cx="146" cy="203" r="2" fill="#3b82f6" opacity="0.46"/><circle cx="821" cy="322" r="3" fill="#3b82f6" opacity="0.13"/></g>
  <g transform="translate(64,64)">
    <rect x="-24" y="-22" rx="24" ry="24" width="620" height="168" fill="#020617" fill-opacity="0.40" stroke="#3b82f6" stroke-opacity="0.25"/>
    <text x="0" y="30" fill="#e5f2ff" font-family="Inter, Arial, sans-serif" font-size="40" font-weight="800">Match Victory Red</text>
    <text x="0" y="80" fill="#8aa4c7" font-family="Inter, Arial, sans-serif" font-size="22">DARK · matches</text>
    <text x="0" y="120" fill="#8aa4c7" font-family="Inter, Arial, sans-serif" font-size="18">K-LOL.GG theme asset placeholder</text>
  </g>
</svg>