<svg xmlns="http://www.w3.org/2000/svg" width="1600" height="700" viewBox="0 0 1600 700" role="img" aria-label="Hero Rank Elite">
  <defs>
    <linearGradient id="bg" x1="0" y1="0" x2="1" y2="1"><stop offset="0%" stop-color="#020617"/><stop offset="50%" stop-color="#07111f"/><stop offset="100%" stop-color="#0f172a"/></linearGradient>
    <radialGradient id="glow" cx="50%" cy="38%" r="70%"><stop offset="0%" stop-color="#3b82f6" stop-opacity="0.42"/><stop offset="40%" stop-color="#3b82f6" stop-opacity="0.14"/><stop offset="100%" stop-color="#3b82f6" stop-opacity="0"/></radialGradient>
    <pattern id="grid" width="48" height="48" patternUnits="userSpaceOnUse">
      <path d="M48 0H0V48" fill="none" stroke="#ffffff" stroke-opacity="0.10" stroke-width="1"/>
    </pattern>
  </defs>
  <rect width="1600" height="700" fill="url(#bg)"/>
  <rect width="1600" height="700" fill="url(#grid)"/>
  <rect x="-120" y="-120" width="1840" height="940" fill="url(#glow)"/>
  <path d="M0 504 C 320 420, 576 630, 864 504 S 1280 322, 1600 420" fill="none" stroke="#3b82f6" stroke-opacity="0.28" stroke-width="7"/>
  
        <g transform="translate(880.0000000000001,189.0) scale(1.25)" opacity="0.84">
          <path d="M0 170 L55 48 L126 140 L205 25 L284 140 L355 48 L410 170 Z" fill="none" stroke="#facc15" stroke-width="14" stroke-linejoin="round"/>
          <path d="M35 196 H375" stroke="#facc15" stroke-width="20" stroke-linecap="round"/>
          <circle cx="55" cy="48" r="18" fill="#facc15"/>
          <circle cx="205" cy="25" r="20" fill="#facc15"/>
          <circle cx="355" cy="48" r="18" fill="#facc15"/>
        </g>
  <g transform="translate(64,64)">
    <rect x="-24" y="-22" rx="24" ry="24" width="620" height="168" fill="#020617" fill-opacity="0.40" stroke="#3b82f6" stroke-opacity="0.25"/>
    <text x="0" y="30" fill="#e5f2ff" font-family="Inter, Arial, sans-serif" font-size="40" font-weight="800">Hero Rank Elite</text>
    <text x="0" y="80" fill="#8aa4c7" font-family="Inter, Arial, sans-serif" font-size="22">DARK · hero</text>
    <text x="0" y="120" fill="#8aa4c7" font-family="Inter, Arial, sans-serif" font-size="18">K-LOL.GG theme asset placeholder</text>
  </g>
</svg>