<svg xmlns="http://www.w3.org/2000/svg" width="1080" height="1920" viewBox="0 0 1080 1920" role="img" aria-label="Mobile App Bg">
  <defs>
    <linearGradient id="bg" x1="0" y1="0" x2="1" y2="1"><stop offset="0%" stop-color="#020617"/><stop offset="50%" stop-color="#07111f"/><stop offset="100%" stop-color="#0f172a"/></linearGradient>
    <radialGradient id="glow" cx="50%" cy="38%" r="70%"><stop offset="0%" stop-color="#3b82f6" stop-opacity="0.42"/><stop offset="40%" stop-color="#3b82f6" stop-opacity="0.14"/><stop offset="100%" stop-color="#3b82f6" stop-opacity="0"/></radialGradient>
    <pattern id="grid" width="48" height="48" patternUnits="userSpaceOnUse">
      <path d="M48 0H0V48" fill="none" stroke="#ffffff" stroke-opacity="0.10" stroke-width="1"/>
    </pattern>
  </defs>
  <rect width="1080" height="1920" fill="url(#bg)"/>
  <rect width="1080" height="1920" fill="url(#grid)"/>
  <rect x="-120" y="-120" width="1320" height="2160" fill="url(#glow)"/>
  <path d="M0 1382 C 216 1152, 389 1728, 583 1382 S 864 883, 1080 1152" fill="none" stroke="#3b82f6" stroke-opacity="0.28" stroke-width="7"/>
  <g><circle cx="492" cy="592" r="5" fill="#3b82f6" opacity="0.46"/><circle cx="899" cy="562" r="2" fill="#3b82f6" opacity="0.38"/><circle cx="136" cy="1395" r="1" fill="#3b82f6" opacity="0.31"/><circle cx="759" cy="240" r="3" fill="#3b82f6" opacity="0.40"/><circle cx="903" cy="1473" r="5" fill="#3b82f6" opacity="0.23"/><circle cx="232" cy="1604" r="1" fill="#3b82f6" opacity="0.42"/><circle cx="1009" cy="1786" r="4" fill="#3b82f6" opacity="0.44"/><circle cx="455" cy="1309" r="3" fill="#3b82f6" opacity="0.30"/><circle cx="227" cy="1667" r="3" fill="#3b82f6" opacity="0.23"/><circle cx="931" cy="1144" r="4" fill="#3b82f6" opacity="0.42"/><circle cx="1063" cy="204" r="3" fill="#3b82f6" opacity="0.39"/><circle cx="7" cy="1211" r="5" fill="#3b82f6" opacity="0.31"/><circle cx="426" cy="204" r="5" fill="#3b82f6" opacity="0.32"/><circle cx="1075" cy="608" r="1" fill="#3b82f6" opacity="0.52"/><circle cx="1052" cy="1808" r="3" fill="#3b82f6" opacity="0.50"/><circle cx="43" cy="723" r="1" fill="#3b82f6" opacity="0.41"/><circle cx="824" cy="450" r="1" fill="#3b82f6" opacity="0.31"/><circle cx="769" cy="1474" r="5" fill="#3b82f6" opacity="0.42"/><circle cx="610" cy="467" r="4" fill="#3b82f6" opacity="0.36"/><circle cx="371" cy="1084" r="1" fill="#3b82f6" opacity="0.20"/><circle cx="476" cy="1133" r="2" fill="#3b82f6" opacity="0.28"/><circle cx="108" cy="976" r="4" fill="#3b82f6" opacity="0.22"/><circle cx="569" cy="859" r="5" fill="#3b82f6" opacity="0.20"/><circle cx="1039" cy="1583" r="5" fill="#3b82f6" opacity="0.23"/><circle cx="141" cy="1197" r="1" fill="#3b82f6" opacity="0.14"/><circle cx="1062" cy="1412" r="3" fill="#3b82f6" opacity="0.23"/><circle cx="743" cy="1331" r="2" fill="#3b82f6" opacity="0.20"/><circle cx="387" cy="513" r="3" fill="#3b82f6" opacity="0.13"/><circle cx="820" cy="1096" r="5" fill="#3b82f6" opacity="0.48"/><circle cx="806" cy="606" r="4" fill="#3b82f6" opacity="0.30"/><circle cx="633" cy="1663" r="3" fill="#3b82f6" opacity="0.18"/><circle cx="929" cy="421" r="3" fill="#3b82f6" opacity="0.17"/><circle cx="224" cy="1803" r="1" fill="#3b82f6" opacity="0.50"/><circle cx="710" cy="1139" r="4" fill="#3b82f6" opacity="0.43"/><circle cx="1057" cy="1536" r="4" fill="#3b82f6" opacity="0.14"/><circle cx="626" cy="614" r="5" fill="#3b82f6" opacity="0.42"/><circle cx="923" cy="1467" r="1" fill="#3b82f6" opacity="0.42"/><circle cx="98" cy="1518" r="3" fill="#3b82f6" opacity="0.27"/><circle cx="186" cy="1172" r="5" fill="#3b82f6" opacity="0.37"/><circle cx="8" cy="1044" r="3" fill="#3b82f6" opacity="0.22"/><circle cx="1066" cy="1782" r="4" fill="#3b82f6" opacity="0.35"/><circle cx="847" cy="1404" r="2" fill="#3b82f6" opacity="0.37"/><circle cx="486" cy="1384" r="2" fill="#3b82f6" opacity="0.36"/><circle cx="1024" cy="1913" r="3" fill="#3b82f6" opacity="0.14"/><circle cx="616" cy="809" r="3" fill="#3b82f6" opacity="0.27"/><circle cx="712" cy="269" r="4" fill="#3b82f6" opacity="0.20"/><circle cx="616" cy="931" r="4" fill="#3b82f6" opacity="0.19"/><circle cx="625" cy="330" r="2" fill="#3b82f6" opacity="0.17"/><circle cx="789" cy="1298" r="5" fill="#3b82f6" opacity="0.52"/><circle cx="607" cy="228" r="1" fill="#3b82f6" opacity="0.48"/><circle cx="609" cy="1203" r="1" fill="#3b82f6" opacity="0.36"/><circle cx="962" cy="835" r="5" fill="#3b82f6" opacity="0.32"/><circle cx="176" cy="1302" r="3" fill="#3b82f6" opacity="0.17"/><circle cx="35" cy="1503" r="3" fill="#3b82f6" opacity="0.25"/><circle cx="787" cy="863" r="2" fill="#3b82f6" opacity="0.34"/><circle cx="619" cy="624" r="5" fill="#3b82f6" opacity="0.27"/><circle cx="849" cy="1906" r="3" fill="#3b82f6" opacity="0.18"/><circle cx="433" cy="1110" r="1" fill="#3b82f6" opacity="0.33"/><circle cx="425" cy="57" r="2" fill="#3b82f6" opacity="0.49"/><circle cx="918" cy="352" r="2" fill="#3b82f6" opacity="0.54"/><circle cx="316" cy="286" r="2" fill="#3b82f6" opacity="0.33"/><circle cx="138" cy="1437" r="4" fill="#3b82f6" opacity="0.20"/><circle cx="355" cy="303" r="5" fill="#3b82f6" opacity="0.21"/><circle cx="34" cy="882" r="3" fill="#3b82f6" opacity="0.52"/><circle cx="121" cy="1069" r="3" fill="#3b82f6" opacity="0.50"/><circle cx="985" cy="310" r="3" fill="#3b82f6" opacity="0.52"/><circle cx="485" cy="880" r="4" fill="#3b82f6" opacity="0.23"/><circle cx="305" cy="922" r="2" fill="#3b82f6" opacity="0.48"/><circle cx="913" cy="735" r="1" fill="#3b82f6" opacity="0.51"/><circle cx="173" cy="1027" r="3" fill="#3b82f6" opacity="0.25"/><circle cx="1030" cy="966" r="3" fill="#3b82f6" opacity="0.47"/><circle cx="946" cy="1147" r="4" fill="#3b82f6" opacity="0.27"/><circle cx="115" cy="935" r="2" fill="#3b82f6" opacity="0.41"/><circle cx="301" cy="105" r="1" fill="#3b82f6" opacity="0.23"/><circle cx="210" cy="867" r="2" fill="#3b82f6" opacity="0.54"/><circle cx="327" cy="1509" r="4" fill="#3b82f6" opacity="0.33"/><circle cx="186" cy="440" r="1" fill="#3b82f6" opacity="0.48"/><circle cx="719" cy="280" r="3" fill="#3b82f6" opacity="0.52"/><circle cx="227" cy="982" r="4" fill="#3b82f6" opacity="0.28"/><circle cx="1015" cy="917" r="3" fill="#3b82f6" opacity="0.16"/><circle cx="54" cy="1524" r="3" fill="#3b82f6" opacity="0.49"/><circle cx="840" cy="1268" r="1" fill="#3b82f6" opacity="0.36"/><circle cx="759" cy="586" r="2" fill="#3b82f6" opacity="0.18"/><circle cx="322" cy="995" r="3" fill="#3b82f6" opacity="0.24"/><circle cx="489" cy="53" r="1" fill="#3b82f6" opacity="0.44"/><circle cx="774" cy="760" r="3" fill="#3b82f6" opacity="0.41"/><circle cx="771" cy="1627" r="5" fill="#3b82f6" opacity="0.40"/><circle cx="1049" cy="331" r="1" fill="#3b82f6" opacity="0.45"/><circle cx="52" cy="1829" r="3" fill="#3b82f6" opacity="0.30"/><circle cx="288" cy="454" r="4" fill="#3b82f6" opacity="0.25"/></g>
  <g transform="translate(64,64)">
    <rect x="-24" y="-22" rx="24" ry="24" width="620" height="168" fill="#020617" fill-opacity="0.40" stroke="#3b82f6" stroke-opacity="0.25"/>
    <text x="0" y="30" fill="#e5f2ff" font-family="Inter, Arial, sans-serif" font-size="40" font-weight="800">Mobile App Bg</text>
    <text x="0" y="80" fill="#8aa4c7" font-family="Inter, Arial, sans-serif" font-size="22">DARK · app</text>
    <text x="0" y="120" fill="#8aa4c7" font-family="Inter, Arial, sans-serif" font-size="18">K-LOL.GG theme asset placeholder</text>
  </g>
</svg>