<svg xmlns="http://www.w3.org/2000/svg" width="1920" height="1080" viewBox="0 0 1920 1080" role="img" aria-label="Page Bg Soft Grid">
  <defs>
    <linearGradient id="bg" x1="0" y1="0" x2="1" y2="1"><stop offset="0%" stop-color="#ffffff"/><stop offset="50%" stop-color="#eff6ff"/><stop offset="100%" stop-color="#f8fafc"/></linearGradient>
    <radialGradient id="glow" cx="50%" cy="38%" r="70%"><stop offset="0%" stop-color="#2563eb" stop-opacity="0.22"/><stop offset="40%" stop-color="#2563eb" stop-opacity="0.08"/><stop offset="100%" stop-color="#2563eb" stop-opacity="0"/></radialGradient>
    <pattern id="grid" width="48" height="48" patternUnits="userSpaceOnUse">
      <path d="M48 0H0V48" fill="none" stroke="#ffffff" stroke-opacity="0.20" stroke-width="1"/>
    </pattern>
  </defs>
  <rect width="1920" height="1080" fill="url(#bg)"/>
  <rect width="1920" height="1080" fill="url(#grid)"/>
  <rect x="-120" y="-120" width="2160" height="1320" fill="url(#glow)"/>
  <path d="M0 778 C 384 648, 691 972, 1037 778 S 1536 497, 1920 648" fill="none" stroke="#2563eb" stroke-opacity="0.16" stroke-width="7"/>
  <g><path d="M333 775 l61 -30.5" stroke="#fff" stroke-opacity="0.04" stroke-width="1"/><path d="M187 451 l37 -18.5" stroke="#fff" stroke-opacity="0.07" stroke-width="1"/><path d="M738 396 l150 -75.0" stroke="#fff" stroke-opacity="0.07" stroke-width="1"/><path d="M284 884 l83 -41.5" stroke="#fff" stroke-opacity="0.06" stroke-width="1"/><path d="M454 667 l158 -79.0" stroke="#fff" stroke-opacity="0.04" stroke-width="1"/><path d="M1425 383 l140 -70.0" stroke="#fff" stroke-opacity="0.07" stroke-width="1"/><path d="M432 517 l63 -31.5" stroke="#fff" stroke-opacity="0.08" stroke-width="1"/><path d="M116 156 l35 -17.5" stroke="#fff" stroke-opacity="0.07" stroke-width="1"/><path d="M700 585 l111 -55.5" stroke="#fff" stroke-opacity="0.04" stroke-width="1"/><path d="M1199 97 l127 -63.5" stroke="#fff" stroke-opacity="0.03" stroke-width="1"/><path d="M179 774 l38 -19.0" stroke="#fff" stroke-opacity="0.04" stroke-width="1"/><path d="M880 587 l83 -41.5" stroke="#fff" stroke-opacity="0.04" stroke-width="1"/><path d="M683 558 l90 -45.0" stroke="#fff" stroke-opacity="0.07" stroke-width="1"/><path d="M723 827 l61 -30.5" stroke="#fff" stroke-opacity="0.09" stroke-width="1"/><path d="M296 1039 l81 -40.5" stroke="#fff" stroke-opacity="0.05" stroke-width="1"/><path d="M1447 954 l105 -52.5" stroke="#fff" stroke-opacity="0.09" stroke-width="1"/><path d="M120 692 l132 -66.0" stroke="#fff" stroke-opacity="0.08" stroke-width="1"/><path d="M1420 960 l144 -72.0" stroke="#fff" stroke-opacity="0.08" stroke-width="1"/><path d="M320 799 l146 -73.0" stroke="#fff" stroke-opacity="0.03" stroke-width="1"/><path d="M251 834 l91 -45.5" stroke="#fff" stroke-opacity="0.07" stroke-width="1"/><path d="M106 476 l106 -53.0" stroke="#fff" stroke-opacity="0.03" stroke-width="1"/><path d="M1231 873 l75 -37.5" stroke="#fff" stroke-opacity="0.07" stroke-width="1"/><path d="M1881 543 l148 -74.0" stroke="#fff" stroke-opacity="0.06" stroke-width="1"/><path d="M1677 984 l34 -17.0" stroke="#fff" stroke-opacity="0.06" stroke-width="1"/><path d="M621 337 l94 -47.0" stroke="#fff" stroke-opacity="0.05" stroke-width="1"/><path d="M106 800 l158 -79.0" stroke="#fff" stroke-opacity="0.03" stroke-width="1"/><path d="M821 1041 l150 -75.0" stroke="#fff" stroke-opacity="0.03" stroke-width="1"/><path d="M985 49 l116 -58.0" stroke="#fff" stroke-opacity="0.05" stroke-width="1"/><path d="M726 40 l96 -48.0" stroke="#fff" stroke-opacity="0.06" stroke-width="1"/><path d="M560 386 l104 -52.0" stroke="#fff" stroke-opacity="0.05" stroke-width="1"/><path d="M1733 95 l118 -59.0" stroke="#fff" stroke-opacity="0.06" stroke-width="1"/><path d="M745 309 l90 -45.0" stroke="#fff" stroke-opacity="0.08" stroke-width="1"/><path d="M1359 646 l118 -59.0" stroke="#fff" stroke-opacity="0.03" stroke-width="1"/><path d="M1423 484 l34 -17.0" stroke="#fff" stroke-opacity="0.03" stroke-width="1"/><path d="M1322 850 l121 -60.5" stroke="#fff" stroke-opacity="0.05" stroke-width="1"/><path d="M755 667 l120 -60.0" stroke="#fff" stroke-opacity="0.04" stroke-width="1"/><path d="M1450 567 l115 -57.5" stroke="#fff" stroke-opacity="0.08" stroke-width="1"/><path d="M1548 719 l76 -38.0" stroke="#fff" stroke-opacity="0.07" stroke-width="1"/><path d="M843 180 l89 -44.5" stroke="#fff" stroke-opacity="0.07" stroke-width="1"/><path d="M1593 37 l144 -72.0" stroke="#fff" stroke-opacity="0.06" stroke-width="1"/><path d="M298 346 l107 -53.5" stroke="#fff" stroke-opacity="0.06" stroke-width="1"/><path d="M1052 850 l75 -37.5" stroke="#fff" stroke-opacity="0.07" stroke-width="1"/><path d="M1770 194 l42 -21.0" stroke="#fff" stroke-opacity="0.05" stroke-width="1"/><path d="M927 564 l130 -65.0" stroke="#fff" stroke-opacity="0.08" stroke-width="1"/><path d="M1657 300 l20 -10.0" stroke="#fff" stroke-opacity="0.08" stroke-width="1"/><path d="M427 171 l155 -77.5" stroke="#fff" stroke-opacity="0.03" stroke-width="1"/><path d="M273 499 l118 -59.0" stroke="#fff" stroke-opacity="0.08" stroke-width="1"/><path d="M880 114 l55 -27.5" stroke="#fff" stroke-opacity="0.05" stroke-width="1"/><path d="M1884 501 l140 -70.0" stroke="#fff" stroke-opacity="0.04" stroke-width="1"/><path d="M830 734 l77 -38.5" stroke="#fff" stroke-opacity="0.06" stroke-width="1"/><path d="M1370 443 l108 -54.0" stroke="#fff" stroke-opacity="0.05" stroke-width="1"/><path d="M822 264 l116 -58.0" stroke="#fff" stroke-opacity="0.03" stroke-width="1"/><path d="M114 133 l57 -28.5" stroke="#fff" stroke-opacity="0.04" stroke-width="1"/><path d="M1538 98 l152 -76.0" stroke="#fff" stroke-opacity="0.05" stroke-width="1"/><path d="M275 101 l30 -15.0" stroke="#fff" stroke-opacity="0.05" stroke-width="1"/><path d="M1839 640 l54 -27.0" stroke="#fff" stroke-opacity="0.07" stroke-width="1"/><path d="M777 996 l39 -19.5" stroke="#fff" stroke-opacity="0.08" stroke-width="1"/><path d="M1183 1024 l84 -42.0" stroke="#fff" stroke-opacity="0.04" stroke-width="1"/><path d="M832 1007 l59 -29.5" stroke="#fff" stroke-opacity="0.03" stroke-width="1"/><path d="M1170 754 l136 -68.0" stroke="#fff" stroke-opacity="0.06" stroke-width="1"/><path d="M1385 965 l96 -48.0" stroke="#fff" stroke-opacity="0.08" stroke-width="1"/><path d="M386 1 l62 -31.0" stroke="#fff" stroke-opacity="0.08" stroke-width="1"/><path d="M1311 795 l75 -37.5" stroke="#fff" stroke-opacity="0.04" stroke-width="1"/><path d="M235 847 l90 -45.0" stroke="#fff" stroke-opacity="0.05" stroke-width="1"/><path d="M1163 976 l44 -22.0" stroke="#fff" stroke-opacity="0.07" stroke-width="1"/><path d="M932 758 l134 -67.0" stroke="#fff" stroke-opacity="0.03" stroke-width="1"/><path d="M1361 746 l110 -55.0" stroke="#fff" stroke-opacity="0.04" stroke-width="1"/><path d="M1680 220 l152 -76.0" stroke="#fff" stroke-opacity="0.05" stroke-width="1"/><path d="M1736 675 l155 -77.5" stroke="#fff" stroke-opacity="0.08" stroke-width="1"/><path d="M536 446 l34 -17.0" stroke="#fff" stroke-opacity="0.06" stroke-width="1"/><path d="M1292 854 l156 -78.0" stroke="#fff" stroke-opacity="0.07" stroke-width="1"/><path d="M1552 592 l42 -21.0" stroke="#fff" stroke-opacity="0.08" stroke-width="1"/><path d="M228 668 l67 -33.5" stroke="#fff" stroke-opacity="0.08" stroke-width="1"/><path d="M490 323 l138 -69.0" stroke="#fff" stroke-opacity="0.08" stroke-width="1"/><path d="M72 569 l25 -12.5" stroke="#fff" stroke-opacity="0.04" stroke-width="1"/><path d="M580 368 l52 -26.0" stroke="#fff" stroke-opacity="0.07" stroke-width="1"/><path d="M1173 708 l141 -70.5" stroke="#fff" stroke-opacity="0.03" stroke-width="1"/><path d="M340 723 l153 -76.5" stroke="#fff" stroke-opacity="0.05" stroke-width="1"/><path d="M66 544 l121 -60.5" stroke="#fff" stroke-opacity="0.08" stroke-width="1"/><path d="M1290 801 l111 -55.5" stroke="#fff" stroke-opacity="0.03" stroke-width="1"/><path d="M1665 451 l31 -15.5" stroke="#fff" stroke-opacity="0.03" stroke-width="1"/><path d="M1167 973 l66 -33.0" stroke="#fff" stroke-opacity="0.07" stroke-width="1"/><path d="M1371 828 l97 -48.5" stroke="#fff" stroke-opacity="0.09" stroke-width="1"/><path d="M1821 130 l143 -71.5" stroke="#fff" stroke-opacity="0.04" stroke-width="1"/><path d="M1082 574 l48 -24.0" stroke="#fff" stroke-opacity="0.03" stroke-width="1"/><path d="M342 1048 l30 -15.0" stroke="#fff" stroke-opacity="0.07" stroke-width="1"/><path d="M1087 248 l30 -15.0" stroke="#fff" stroke-opacity="0.08" stroke-width="1"/><path d="M1166 965 l26 -13.0" stroke="#fff" stroke-opacity="0.06" stroke-width="1"/><path d="M226 411 l92 -46.0" stroke="#fff" stroke-opacity="0.08" stroke-width="1"/><path d="M1771 337 l80 -40.0" stroke="#fff" stroke-opacity="0.07" stroke-width="1"/><path d="M576 366 l108 -54.0" stroke="#fff" stroke-opacity="0.04" stroke-width="1"/><path d="M688 405 l57 -28.5" stroke="#fff" stroke-opacity="0.04" stroke-width="1"/><path d="M702 778 l97 -48.5" stroke="#fff" stroke-opacity="0.04" stroke-width="1"/><path d="M1710 340 l97 -48.5" stroke="#fff" stroke-opacity="0.07" stroke-width="1"/><path d="M877 82 l136 -68.0" stroke="#fff" stroke-opacity="0.06" stroke-width="1"/><path d="M1702 20 l44 -22.0" stroke="#fff" stroke-opacity="0.09" stroke-width="1"/><path d="M1630 917 l73 -36.5" stroke="#fff" stroke-opacity="0.04" stroke-width="1"/><path d="M1665 978 l76 -38.0" stroke="#fff" stroke-opacity="0.08" stroke-width="1"/><path d="M107 316 l53 -26.5" stroke="#fff" stroke-opacity="0.05" stroke-width="1"/><path d="M362 578 l58 -29.0" stroke="#fff" stroke-opacity="0.09" stroke-width="1"/><path d="M1561 794 l28 -14.0" stroke="#fff" stroke-opacity="0.06" stroke-width="1"/><path d="M1812 68 l58 -29.0" stroke="#fff" stroke-opacity="0.09" stroke-width="1"/><path d="M1828 504 l125 -62.5" stroke="#fff" stroke-opacity="0.03" stroke-width="1"/><path d="M425 727 l89 -44.5" stroke="#fff" stroke-opacity="0.03" stroke-width="1"/><path d="M1454 221 l99 -49.5" stroke="#fff" stroke-opacity="0.03" stroke-width="1"/><path d="M398 798 l135 -67.5" stroke="#fff" stroke-opacity="0.06" stroke-width="1"/><path d="M1654 172 l90 -45.0" stroke="#fff" stroke-opacity="0.04" stroke-width="1"/><path d="M1537 691 l101 -50.5" stroke="#fff" stroke-opacity="0.05" stroke-width="1"/><path d="M1019 814 l60 -30.0" stroke="#fff" stroke-opacity="0.09" stroke-width="1"/><path d="M9 590 l71 -35.5" stroke="#fff" stroke-opacity="0.06" stroke-width="1"/><path d="M807 670 l35 -17.5" stroke="#fff" stroke-opacity="0.07" stroke-width="1"/><path d="M1874 975 l126 -63.0" stroke="#fff" stroke-opacity="0.09" stroke-width="1"/><path d="M1489 598 l63 -31.5" stroke="#fff" stroke-opacity="0.05" stroke-width="1"/><path d="M850 138 l26 -13.0" stroke="#fff" stroke-opacity="0.03" stroke-width="1"/><path d="M978 230 l22 -11.0" stroke="#fff" stroke-opacity="0.03" stroke-width="1"/><path d="M1284 403 l51 -25.5" stroke="#fff" stroke-opacity="0.03" stroke-width="1"/><path d="M1015 23 l46 -23.0" stroke="#fff" stroke-opacity="0.08" stroke-width="1"/><path d="M945 804 l34 -17.0" stroke="#fff" stroke-opacity="0.08" stroke-width="1"/><path d="M42 172 l54 -27.0" stroke="#fff" stroke-opacity="0.03" stroke-width="1"/><path d="M1292 578 l117 -58.5" stroke="#fff" stroke-opacity="0.05" stroke-width="1"/></g>
  <g transform="translate(64,64)">
    <rect x="-24" y="-22" rx="24" ry="24" width="620" height="168" fill="#ffffff" fill-opacity="0.72" stroke="#2563eb" stroke-opacity="0.18"/>
    <text x="0" y="30" fill="#0f172a" font-family="Inter, Arial, sans-serif" font-size="40" font-weight="800">Page Bg Soft Grid</text>
    <text x="0" y="80" fill="#64748b" font-family="Inter, Arial, sans-serif" font-size="22">LIGHT · backgrounds</text>
    <text x="0" y="120" fill="#64748b" font-family="Inter, Arial, sans-serif" font-size="18">K-LOL.GG theme asset placeholder</text>
  </g>
</svg>