<svg xmlns="http://www.w3.org/2000/svg" width="1920" height="1080" viewBox="0 0 1920 1080" role="img" aria-label="Page Bg Ice">
  <defs>
    <linearGradient id="bg" x1="0" y1="0" x2="1" y2="1"><stop offset="0%" stop-color="#ffffff"/><stop offset="50%" stop-color="#eff6ff"/><stop offset="100%" stop-color="#f8fafc"/></linearGradient>
    <radialGradient id="glow" cx="50%" cy="38%" r="70%"><stop offset="0%" stop-color="#2563eb" stop-opacity="0.22"/><stop offset="40%" stop-color="#2563eb" stop-opacity="0.08"/><stop offset="100%" stop-color="#2563eb" stop-opacity="0"/></radialGradient>
    <pattern id="grid" width="48" height="48" patternUnits="userSpaceOnUse">
      <path d="M48 0H0V48" fill="none" stroke="#ffffff" stroke-opacity="0.20" stroke-width="1"/>
    </pattern>
  </defs>
  <rect width="1920" height="1080" fill="url(#bg)"/>
  <rect width="1920" height="1080" fill="url(#grid)"/>
  <rect x="-120" y="-120" width="2160" height="1320" fill="url(#glow)"/>
  <path d="M0 778 C 384 648, 691 972, 1037 778 S 1536 497, 1920 648" fill="none" stroke="#2563eb" stroke-opacity="0.16" stroke-width="7"/>
  <g><circle cx="1196" cy="627" r="4" fill="#2563eb" opacity="0.12"/><circle cx="111" cy="448" r="1" fill="#2563eb" opacity="0.10"/><circle cx="1084" cy="306" r="2" fill="#2563eb" opacity="0.11"/><circle cx="883" cy="672" r="5" fill="#2563eb" opacity="0.11"/><circle cx="1852" cy="491" r="5" fill="#2563eb" opacity="0.17"/><circle cx="1364" cy="622" r="3" fill="#2563eb" opacity="0.17"/><circle cx="154" cy="981" r="2" fill="#2563eb" opacity="0.11"/><circle cx="98" cy="619" r="1" fill="#2563eb" opacity="0.15"/><circle cx="347" cy="981" r="2" fill="#2563eb" opacity="0.23"/><circle cx="463" cy="821" r="1" fill="#2563eb" opacity="0.13"/><circle cx="1021" cy="969" r="1" fill="#2563eb" opacity="0.08"/><circle cx="1892" cy="241" r="1" fill="#2563eb" opacity="0.09"/><circle cx="1719" cy="852" r="1" fill="#2563eb" opacity="0.15"/><circle cx="409" cy="310" r="1" fill="#2563eb" opacity="0.19"/><circle cx="646" cy="453" r="2" fill="#2563eb" opacity="0.21"/><circle cx="14" cy="213" r="5" fill="#2563eb" opacity="0.19"/><circle cx="1052" cy="1048" r="2" fill="#2563eb" opacity="0.13"/><circle cx="1479" cy="527" r="4" fill="#2563eb" opacity="0.09"/><circle cx="1856" cy="472" r="1" fill="#2563eb" opacity="0.11"/><circle cx="1591" cy="143" r="5" fill="#2563eb" opacity="0.13"/><circle cx="114" cy="871" r="4" fill="#2563eb" opacity="0.12"/><circle cx="967" cy="832" r="1" fill="#2563eb" opacity="0.19"/><circle cx="1249" cy="501" r="4" fill="#2563eb" opacity="0.11"/><circle cx="1220" cy="173" r="4" fill="#2563eb" opacity="0.16"/><circle cx="364" cy="839" r="2" fill="#2563eb" opacity="0.11"/><circle cx="274" cy="803" r="1" fill="#2563eb" opacity="0.21"/><circle cx="831" cy="249" r="2" fill="#2563eb" opacity="0.23"/><circle cx="1360" cy="984" r="3" fill="#2563eb" opacity="0.10"/><circle cx="1215" cy="514" r="1" fill="#2563eb" opacity="0.23"/><circle cx="970" cy="341" r="4" fill="#2563eb" opacity="0.19"/><circle cx="1753" cy="2" r="5" fill="#2563eb" opacity="0.19"/><circle cx="707" cy="308" r="5" fill="#2563eb" opacity="0.25"/><circle cx="750" cy="932" r="5" fill="#2563eb" opacity="0.16"/><circle cx="1660" cy="673" r="3" fill="#2563eb" opacity="0.17"/><circle cx="754" cy="49" r="2" fill="#2563eb" opacity="0.15"/><circle cx="1686" cy="625" r="4" fill="#2563eb" opacity="0.13"/><circle cx="1750" cy="815" r="3" fill="#2563eb" opacity="0.16"/><circle cx="820" cy="359" r="2" fill="#2563eb" opacity="0.15"/><circle cx="661" cy="504" r="3" fill="#2563eb" opacity="0.21"/><circle cx="1474" cy="259" r="5" fill="#2563eb" opacity="0.14"/><circle cx="1781" cy="504" r="1" fill="#2563eb" opacity="0.21"/><circle cx="1760" cy="115" r="4" fill="#2563eb" opacity="0.15"/><circle cx="64" cy="107" r="3" fill="#2563eb" opacity="0.12"/><circle cx="1310" cy="602" r="2" fill="#2563eb" opacity="0.21"/><circle cx="434" cy="571" r="4" fill="#2563eb" opacity="0.20"/><circle cx="1868" cy="168" r="3" fill="#2563eb" opacity="0.15"/><circle cx="1659" cy="1004" r="3" fill="#2563eb" opacity="0.21"/><circle cx="358" cy="752" r="2" fill="#2563eb" opacity="0.16"/><circle cx="521" cy="357" r="1" fill="#2563eb" opacity="0.20"/><circle cx="1430" cy="317" r="4" fill="#2563eb" opacity="0.17"/><circle cx="26" cy="128" r="3" fill="#2563eb" opacity="0.13"/><circle cx="1241" cy="486" r="2" fill="#2563eb" opacity="0.13"/><circle cx="1326" cy="939" r="5" fill="#2563eb" opacity="0.16"/><circle cx="1274" cy="1073" r="5" fill="#2563eb" opacity="0.25"/><circle cx="142" cy="624" r="5" fill="#2563eb" opacity="0.23"/><circle cx="655" cy="801" r="5" fill="#2563eb" opacity="0.14"/><circle cx="1827" cy="352" r="2" fill="#2563eb" opacity="0.20"/><circle cx="926" cy="162" r="2" fill="#2563eb" opacity="0.23"/><circle cx="995" cy="553" r="1" fill="#2563eb" opacity="0.21"/><circle cx="1102" cy="618" r="3" fill="#2563eb" opacity="0.16"/><circle cx="1574" cy="479" r="5" fill="#2563eb" opacity="0.17"/><circle cx="139" cy="817" r="5" fill="#2563eb" opacity="0.17"/><circle cx="731" cy="352" r="1" fill="#2563eb" opacity="0.18"/><circle cx="368" cy="1071" r="1" fill="#2563eb" opacity="0.21"/><circle cx="918" cy="886" r="4" fill="#2563eb" opacity="0.18"/><circle cx="1281" cy="926" r="4" fill="#2563eb" opacity="0.15"/><circle cx="733" cy="485" r="5" fill="#2563eb" opacity="0.14"/><circle cx="987" cy="244" r="4" fill="#2563eb" opacity="0.17"/><circle cx="976" cy="962" r="5" fill="#2563eb" opacity="0.12"/><circle cx="926" cy="539" r="2" fill="#2563eb" opacity="0.11"/><circle cx="303" cy="148" r="3" fill="#2563eb" opacity="0.16"/><circle cx="758" cy="484" r="3" fill="#2563eb" opacity="0.09"/><circle cx="689" cy="26" r="4" fill="#2563eb" opacity="0.22"/><circle cx="428" cy="485" r="1" fill="#2563eb" opacity="0.22"/><circle cx="1131" cy="836" r="2" fill="#2563eb" opacity="0.12"/><circle cx="94" cy="586" r="1" fill="#2563eb" opacity="0.25"/><circle cx="1164" cy="445" r="3" fill="#2563eb" opacity="0.19"/><circle cx="1019" cy="363" r="4" fill="#2563eb" opacity="0.15"/><circle cx="143" cy="271" r="3" fill="#2563eb" opacity="0.10"/><circle cx="1886" cy="604" r="3" fill="#2563eb" opacity="0.17"/><circle cx="974" cy="765" r="1" fill="#2563eb" opacity="0.13"/><circle cx="787" cy="170" r="2" fill="#2563eb" opacity="0.15"/><circle cx="47" cy="1045" r="3" fill="#2563eb" opacity="0.19"/><circle cx="918" cy="715" r="2" fill="#2563eb" opacity="0.15"/><circle cx="731" cy="494" r="4" fill="#2563eb" opacity="0.16"/><circle cx="464" cy="885" r="5" fill="#2563eb" opacity="0.18"/><circle cx="1175" cy="58" r="4" fill="#2563eb" opacity="0.14"/><circle cx="1189" cy="951" r="2" fill="#2563eb" opacity="0.23"/><circle cx="1635" cy="674" r="3" fill="#2563eb" opacity="0.21"/><circle cx="1303" cy="721" r="4" fill="#2563eb" opacity="0.20"/></g>
  <g transform="translate(64,64)">
    <rect x="-24" y="-22" rx="24" ry="24" width="620" height="168" fill="#ffffff" fill-opacity="0.72" stroke="#2563eb" stroke-opacity="0.18"/>
    <text x="0" y="30" fill="#0f172a" font-family="Inter, Arial, sans-serif" font-size="40" font-weight="800">Page Bg Ice</text>
    <text x="0" y="80" fill="#64748b" font-family="Inter, Arial, sans-serif" font-size="22">LIGHT · backgrounds</text>
    <text x="0" y="120" fill="#64748b" font-family="Inter, Arial, sans-serif" font-size="18">K-LOL.GG theme asset placeholder</text>
  </g>
</svg>