<svg xmlns="http://www.w3.org/2000/svg" width="1920" height="1080" viewBox="0 0 1920 1080" role="img" aria-label="Page Bg Snow">
  <defs>
    <linearGradient id="bg" x1="0" y1="0" x2="1" y2="1"><stop offset="0%" stop-color="#ffffff"/><stop offset="50%" stop-color="#eff6ff"/><stop offset="100%" stop-color="#f8fafc"/></linearGradient>
    <radialGradient id="glow" cx="50%" cy="38%" r="70%"><stop offset="0%" stop-color="#2563eb" stop-opacity="0.22"/><stop offset="40%" stop-color="#2563eb" stop-opacity="0.08"/><stop offset="100%" stop-color="#2563eb" stop-opacity="0"/></radialGradient>
    <pattern id="grid" width="48" height="48" patternUnits="userSpaceOnUse">
      <path d="M48 0H0V48" fill="none" stroke="#ffffff" stroke-opacity="0.20" stroke-width="1"/>
    </pattern>
  </defs>
  <rect width="1920" height="1080" fill="url(#bg)"/>
  <rect width="1920" height="1080" fill="url(#grid)"/>
  <rect x="-120" y="-120" width="2160" height="1320" fill="url(#glow)"/>
  <path d="M0 778 C 384 648, 691 972, 1037 778 S 1536 497, 1920 648" fill="none" stroke="#2563eb" stroke-opacity="0.16" stroke-width="7"/>
  <g><circle cx="893" cy="610" r="4" fill="#2563eb" opacity="0.10"/><circle cx="1655" cy="310" r="4" fill="#2563eb" opacity="0.18"/><circle cx="197" cy="1037" r="3" fill="#2563eb" opacity="0.13"/><circle cx="1747" cy="1077" r="2" fill="#2563eb" opacity="0.11"/><circle cx="1744" cy="449" r="1" fill="#2563eb" opacity="0.16"/><circle cx="1746" cy="236" r="5" fill="#2563eb" opacity="0.15"/><circle cx="1091" cy="941" r="1" fill="#2563eb" opacity="0.18"/><circle cx="261" cy="433" r="1" fill="#2563eb" opacity="0.23"/><circle cx="1877" cy="335" r="3" fill="#2563eb" opacity="0.17"/><circle cx="1332" cy="342" r="1" fill="#2563eb" opacity="0.22"/><circle cx="158" cy="235" r="1" fill="#2563eb" opacity="0.14"/><circle cx="722" cy="603" r="1" fill="#2563eb" opacity="0.11"/><circle cx="1257" cy="943" r="4" fill="#2563eb" opacity="0.22"/><circle cx="1486" cy="68" r="1" fill="#2563eb" opacity="0.14"/><circle cx="390" cy="558" r="2" fill="#2563eb" opacity="0.17"/><circle cx="142" cy="67" r="5" fill="#2563eb" opacity="0.16"/><circle cx="1435" cy="450" r="3" fill="#2563eb" opacity="0.15"/><circle cx="1555" cy="940" r="3" fill="#2563eb" opacity="0.21"/><circle cx="723" cy="468" r="3" fill="#2563eb" opacity="0.12"/><circle cx="63" cy="649" r="3" fill="#2563eb" opacity="0.14"/><circle cx="1449" cy="144" r="5" fill="#2563eb" opacity="0.23"/><circle cx="924" cy="426" r="4" fill="#2563eb" opacity="0.16"/><circle cx="51" cy="472" r="3" fill="#2563eb" opacity="0.21"/><circle cx="731" cy="77" r="3" fill="#2563eb" opacity="0.22"/><circle cx="988" cy="164" r="3" fill="#2563eb" opacity="0.09"/><circle cx="1696" cy="651" r="5" fill="#2563eb" opacity="0.12"/><circle cx="1856" cy="785" r="5" fill="#2563eb" opacity="0.09"/><circle cx="576" cy="230" r="5" fill="#2563eb" opacity="0.14"/><circle cx="1898" cy="1041" r="4" fill="#2563eb" opacity="0.23"/><circle cx="1142" cy="672" r="2" fill="#2563eb" opacity="0.21"/><circle cx="1579" cy="790" r="1" fill="#2563eb" opacity="0.17"/><circle cx="1731" cy="105" r="2" fill="#2563eb" opacity="0.22"/><circle cx="1655" cy="782" r="4" fill="#2563eb" opacity="0.11"/><circle cx="535" cy="489" r="5" fill="#2563eb" opacity="0.13"/><circle cx="889" cy="782" r="3" fill="#2563eb" opacity="0.18"/><circle cx="1604" cy="302" r="2" fill="#2563eb" opacity="0.19"/><circle cx="970" cy="990" r="5" fill="#2563eb" opacity="0.14"/><circle cx="864" cy="721" r="5" fill="#2563eb" opacity="0.16"/><circle cx="809" cy="711" r="5" fill="#2563eb" opacity="0.23"/><circle cx="248" cy="289" r="3" fill="#2563eb" opacity="0.19"/><circle cx="995" cy="878" r="3" fill="#2563eb" opacity="0.24"/><circle cx="1643" cy="925" r="3" fill="#2563eb" opacity="0.21"/><circle cx="409" cy="270" r="5" fill="#2563eb" opacity="0.12"/><circle cx="1601" cy="1050" r="1" fill="#2563eb" opacity="0.20"/><circle cx="780" cy="293" r="4" fill="#2563eb" opacity="0.22"/><circle cx="844" cy="83" r="4" fill="#2563eb" opacity="0.15"/><circle cx="1297" cy="148" r="4" fill="#2563eb" opacity="0.08"/><circle cx="882" cy="119" r="3" fill="#2563eb" opacity="0.17"/><circle cx="1137" cy="1078" r="3" fill="#2563eb" opacity="0.17"/><circle cx="1224" cy="999" r="2" fill="#2563eb" opacity="0.22"/><circle cx="921" cy="199" r="1" fill="#2563eb" opacity="0.17"/><circle cx="299" cy="176" r="2" fill="#2563eb" opacity="0.14"/><circle cx="1430" cy="670" r="3" fill="#2563eb" opacity="0.10"/><circle cx="162" cy="743" r="4" fill="#2563eb" opacity="0.18"/><circle cx="810" cy="294" r="3" fill="#2563eb" opacity="0.08"/><circle cx="184" cy="663" r="3" fill="#2563eb" opacity="0.14"/><circle cx="1144" cy="460" r="2" fill="#2563eb" opacity="0.23"/><circle cx="1724" cy="631" r="2" fill="#2563eb" opacity="0.24"/><circle cx="1295" cy="216" r="4" fill="#2563eb" opacity="0.08"/><circle cx="262" cy="533" r="5" fill="#2563eb" opacity="0.23"/><circle cx="1061" cy="638" r="4" fill="#2563eb" opacity="0.10"/><circle cx="659" cy="313" r="1" fill="#2563eb" opacity="0.13"/><circle cx="431" cy="1010" r="3" fill="#2563eb" opacity="0.17"/><circle cx="1164" cy="1048" r="3" fill="#2563eb" opacity="0.10"/><circle cx="1452" cy="734" r="3" fill="#2563eb" opacity="0.08"/><circle cx="629" cy="70" r="1" fill="#2563eb" opacity="0.21"/><circle cx="706" cy="552" r="5" fill="#2563eb" opacity="0.09"/><circle cx="962" cy="132" r="5" fill="#2563eb" opacity="0.20"/><circle cx="495" cy="469" r="5" fill="#2563eb" opacity="0.12"/><circle cx="412" cy="778" r="5" fill="#2563eb" opacity="0.12"/><circle cx="924" cy="131" r="1" fill="#2563eb" opacity="0.20"/><circle cx="355" cy="481" r="2" fill="#2563eb" opacity="0.12"/><circle cx="693" cy="536" r="5" fill="#2563eb" opacity="0.08"/><circle cx="1650" cy="254" r="4" fill="#2563eb" opacity="0.22"/><circle cx="1742" cy="668" r="4" fill="#2563eb" opacity="0.09"/><circle cx="110" cy="307" r="2" fill="#2563eb" opacity="0.16"/><circle cx="1339" cy="945" r="4" fill="#2563eb" opacity="0.12"/><circle cx="294" cy="248" r="1" fill="#2563eb" opacity="0.20"/><circle cx="1833" cy="601" r="2" fill="#2563eb" opacity="0.19"/><circle cx="1042" cy="219" r="4" fill="#2563eb" opacity="0.17"/><circle cx="241" cy="975" r="1" fill="#2563eb" opacity="0.25"/><circle cx="937" cy="1004" r="2" fill="#2563eb" opacity="0.12"/><circle cx="483" cy="224" r="3" fill="#2563eb" opacity="0.24"/><circle cx="989" cy="913" r="1" fill="#2563eb" opacity="0.08"/><circle cx="1166" cy="830" r="2" fill="#2563eb" opacity="0.23"/><circle cx="1868" cy="557" r="5" fill="#2563eb" opacity="0.21"/><circle cx="985" cy="89" r="1" fill="#2563eb" opacity="0.11"/><circle cx="406" cy="213" r="3" fill="#2563eb" opacity="0.18"/><circle cx="891" cy="878" r="4" fill="#2563eb" opacity="0.12"/><circle cx="1808" cy="748" r="4" fill="#2563eb" opacity="0.09"/></g>
  <g transform="translate(64,64)">
    <rect x="-24" y="-22" rx="24" ry="24" width="620" height="168" fill="#ffffff" fill-opacity="0.72" stroke="#2563eb" stroke-opacity="0.18"/>
    <text x="0" y="30" fill="#0f172a" font-family="Inter, Arial, sans-serif" font-size="40" font-weight="800">Page Bg Snow</text>
    <text x="0" y="80" fill="#64748b" font-family="Inter, Arial, sans-serif" font-size="22">LIGHT · backgrounds</text>
    <text x="0" y="120" fill="#64748b" font-family="Inter, Arial, sans-serif" font-size="18">K-LOL.GG theme asset placeholder</text>
  </g>
</svg>