<svg xmlns="http://www.w3.org/2000/svg" width="1600" height="600" viewBox="0 0 1600 600" role="img" aria-label="Section Bg Soft Blue">
  <defs>
    <linearGradient id="bg" x1="0" y1="0" x2="1" y2="1"><stop offset="0%" stop-color="#ffffff"/><stop offset="50%" stop-color="#eff6ff"/><stop offset="100%" stop-color="#f8fafc"/></linearGradient>
    <radialGradient id="glow" cx="50%" cy="38%" r="70%"><stop offset="0%" stop-color="#2563eb" stop-opacity="0.22"/><stop offset="40%" stop-color="#2563eb" stop-opacity="0.08"/><stop offset="100%" stop-color="#2563eb" stop-opacity="0"/></radialGradient>
    <pattern id="grid" width="48" height="48" patternUnits="userSpaceOnUse">
      <path d="M48 0H0V48" fill="none" stroke="#ffffff" stroke-opacity="0.20" stroke-width="1"/>
    </pattern>
  </defs>
  <rect width="1600" height="600" fill="url(#bg)"/>
  <rect width="1600" height="600" fill="url(#grid)"/>
  <rect x="-120" y="-120" width="1840" height="840" fill="url(#glow)"/>
  <path d="M0 432 C 320 360, 576 540, 864 432 S 1280 276, 1600 360" fill="none" stroke="#2563eb" stroke-opacity="0.16" stroke-width="7"/>
  <g><circle cx="1405" cy="63" r="4" fill="#2563eb" opacity="0.18"/><circle cx="754" cy="319" r="2" fill="#2563eb" opacity="0.18"/><circle cx="1523" cy="599" r="4" fill="#2563eb" opacity="0.22"/><circle cx="1511" cy="574" r="3" fill="#2563eb" opacity="0.17"/><circle cx="214" cy="257" r="3" fill="#2563eb" opacity="0.22"/><circle cx="1011" cy="404" r="2" fill="#2563eb" opacity="0.19"/><circle cx="66" cy="420" r="3" fill="#2563eb" opacity="0.10"/><circle cx="524" cy="62" r="2" fill="#2563eb" opacity="0.12"/><circle cx="540" cy="63" r="4" fill="#2563eb" opacity="0.21"/><circle cx="1280" cy="178" r="2" fill="#2563eb" opacity="0.22"/><circle cx="381" cy="153" r="4" fill="#2563eb" opacity="0.18"/><circle cx="1571" cy="178" r="2" fill="#2563eb" opacity="0.17"/><circle cx="689" cy="474" r="2" fill="#2563eb" opacity="0.14"/><circle cx="1297" cy="189" r="4" fill="#2563eb" opacity="0.11"/><circle cx="450" cy="83" r="1" fill="#2563eb" opacity="0.17"/><circle cx="862" cy="11" r="4" fill="#2563eb" opacity="0.08"/><circle cx="1434" cy="186" r="2" fill="#2563eb" opacity="0.17"/><circle cx="437" cy="335" r="2" fill="#2563eb" opacity="0.09"/><circle cx="1274" cy="11" r="4" fill="#2563eb" opacity="0.24"/><circle cx="786" cy="187" r="5" fill="#2563eb" opacity="0.13"/><circle cx="1010" cy="228" r="5" fill="#2563eb" opacity="0.22"/><circle cx="736" cy="182" r="3" fill="#2563eb" opacity="0.12"/><circle cx="1520" cy="97" r="4" fill="#2563eb" opacity="0.17"/><circle cx="1102" cy="70" r="2" fill="#2563eb" opacity="0.19"/><circle cx="882" cy="59" r="3" fill="#2563eb" opacity="0.22"/><circle cx="996" cy="306" r="5" fill="#2563eb" opacity="0.13"/><circle cx="95" cy="266" r="5" fill="#2563eb" opacity="0.14"/><circle cx="240" cy="505" r="5" fill="#2563eb" opacity="0.15"/><circle cx="1397" cy="546" r="3" fill="#2563eb" opacity="0.20"/><circle cx="896" cy="511" r="3" fill="#2563eb" opacity="0.21"/><circle cx="735" cy="122" r="3" fill="#2563eb" opacity="0.11"/><circle cx="445" cy="466" r="5" fill="#2563eb" opacity="0.11"/><circle cx="581" cy="508" r="3" fill="#2563eb" opacity="0.20"/><circle cx="185" cy="112" r="1" fill="#2563eb" opacity="0.12"/><circle cx="1534" cy="269" r="5" fill="#2563eb" opacity="0.25"/><circle cx="1577" cy="374" r="2" fill="#2563eb" opacity="0.09"/><circle cx="1439" cy="536" r="2" fill="#2563eb" opacity="0.09"/><circle cx="1177" cy="568" r="3" fill="#2563eb" opacity="0.12"/><circle cx="912" cy="344" r="3" fill="#2563eb" opacity="0.21"/><circle cx="1419" cy="79" r="2" fill="#2563eb" opacity="0.12"/><circle cx="520" cy="579" r="3" fill="#2563eb" opacity="0.18"/><circle cx="676" cy="587" r="5" fill="#2563eb" opacity="0.09"/><circle cx="109" cy="168" r="2" fill="#2563eb" opacity="0.19"/><circle cx="262" cy="512" r="1" fill="#2563eb" opacity="0.14"/><circle cx="774" cy="490" r="2" fill="#2563eb" opacity="0.20"/><circle cx="1108" cy="557" r="2" fill="#2563eb" opacity="0.09"/><circle cx="245" cy="540" r="1" fill="#2563eb" opacity="0.08"/><circle cx="865" cy="194" r="4" fill="#2563eb" opacity="0.16"/><circle cx="1316" cy="199" r="5" fill="#2563eb" opacity="0.21"/><circle cx="97" cy="71" r="2" fill="#2563eb" opacity="0.08"/><circle cx="540" cy="463" r="1" fill="#2563eb" opacity="0.12"/><circle cx="1374" cy="543" r="2" fill="#2563eb" opacity="0.13"/><circle cx="566" cy="92" r="1" fill="#2563eb" opacity="0.22"/><circle cx="1276" cy="354" r="1" fill="#2563eb" opacity="0.24"/><circle cx="337" cy="374" r="5" fill="#2563eb" opacity="0.12"/><circle cx="1326" cy="202" r="4" fill="#2563eb" opacity="0.24"/><circle cx="793" cy="399" r="4" fill="#2563eb" opacity="0.20"/><circle cx="919" cy="380" r="4" fill="#2563eb" opacity="0.18"/><circle cx="858" cy="408" r="5" fill="#2563eb" opacity="0.20"/><circle cx="997" cy="179" r="5" fill="#2563eb" opacity="0.11"/><circle cx="1411" cy="240" r="1" fill="#2563eb" opacity="0.21"/><circle cx="735" cy="335" r="5" fill="#2563eb" opacity="0.25"/><circle cx="313" cy="417" r="1" fill="#2563eb" opacity="0.25"/><circle cx="1" cy="319" r="2" fill="#2563eb" opacity="0.10"/><circle cx="71" cy="345" r="4" fill="#2563eb" opacity="0.20"/><circle cx="922" cy="295" r="2" fill="#2563eb" opacity="0.22"/><circle cx="1238" cy="319" r="3" fill="#2563eb" opacity="0.09"/><circle cx="1134" cy="457" r="2" fill="#2563eb" opacity="0.12"/><circle cx="881" cy="358" r="3" fill="#2563eb" opacity="0.11"/><circle cx="1353" cy="496" r="3" fill="#2563eb" opacity="0.11"/><circle cx="1169" cy="454" r="5" fill="#2563eb" opacity="0.13"/><circle cx="1493" cy="91" r="5" fill="#2563eb" opacity="0.14"/><circle cx="709" cy="375" r="5" fill="#2563eb" opacity="0.17"/><circle cx="650" cy="283" r="4" fill="#2563eb" opacity="0.24"/><circle cx="1281" cy="499" r="5" fill="#2563eb" opacity="0.21"/><circle cx="1001" cy="357" r="4" fill="#2563eb" opacity="0.23"/><circle cx="1287" cy="25" r="1" fill="#2563eb" opacity="0.17"/><circle cx="1376" cy="435" r="4" fill="#2563eb" opacity="0.25"/><circle cx="26" cy="95" r="3" fill="#2563eb" opacity="0.23"/><circle cx="636" cy="203" r="1" fill="#2563eb" opacity="0.15"/><circle cx="202" cy="179" r="5" fill="#2563eb" opacity="0.14"/><circle cx="330" cy="443" r="2" fill="#2563eb" opacity="0.09"/><circle cx="457" cy="185" r="2" fill="#2563eb" opacity="0.24"/><circle cx="211" cy="37" r="4" fill="#2563eb" opacity="0.14"/><circle cx="779" cy="384" r="5" fill="#2563eb" opacity="0.16"/><circle cx="1544" cy="182" r="1" fill="#2563eb" opacity="0.17"/><circle cx="1270" cy="284" r="4" fill="#2563eb" opacity="0.18"/><circle cx="1379" cy="492" r="3" fill="#2563eb" opacity="0.20"/><circle cx="6" cy="331" r="2" fill="#2563eb" opacity="0.23"/><circle cx="438" cy="419" r="1" fill="#2563eb" opacity="0.14"/></g>
  <g transform="translate(64,64)">
    <rect x="-24" y="-22" rx="24" ry="24" width="620" height="168" fill="#ffffff" fill-opacity="0.72" stroke="#2563eb" stroke-opacity="0.18"/>
    <text x="0" y="30" fill="#0f172a" font-family="Inter, Arial, sans-serif" font-size="40" font-weight="800">Section Bg Soft Blue</text>
    <text x="0" y="80" fill="#64748b" font-family="Inter, Arial, sans-serif" font-size="22">LIGHT · backgrounds</text>
    <text x="0" y="120" fill="#64748b" font-family="Inter, Arial, sans-serif" font-size="18">K-LOL.GG theme asset placeholder</text>
  </g>
</svg>