<svg xmlns="http://www.w3.org/2000/svg" width="1600" height="600" viewBox="0 0 1600 600" role="img" aria-label="Section Bg Frost">
  <defs>
    <linearGradient id="bg" x1="0" y1="0" x2="1" y2="1"><stop offset="0%" stop-color="#ffffff"/><stop offset="50%" stop-color="#eff6ff"/><stop offset="100%" stop-color="#f8fafc"/></linearGradient>
    <radialGradient id="glow" cx="50%" cy="38%" r="70%"><stop offset="0%" stop-color="#2563eb" stop-opacity="0.22"/><stop offset="40%" stop-color="#2563eb" stop-opacity="0.08"/><stop offset="100%" stop-color="#2563eb" stop-opacity="0"/></radialGradient>
    <pattern id="grid" width="48" height="48" patternUnits="userSpaceOnUse">
      <path d="M48 0H0V48" fill="none" stroke="#ffffff" stroke-opacity="0.20" stroke-width="1"/>
    </pattern>
  </defs>
  <rect width="1600" height="600" fill="url(#bg)"/>
  <rect width="1600" height="600" fill="url(#grid)"/>
  <rect x="-120" y="-120" width="1840" height="840" fill="url(#glow)"/>
  <path d="M0 432 C 320 360, 576 540, 864 432 S 1280 276, 1600 360" fill="none" stroke="#2563eb" stroke-opacity="0.16" stroke-width="7"/>
  <g><path d="M1562 511 l78 -39.0" stroke="#fff" stroke-opacity="0.07" stroke-width="1"/><path d="M1311 186 l29 -14.5" stroke="#fff" stroke-opacity="0.07" stroke-width="1"/><path d="M46 535 l72 -36.0" stroke="#fff" stroke-opacity="0.04" stroke-width="1"/><path d="M253 211 l37 -18.5" stroke="#fff" stroke-opacity="0.08" stroke-width="1"/><path d="M658 354 l149 -74.5" stroke="#fff" stroke-opacity="0.05" stroke-width="1"/><path d="M1332 104 l78 -39.0" stroke="#fff" stroke-opacity="0.08" stroke-width="1"/><path d="M903 367 l129 -64.5" stroke="#fff" stroke-opacity="0.05" stroke-width="1"/><path d="M1297 202 l120 -60.0" stroke="#fff" stroke-opacity="0.04" stroke-width="1"/><path d="M1069 222 l45 -22.5" stroke="#fff" stroke-opacity="0.03" stroke-width="1"/><path d="M1425 496 l157 -78.5" stroke="#fff" stroke-opacity="0.08" stroke-width="1"/><path d="M1050 372 l99 -49.5" stroke="#fff" stroke-opacity="0.04" stroke-width="1"/><path d="M1317 469 l63 -31.5" stroke="#fff" stroke-opacity="0.08" stroke-width="1"/><path d="M1394 92 l49 -24.5" stroke="#fff" stroke-opacity="0.07" stroke-width="1"/><path d="M1076 421 l145 -72.5" stroke="#fff" stroke-opacity="0.05" stroke-width="1"/><path d="M1021 562 l38 -19.0" stroke="#fff" stroke-opacity="0.05" stroke-width="1"/><path d="M875 239 l123 -61.5" stroke="#fff" stroke-opacity="0.06" stroke-width="1"/><path d="M679 80 l152 -76.0" stroke="#fff" stroke-opacity="0.06" stroke-width="1"/><path d="M119 66 l88 -44.0" stroke="#fff" stroke-opacity="0.08" stroke-width="1"/><path d="M1051 174 l36 -18.0" stroke="#fff" stroke-opacity="0.03" stroke-width="1"/><path d="M85 554 l51 -25.5" stroke="#fff" stroke-opacity="0.06" stroke-width="1"/><path d="M1377 332 l139 -69.5" stroke="#fff" stroke-opacity="0.08" stroke-width="1"/><path d="M661 447 l79 -39.5" stroke="#fff" stroke-opacity="0.03" stroke-width="1"/><path d="M859 556 l43 -21.5" stroke="#fff" stroke-opacity="0.03" stroke-width="1"/><path d="M225 472 l27 -13.5" stroke="#fff" stroke-opacity="0.08" stroke-width="1"/><path d="M269 20 l61 -30.5" stroke="#fff" stroke-opacity="0.03" stroke-width="1"/><path d="M1240 426 l137 -68.5" stroke="#fff" stroke-opacity="0.05" stroke-width="1"/><path d="M265 226 l117 -58.5" stroke="#fff" stroke-opacity="0.04" stroke-width="1"/><path d="M215 162 l142 -71.0" stroke="#fff" stroke-opacity="0.04" stroke-width="1"/><path d="M54 83 l146 -73.0" stroke="#fff" stroke-opacity="0.06" stroke-width="1"/><path d="M599 351 l138 -69.0" stroke="#fff" stroke-opacity="0.03" stroke-width="1"/><path d="M176 469 l144 -72.0" stroke="#fff" stroke-opacity="0.09" stroke-width="1"/><path d="M812 337 l132 -66.0" stroke="#fff" stroke-opacity="0.08" stroke-width="1"/><path d="M1512 420 l148 -74.0" stroke="#fff" stroke-opacity="0.09" stroke-width="1"/><path d="M1072 435 l52 -26.0" stroke="#fff" stroke-opacity="0.04" stroke-width="1"/><path d="M851 447 l35 -17.5" stroke="#fff" stroke-opacity="0.08" stroke-width="1"/><path d="M1212 369 l68 -34.0" stroke="#fff" stroke-opacity="0.06" stroke-width="1"/><path d="M483 340 l105 -52.5" stroke="#fff" stroke-opacity="0.04" stroke-width="1"/><path d="M810 280 l84 -42.0" stroke="#fff" stroke-opacity="0.03" stroke-width="1"/><path d="M1556 66 l136 -68.0" stroke="#fff" stroke-opacity="0.05" stroke-width="1"/><path d="M559 410 l111 -55.5" stroke="#fff" stroke-opacity="0.03" stroke-width="1"/><path d="M1103 327 l40 -20.0" stroke="#fff" stroke-opacity="0.09" stroke-width="1"/><path d="M784 89 l88 -44.0" stroke="#fff" stroke-opacity="0.07" stroke-width="1"/><path d="M68 465 l133 -66.5" stroke="#fff" stroke-opacity="0.06" stroke-width="1"/><path d="M1209 199 l96 -48.0" stroke="#fff" stroke-opacity="0.04" stroke-width="1"/><path d="M1039 377 l104 -52.0" stroke="#fff" stroke-opacity="0.04" stroke-width="1"/><path d="M1575 109 l40 -20.0" stroke="#fff" stroke-opacity="0.05" stroke-width="1"/><path d="M67 185 l79 -39.5" stroke="#fff" stroke-opacity="0.05" stroke-width="1"/><path d="M962 188 l49 -24.5" stroke="#fff" stroke-opacity="0.09" stroke-width="1"/><path d="M370 137 l51 -25.5" stroke="#fff" stroke-opacity="0.09" stroke-width="1"/><path d="M612 98 l79 -39.5" stroke="#fff" stroke-opacity="0.07" stroke-width="1"/><path d="M4 397 l42 -21.0" stroke="#fff" stroke-opacity="0.04" stroke-width="1"/><path d="M1225 155 l24 -12.0" stroke="#fff" stroke-opacity="0.03" stroke-width="1"/><path d="M424 117 l74 -37.0" stroke="#fff" stroke-opacity="0.05" stroke-width="1"/><path d="M111 1 l54 -27.0" stroke="#fff" stroke-opacity="0.08" stroke-width="1"/><path d="M918 453 l148 -74.0" stroke="#fff" stroke-opacity="0.08" stroke-width="1"/><path d="M723 466 l108 -54.0" stroke="#fff" stroke-opacity="0.08" stroke-width="1"/><path d="M1277 521 l130 -65.0" stroke="#fff" stroke-opacity="0.05" stroke-width="1"/><path d="M166 298 l49 -24.5" stroke="#fff" stroke-opacity="0.08" stroke-width="1"/><path d="M2 67 l138 -69.0" stroke="#fff" stroke-opacity="0.08" stroke-width="1"/><path d="M94 14 l133 -66.5" stroke="#fff" stroke-opacity="0.06" stroke-width="1"/><path d="M149 501 l96 -48.0" stroke="#fff" stroke-opacity="0.07" stroke-width="1"/><path d="M1394 518 l131 -65.5" stroke="#fff" stroke-opacity="0.03" stroke-width="1"/><path d="M1574 198 l116 -58.0" stroke="#fff" stroke-opacity="0.08" stroke-width="1"/><path d="M690 527 l140 -70.0" stroke="#fff" stroke-opacity="0.07" stroke-width="1"/><path d="M985 490 l78 -39.0" stroke="#fff" stroke-opacity="0.07" stroke-width="1"/><path d="M1157 331 l39 -19.5" stroke="#fff" stroke-opacity="0.08" stroke-width="1"/><path d="M1156 374 l24 -12.0" stroke="#fff" stroke-opacity="0.07" stroke-width="1"/><path d="M1318 313 l133 -66.5" stroke="#fff" stroke-opacity="0.05" stroke-width="1"/><path d="M1167 587 l116 -58.0" stroke="#fff" stroke-opacity="0.07" stroke-width="1"/><path d="M553 282 l145 -72.5" stroke="#fff" stroke-opacity="0.08" stroke-width="1"/><path d="M531 479 l142 -71.0" stroke="#fff" stroke-opacity="0.07" stroke-width="1"/><path d="M483 74 l30 -15.0" stroke="#fff" stroke-opacity="0.07" stroke-width="1"/><path d="M612 49 l114 -57.0" stroke="#fff" stroke-opacity="0.08" stroke-width="1"/><path d="M1418 86 l154 -77.0" stroke="#fff" stroke-opacity="0.06" stroke-width="1"/><path d="M434 387 l155 -77.5" stroke="#fff" stroke-opacity="0.09" stroke-width="1"/><path d="M1218 280 l45 -22.5" stroke="#fff" stroke-opacity="0.03" stroke-width="1"/><path d="M1025 357 l59 -29.5" stroke="#fff" stroke-opacity="0.03" stroke-width="1"/><path d="M804 405 l78 -39.0" stroke="#fff" stroke-opacity="0.03" stroke-width="1"/><path d="M783 586 l81 -40.5" stroke="#fff" stroke-opacity="0.04" stroke-width="1"/><path d="M342 243 l107 -53.5" stroke="#fff" stroke-opacity="0.03" stroke-width="1"/><path d="M97 188 l157 -78.5" stroke="#fff" stroke-opacity="0.04" stroke-width="1"/><path d="M1538 423 l149 -74.5" stroke="#fff" stroke-opacity="0.03" stroke-width="1"/><path d="M1186 148 l118 -59.0" stroke="#fff" stroke-opacity="0.08" stroke-width="1"/><path d="M346 383 l45 -22.5" stroke="#fff" stroke-opacity="0.08" stroke-width="1"/><path d="M484 411 l50 -25.0" stroke="#fff" stroke-opacity="0.03" stroke-width="1"/><path d="M1416 36 l21 -10.5" stroke="#fff" stroke-opacity="0.07" stroke-width="1"/><path d="M651 366 l121 -60.5" stroke="#fff" stroke-opacity="0.08" stroke-width="1"/><path d="M1177 223 l98 -49.0" stroke="#fff" stroke-opacity="0.03" stroke-width="1"/><path d="M585 160 l55 -27.5" stroke="#fff" stroke-opacity="0.06" stroke-width="1"/><path d="M822 509 l68 -34.0" stroke="#fff" stroke-opacity="0.06" stroke-width="1"/><path d="M1490 286 l87 -43.5" stroke="#fff" stroke-opacity="0.06" stroke-width="1"/><path d="M401 506 l66 -33.0" stroke="#fff" stroke-opacity="0.06" stroke-width="1"/><path d="M863 511 l147 -73.5" stroke="#fff" stroke-opacity="0.07" stroke-width="1"/><path d="M766 215 l145 -72.5" stroke="#fff" stroke-opacity="0.03" stroke-width="1"/><path d="M736 130 l116 -58.0" stroke="#fff" stroke-opacity="0.06" stroke-width="1"/><path d="M1534 140 l33 -16.5" stroke="#fff" stroke-opacity="0.08" stroke-width="1"/><path d="M1546 393 l126 -63.0" stroke="#fff" stroke-opacity="0.05" stroke-width="1"/><path d="M242 486 l79 -39.5" stroke="#fff" stroke-opacity="0.08" stroke-width="1"/><path d="M670 41 l113 -56.5" stroke="#fff" stroke-opacity="0.07" stroke-width="1"/><path d="M1039 211 l91 -45.5" stroke="#fff" stroke-opacity="0.05" stroke-width="1"/><path d="M824 501 l23 -11.5" stroke="#fff" stroke-opacity="0.06" stroke-width="1"/><path d="M1071 447 l71 -35.5" stroke="#fff" stroke-opacity="0.09" stroke-width="1"/><path d="M1087 392 l63 -31.5" stroke="#fff" stroke-opacity="0.05" stroke-width="1"/><path d="M673 70 l150 -75.0" stroke="#fff" stroke-opacity="0.08" stroke-width="1"/><path d="M1030 102 l150 -75.0" stroke="#fff" stroke-opacity="0.03" stroke-width="1"/><path d="M1074 47 l123 -61.5" stroke="#fff" stroke-opacity="0.04" stroke-width="1"/><path d="M685 308 l89 -44.5" stroke="#fff" stroke-opacity="0.05" stroke-width="1"/><path d="M939 445 l103 -51.5" stroke="#fff" stroke-opacity="0.04" stroke-width="1"/><path d="M43 78 l110 -55.0" stroke="#fff" stroke-opacity="0.04" stroke-width="1"/><path d="M1560 42 l141 -70.5" stroke="#fff" stroke-opacity="0.08" stroke-width="1"/><path d="M185 349 l59 -29.5" stroke="#fff" stroke-opacity="0.08" stroke-width="1"/><path d="M979 555 l152 -76.0" stroke="#fff" stroke-opacity="0.09" stroke-width="1"/><path d="M325 502 l77 -38.5" stroke="#fff" stroke-opacity="0.09" stroke-width="1"/><path d="M1254 232 l65 -32.5" stroke="#fff" stroke-opacity="0.05" stroke-width="1"/><path d="M1402 330 l76 -38.0" stroke="#fff" stroke-opacity="0.03" stroke-width="1"/><path d="M383 215 l46 -23.0" stroke="#fff" stroke-opacity="0.06" stroke-width="1"/><path d="M669 390 l154 -77.0" stroke="#fff" stroke-opacity="0.06" stroke-width="1"/><path d="M1215 526 l145 -72.5" stroke="#fff" stroke-opacity="0.06" stroke-width="1"/><path d="M815 154 l47 -23.5" stroke="#fff" stroke-opacity="0.06" stroke-width="1"/><path d="M1433 151 l148 -74.0" stroke="#fff" stroke-opacity="0.04" stroke-width="1"/></g>
  <g transform="translate(64,64)">
    <rect x="-24" y="-22" rx="24" ry="24" width="620" height="168" fill="#ffffff" fill-opacity="0.72" stroke="#2563eb" stroke-opacity="0.18"/>
    <text x="0" y="30" fill="#0f172a" font-family="Inter, Arial, sans-serif" font-size="40" font-weight="800">Section Bg Frost</text>
    <text x="0" y="80" fill="#64748b" font-family="Inter, Arial, sans-serif" font-size="22">LIGHT · backgrounds</text>
    <text x="0" y="120" fill="#64748b" font-family="Inter, Arial, sans-serif" font-size="18">K-LOL.GG theme asset placeholder</text>
  </g>
</svg>