<svg xmlns="http://www.w3.org/2000/svg" width="900" height="500" viewBox="0 0 900 500" role="img" aria-label="Empty Match">
  <defs>
    <linearGradient id="bg" x1="0" y1="0" x2="1" y2="1"><stop offset="0%" stop-color="#0f172a"/><stop offset="50%" stop-color="#1e293b"/><stop offset="100%" stop-color="#111827"/></linearGradient>
    <radialGradient id="glow" cx="50%" cy="38%" r="70%"><stop offset="0%" stop-color="#60a5fa" stop-opacity="0.22"/><stop offset="40%" stop-color="#60a5fa" stop-opacity="0.08"/><stop offset="100%" stop-color="#60a5fa" stop-opacity="0"/></radialGradient>
    <pattern id="grid" width="48" height="48" patternUnits="userSpaceOnUse">
      <path d="M48 0H0V48" fill="none" stroke="#ffffff" stroke-opacity="0.20" stroke-width="1"/>
    </pattern>
  </defs>
  <rect width="900" height="500" fill="url(#bg)"/>
  <rect width="900" height="500" fill="url(#grid)"/>
  <rect x="-120" y="-120" width="1140" height="740" fill="url(#glow)"/>
  <path d="M0 360 C 180 300, 324 450, 486 360 S 720 230, 900 300" fill="none" stroke="#60a5fa" stroke-opacity="0.16" stroke-width="7"/>
  
        <g opacity="0.5">
          <ellipse cx="594.0" cy="330.0" rx="252.00000000000003" ry="80.0" fill="none" stroke="#60a5fa" stroke-width="10"/>
          <ellipse cx="594.0" cy="330.0" rx="180.0" ry="50.0" fill="none" stroke="#60a5fa" stroke-width="5" opacity=".55"/>
          <path d="M351.0 310.0 C495.00000000000006 240.0, 702.0 240.0, 846.0 310.0" fill="none" stroke="#fff" stroke-opacity=".16" stroke-width="3"/>
        </g>
  <g transform="translate(64,64)">
    <rect x="-24" y="-22" rx="24" ry="24" width="620" height="168" fill="#0f172a" fill-opacity="0.72" stroke="#60a5fa" stroke-opacity="0.18"/>
    <text x="0" y="30" fill="#0f172a" font-family="Inter, Arial, sans-serif" font-size="40" font-weight="800">Empty Match</text>
    <text x="0" y="80" fill="#64748b" font-family="Inter, Arial, sans-serif" font-size="22">NEUTRAL · empty</text>
    <text x="0" y="120" fill="#64748b" font-family="Inter, Arial, sans-serif" font-size="18">K-LOL.GG theme asset placeholder</text>
  </g>
</svg>