<svg xmlns="http://www.w3.org/2000/svg" width="900" height="500" viewBox="0 0 900 500" role="img" aria-label="Empty Scrim">
  <defs>
    <linearGradient id="bg" x1="0" y1="0" x2="1" y2="1"><stop offset="0%" stop-color="#0f172a"/><stop offset="50%" stop-color="#1e293b"/><stop offset="100%" stop-color="#111827"/></linearGradient>
    <radialGradient id="glow" cx="50%" cy="38%" r="70%"><stop offset="0%" stop-color="#60a5fa" stop-opacity="0.22"/><stop offset="40%" stop-color="#60a5fa" stop-opacity="0.08"/><stop offset="100%" stop-color="#60a5fa" stop-opacity="0"/></radialGradient>
    <pattern id="grid" width="48" height="48" patternUnits="userSpaceOnUse">
      <path d="M48 0H0V48" fill="none" stroke="#ffffff" stroke-opacity="0.20" stroke-width="1"/>
    </pattern>
  </defs>
  <rect width="900" height="500" fill="url(#bg)"/>
  <rect width="900" height="500" fill="url(#grid)"/>
  <rect x="-120" y="-120" width="1140" height="740" fill="url(#glow)"/>
  <path d="M0 360 C 180 300, 324 450, 486 360 S 720 230, 900 300" fill="none" stroke="#60a5fa" stroke-opacity="0.16" stroke-width="7"/>
  
        <g transform="translate(513.0,110.0)" opacity="0.52" stroke="#60a5fa" stroke-width="8" fill="none" stroke-linecap="round">
          <path d="M0 30 h160 v80 h80"/>
          <path d="M0 190 h160 v-80"/>
          <path d="M0 330 h160 v-80 h80"/>
          <path d="M0 490 h160 v-80"/>
          <path d="M240 110 h150 v140 h90"/>
          <path d="M240 250 h150"/>
        </g>
  <g transform="translate(64,64)">
    <rect x="-24" y="-22" rx="24" ry="24" width="620" height="168" fill="#0f172a" fill-opacity="0.72" stroke="#60a5fa" stroke-opacity="0.18"/>
    <text x="0" y="30" fill="#0f172a" font-family="Inter, Arial, sans-serif" font-size="40" font-weight="800">Empty Scrim</text>
    <text x="0" y="80" fill="#64748b" font-family="Inter, Arial, sans-serif" font-size="22">NEUTRAL · empty</text>
    <text x="0" y="120" fill="#64748b" font-family="Inter, Arial, sans-serif" font-size="18">K-LOL.GG theme asset placeholder</text>
  </g>
</svg>