<svg xmlns="http://www.w3.org/2000/svg" width="1600" height="1000" viewBox="0 0 1600 1000" role="img" aria-label="Login Bg Blue">
  <defs>
    <linearGradient id="bg" x1="0" y1="0" x2="1" y2="1"><stop offset="0%" stop-color="#020617"/><stop offset="50%" stop-color="#07111f"/><stop offset="100%" stop-color="#0f172a"/></linearGradient>
    <radialGradient id="glow" cx="50%" cy="38%" r="70%"><stop offset="0%" stop-color="#3b82f6" stop-opacity="0.42"/><stop offset="40%" stop-color="#3b82f6" stop-opacity="0.14"/><stop offset="100%" stop-color="#3b82f6" stop-opacity="0"/></radialGradient>
    <pattern id="grid" width="48" height="48" patternUnits="userSpaceOnUse">
      <path d="M48 0H0V48" fill="none" stroke="#ffffff" stroke-opacity="0.10" stroke-width="1"/>
    </pattern>
  </defs>
  <rect width="1600" height="1000" fill="url(#bg)"/>
  <rect width="1600" height="1000" fill="url(#grid)"/>
  <rect x="-120" y="-120" width="1840" height="1240" fill="url(#glow)"/>
  <path d="M0 720 C 320 600, 576 900, 864 720 S 1280 460, 1600 600" fill="none" stroke="#3b82f6" stroke-opacity="0.28" stroke-width="7"/>
  <g><circle cx="15" cy="524" r="2" fill="#3b82f6" opacity="0.33"/><circle cx="1131" cy="254" r="3" fill="#3b82f6" opacity="0.17"/><circle cx="1172" cy="947" r="1" fill="#3b82f6" opacity="0.16"/><circle cx="655" cy="772" r="1" fill="#3b82f6" opacity="0.29"/><circle cx="721" cy="746" r="3" fill="#3b82f6" opacity="0.47"/><circle cx="809" cy="355" r="3" fill="#3b82f6" opacity="0.54"/><circle cx="1069" cy="550" r="5" fill="#3b82f6" opacity="0.37"/><circle cx="524" cy="361" r="5" fill="#3b82f6" opacity="0.15"/><circle cx="1370" cy="86" r="5" fill="#3b82f6" opacity="0.27"/><circle cx="652" cy="772" r="1" fill="#3b82f6" opacity="0.47"/><circle cx="920" cy="175" r="3" fill="#3b82f6" opacity="0.15"/><circle cx="282" cy="670" r="4" fill="#3b82f6" opacity="0.55"/><circle cx="1042" cy="556" r="2" fill="#3b82f6" opacity="0.24"/><circle cx="92" cy="458" r="2" fill="#3b82f6" opacity="0.52"/><circle cx="642" cy="752" r="1" fill="#3b82f6" opacity="0.53"/><circle cx="43" cy="473" r="2" fill="#3b82f6" opacity="0.40"/><circle cx="1285" cy="222" r="4" fill="#3b82f6" opacity="0.24"/><circle cx="331" cy="346" r="3" fill="#3b82f6" opacity="0.29"/><circle cx="19" cy="620" r="1" fill="#3b82f6" opacity="0.25"/><circle cx="1241" cy="133" r="3" fill="#3b82f6" opacity="0.25"/><circle cx="278" cy="755" r="2" fill="#3b82f6" opacity="0.48"/><circle cx="1392" cy="848" r="2" fill="#3b82f6" opacity="0.50"/><circle cx="1475" cy="672" r="1" fill="#3b82f6" opacity="0.28"/><circle cx="579" cy="943" r="1" fill="#3b82f6" opacity="0.36"/><circle cx="162" cy="0" r="3" fill="#3b82f6" opacity="0.30"/><circle cx="1151" cy="879" r="1" fill="#3b82f6" opacity="0.48"/><circle cx="53" cy="244" r="5" fill="#3b82f6" opacity="0.39"/><circle cx="1246" cy="821" r="1" fill="#3b82f6" opacity="0.53"/><circle cx="460" cy="322" r="1" fill="#3b82f6" opacity="0.41"/><circle cx="355" cy="844" r="2" fill="#3b82f6" opacity="0.45"/><circle cx="1483" cy="547" r="4" fill="#3b82f6" opacity="0.44"/><circle cx="1216" cy="349" r="5" fill="#3b82f6" opacity="0.41"/><circle cx="447" cy="951" r="5" fill="#3b82f6" opacity="0.39"/><circle cx="290" cy="349" r="3" fill="#3b82f6" opacity="0.14"/><circle cx="1382" cy="446" r="2" fill="#3b82f6" opacity="0.40"/><circle cx="104" cy="457" r="1" fill="#3b82f6" opacity="0.21"/><circle cx="1065" cy="350" r="4" fill="#3b82f6" opacity="0.18"/><circle cx="875" cy="863" r="3" fill="#3b82f6" opacity="0.38"/><circle cx="615" cy="863" r="5" fill="#3b82f6" opacity="0.25"/><circle cx="979" cy="891" r="5" fill="#3b82f6" opacity="0.48"/><circle cx="1596" cy="656" r="4" fill="#3b82f6" opacity="0.50"/><circle cx="1339" cy="617" r="5" fill="#3b82f6" opacity="0.25"/><circle cx="624" cy="238" r="5" fill="#3b82f6" opacity="0.21"/><circle cx="1303" cy="71" r="2" fill="#3b82f6" opacity="0.31"/><circle cx="856" cy="773" r="5" fill="#3b82f6" opacity="0.22"/><circle cx="765" cy="206" r="2" fill="#3b82f6" opacity="0.30"/><circle cx="216" cy="911" r="4" fill="#3b82f6" opacity="0.25"/><circle cx="269" cy="248" r="3" fill="#3b82f6" opacity="0.34"/><circle cx="470" cy="999" r="2" fill="#3b82f6" opacity="0.50"/><circle cx="4" cy="387" r="1" fill="#3b82f6" opacity="0.46"/><circle cx="101" cy="868" r="2" fill="#3b82f6" opacity="0.29"/><circle cx="764" cy="260" r="1" fill="#3b82f6" opacity="0.35"/><circle cx="896" cy="667" r="1" fill="#3b82f6" opacity="0.30"/><circle cx="373" cy="592" r="4" fill="#3b82f6" opacity="0.42"/><circle cx="541" cy="950" r="4" fill="#3b82f6" opacity="0.32"/><circle cx="1463" cy="240" r="2" fill="#3b82f6" opacity="0.47"/><circle cx="1489" cy="698" r="1" fill="#3b82f6" opacity="0.45"/><circle cx="675" cy="596" r="4" fill="#3b82f6" opacity="0.29"/><circle cx="1081" cy="164" r="4" fill="#3b82f6" opacity="0.43"/><circle cx="1233" cy="526" r="4" fill="#3b82f6" opacity="0.51"/><circle cx="581" cy="879" r="2" fill="#3b82f6" opacity="0.41"/><circle cx="1162" cy="241" r="4" fill="#3b82f6" opacity="0.52"/><circle cx="211" cy="447" r="5" fill="#3b82f6" opacity="0.25"/><circle cx="431" cy="25" r="1" fill="#3b82f6" opacity="0.13"/><circle cx="684" cy="406" r="5" fill="#3b82f6" opacity="0.15"/><circle cx="132" cy="341" r="2" fill="#3b82f6" opacity="0.52"/><circle cx="131" cy="15" r="3" fill="#3b82f6" opacity="0.48"/><circle cx="578" cy="885" r="4" fill="#3b82f6" opacity="0.39"/><circle cx="1402" cy="346" r="1" fill="#3b82f6" opacity="0.48"/><circle cx="1409" cy="682" r="1" fill="#3b82f6" opacity="0.17"/><circle cx="973" cy="617" r="5" fill="#3b82f6" opacity="0.45"/><circle cx="1598" cy="189" r="3" fill="#3b82f6" opacity="0.46"/><circle cx="997" cy="102" r="3" fill="#3b82f6" opacity="0.40"/><circle cx="729" cy="538" r="3" fill="#3b82f6" opacity="0.46"/><circle cx="41" cy="267" r="1" fill="#3b82f6" opacity="0.48"/><circle cx="47" cy="243" r="3" fill="#3b82f6" opacity="0.50"/><circle cx="1113" cy="447" r="2" fill="#3b82f6" opacity="0.36"/><circle cx="310" cy="310" r="2" fill="#3b82f6" opacity="0.33"/><circle cx="158" cy="302" r="1" fill="#3b82f6" opacity="0.45"/><circle cx="1058" cy="545" r="5" fill="#3b82f6" opacity="0.33"/><circle cx="442" cy="121" r="4" fill="#3b82f6" opacity="0.54"/><circle cx="1005" cy="5" r="2" fill="#3b82f6" opacity="0.38"/><circle cx="1" cy="343" r="3" fill="#3b82f6" opacity="0.43"/><circle cx="934" cy="876" r="2" fill="#3b82f6" opacity="0.22"/><circle cx="122" cy="399" r="5" fill="#3b82f6" opacity="0.45"/><circle cx="1418" cy="0" r="2" fill="#3b82f6" opacity="0.46"/><circle cx="400" cy="791" r="1" fill="#3b82f6" opacity="0.19"/><circle cx="1308" cy="984" r="5" fill="#3b82f6" opacity="0.26"/><circle cx="59" cy="259" r="2" fill="#3b82f6" opacity="0.17"/><circle cx="1563" cy="320" r="4" fill="#3b82f6" opacity="0.17"/></g>
  <g transform="translate(64,64)">
    <rect x="-24" y="-22" rx="24" ry="24" width="620" height="168" fill="#020617" fill-opacity="0.40" stroke="#3b82f6" stroke-opacity="0.25"/>
    <text x="0" y="30" fill="#e5f2ff" font-family="Inter, Arial, sans-serif" font-size="40" font-weight="800">Login Bg Blue</text>
    <text x="0" y="80" fill="#8aa4c7" font-family="Inter, Arial, sans-serif" font-size="22">DARK · auth</text>
    <text x="0" y="120" fill="#8aa4c7" font-family="Inter, Arial, sans-serif" font-size="18">K-LOL.GG theme asset placeholder</text>
  </g>
</svg>