<svg xmlns="http://www.w3.org/2000/svg" width="1600" height="500" viewBox="0 0 1600 500" role="img" aria-label="Community Board Bg">
  <defs>
    <linearGradient id="bg" x1="0" y1="0" x2="1" y2="1"><stop offset="0%" stop-color="#020617"/><stop offset="50%" stop-color="#07111f"/><stop offset="100%" stop-color="#0f172a"/></linearGradient>
    <radialGradient id="glow" cx="50%" cy="38%" r="70%"><stop offset="0%" stop-color="#3b82f6" stop-opacity="0.42"/><stop offset="40%" stop-color="#3b82f6" stop-opacity="0.14"/><stop offset="100%" stop-color="#3b82f6" stop-opacity="0"/></radialGradient>
    <pattern id="grid" width="48" height="48" patternUnits="userSpaceOnUse">
      <path d="M48 0H0V48" fill="none" stroke="#ffffff" stroke-opacity="0.10" stroke-width="1"/>
    </pattern>
  </defs>
  <rect width="1600" height="500" fill="url(#bg)"/>
  <rect width="1600" height="500" fill="url(#grid)"/>
  <rect x="-120" y="-120" width="1840" height="740" fill="url(#glow)"/>
  <path d="M0 360 C 320 300, 576 450, 864 360 S 1280 230, 1600 300" fill="none" stroke="#3b82f6" stroke-opacity="0.28" stroke-width="7"/>
  <g><path d="M1311 44 l90 -45.0" stroke="#fff" stroke-opacity="0.05" stroke-width="1"/><path d="M141 398 l106 -53.0" stroke="#fff" stroke-opacity="0.05" stroke-width="1"/><path d="M1137 21 l91 -45.5" stroke="#fff" stroke-opacity="0.07" stroke-width="1"/><path d="M11 77 l93 -46.5" stroke="#fff" stroke-opacity="0.05" stroke-width="1"/><path d="M219 388 l32 -16.0" stroke="#fff" stroke-opacity="0.12" stroke-width="1"/><path d="M1364 154 l40 -20.0" stroke="#fff" stroke-opacity="0.13" stroke-width="1"/><path d="M1411 56 l27 -13.5" stroke="#fff" stroke-opacity="0.04" stroke-width="1"/><path d="M139 233 l149 -74.5" stroke="#fff" stroke-opacity="0.12" stroke-width="1"/><path d="M165 90 l80 -40.0" stroke="#fff" stroke-opacity="0.14" stroke-width="1"/><path d="M797 57 l123 -61.5" stroke="#fff" stroke-opacity="0.06" stroke-width="1"/><path d="M319 298 l86 -43.0" stroke="#fff" stroke-opacity="0.11" stroke-width="1"/><path d="M473 329 l107 -53.5" stroke="#fff" stroke-opacity="0.14" stroke-width="1"/><path d="M924 327 l110 -55.0" stroke="#fff" stroke-opacity="0.08" stroke-width="1"/><path d="M1111 357 l31 -15.5" stroke="#fff" stroke-opacity="0.11" stroke-width="1"/><path d="M26 332 l134 -67.0" stroke="#fff" stroke-opacity="0.11" stroke-width="1"/><path d="M466 401 l96 -48.0" stroke="#fff" stroke-opacity="0.11" stroke-width="1"/><path d="M910 385 l22 -11.0" stroke="#fff" stroke-opacity="0.10" stroke-width="1"/><path d="M885 221 l30 -15.0" stroke="#fff" stroke-opacity="0.07" stroke-width="1"/><path d="M572 199 l153 -76.5" stroke="#fff" stroke-opacity="0.09" stroke-width="1"/><path d="M55 24 l131 -65.5" stroke="#fff" stroke-opacity="0.14" stroke-width="1"/><path d="M1044 441 l122 -61.0" stroke="#fff" stroke-opacity="0.13" stroke-width="1"/><path d="M1374 26 l40 -20.0" stroke="#fff" stroke-opacity="0.13" stroke-width="1"/><path d="M318 222 l114 -57.0" stroke="#fff" stroke-opacity="0.08" stroke-width="1"/><path d="M1266 288 l50 -25.0" stroke="#fff" stroke-opacity="0.06" stroke-width="1"/><path d="M936 95 l113 -56.5" stroke="#fff" stroke-opacity="0.09" stroke-width="1"/><path d="M300 463 l137 -68.5" stroke="#fff" stroke-opacity="0.10" stroke-width="1"/><path d="M1513 483 l147 -73.5" stroke="#fff" stroke-opacity="0.08" stroke-width="1"/><path d="M1262 342 l138 -69.0" stroke="#fff" stroke-opacity="0.12" stroke-width="1"/><path d="M955 89 l84 -42.0" stroke="#fff" stroke-opacity="0.06" stroke-width="1"/><path d="M1390 91 l122 -61.0" stroke="#fff" stroke-opacity="0.07" stroke-width="1"/><path d="M1312 367 l102 -51.0" stroke="#fff" stroke-opacity="0.09" stroke-width="1"/><path d="M296 193 l91 -45.5" stroke="#fff" stroke-opacity="0.12" stroke-width="1"/><path d="M1459 24 l51 -25.5" stroke="#fff" stroke-opacity="0.12" stroke-width="1"/><path d="M1325 3 l20 -10.0" stroke="#fff" stroke-opacity="0.10" stroke-width="1"/><path d="M1157 163 l28 -14.0" stroke="#fff" stroke-opacity="0.13" stroke-width="1"/><path d="M1587 216 l48 -24.0" stroke="#fff" stroke-opacity="0.13" stroke-width="1"/><path d="M1294 414 l29 -14.5" stroke="#fff" stroke-opacity="0.09" stroke-width="1"/><path d="M442 138 l41 -20.5" stroke="#fff" stroke-opacity="0.07" stroke-width="1"/><path d="M1073 394 l147 -73.5" stroke="#fff" stroke-opacity="0.10" stroke-width="1"/><path d="M1414 57 l154 -77.0" stroke="#fff" stroke-opacity="0.05" stroke-width="1"/><path d="M141 446 l80 -40.0" stroke="#fff" stroke-opacity="0.11" stroke-width="1"/><path d="M1440 407 l94 -47.0" stroke="#fff" stroke-opacity="0.06" stroke-width="1"/><path d="M1540 187 l141 -70.5" stroke="#fff" stroke-opacity="0.07" stroke-width="1"/><path d="M769 133 l119 -59.5" stroke="#fff" stroke-opacity="0.08" stroke-width="1"/><path d="M1341 281 l104 -52.0" stroke="#fff" stroke-opacity="0.05" stroke-width="1"/><path d="M42 319 l100 -50.0" stroke="#fff" stroke-opacity="0.13" stroke-width="1"/><path d="M436 489 l101 -50.5" stroke="#fff" stroke-opacity="0.05" stroke-width="1"/><path d="M1040 106 l55 -27.5" stroke="#fff" stroke-opacity="0.12" stroke-width="1"/><path d="M968 95 l97 -48.5" stroke="#fff" stroke-opacity="0.09" stroke-width="1"/><path d="M52 219 l39 -19.5" stroke="#fff" stroke-opacity="0.07" stroke-width="1"/><path d="M1209 113 l53 -26.5" stroke="#fff" stroke-opacity="0.11" stroke-width="1"/><path d="M156 454 l83 -41.5" stroke="#fff" stroke-opacity="0.08" stroke-width="1"/><path d="M1189 277 l114 -57.0" stroke="#fff" stroke-opacity="0.12" stroke-width="1"/><path d="M857 199 l136 -68.0" stroke="#fff" stroke-opacity="0.06" stroke-width="1"/><path d="M1480 475 l151 -75.5" stroke="#fff" stroke-opacity="0.14" stroke-width="1"/><path d="M650 219 l137 -68.5" stroke="#fff" stroke-opacity="0.10" stroke-width="1"/><path d="M659 428 l78 -39.0" stroke="#fff" stroke-opacity="0.04" stroke-width="1"/><path d="M584 421 l111 -55.5" stroke="#fff" stroke-opacity="0.09" stroke-width="1"/><path d="M1250 184 l23 -11.5" stroke="#fff" stroke-opacity="0.06" stroke-width="1"/><path d="M993 407 l118 -59.0" stroke="#fff" stroke-opacity="0.12" stroke-width="1"/><path d="M970 454 l148 -74.0" stroke="#fff" stroke-opacity="0.07" stroke-width="1"/><path d="M247 32 l107 -53.5" stroke="#fff" stroke-opacity="0.08" stroke-width="1"/><path d="M1459 53 l60 -30.0" stroke="#fff" stroke-opacity="0.10" stroke-width="1"/><path d="M192 318 l124 -62.0" stroke="#fff" stroke-opacity="0.04" stroke-width="1"/><path d="M288 441 l60 -30.0" stroke="#fff" stroke-opacity="0.09" stroke-width="1"/><path d="M1464 343 l67 -33.5" stroke="#fff" stroke-opacity="0.11" stroke-width="1"/><path d="M694 375 l77 -38.5" stroke="#fff" stroke-opacity="0.11" stroke-width="1"/><path d="M739 281 l76 -38.0" stroke="#fff" stroke-opacity="0.13" stroke-width="1"/><path d="M55 229 l144 -72.0" stroke="#fff" stroke-opacity="0.08" stroke-width="1"/><path d="M1137 94 l124 -62.0" stroke="#fff" stroke-opacity="0.08" stroke-width="1"/><path d="M979 416 l87 -43.5" stroke="#fff" stroke-opacity="0.12" stroke-width="1"/><path d="M1261 113 l61 -30.5" stroke="#fff" stroke-opacity="0.12" stroke-width="1"/><path d="M598 468 l69 -34.5" stroke="#fff" stroke-opacity="0.09" stroke-width="1"/><path d="M1592 214 l39 -19.5" stroke="#fff" stroke-opacity="0.12" stroke-width="1"/><path d="M962 0 l151 -75.5" stroke="#fff" stroke-opacity="0.14" stroke-width="1"/><path d="M164 403 l67 -33.5" stroke="#fff" stroke-opacity="0.09" stroke-width="1"/><path d="M418 194 l63 -31.5" stroke="#fff" stroke-opacity="0.11" stroke-width="1"/><path d="M630 402 l32 -16.0" stroke="#fff" stroke-opacity="0.08" stroke-width="1"/><path d="M1124 381 l148 -74.0" stroke="#fff" stroke-opacity="0.05" stroke-width="1"/><path d="M256 199 l159 -79.5" stroke="#fff" stroke-opacity="0.12" stroke-width="1"/><path d="M1298 52 l94 -47.0" stroke="#fff" stroke-opacity="0.14" stroke-width="1"/><path d="M583 30 l143 -71.5" stroke="#fff" stroke-opacity="0.12" stroke-width="1"/><path d="M1094 285 l38 -19.0" stroke="#fff" stroke-opacity="0.11" stroke-width="1"/><path d="M146 26 l112 -56.0" stroke="#fff" stroke-opacity="0.04" stroke-width="1"/><path d="M885 488 l65 -32.5" stroke="#fff" stroke-opacity="0.13" stroke-width="1"/><path d="M769 89 l62 -31.0" stroke="#fff" stroke-opacity="0.07" stroke-width="1"/><path d="M1304 344 l132 -66.0" stroke="#fff" stroke-opacity="0.10" stroke-width="1"/><path d="M1181 379 l54 -27.0" stroke="#fff" stroke-opacity="0.13" stroke-width="1"/><path d="M748 133 l39 -19.5" stroke="#fff" stroke-opacity="0.09" stroke-width="1"/><path d="M99 268 l137 -68.5" stroke="#fff" stroke-opacity="0.13" stroke-width="1"/><path d="M146 286 l137 -68.5" stroke="#fff" stroke-opacity="0.07" stroke-width="1"/><path d="M969 424 l32 -16.0" stroke="#fff" stroke-opacity="0.08" stroke-width="1"/><path d="M708 369 l117 -58.5" stroke="#fff" stroke-opacity="0.13" stroke-width="1"/><path d="M954 400 l95 -47.5" stroke="#fff" stroke-opacity="0.04" stroke-width="1"/><path d="M1243 134 l52 -26.0" stroke="#fff" stroke-opacity="0.05" stroke-width="1"/><path d="M1584 431 l116 -58.0" stroke="#fff" stroke-opacity="0.09" stroke-width="1"/><path d="M952 127 l128 -64.0" stroke="#fff" stroke-opacity="0.07" stroke-width="1"/><path d="M482 67 l82 -41.0" stroke="#fff" stroke-opacity="0.11" stroke-width="1"/><path d="M123 73 l26 -13.0" stroke="#fff" stroke-opacity="0.07" stroke-width="1"/><path d="M817 43 l62 -31.0" stroke="#fff" stroke-opacity="0.05" stroke-width="1"/><path d="M154 37 l72 -36.0" stroke="#fff" stroke-opacity="0.06" stroke-width="1"/><path d="M426 373 l138 -69.0" stroke="#fff" stroke-opacity="0.05" stroke-width="1"/><path d="M777 263 l104 -52.0" stroke="#fff" stroke-opacity="0.06" stroke-width="1"/><path d="M1163 227 l23 -11.5" stroke="#fff" stroke-opacity="0.07" stroke-width="1"/><path d="M460 490 l20 -10.0" stroke="#fff" stroke-opacity="0.13" stroke-width="1"/><path d="M888 34 l128 -64.0" stroke="#fff" stroke-opacity="0.08" stroke-width="1"/><path d="M306 77 l124 -62.0" stroke="#fff" stroke-opacity="0.10" stroke-width="1"/><path d="M1276 416 l127 -63.5" stroke="#fff" stroke-opacity="0.10" stroke-width="1"/><path d="M225 90 l90 -45.0" stroke="#fff" stroke-opacity="0.12" stroke-width="1"/><path d="M456 471 l28 -14.0" stroke="#fff" stroke-opacity="0.06" stroke-width="1"/><path d="M1470 288 l72 -36.0" stroke="#fff" stroke-opacity="0.04" stroke-width="1"/><path d="M254 165 l117 -58.5" stroke="#fff" stroke-opacity="0.07" stroke-width="1"/><path d="M593 299 l95 -47.5" stroke="#fff" stroke-opacity="0.07" stroke-width="1"/><path d="M1220 333 l103 -51.5" stroke="#fff" stroke-opacity="0.07" stroke-width="1"/><path d="M721 472 l45 -22.5" stroke="#fff" stroke-opacity="0.11" stroke-width="1"/><path d="M879 494 l109 -54.5" stroke="#fff" stroke-opacity="0.11" stroke-width="1"/><path d="M204 184 l88 -44.0" stroke="#fff" stroke-opacity="0.07" stroke-width="1"/><path d="M321 149 l30 -15.0" stroke="#fff" stroke-opacity="0.07" stroke-width="1"/><path d="M878 247 l31 -15.5" stroke="#fff" stroke-opacity="0.12" stroke-width="1"/><path d="M1101 453 l150 -75.0" stroke="#fff" stroke-opacity="0.05" stroke-width="1"/></g>
  <g transform="translate(64,64)">
    <rect x="-24" y="-22" rx="24" ry="24" width="620" height="168" fill="#020617" fill-opacity="0.40" stroke="#3b82f6" stroke-opacity="0.25"/>
    <text x="0" y="30" fill="#e5f2ff" font-family="Inter, Arial, sans-serif" font-size="40" font-weight="800">Community Board Bg</text>
    <text x="0" y="80" fill="#8aa4c7" font-family="Inter, Arial, sans-serif" font-size="22">DARK · community</text>
    <text x="0" y="120" fill="#8aa4c7" font-family="Inter, Arial, sans-serif" font-size="18">K-LOL.GG theme asset placeholder</text>
  </g>
</svg>