<svg xmlns="http://www.w3.org/2000/svg" width="720" height="1040" viewBox="0 0 720 1040">
  <defs>
    <linearGradient id="body" x1="0" y1="0" x2="1" y2="1">
      <stop offset="0" stop-color="#60A5FA"/>
      <stop offset=".30" stop-color="#2563EB"/>
      <stop offset=".70" stop-color="#0F1B3D"/>
      <stop offset="1" stop-color="#020817"/>
    </linearGradient>
    <linearGradient id="frame" x1="0" y1="0" x2="1" y2="1">
      <stop offset="0" stop-color="#DBEAFE"/>
      <stop offset=".28" stop-color="#60A5FA"/>
      <stop offset=".66" stop-color="#1D4ED8"/>
      <stop offset="1" stop-color="#BAE6FD"/>
    </linearGradient>
    <linearGradient id="facetLight" x1="0" y1="0" x2="1" y2="1">
      <stop offset="0" stop-color="#DBEAFE" stop-opacity=".54"/>
      <stop offset="1" stop-color="#fff" stop-opacity=".03"/>
    </linearGradient>
    <linearGradient id="facetMid" x1="1" y1="0" x2="0" y2="1">
      <stop offset="0" stop-color="#60A5FA" stop-opacity=".34"/>
      <stop offset="1" stop-color="#2563EB" stop-opacity=".03"/>
    </linearGradient>
    <linearGradient id="facetDark" x1="1" y1="0" x2="0" y2="1">
      <stop offset="0" stop-color="#020817" stop-opacity=".62"/>
      <stop offset="1" stop-color="#1D4ED8" stop-opacity=".04"/>
    </linearGradient>
    <radialGradient id="center" cx="50%" cy="50%" r="58%">
      <stop offset="0" stop-color="#93C5FD" stop-opacity=".24"/>
      <stop offset="1" stop-color="#020817" stop-opacity="0"/>
    </radialGradient>
    <filter id="shadow" x="-24%" y="-24%" width="148%" height="148%">
      <feDropShadow dx="0" dy="26" stdDeviation="22" flood-color="#000" flood-opacity=".46"/>
      <feDropShadow dx="0" dy="0" stdDeviation="18" flood-color="#60A5FA" flood-opacity=".28"/>
    </filter>
    <pattern id="stripe" width="22" height="22" patternUnits="userSpaceOnUse" patternTransform="rotate(45)">
      <line x1="0" y1="0" x2="0" y2="22" stroke="#fff" stroke-opacity=".060" stroke-width="2"/>
    </pattern>
  </defs>

  <rect x="26" y="26" width="668" height="988" rx="46" fill="url(#body)" filter="url(#shadow)"/>
  <rect x="26" y="26" width="668" height="988" rx="46" fill="url(#center)"/>
  <rect x="26" y="26" width="668" height="988" rx="46" fill="url(#stripe)" opacity=".58"/>
  <g opacity=".78"><polygon points="58.7,-33.2 236.6,-68.8 368.9,35.1 242.9,263.8 26.6,172.5" fill="#ffffff" opacity="0.070"/>
<polygon points="716.5,346.8 580.3,397.4 531.8,296.2 568.3,204.7 689.3,217.2" fill="#ffffff" opacity="0.114"/>
<polygon points="696.8,27.5 596.2,25.3 549.0,-59.8 701.0,-95.2" fill="url(#facetLight)" opacity="0.156"/>
<polygon points="-45.5,121.5 7.3,47.0 103.6,60.2 129.2,183.7 15.0,184.8" fill="url(#facetDark)" opacity="0.158"/>
<polygon points="372.0,869.4 312.6,674.9 493.0,702.6" fill="url(#facetDark)" opacity="0.114"/>
<polygon points="318.4,409.9 187.2,411.0 298.7,266.3" fill="url(#facetDark)" opacity="0.123"/>
<polygon points="663.7,631.9 845.5,626.8 672.5,811.5" fill="url(#facetMid)" opacity="0.050"/>
<polygon points="741.3,852.2 628.7,878.1 654.7,799.0" fill="url(#facetMid)" opacity="0.086"/>
<polygon points="94.4,755.9 3.6,934.8 -86.8,736.1" fill="url(#facetMid)" opacity="0.144"/>
<polygon points="517.2,943.7 536.9,825.6 622.6,913.6" fill="url(#facetDark)" opacity="0.072"/>
<polygon points="199.5,757.1 131.4,671.8 161.0,602.1 260.2,568.6 249.0,675.3" fill="#ffffff" opacity="0.120"/>
<polygon points="301.4,26.4 79.8,94.0 183.4,-166.7" fill="url(#facetMid)" opacity="0.116"/>
<polygon points="402.7,272.9 544.3,374.8 480.3,483.3 358.5,483.2 303.1,371.1" fill="url(#facetMid)" opacity="0.146"/>
<polygon points="526.7,326.6 334.2,222.3 485.9,157.6" fill="#ffffff" opacity="0.157"/>
<polygon points="539.5,814.6 528.2,893.7 451.6,897.5 472.1,817.3" fill="#ffffff" opacity="0.143"/>
<polygon points="550.4,931.4 636.4,1001.4 533.5,1036.5" fill="url(#facetMid)" opacity="0.144"/>
<polygon points="269.6,424.1 425.2,440.6 419.5,595.6 241.6,627.2" fill="#ffffff" opacity="0.055"/>
<polygon points="175.7,328.9 193.5,274.6 265.7,238.2 279.8,321.9 225.5,393.1" fill="url(#facetDark)" opacity="0.091"/>
<polygon points="363.4,355.9 494.8,217.8 573.0,337.1 509.6,402.1" fill="url(#facetDark)" opacity="0.102"/>
<polygon points="672.8,274.7 712.5,176.3 783.7,266.0" fill="#ffffff" opacity="0.148"/>
<polygon points="64.9,1156.3 -55.2,972.4 125.9,927.7" fill="url(#facetMid)" opacity="0.064"/>
<polygon points="394.6,968.7 297.7,907.5 367.8,778.6 480.8,889.5" fill="url(#facetMid)" opacity="0.070"/>
<polygon points="746.3,-20.1 682.9,74.7 632.9,-22.9" fill="#ffffff" opacity="0.073"/>
<polygon points="736.9,499.5 856.7,589.6 761.6,742.9 647.1,649.2" fill="#ffffff" opacity="0.110"/>
<polygon points="539.3,404.1 614.4,283.7 761.0,327.2 732.3,442.9 639.4,540.1" fill="url(#facetLight)" opacity="0.062"/>
<polygon points="169.8,464.5 270.4,584.5 131.5,743.4 11.5,531.2" fill="url(#facetMid)" opacity="0.076"/>
<polygon points="399.5,800.6 229.6,646.4 390.8,521.5" fill="url(#facetDark)" opacity="0.125"/>
<polygon points="675.6,614.2 512.4,583.2 650.5,493.0" fill="url(#facetDark)" opacity="0.133"/>
<polygon points="353.8,811.1 190.4,605.8 382.2,474.6 439.4,659.5" fill="url(#facetLight)" opacity="0.064"/>
<polygon points="87.3,-17.0 198.4,95.4 76.9,128.3" fill="#ffffff" opacity="0.124"/>
<polygon points="673.8,665.7 582.8,720.8 602.2,634.1" fill="url(#facetMid)" opacity="0.113"/>
<polygon points="51.5,609.9 47.1,416.5 212.0,506.9" fill="url(#facetLight)" opacity="0.099"/>
<polygon points="368.6,403.3 616.7,385.0 556.4,616.2" fill="url(#facetMid)" opacity="0.110"/>
<polygon points="529.4,724.4 398.7,878.7 341.2,692.2" fill="url(#facetMid)" opacity="0.046"/>
<polygon points="590.5,342.2 490.3,286.3 608.1,216.0 654.4,291.6" fill="url(#facetDark)" opacity="0.084"/>
<polygon points="362.3,313.6 300.9,209.0 433.7,190.8" fill="#ffffff" opacity="0.069"/>
<polygon points="110.5,526.0 168.9,383.9 297.9,437.5 239.9,644.1" fill="url(#facetDark)" opacity="0.153"/>
<polygon points="554.6,364.7 412.4,244.2 602.0,167.2 677.6,267.3" fill="url(#facetDark)" opacity="0.122"/>
<polygon points="-112.4,251.0 109.5,226.5 84.2,436.0" fill="url(#facetLight)" opacity="0.106"/>
<polygon points="695.8,460.0 582.2,417.4 548.5,297.5 633.0,246.3 810.1,288.3" fill="url(#facetLight)" opacity="0.117"/>
<polygon points="350.9,100.2 366.4,268.7 264.3,264.2 186.8,212.5 220.1,98.0" fill="#ffffff" opacity="0.050"/>
<polygon points="634.5,725.4 494.0,756.3 575.8,625.7" fill="url(#facetDark)" opacity="0.076"/></g>

  <rect x="30" y="30" width="660" height="980" rx="43" fill="none" stroke="url(#frame)" stroke-width="9"/>
  <rect x="54" y="54" width="612" height="932" rx="34" fill="none" stroke="#DBEAFE" stroke-opacity=".30" stroke-width="2"/>
  <rect x="74" y="74" width="572" height="892" rx="25" fill="none" stroke="#020817" stroke-opacity=".38" stroke-width="2"/>

  <g stroke="url(#frame)" stroke-width="4.5" stroke-linecap="round" fill="none" opacity=".92">
    <path d="M82 154 L82 82 L154 82"/>
    <path d="M566 82 L638 82 L638 154"/>
    <path d="M82 886 L82 958 L154 958"/>
    <path d="M566 958 L638 958 L638 886"/>
  </g>

  <g filter="url(#shadow)">
    <rect x="316" y="36" width="88" height="88" rx="18" transform="rotate(45 360 80)" fill="url(#frame)" stroke="#DBEAFE" stroke-opacity=".92" stroke-width="3"/>
    <rect x="338" y="58" width="44" height="44" rx="10" transform="rotate(45 360 80)" fill="#0B1B42" opacity=".86"/>
  </g>

  <g filter="url(#shadow)">
    <circle cx="360" cy="520" r="158" fill="#020817" opacity=".32" stroke="#93C5FD" stroke-opacity=".30" stroke-width="3"/>
    <circle cx="360" cy="520" r="116" fill="#0B1B42" opacity=".64" stroke="url(#frame)" stroke-width="4"/>
    <text x="360" y="548" text-anchor="middle" font-size="188" font-family="Arial, Helvetica, sans-serif" font-weight="950" fill="#F8FAFC" opacity=".96" letter-spacing="4">K</text>
    <text x="360" y="636" text-anchor="middle" font-size="25" font-family="Arial, Helvetica, sans-serif" font-weight="900" fill="#BFDBFE" opacity=".76" letter-spacing="7">LOL.GG</text>
  </g>
</svg>