<svg xmlns="http://www.w3.org/2000/svg" width="720" height="1040" viewBox="0 0 720 1040">
  <defs>
    <linearGradient id="body" x1="0" y1="0" x2="1" y2="1">
      <stop offset="0" stop-color="#BAE6FD" stop-opacity=".92"/>
      <stop offset=".20" stop-color="#38BDF8"/>
      <stop offset=".55" stop-color="#0369A1"/>
      <stop offset="1" stop-color="#062B4A"/>
    </linearGradient>
    <linearGradient id="frame" x1="0" y1="0" x2="1" y2="1">
      <stop offset="0" stop-color="#BAE6FD"/>
      <stop offset=".16" stop-color="#60A5FA"/>
      <stop offset=".48" stop-color="#38BDF8"/>
      <stop offset=".76" stop-color="#062B4A"/>
      <stop offset="1" stop-color="#BAE6FD"/>
    </linearGradient>
    <linearGradient id="facetLight" x1="0" y1="0" x2="1" y2="1">
      <stop offset="0" stop-color="#BAE6FD" stop-opacity=".70"/>
      <stop offset="1" stop-color="#fff" stop-opacity=".03"/>
    </linearGradient>
    <linearGradient id="facetMid" x1="1" y1="0" x2="0" y2="1">
      <stop offset="0" stop-color="#60A5FA" stop-opacity=".36"/>
      <stop offset="1" stop-color="#38BDF8" stop-opacity=".03"/>
    </linearGradient>
    <linearGradient id="facetDark" x1="1" y1="0" x2="0" y2="1">
      <stop offset="0" stop-color="#062B4A" stop-opacity=".62"/>
      <stop offset="1" stop-color="#0369A1" stop-opacity=".04"/>
    </linearGradient>
    <radialGradient id="aura" cx="50%" cy="5%" r="92%">
      <stop offset="0" stop-color="#BAE6FD" stop-opacity=".54"/>
      <stop offset=".42" stop-color="#38BDF8" stop-opacity=".22"/>
      <stop offset="1" stop-color="#062B4A" stop-opacity="0"/>
    </radialGradient>
    <radialGradient id="centerDark" cx="50%" cy="42%" r="46%">
      <stop offset="0" stop-color="#020617" stop-opacity=".36"/>
      <stop offset=".62" stop-color="#020617" stop-opacity=".14"/>
      <stop offset="1" stop-color="#020617" stop-opacity="0"/>
    </radialGradient>
    <filter id="shadow" x="-24%" y="-24%" width="148%" height="148%">
      <feDropShadow dx="0" dy="26" stdDeviation="22" flood-color="#000" flood-opacity=".46"/>
      <feDropShadow dx="0" dy="0" stdDeviation="18" flood-color="#38BDF8" flood-opacity=".30"/>
    </filter>
    <pattern id="stripe" width="22" height="22" patternUnits="userSpaceOnUse" patternTransform="rotate(45)">
      <line x1="0" y1="0" x2="0" y2="22" stroke="#fff" stroke-opacity=".052" stroke-width="2"/>
    </pattern>
  </defs>

  <rect x="26" y="26" width="668" height="988" rx="46" fill="url(#body)" filter="url(#shadow)"/>
  <rect x="26" y="26" width="668" height="988" rx="46" fill="url(#aura)"/>
  <rect x="26" y="26" width="668" height="988" rx="46" fill="url(#stripe)" opacity=".56"/>
  <g opacity=".94"><polygon points="127.7,53.6 139.4,117.4 63.6,179.7 15.1,91.9 66.6,6.1" fill="url(#facetDark)" opacity="0.106"/>
<polygon points="211.9,378.6 136.9,456.3 7.7,374.2 72.8,273.1 156.8,276.2" fill="url(#facetMid)" opacity="0.130"/>
<polygon points="151.3,597.5 44.7,726.3 -81.7,609.7 23.0,510.1" fill="url(#facetMid)" opacity="0.084"/>
<polygon points="180.4,933.2 247.1,772.6 359.9,913.2" fill="url(#facetDark)" opacity="0.050"/>
<polygon points="606.5,316.1 501.0,362.1 442.6,208.4 565.1,88.0 652.8,221.8" fill="url(#facetLight)" opacity="0.093"/>
<polygon points="480.4,781.1 465.7,680.2 621.3,645.2 634.0,816.7" fill="url(#facetLight)" opacity="0.130"/>
<polygon points="227.5,51.6 436.4,-45.7 457.8,154.9 301.8,200.6" fill="url(#facetDark)" opacity="0.104"/>
<polygon points="799.8,545.3 680.5,606.1 577.0,499.6 697.4,424.2" fill="#ffffff" opacity="0.069"/>
<polygon points="213.4,352.7 392.5,392.1 262.4,484.3" fill="url(#facetDark)" opacity="0.091"/>
<polygon points="-61.9,422.2 59.4,411.3 179.0,520.1 73.8,630.9 -54.9,591.6" fill="#ffffff" opacity="0.110"/>
<polygon points="251.7,666.6 177.7,380.9 448.2,462.7" fill="url(#facetMid)" opacity="0.100"/>
<polygon points="349.9,240.9 384.4,158.0 486.8,217.9" fill="url(#facetDark)" opacity="0.080"/>
<polygon points="187.9,741.5 303.2,655.8 355.3,747.1" fill="url(#facetDark)" opacity="0.136"/>
<polygon points="704.6,770.1 655.1,649.2 740.9,579.2 855.1,657.3 793.7,755.5" fill="#ffffff" opacity="0.128"/>
<polygon points="183.1,115.5 380.3,-34.9 402.9,154.0" fill="url(#facetMid)" opacity="0.159"/>
<polygon points="628.4,164.0 856.3,198.1 696.2,316.7" fill="url(#facetLight)" opacity="0.097"/>
<polygon points="53.4,603.4 109.4,463.1 340.5,532.2 282.1,703.4 96.1,784.4" fill="url(#facetDark)" opacity="0.132"/>
<polygon points="745.6,920.0 845.2,1114.6 653.6,1070.9" fill="url(#facetLight)" opacity="0.053"/>
<polygon points="146.8,264.5 -43.5,264.7 -8.5,43.4 172.2,82.8 220.9,163.9" fill="#ffffff" opacity="0.095"/>
<polygon points="-18.9,506.8 -35.1,367.7 128.0,344.5 191.4,446.0 95.1,565.6" fill="url(#facetLight)" opacity="0.121"/>
<polygon points="416.4,815.1 572.1,829.4 549.5,990.3 406.9,1020.9 282.3,892.1" fill="#ffffff" opacity="0.075"/>
<polygon points="422.6,252.0 481.8,-13.8 753.7,41.4 643.6,202.4" fill="url(#facetMid)" opacity="0.060"/>
<polygon points="444.8,379.5 513.7,510.8 323.9,542.1" fill="url(#facetMid)" opacity="0.145"/>
<polygon points="465.2,918.4 555.6,706.8 782.1,850.3" fill="url(#facetDark)" opacity="0.058"/>
<polygon points="-69.5,691.8 -35.7,530.1 93.7,695.5" fill="#ffffff" opacity="0.077"/>
<polygon points="531.0,276.7 753.9,137.7 722.3,399.6" fill="url(#facetDark)" opacity="0.100"/>
<polygon points="605.6,440.9 686.5,562.1 552.2,700.2 410.4,500.4" fill="url(#facetLight)" opacity="0.139"/>
<polygon points="406.0,461.7 377.7,337.6 475.7,373.5" fill="url(#facetMid)" opacity="0.132"/>
<polygon points="820.1,139.5 629.7,221.4 690.2,17.1" fill="url(#facetDark)" opacity="0.109"/>
<polygon points="255.7,443.6 221.9,365.3 351.8,373.5" fill="#ffffff" opacity="0.157"/>
<polygon points="478.3,690.6 463.4,610.8 492.8,575.4 577.8,557.3 543.5,654.7" fill="url(#facetMid)" opacity="0.137"/>
<polygon points="215.7,532.7 98.7,728.7 16.3,534.3" fill="#ffffff" opacity="0.127"/>
<polygon points="-64.5,182.4 -112.1,-5.2 30.5,18.9 44.9,135.6" fill="#ffffff" opacity="0.112"/>
<polygon points="225.1,56.6 161.7,-116.7 377.3,-87.7" fill="url(#facetDark)" opacity="0.138"/></g>
  <rect x="26" y="26" width="668" height="988" rx="46" fill="url(#centerDark)"/>

  <rect x="30" y="30" width="660" height="980" rx="43" fill="none" stroke="url(#frame)" stroke-width="9"/>
  <rect x="48" y="48" width="624" height="944" rx="36" fill="none" stroke="#BAE6FD" stroke-opacity=".36" stroke-width="2"/>
  <rect x="66" y="66" width="588" height="908" rx="27" fill="none" stroke="#062B4A" stroke-opacity=".34" stroke-width="2"/>

  <g stroke="url(#frame)" stroke-width="4.5" stroke-linecap="round" fill="none" opacity=".96">
    <path d="M70 142 L70 70 L142 70"/>
    <path d="M578 70 L650 70 L650 142"/>
    <path d="M70 898 L70 970 L142 970"/>
    <path d="M578 970 L650 970 L650 898"/>
    <path d="M96 172 C110 126 126 110 172 96"/>
    <path d="M548 96 C594 110 610 126 624 172"/>
    <path d="M96 868 C110 914 126 930 172 944"/>
    <path d="M548 944 C594 930 610 914 624 868"/>
  </g>

  <g opacity=".85">
    <path d="M360 315 C450 315 512 371 512 452 C512 533 450 589 360 589 C270 589 208 533 208 452 C208 371 270 315 360 315Z" fill="#020617" opacity=".24"/>
    <circle cx="360" cy="452" r="151" fill="none" stroke="url(#frame)" stroke-width="4" opacity=".82"/>
    <circle cx="360" cy="452" r="128" fill="none" stroke="#BAE6FD" stroke-opacity=".36" stroke-width="2"/>
    <path d="M209 452 H154" stroke="url(#frame)" stroke-width="5" stroke-linecap="round"/>
    <path d="M511 452 H566" stroke="url(#frame)" stroke-width="5" stroke-linecap="round"/>
    <rect x="140" y="432" width="40" height="40" rx="6" transform="rotate(45 160 452)" fill="url(#frame)" stroke="#BAE6FD" stroke-opacity=".74" stroke-width="2"/>
    <rect x="540" y="432" width="40" height="40" rx="6" transform="rotate(45 560 452)" fill="url(#frame)" stroke="#BAE6FD" stroke-opacity=".74" stroke-width="2"/>
  </g>

  <g filter="url(#shadow)">
    <rect x="316" y="16" width="88" height="88" rx="18" transform="rotate(45 360 60)" fill="url(#frame)" stroke="#BAE6FD" stroke-opacity=".92" stroke-width="3"/>
    <rect x="337" y="37" width="46" height="46" rx="10" transform="rotate(45 360 60)" fill="#062B4A" opacity=".82"/>
    <circle cx="346" cy="48" r="13" fill="#fff" opacity=".26"/>
  </g>

  <g opacity=".22">
    <rect x="100" y="632" width="520" height="70" rx="16" fill="#020617" stroke="#BAE6FD" stroke-opacity=".20"/>
    <rect x="100" y="720" width="520" height="70" rx="16" fill="#020617" stroke="#BAE6FD" stroke-opacity=".18"/>
  </g>

  <g filter="url(#shadow)">
    <path d="M268 874 L316 823 H404 L452 874 L404 935 H316 Z" fill="url(#frame)" stroke="#BAE6FD" stroke-opacity=".78" stroke-width="3"/>
    <path d="M294 874 L330 840 H390 L426 874 L390 918 H330 Z" fill="#062B4A" opacity=".80"/>
    <path d="M250 878 C238 846 242 812 258 786" stroke="url(#frame)" stroke-width="5" stroke-linecap="round" fill="none" opacity=".78"/>
    <path d="M470 878 C482 846 478 812 462 786" stroke="url(#frame)" stroke-width="5" stroke-linecap="round" fill="none" opacity=".78"/>
  </g>
</svg>