<svg xmlns="http://www.w3.org/2000/svg" width="720" height="1040" viewBox="0 0 720 1040">
  <defs>
    <linearGradient id="body" x1="0" y1="0" x2="1" y2="1">
      <stop offset="0" stop-color="#FECDD3" stop-opacity=".92"/>
      <stop offset=".20" stop-color="#E11D48"/>
      <stop offset=".55" stop-color="#9F1239"/>
      <stop offset="1" stop-color="#3B0616"/>
    </linearGradient>
    <linearGradient id="frame" x1="0" y1="0" x2="1" y2="1">
      <stop offset="0" stop-color="#FECDD3"/>
      <stop offset=".16" stop-color="#FB7185"/>
      <stop offset=".48" stop-color="#E11D48"/>
      <stop offset=".76" stop-color="#3B0616"/>
      <stop offset="1" stop-color="#FECDD3"/>
    </linearGradient>
    <linearGradient id="facetLight" x1="0" y1="0" x2="1" y2="1">
      <stop offset="0" stop-color="#FECDD3" stop-opacity=".70"/>
      <stop offset="1" stop-color="#fff" stop-opacity=".03"/>
    </linearGradient>
    <linearGradient id="facetMid" x1="1" y1="0" x2="0" y2="1">
      <stop offset="0" stop-color="#FB7185" stop-opacity=".36"/>
      <stop offset="1" stop-color="#E11D48" stop-opacity=".03"/>
    </linearGradient>
    <linearGradient id="facetDark" x1="1" y1="0" x2="0" y2="1">
      <stop offset="0" stop-color="#3B0616" stop-opacity=".62"/>
      <stop offset="1" stop-color="#9F1239" stop-opacity=".04"/>
    </linearGradient>
    <radialGradient id="aura" cx="50%" cy="5%" r="92%">
      <stop offset="0" stop-color="#FECDD3" stop-opacity=".54"/>
      <stop offset=".42" stop-color="#E11D48" stop-opacity=".22"/>
      <stop offset="1" stop-color="#3B0616" stop-opacity="0"/>
    </radialGradient>
    <radialGradient id="centerDark" cx="50%" cy="42%" r="46%">
      <stop offset="0" stop-color="#020617" stop-opacity=".36"/>
      <stop offset=".62" stop-color="#020617" stop-opacity=".14"/>
      <stop offset="1" stop-color="#020617" stop-opacity="0"/>
    </radialGradient>
    <filter id="shadow" x="-24%" y="-24%" width="148%" height="148%">
      <feDropShadow dx="0" dy="26" stdDeviation="22" flood-color="#000" flood-opacity=".46"/>
      <feDropShadow dx="0" dy="0" stdDeviation="18" flood-color="#E11D48" flood-opacity=".30"/>
    </filter>
    <pattern id="stripe" width="22" height="22" patternUnits="userSpaceOnUse" patternTransform="rotate(45)">
      <line x1="0" y1="0" x2="0" y2="22" stroke="#fff" stroke-opacity=".052" stroke-width="2"/>
    </pattern>
  </defs>

  <rect x="26" y="26" width="668" height="988" rx="46" fill="url(#body)" filter="url(#shadow)"/>
  <rect x="26" y="26" width="668" height="988" rx="46" fill="url(#aura)"/>
  <rect x="26" y="26" width="668" height="988" rx="46" fill="url(#stripe)" opacity=".56"/>
  <g opacity=".94"><polygon points="566.7,642.8 422.3,629.9 381.2,561.6 465.3,474.7 535.8,532.2" fill="url(#facetMid)" opacity="0.069"/>
<polygon points="132.7,649.7 10.9,594.9 140.9,487.6" fill="url(#facetMid)" opacity="0.117"/>
<polygon points="492.5,218.1 444.2,324.4 336.9,320.6 372.7,189.9" fill="url(#facetMid)" opacity="0.088"/>
<polygon points="629.4,-87.8 728.4,11.5 586.9,61.0" fill="#ffffff" opacity="0.078"/>
<polygon points="427.6,375.9 389.8,286.8 516.0,291.4 540.1,425.1" fill="#ffffff" opacity="0.155"/>
<polygon points="518.7,696.1 689.5,701.7 639.7,845.3" fill="url(#facetMid)" opacity="0.147"/>
<polygon points="276.7,25.6 151.4,104.1 80.6,-13.8 216.9,-140.5" fill="url(#facetLight)" opacity="0.080"/>
<polygon points="389.0,-74.6 465.0,44.2 330.9,42.3" fill="url(#facetLight)" opacity="0.050"/>
<polygon points="604.2,-89.1 631.3,59.4 482.2,26.3 478.3,-80.1" fill="url(#facetLight)" opacity="0.047"/>
<polygon points="240.7,147.1 159.4,110.2 173.4,41.8 252.6,2.6 263.4,69.8" fill="#ffffff" opacity="0.103"/>
<polygon points="125.6,376.0 201.3,249.6 389.0,256.9 282.4,407.9" fill="url(#facetLight)" opacity="0.090"/>
<polygon points="576.9,627.8 359.4,679.4 361.5,463.5" fill="url(#facetLight)" opacity="0.160"/>
<polygon points="521.5,184.6 436.1,121.0 547.8,54.9" fill="#ffffff" opacity="0.133"/>
<polygon points="155.9,1051.4 239.7,914.8 360.4,980.8 384.3,1170.0 243.1,1141.3" fill="url(#facetMid)" opacity="0.128"/>
<polygon points="147.1,907.7 52.9,1026.1 -73.7,905.6 -57.2,756.1 90.5,745.3" fill="url(#facetLight)" opacity="0.052"/>
<polygon points="552.0,401.4 457.3,203.3 684.6,201.1" fill="url(#facetDark)" opacity="0.094"/>
<polygon points="646.7,435.0 617.4,167.8 905.1,289.8" fill="url(#facetDark)" opacity="0.142"/>
<polygon points="171.9,404.2 272.1,385.4 230.0,517.0" fill="url(#facetDark)" opacity="0.141"/>
<polygon points="295.5,350.0 566.6,371.8 447.2,627.5" fill="url(#facetMid)" opacity="0.119"/>
<polygon points="490.6,352.6 269.6,418.3 289.9,249.9" fill="url(#facetMid)" opacity="0.135"/>
<polygon points="363.2,644.6 214.8,598.8 387.8,459.0" fill="#ffffff" opacity="0.078"/>
<polygon points="120.4,399.6 284.7,463.0 148.1,624.0" fill="url(#facetMid)" opacity="0.130"/>
<polygon points="806.4,535.0 808.2,679.3 662.8,670.0 576.5,625.0 670.9,452.6" fill="#ffffff" opacity="0.081"/>
<polygon points="737.4,854.3 752.8,971.5 670.9,1060.2 611.8,1014.0 608.5,924.1" fill="url(#facetLight)" opacity="0.086"/>
<polygon points="384.0,446.3 412.4,609.4 282.3,678.3 171.1,533.4" fill="url(#facetLight)" opacity="0.109"/>
<polygon points="-0.2,745.2 128.1,722.2 54.5,905.5" fill="url(#facetDark)" opacity="0.159"/>
<polygon points="457.5,374.2 530.9,283.4 629.8,319.5 610.6,397.4 549.8,452.7" fill="url(#facetDark)" opacity="0.089"/>
<polygon points="791.6,222.8 695.3,443.0 475.2,325.7 595.9,81.0" fill="url(#facetDark)" opacity="0.116"/>
<polygon points="670.0,49.1 783.2,80.9 780.2,200.7 691.0,285.7 613.4,186.0" fill="url(#facetLight)" opacity="0.134"/>
<polygon points="466.4,470.2 361.6,561.6 297.5,442.3" fill="url(#facetLight)" opacity="0.157"/>
<polygon points="245.4,894.9 140.5,866.4 170.4,760.8 276.9,775.4" fill="url(#facetMid)" opacity="0.063"/>
<polygon points="536.3,230.6 572.6,503.6 375.0,536.1 380.0,303.8" fill="url(#facetDark)" opacity="0.109"/>
<polygon points="401.1,709.1 476.1,790.5 350.5,837.8" fill="url(#facetDark)" opacity="0.047"/>
<polygon points="254.6,938.0 124.4,920.7 144.6,830.7 239.0,775.5 274.8,845.1" fill="url(#facetDark)" opacity="0.120"/></g>
  <rect x="26" y="26" width="668" height="988" rx="46" fill="url(#centerDark)"/>

  <rect x="30" y="30" width="660" height="980" rx="43" fill="none" stroke="url(#frame)" stroke-width="9"/>
  <rect x="48" y="48" width="624" height="944" rx="36" fill="none" stroke="#FECDD3" stroke-opacity=".36" stroke-width="2"/>
  <rect x="66" y="66" width="588" height="908" rx="27" fill="none" stroke="#3B0616" stroke-opacity=".34" stroke-width="2"/>

  <g stroke="url(#frame)" stroke-width="4.5" stroke-linecap="round" fill="none" opacity=".96">
    <path d="M70 142 L70 70 L142 70"/>
    <path d="M578 70 L650 70 L650 142"/>
    <path d="M70 898 L70 970 L142 970"/>
    <path d="M578 970 L650 970 L650 898"/>
    <path d="M96 172 C110 126 126 110 172 96"/>
    <path d="M548 96 C594 110 610 126 624 172"/>
    <path d="M96 868 C110 914 126 930 172 944"/>
    <path d="M548 944 C594 930 610 914 624 868"/>
  </g>

  <g opacity=".85">
    <path d="M360 315 C450 315 512 371 512 452 C512 533 450 589 360 589 C270 589 208 533 208 452 C208 371 270 315 360 315Z" fill="#020617" opacity=".24"/>
    <circle cx="360" cy="452" r="151" fill="none" stroke="url(#frame)" stroke-width="4" opacity=".82"/>
    <circle cx="360" cy="452" r="128" fill="none" stroke="#FECDD3" stroke-opacity=".36" stroke-width="2"/>
    <path d="M209 452 H154" stroke="url(#frame)" stroke-width="5" stroke-linecap="round"/>
    <path d="M511 452 H566" stroke="url(#frame)" stroke-width="5" stroke-linecap="round"/>
    <rect x="140" y="432" width="40" height="40" rx="6" transform="rotate(45 160 452)" fill="url(#frame)" stroke="#FECDD3" stroke-opacity=".74" stroke-width="2"/>
    <rect x="540" y="432" width="40" height="40" rx="6" transform="rotate(45 560 452)" fill="url(#frame)" stroke="#FECDD3" stroke-opacity=".74" stroke-width="2"/>
  </g>

  <g filter="url(#shadow)">
    <rect x="316" y="16" width="88" height="88" rx="18" transform="rotate(45 360 60)" fill="url(#frame)" stroke="#FECDD3" stroke-opacity=".92" stroke-width="3"/>
    <rect x="337" y="37" width="46" height="46" rx="10" transform="rotate(45 360 60)" fill="#3B0616" opacity=".82"/>
    <circle cx="346" cy="48" r="13" fill="#fff" opacity=".26"/>
  </g>

  <g opacity=".22">
    <rect x="100" y="632" width="520" height="70" rx="16" fill="#020617" stroke="#FECDD3" stroke-opacity=".20"/>
    <rect x="100" y="720" width="520" height="70" rx="16" fill="#020617" stroke="#FECDD3" stroke-opacity=".18"/>
  </g>

  <g filter="url(#shadow)">
    <path d="M268 874 L316 823 H404 L452 874 L404 935 H316 Z" fill="url(#frame)" stroke="#FECDD3" stroke-opacity=".78" stroke-width="3"/>
    <path d="M294 874 L330 840 H390 L426 874 L390 918 H330 Z" fill="#3B0616" opacity=".80"/>
    <path d="M250 878 C238 846 242 812 258 786" stroke="url(#frame)" stroke-width="5" stroke-linecap="round" fill="none" opacity=".78"/>
    <path d="M470 878 C482 846 478 812 462 786" stroke="url(#frame)" stroke-width="5" stroke-linecap="round" fill="none" opacity=".78"/>
  </g>
</svg>