<svg xmlns="http://www.w3.org/2000/svg" width="720" height="1040" viewBox="0 0 720 1040">
  <defs>
    <linearGradient id="body" x1="0" y1="0" x2="1" y2="1">
      <stop offset="0" stop-color="#FDE68A" stop-opacity=".92"/>
      <stop offset=".20" stop-color="#D99A19"/>
      <stop offset=".55" stop-color="#9D620B"/>
      <stop offset="1" stop-color="#3F2505"/>
    </linearGradient>
    <linearGradient id="frame" x1="0" y1="0" x2="1" y2="1">
      <stop offset="0" stop-color="#FDE68A"/>
      <stop offset=".16" stop-color="#FACC15"/>
      <stop offset=".48" stop-color="#D99A19"/>
      <stop offset=".76" stop-color="#3F2505"/>
      <stop offset="1" stop-color="#FDE68A"/>
    </linearGradient>
    <linearGradient id="facetLight" x1="0" y1="0" x2="1" y2="1">
      <stop offset="0" stop-color="#FDE68A" stop-opacity=".70"/>
      <stop offset="1" stop-color="#fff" stop-opacity=".03"/>
    </linearGradient>
    <linearGradient id="facetMid" x1="1" y1="0" x2="0" y2="1">
      <stop offset="0" stop-color="#FACC15" stop-opacity=".36"/>
      <stop offset="1" stop-color="#D99A19" stop-opacity=".03"/>
    </linearGradient>
    <linearGradient id="facetDark" x1="1" y1="0" x2="0" y2="1">
      <stop offset="0" stop-color="#3F2505" stop-opacity=".62"/>
      <stop offset="1" stop-color="#9D620B" stop-opacity=".04"/>
    </linearGradient>
    <radialGradient id="aura" cx="50%" cy="5%" r="92%">
      <stop offset="0" stop-color="#FDE68A" stop-opacity=".54"/>
      <stop offset=".42" stop-color="#D99A19" stop-opacity=".22"/>
      <stop offset="1" stop-color="#3F2505" stop-opacity="0"/>
    </radialGradient>
    <radialGradient id="centerDark" cx="50%" cy="42%" r="46%">
      <stop offset="0" stop-color="#020617" stop-opacity=".36"/>
      <stop offset=".62" stop-color="#020617" stop-opacity=".14"/>
      <stop offset="1" stop-color="#020617" stop-opacity="0"/>
    </radialGradient>
    <filter id="shadow" x="-24%" y="-24%" width="148%" height="148%">
      <feDropShadow dx="0" dy="26" stdDeviation="22" flood-color="#000" flood-opacity=".46"/>
      <feDropShadow dx="0" dy="0" stdDeviation="18" flood-color="#D99A19" flood-opacity=".30"/>
    </filter>
    <pattern id="stripe" width="22" height="22" patternUnits="userSpaceOnUse" patternTransform="rotate(45)">
      <line x1="0" y1="0" x2="0" y2="22" stroke="#fff" stroke-opacity=".052" stroke-width="2"/>
    </pattern>
  </defs>

  <rect x="26" y="26" width="668" height="988" rx="46" fill="url(#body)" filter="url(#shadow)"/>
  <rect x="26" y="26" width="668" height="988" rx="46" fill="url(#aura)"/>
  <rect x="26" y="26" width="668" height="988" rx="46" fill="url(#stripe)" opacity=".56"/>
  <g opacity=".94"><polygon points="609.7,893.8 676.6,853.8 709.4,935.7" fill="url(#facetMid)" opacity="0.153"/>
<polygon points="54.8,613.5 18.5,768.2 -139.6,625.3" fill="url(#facetDark)" opacity="0.085"/>
<polygon points="440.8,701.1 333.9,709.8 391.5,615.1" fill="url(#facetLight)" opacity="0.076"/>
<polygon points="442.0,724.3 437.1,505.4 632.3,626.2" fill="#ffffff" opacity="0.148"/>
<polygon points="200.6,398.1 114.1,568.3 -68.7,591.7 -90.6,437.2 61.6,316.7" fill="url(#facetLight)" opacity="0.134"/>
<polygon points="400.8,1030.4 300.5,1211.4 224.4,992.8" fill="#ffffff" opacity="0.072"/>
<polygon points="651.3,651.4 730.8,571.8 750.8,670.9" fill="url(#facetLight)" opacity="0.132"/>
<polygon points="0.4,534.3 72.3,302.9 212.6,418.1" fill="url(#facetDark)" opacity="0.099"/>
<polygon points="428.7,94.6 274.2,143.6 226.6,-25.4 431.2,-142.1" fill="url(#facetMid)" opacity="0.087"/>
<polygon points="102.3,-34.7 235.2,9.1 122.5,117.6" fill="url(#facetLight)" opacity="0.104"/>
<polygon points="699.7,168.5 711.6,233.4 664.2,261.1 617.0,223.6 620.1,178.2" fill="url(#facetMid)" opacity="0.150"/>
<polygon points="161.1,491.5 227.9,605.1 109.1,593.6" fill="url(#facetLight)" opacity="0.105"/>
<polygon points="307.3,-91.7 432.3,137.7 159.9,81.1" fill="url(#facetLight)" opacity="0.129"/>
<polygon points="296.8,69.7 405.8,228.2 305.6,429.3 70.0,249.3" fill="url(#facetLight)" opacity="0.154"/>
<polygon points="757.7,655.0 780.7,778.2 627.6,741.7 574.1,648.7 651.0,554.3" fill="#ffffff" opacity="0.100"/>
<polygon points="734.0,617.7 730.2,751.3 594.8,729.4 585.8,652.1 633.5,550.2" fill="url(#facetDark)" opacity="0.059"/>
<polygon points="136.1,564.1 231.2,625.0 221.2,729.8 120.1,685.6" fill="url(#facetMid)" opacity="0.085"/>
<polygon points="855.5,194.2 590.6,199.5 639.0,-8.3" fill="url(#facetMid)" opacity="0.087"/>
<polygon points="575.9,184.4 501.1,336.4 407.9,171.2" fill="url(#facetLight)" opacity="0.143"/>
<polygon points="409.7,486.7 363.8,614.5 241.4,621.4 268.0,505.2" fill="url(#facetDark)" opacity="0.053"/>
<polygon points="-15.0,218.6 185.0,175.6 284.7,343.4 125.0,384.7 -21.5,395.1" fill="url(#facetLight)" opacity="0.145"/>
<polygon points="429.9,765.8 616.7,771.2 481.0,970.0" fill="#ffffff" opacity="0.152"/>
<polygon points="621.7,1121.1 554.1,1070.7 536.7,950.8 631.8,925.6 668.3,1018.0" fill="url(#facetDark)" opacity="0.059"/>
<polygon points="614.8,981.3 439.5,1050.5 481.7,881.4" fill="url(#facetLight)" opacity="0.091"/>
<polygon points="397.1,429.6 456.4,563.3 348.3,668.2 245.4,505.6" fill="#ffffff" opacity="0.098"/>
<polygon points="6.0,184.3 196.5,174.9 236.1,340.9 82.4,400.8" fill="url(#facetMid)" opacity="0.152"/>
<polygon points="136.6,666.2 116.0,732.3 -1.1,701.7 -0.3,615.1 81.1,614.2" fill="url(#facetMid)" opacity="0.051"/>
<polygon points="46.8,74.3 254.2,111.7 112.7,291.6" fill="url(#facetMid)" opacity="0.088"/>
<polygon points="583.0,598.9 857.8,481.0 769.5,735.2" fill="url(#facetLight)" opacity="0.114"/>
<polygon points="726.7,133.9 671.7,188.6 600.8,138.7 673.3,43.4" fill="url(#facetDark)" opacity="0.069"/>
<polygon points="572.2,1027.7 545.1,874.0 711.5,883.9" fill="url(#facetLight)" opacity="0.156"/>
<polygon points="689.5,842.5 697.3,743.0 802.1,773.8" fill="url(#facetMid)" opacity="0.136"/>
<polygon points="242.2,1123.1 134.5,1003.7 173.1,880.7 286.3,995.1" fill="url(#facetDark)" opacity="0.058"/>
<polygon points="94.2,218.4 22.2,385.2 -82.5,245.9" fill="#ffffff" opacity="0.154"/></g>
  <rect x="26" y="26" width="668" height="988" rx="46" fill="url(#centerDark)"/>

  <rect x="30" y="30" width="660" height="980" rx="43" fill="none" stroke="url(#frame)" stroke-width="9"/>
  <rect x="48" y="48" width="624" height="944" rx="36" fill="none" stroke="#FDE68A" stroke-opacity=".36" stroke-width="2"/>
  <rect x="66" y="66" width="588" height="908" rx="27" fill="none" stroke="#3F2505" stroke-opacity=".34" stroke-width="2"/>

  <g stroke="url(#frame)" stroke-width="4.5" stroke-linecap="round" fill="none" opacity=".96">
    <path d="M70 142 L70 70 L142 70"/>
    <path d="M578 70 L650 70 L650 142"/>
    <path d="M70 898 L70 970 L142 970"/>
    <path d="M578 970 L650 970 L650 898"/>
    <path d="M96 172 C110 126 126 110 172 96"/>
    <path d="M548 96 C594 110 610 126 624 172"/>
    <path d="M96 868 C110 914 126 930 172 944"/>
    <path d="M548 944 C594 930 610 914 624 868"/>
  </g>

  <g opacity=".85">
    <path d="M360 315 C450 315 512 371 512 452 C512 533 450 589 360 589 C270 589 208 533 208 452 C208 371 270 315 360 315Z" fill="#020617" opacity=".24"/>
    <circle cx="360" cy="452" r="151" fill="none" stroke="url(#frame)" stroke-width="4" opacity=".82"/>
    <circle cx="360" cy="452" r="128" fill="none" stroke="#FDE68A" stroke-opacity=".36" stroke-width="2"/>
    <path d="M209 452 H154" stroke="url(#frame)" stroke-width="5" stroke-linecap="round"/>
    <path d="M511 452 H566" stroke="url(#frame)" stroke-width="5" stroke-linecap="round"/>
    <rect x="140" y="432" width="40" height="40" rx="6" transform="rotate(45 160 452)" fill="url(#frame)" stroke="#FDE68A" stroke-opacity=".74" stroke-width="2"/>
    <rect x="540" y="432" width="40" height="40" rx="6" transform="rotate(45 560 452)" fill="url(#frame)" stroke="#FDE68A" stroke-opacity=".74" stroke-width="2"/>
  </g>

  <g filter="url(#shadow)">
    <rect x="316" y="16" width="88" height="88" rx="18" transform="rotate(45 360 60)" fill="url(#frame)" stroke="#FDE68A" stroke-opacity=".92" stroke-width="3"/>
    <rect x="337" y="37" width="46" height="46" rx="10" transform="rotate(45 360 60)" fill="#3F2505" opacity=".82"/>
    <circle cx="346" cy="48" r="13" fill="#fff" opacity=".26"/>
  </g>

  <g opacity=".22">
    <rect x="100" y="632" width="520" height="70" rx="16" fill="#020617" stroke="#FDE68A" stroke-opacity=".20"/>
    <rect x="100" y="720" width="520" height="70" rx="16" fill="#020617" stroke="#FDE68A" stroke-opacity=".18"/>
  </g>

  <g filter="url(#shadow)">
    <path d="M268 874 L316 823 H404 L452 874 L404 935 H316 Z" fill="url(#frame)" stroke="#FDE68A" stroke-opacity=".78" stroke-width="3"/>
    <path d="M294 874 L330 840 H390 L426 874 L390 918 H330 Z" fill="#3F2505" opacity=".80"/>
    <path d="M250 878 C238 846 242 812 258 786" stroke="url(#frame)" stroke-width="5" stroke-linecap="round" fill="none" opacity=".78"/>
    <path d="M470 878 C482 846 478 812 462 786" stroke="url(#frame)" stroke-width="5" stroke-linecap="round" fill="none" opacity=".78"/>
  </g>
</svg>