<svg xmlns="http://www.w3.org/2000/svg" width="720" height="1040" viewBox="0 0 720 1040">
  <defs>
    <linearGradient id="body" x1="0" y1="0" x2="1" y2="1">
      <stop offset="0" stop-color="#A7F3D0" stop-opacity=".92"/>
      <stop offset=".20" stop-color="#10B981"/>
      <stop offset=".55" stop-color="#047857"/>
      <stop offset="1" stop-color="#042F2E"/>
    </linearGradient>
    <linearGradient id="frame" x1="0" y1="0" x2="1" y2="1">
      <stop offset="0" stop-color="#A7F3D0"/>
      <stop offset=".16" stop-color="#34D399"/>
      <stop offset=".48" stop-color="#10B981"/>
      <stop offset=".76" stop-color="#042F2E"/>
      <stop offset="1" stop-color="#A7F3D0"/>
    </linearGradient>
    <linearGradient id="facetLight" x1="0" y1="0" x2="1" y2="1">
      <stop offset="0" stop-color="#A7F3D0" stop-opacity=".70"/>
      <stop offset="1" stop-color="#fff" stop-opacity=".03"/>
    </linearGradient>
    <linearGradient id="facetMid" x1="1" y1="0" x2="0" y2="1">
      <stop offset="0" stop-color="#34D399" stop-opacity=".36"/>
      <stop offset="1" stop-color="#10B981" stop-opacity=".03"/>
    </linearGradient>
    <linearGradient id="facetDark" x1="1" y1="0" x2="0" y2="1">
      <stop offset="0" stop-color="#042F2E" stop-opacity=".62"/>
      <stop offset="1" stop-color="#047857" stop-opacity=".04"/>
    </linearGradient>
    <radialGradient id="aura" cx="50%" cy="5%" r="92%">
      <stop offset="0" stop-color="#A7F3D0" stop-opacity=".54"/>
      <stop offset=".42" stop-color="#10B981" stop-opacity=".22"/>
      <stop offset="1" stop-color="#042F2E" stop-opacity="0"/>
    </radialGradient>
    <radialGradient id="centerDark" cx="50%" cy="42%" r="46%">
      <stop offset="0" stop-color="#020617" stop-opacity=".36"/>
      <stop offset=".62" stop-color="#020617" stop-opacity=".14"/>
      <stop offset="1" stop-color="#020617" stop-opacity="0"/>
    </radialGradient>
    <filter id="shadow" x="-24%" y="-24%" width="148%" height="148%">
      <feDropShadow dx="0" dy="26" stdDeviation="22" flood-color="#000" flood-opacity=".46"/>
      <feDropShadow dx="0" dy="0" stdDeviation="18" flood-color="#10B981" flood-opacity=".30"/>
    </filter>
    <pattern id="stripe" width="22" height="22" patternUnits="userSpaceOnUse" patternTransform="rotate(45)">
      <line x1="0" y1="0" x2="0" y2="22" stroke="#fff" stroke-opacity=".052" stroke-width="2"/>
    </pattern>
  </defs>

  <rect x="26" y="26" width="668" height="988" rx="46" fill="url(#body)" filter="url(#shadow)"/>
  <rect x="26" y="26" width="668" height="988" rx="46" fill="url(#aura)"/>
  <rect x="26" y="26" width="668" height="988" rx="46" fill="url(#stripe)" opacity=".56"/>
  <g opacity=".94"><polygon points="568.2,761.6 497.0,937.6 360.6,817.7" fill="url(#facetLight)" opacity="0.085"/>
<polygon points="46.1,241.7 -90.5,200.4 8.6,132.1" fill="url(#facetDark)" opacity="0.135"/>
<polygon points="362.5,896.7 393.7,771.8 513.2,822.4 542.7,880.7 435.6,973.8" fill="#ffffff" opacity="0.074"/>
<polygon points="162.9,205.9 154.2,455.3 11.5,349.3" fill="url(#facetDark)" opacity="0.126"/>
<polygon points="554.7,70.3 653.0,1.1 737.9,89.0 616.0,134.8" fill="url(#facetDark)" opacity="0.055"/>
<polygon points="759.7,635.9 836.1,731.5 732.1,839.2 605.9,778.5 639.4,582.3" fill="url(#facetMid)" opacity="0.099"/>
<polygon points="380.2,362.4 481.9,280.3 536.2,381.7 472.6,483.9" fill="url(#facetLight)" opacity="0.155"/>
<polygon points="810.7,1090.4 652.0,1079.1 765.9,934.7" fill="url(#facetLight)" opacity="0.114"/>
<polygon points="388.0,492.9 457.0,517.7 386.4,582.3" fill="#ffffff" opacity="0.122"/>
<polygon points="101.3,-27.8 168.0,78.2 34.2,99.2" fill="#ffffff" opacity="0.064"/>
<polygon points="164.4,144.5 254.2,233.0 137.6,290.6" fill="url(#facetMid)" opacity="0.111"/>
<polygon points="508.8,804.6 542.0,715.5 615.5,720.9 606.0,819.1" fill="url(#facetDark)" opacity="0.156"/>
<polygon points="600.4,253.7 673.8,380.9 542.0,451.6 462.4,347.0" fill="url(#facetDark)" opacity="0.105"/>
<polygon points="133.1,966.0 17.9,861.8 133.6,814.9" fill="url(#facetMid)" opacity="0.156"/>
<polygon points="146.2,429.0 93.4,571.2 -48.0,502.4" fill="url(#facetMid)" opacity="0.133"/>
<polygon points="496.0,628.2 476.4,789.0 314.6,714.1" fill="#ffffff" opacity="0.065"/>
<polygon points="-38.8,970.2 186.4,902.7 114.2,1139.9" fill="url(#facetMid)" opacity="0.068"/>
<polygon points="59.2,499.3 97.3,416.0 185.6,382.5 258.2,490.1 143.5,583.5" fill="url(#facetMid)" opacity="0.097"/>
<polygon points="-6.3,594.7 -142.4,458.0 34.2,422.7" fill="url(#facetLight)" opacity="0.134"/>
<polygon points="364.5,137.9 242.1,-35.3 374.0,-119.6 549.6,-66.9 480.1,102.3" fill="url(#facetLight)" opacity="0.145"/>
<polygon points="420.9,383.8 546.1,276.9 598.9,446.4" fill="url(#facetDark)" opacity="0.135"/>
<polygon points="480.8,963.7 757.1,879.8 623.3,1125.6" fill="url(#facetMid)" opacity="0.070"/>
<polygon points="107.4,204.9 -4.6,167.0 -34.3,73.4 88.5,70.8" fill="url(#facetMid)" opacity="0.094"/>
<polygon points="532.3,499.0 397.8,535.9 270.8,502.5 305.4,314.2 432.3,339.5" fill="#ffffff" opacity="0.072"/>
<polygon points="752.3,-48.9 516.6,119.7 443.6,-196.1" fill="url(#facetDark)" opacity="0.085"/>
<polygon points="39.7,111.5 131.8,115.3 60.6,220.1" fill="url(#facetLight)" opacity="0.124"/>
<polygon points="277.4,542.7 422.2,556.5 311.4,705.6" fill="url(#facetLight)" opacity="0.101"/>
<polygon points="396.7,950.6 389.4,1052.1 260.4,1028.5 237.6,932.5 314.5,849.8" fill="url(#facetLight)" opacity="0.085"/>
<polygon points="103.1,1168.7 112.6,957.5 282.3,1030.1" fill="url(#facetMid)" opacity="0.116"/>
<polygon points="248.4,968.9 168.1,1092.5 93.1,1082.3 43.4,1013.8 142.6,909.0" fill="#ffffff" opacity="0.117"/>
<polygon points="724.7,730.1 705.6,835.0 637.4,882.6 563.7,821.9 582.4,705.6" fill="url(#facetMid)" opacity="0.077"/>
<polygon points="328.3,-128.3 328.2,78.5 118.4,62.4 143.6,-105.8" fill="#ffffff" opacity="0.045"/>
<polygon points="348.8,766.1 405.7,1027.7 216.3,1054.3 97.2,891.7" fill="url(#facetLight)" opacity="0.131"/>
<polygon points="659.3,331.1 564.6,386.2 489.7,303.2 572.9,237.1" fill="url(#facetMid)" opacity="0.101"/></g>
  <rect x="26" y="26" width="668" height="988" rx="46" fill="url(#centerDark)"/>

  <rect x="30" y="30" width="660" height="980" rx="43" fill="none" stroke="url(#frame)" stroke-width="9"/>
  <rect x="48" y="48" width="624" height="944" rx="36" fill="none" stroke="#A7F3D0" stroke-opacity=".36" stroke-width="2"/>
  <rect x="66" y="66" width="588" height="908" rx="27" fill="none" stroke="#042F2E" stroke-opacity=".34" stroke-width="2"/>

  <g stroke="url(#frame)" stroke-width="4.5" stroke-linecap="round" fill="none" opacity=".96">
    <path d="M70 142 L70 70 L142 70"/>
    <path d="M578 70 L650 70 L650 142"/>
    <path d="M70 898 L70 970 L142 970"/>
    <path d="M578 970 L650 970 L650 898"/>
    <path d="M96 172 C110 126 126 110 172 96"/>
    <path d="M548 96 C594 110 610 126 624 172"/>
    <path d="M96 868 C110 914 126 930 172 944"/>
    <path d="M548 944 C594 930 610 914 624 868"/>
  </g>

  <g opacity=".85">
    <path d="M360 315 C450 315 512 371 512 452 C512 533 450 589 360 589 C270 589 208 533 208 452 C208 371 270 315 360 315Z" fill="#020617" opacity=".24"/>
    <circle cx="360" cy="452" r="151" fill="none" stroke="url(#frame)" stroke-width="4" opacity=".82"/>
    <circle cx="360" cy="452" r="128" fill="none" stroke="#A7F3D0" stroke-opacity=".36" stroke-width="2"/>
    <path d="M209 452 H154" stroke="url(#frame)" stroke-width="5" stroke-linecap="round"/>
    <path d="M511 452 H566" stroke="url(#frame)" stroke-width="5" stroke-linecap="round"/>
    <rect x="140" y="432" width="40" height="40" rx="6" transform="rotate(45 160 452)" fill="url(#frame)" stroke="#A7F3D0" stroke-opacity=".74" stroke-width="2"/>
    <rect x="540" y="432" width="40" height="40" rx="6" transform="rotate(45 560 452)" fill="url(#frame)" stroke="#A7F3D0" stroke-opacity=".74" stroke-width="2"/>
  </g>

  <g filter="url(#shadow)">
    <rect x="316" y="16" width="88" height="88" rx="18" transform="rotate(45 360 60)" fill="url(#frame)" stroke="#A7F3D0" stroke-opacity=".92" stroke-width="3"/>
    <rect x="337" y="37" width="46" height="46" rx="10" transform="rotate(45 360 60)" fill="#042F2E" opacity=".82"/>
    <circle cx="346" cy="48" r="13" fill="#fff" opacity=".26"/>
  </g>

  <g opacity=".22">
    <rect x="100" y="632" width="520" height="70" rx="16" fill="#020617" stroke="#A7F3D0" stroke-opacity=".20"/>
    <rect x="100" y="720" width="520" height="70" rx="16" fill="#020617" stroke="#A7F3D0" stroke-opacity=".18"/>
  </g>

  <g filter="url(#shadow)">
    <path d="M268 874 L316 823 H404 L452 874 L404 935 H316 Z" fill="url(#frame)" stroke="#A7F3D0" stroke-opacity=".78" stroke-width="3"/>
    <path d="M294 874 L330 840 H390 L426 874 L390 918 H330 Z" fill="#042F2E" opacity=".80"/>
    <path d="M250 878 C238 846 242 812 258 786" stroke="url(#frame)" stroke-width="5" stroke-linecap="round" fill="none" opacity=".78"/>
    <path d="M470 878 C482 846 478 812 462 786" stroke="url(#frame)" stroke-width="5" stroke-linecap="round" fill="none" opacity=".78"/>
  </g>
</svg>