<svg xmlns="http://www.w3.org/2000/svg" width="720" height="1040" viewBox="0 0 720 1040">
  <defs>
    <linearGradient id="body" x1="0" y1="0" x2="1" y2="1">
      <stop offset="0" stop-color="#E9D5FF" stop-opacity=".92"/>
      <stop offset=".20" stop-color="#A855F7"/>
      <stop offset=".55" stop-color="#7E22CE"/>
      <stop offset="1" stop-color="#2E064E"/>
    </linearGradient>
    <linearGradient id="frame" x1="0" y1="0" x2="1" y2="1">
      <stop offset="0" stop-color="#E9D5FF"/>
      <stop offset=".16" stop-color="#C084FC"/>
      <stop offset=".48" stop-color="#A855F7"/>
      <stop offset=".76" stop-color="#2E064E"/>
      <stop offset="1" stop-color="#E9D5FF"/>
    </linearGradient>
    <linearGradient id="facetLight" x1="0" y1="0" x2="1" y2="1">
      <stop offset="0" stop-color="#E9D5FF" stop-opacity=".70"/>
      <stop offset="1" stop-color="#fff" stop-opacity=".03"/>
    </linearGradient>
    <linearGradient id="facetMid" x1="1" y1="0" x2="0" y2="1">
      <stop offset="0" stop-color="#C084FC" stop-opacity=".36"/>
      <stop offset="1" stop-color="#A855F7" stop-opacity=".03"/>
    </linearGradient>
    <linearGradient id="facetDark" x1="1" y1="0" x2="0" y2="1">
      <stop offset="0" stop-color="#2E064E" stop-opacity=".62"/>
      <stop offset="1" stop-color="#7E22CE" stop-opacity=".04"/>
    </linearGradient>
    <radialGradient id="aura" cx="50%" cy="5%" r="92%">
      <stop offset="0" stop-color="#E9D5FF" stop-opacity=".54"/>
      <stop offset=".42" stop-color="#A855F7" stop-opacity=".22"/>
      <stop offset="1" stop-color="#2E064E" stop-opacity="0"/>
    </radialGradient>
    <radialGradient id="centerDark" cx="50%" cy="42%" r="46%">
      <stop offset="0" stop-color="#020617" stop-opacity=".36"/>
      <stop offset=".62" stop-color="#020617" stop-opacity=".14"/>
      <stop offset="1" stop-color="#020617" stop-opacity="0"/>
    </radialGradient>
    <filter id="shadow" x="-24%" y="-24%" width="148%" height="148%">
      <feDropShadow dx="0" dy="26" stdDeviation="22" flood-color="#000" flood-opacity=".46"/>
      <feDropShadow dx="0" dy="0" stdDeviation="18" flood-color="#A855F7" flood-opacity=".30"/>
    </filter>
    <pattern id="stripe" width="22" height="22" patternUnits="userSpaceOnUse" patternTransform="rotate(45)">
      <line x1="0" y1="0" x2="0" y2="22" stroke="#fff" stroke-opacity=".052" stroke-width="2"/>
    </pattern>
  </defs>

  <rect x="26" y="26" width="668" height="988" rx="46" fill="url(#body)" filter="url(#shadow)"/>
  <rect x="26" y="26" width="668" height="988" rx="46" fill="url(#aura)"/>
  <rect x="26" y="26" width="668" height="988" rx="46" fill="url(#stripe)" opacity=".56"/>
  <g opacity=".94"><polygon points="410.1,428.6 179.3,548.3 229.5,341.6" fill="url(#facetDark)" opacity="0.071"/>
<polygon points="468.6,635.0 530.1,711.5 442.7,805.6 361.0,734.0" fill="url(#facetMid)" opacity="0.095"/>
<polygon points="339.9,582.2 308.4,685.3 220.6,711.2 149.6,594.2 249.5,521.6" fill="url(#facetMid)" opacity="0.093"/>
<polygon points="719.5,-187.4 837.1,-52.4 763.1,106.2 641.9,45.1 562.3,-133.1" fill="#ffffff" opacity="0.136"/>
<polygon points="382.8,344.2 403.1,208.4 473.0,157.6 610.2,200.1 509.8,367.0" fill="#ffffff" opacity="0.122"/>
<polygon points="96.9,947.0 63.2,1070.3 -28.3,1019.1" fill="url(#facetLight)" opacity="0.046"/>
<polygon points="189.0,530.0 120.7,467.9 197.7,411.3" fill="url(#facetMid)" opacity="0.114"/>
<polygon points="373.7,1068.3 472.3,878.9 516.8,1070.7" fill="url(#facetMid)" opacity="0.066"/>
<polygon points="70.7,525.7 -31.3,687.1 -111.4,482.7" fill="#ffffff" opacity="0.129"/>
<polygon points="496.1,1010.4 549.0,907.7 691.4,913.1 683.6,1036.2 538.8,1090.8" fill="url(#facetDark)" opacity="0.062"/>
<polygon points="460.7,937.6 388.9,973.0 244.7,935.2 316.0,862.2 419.2,835.0" fill="url(#facetDark)" opacity="0.053"/>
<polygon points="310.7,247.6 133.1,328.6 145.1,84.7" fill="url(#facetLight)" opacity="0.112"/>
<polygon points="90.8,666.5 42.6,566.0 170.8,475.7 224.5,629.5" fill="url(#facetLight)" opacity="0.158"/>
<polygon points="543.2,161.9 468.9,429.1 225.5,246.4" fill="url(#facetDark)" opacity="0.149"/>
<polygon points="671.2,877.1 592.1,887.7 599.4,798.6 664.3,785.7" fill="url(#facetDark)" opacity="0.088"/>
<polygon points="102.5,355.0 199.2,411.8 96.9,505.5 -8.4,410.4" fill="#ffffff" opacity="0.062"/>
<polygon points="732.2,249.5 834.0,450.6 678.7,433.0" fill="#ffffff" opacity="0.046"/>
<polygon points="374.5,747.6 303.7,953.3 119.5,846.9" fill="#ffffff" opacity="0.048"/>
<polygon points="264.9,1121.3 231.3,946.5 393.3,891.2 455.1,978.8 423.5,1097.0" fill="url(#facetLight)" opacity="0.151"/>
<polygon points="-42.2,449.7 73.8,347.7 121.9,465.2 63.5,548.7" fill="url(#facetDark)" opacity="0.154"/>
<polygon points="404.6,404.4 401.0,494.1 315.6,438.2" fill="url(#facetDark)" opacity="0.103"/>
<polygon points="201.7,660.9 397.5,610.3 464.5,784.4 298.4,795.7" fill="url(#facetDark)" opacity="0.047"/>
<polygon points="205.2,500.9 313.1,605.0 194.3,718.4 41.4,676.7" fill="url(#facetMid)" opacity="0.116"/>
<polygon points="465.3,944.8 405.4,834.9 505.5,831.8 579.2,947.5" fill="#ffffff" opacity="0.073"/>
<polygon points="77.7,748.7 -82.9,747.6 -127.9,585.0 24.3,576.5" fill="url(#facetLight)" opacity="0.119"/>
<polygon points="705.9,-32.0 613.9,110.0 547.7,-13.1" fill="url(#facetLight)" opacity="0.157"/>
<polygon points="370.1,337.6 396.9,433.3 298.1,455.2 225.3,391.3 256.2,282.5" fill="#ffffff" opacity="0.142"/>
<polygon points="195.0,472.5 206.1,374.8 272.4,363.4 292.0,427.9" fill="url(#facetDark)" opacity="0.135"/>
<polygon points="548.8,441.3 563.3,357.7 683.4,347.3 651.7,486.6" fill="url(#facetDark)" opacity="0.049"/>
<polygon points="649.6,276.1 652.6,173.0 695.3,106.3 773.6,186.1 751.8,276.7" fill="#ffffff" opacity="0.104"/>
<polygon points="425.2,92.6 561.9,20.6 680.8,111.2 576.4,238.2 432.8,235.6" fill="url(#facetDark)" opacity="0.159"/>
<polygon points="727.5,661.3 688.2,860.4 487.7,696.1" fill="url(#facetDark)" opacity="0.157"/>
<polygon points="206.0,313.3 340.7,460.9 130.2,557.6 105.4,396.9" fill="url(#facetMid)" opacity="0.133"/>
<polygon points="303.4,1095.8 353.6,997.4 443.0,1041.6 393.7,1103.8" fill="#ffffff" opacity="0.062"/></g>
  <rect x="26" y="26" width="668" height="988" rx="46" fill="url(#centerDark)"/>

  <rect x="30" y="30" width="660" height="980" rx="43" fill="none" stroke="url(#frame)" stroke-width="9"/>
  <rect x="48" y="48" width="624" height="944" rx="36" fill="none" stroke="#E9D5FF" stroke-opacity=".36" stroke-width="2"/>
  <rect x="66" y="66" width="588" height="908" rx="27" fill="none" stroke="#2E064E" stroke-opacity=".34" stroke-width="2"/>

  <g stroke="url(#frame)" stroke-width="4.5" stroke-linecap="round" fill="none" opacity=".96">
    <path d="M70 142 L70 70 L142 70"/>
    <path d="M578 70 L650 70 L650 142"/>
    <path d="M70 898 L70 970 L142 970"/>
    <path d="M578 970 L650 970 L650 898"/>
    <path d="M96 172 C110 126 126 110 172 96"/>
    <path d="M548 96 C594 110 610 126 624 172"/>
    <path d="M96 868 C110 914 126 930 172 944"/>
    <path d="M548 944 C594 930 610 914 624 868"/>
  </g>

  <g opacity=".85">
    <path d="M360 315 C450 315 512 371 512 452 C512 533 450 589 360 589 C270 589 208 533 208 452 C208 371 270 315 360 315Z" fill="#020617" opacity=".24"/>
    <circle cx="360" cy="452" r="151" fill="none" stroke="url(#frame)" stroke-width="4" opacity=".82"/>
    <circle cx="360" cy="452" r="128" fill="none" stroke="#E9D5FF" stroke-opacity=".36" stroke-width="2"/>
    <path d="M209 452 H154" stroke="url(#frame)" stroke-width="5" stroke-linecap="round"/>
    <path d="M511 452 H566" stroke="url(#frame)" stroke-width="5" stroke-linecap="round"/>
    <rect x="140" y="432" width="40" height="40" rx="6" transform="rotate(45 160 452)" fill="url(#frame)" stroke="#E9D5FF" stroke-opacity=".74" stroke-width="2"/>
    <rect x="540" y="432" width="40" height="40" rx="6" transform="rotate(45 560 452)" fill="url(#frame)" stroke="#E9D5FF" stroke-opacity=".74" stroke-width="2"/>
  </g>

  <g filter="url(#shadow)">
    <rect x="316" y="16" width="88" height="88" rx="18" transform="rotate(45 360 60)" fill="url(#frame)" stroke="#E9D5FF" stroke-opacity=".92" stroke-width="3"/>
    <rect x="337" y="37" width="46" height="46" rx="10" transform="rotate(45 360 60)" fill="#2E064E" opacity=".82"/>
    <circle cx="346" cy="48" r="13" fill="#fff" opacity=".26"/>
  </g>

  <g opacity=".22">
    <rect x="100" y="632" width="520" height="70" rx="16" fill="#020617" stroke="#E9D5FF" stroke-opacity=".20"/>
    <rect x="100" y="720" width="520" height="70" rx="16" fill="#020617" stroke="#E9D5FF" stroke-opacity=".18"/>
  </g>

  <g filter="url(#shadow)">
    <path d="M268 874 L316 823 H404 L452 874 L404 935 H316 Z" fill="url(#frame)" stroke="#E9D5FF" stroke-opacity=".78" stroke-width="3"/>
    <path d="M294 874 L330 840 H390 L426 874 L390 918 H330 Z" fill="#2E064E" opacity=".80"/>
    <path d="M250 878 C238 846 242 812 258 786" stroke="url(#frame)" stroke-width="5" stroke-linecap="round" fill="none" opacity=".78"/>
    <path d="M470 878 C482 846 478 812 462 786" stroke="url(#frame)" stroke-width="5" stroke-linecap="round" fill="none" opacity=".78"/>
  </g>
</svg>