<svg xmlns="http://www.w3.org/2000/svg" width="720" height="1040" viewBox="0 0 720 1040">
  <defs>
    <linearGradient id="body" x1="0" y1="0" x2="1" y2="1">
      <stop offset="0" stop-color="#FFFFFF" stop-opacity=".92"/>
      <stop offset=".20" stop-color="#D8E2EF"/>
      <stop offset=".55" stop-color="#7B8794"/>
      <stop offset="1" stop-color="#243142"/>
    </linearGradient>
    <linearGradient id="frame" x1="0" y1="0" x2="1" y2="1">
      <stop offset="0" stop-color="#FFFFFF"/>
      <stop offset=".16" stop-color="#CBD5E1"/>
      <stop offset=".48" stop-color="#D8E2EF"/>
      <stop offset=".76" stop-color="#243142"/>
      <stop offset="1" stop-color="#FFFFFF"/>
    </linearGradient>
    <linearGradient id="facetLight" x1="0" y1="0" x2="1" y2="1">
      <stop offset="0" stop-color="#FFFFFF" stop-opacity=".70"/>
      <stop offset="1" stop-color="#fff" stop-opacity=".03"/>
    </linearGradient>
    <linearGradient id="facetMid" x1="1" y1="0" x2="0" y2="1">
      <stop offset="0" stop-color="#CBD5E1" stop-opacity=".36"/>
      <stop offset="1" stop-color="#D8E2EF" stop-opacity=".03"/>
    </linearGradient>
    <linearGradient id="facetDark" x1="1" y1="0" x2="0" y2="1">
      <stop offset="0" stop-color="#243142" stop-opacity=".62"/>
      <stop offset="1" stop-color="#7B8794" stop-opacity=".04"/>
    </linearGradient>
    <radialGradient id="aura" cx="50%" cy="5%" r="92%">
      <stop offset="0" stop-color="#FFFFFF" stop-opacity=".54"/>
      <stop offset=".42" stop-color="#D8E2EF" stop-opacity=".22"/>
      <stop offset="1" stop-color="#243142" stop-opacity="0"/>
    </radialGradient>
    <radialGradient id="centerDark" cx="50%" cy="42%" r="46%">
      <stop offset="0" stop-color="#020617" stop-opacity=".36"/>
      <stop offset=".62" stop-color="#020617" stop-opacity=".14"/>
      <stop offset="1" stop-color="#020617" stop-opacity="0"/>
    </radialGradient>
    <filter id="shadow" x="-24%" y="-24%" width="148%" height="148%">
      <feDropShadow dx="0" dy="26" stdDeviation="22" flood-color="#000" flood-opacity=".46"/>
      <feDropShadow dx="0" dy="0" stdDeviation="18" flood-color="#D8E2EF" flood-opacity=".30"/>
    </filter>
    <pattern id="stripe" width="22" height="22" patternUnits="userSpaceOnUse" patternTransform="rotate(45)">
      <line x1="0" y1="0" x2="0" y2="22" stroke="#fff" stroke-opacity=".052" stroke-width="2"/>
    </pattern>
  </defs>

  <rect x="26" y="26" width="668" height="988" rx="46" fill="url(#body)" filter="url(#shadow)"/>
  <rect x="26" y="26" width="668" height="988" rx="46" fill="url(#aura)"/>
  <rect x="26" y="26" width="668" height="988" rx="46" fill="url(#stripe)" opacity=".56"/>
  <g opacity=".94"><polygon points="338.1,1081.5 210.9,1104.3 103.7,1000.6 276.0,859.2 367.0,951.2" fill="url(#facetDark)" opacity="0.139"/>
<polygon points="180.1,884.9 -84.3,947.5 36.4,689.2" fill="url(#facetLight)" opacity="0.078"/>
<polygon points="686.3,752.3 763.6,786.7 793.7,905.5 699.7,911.8 652.4,834.5" fill="url(#facetMid)" opacity="0.147"/>
<polygon points="573.0,164.9 427.1,204.4 408.3,35.3 565.8,13.4" fill="url(#facetDark)" opacity="0.151"/>
<polygon points="318.4,296.4 433.0,247.1 468.9,381.6 315.1,413.8" fill="#ffffff" opacity="0.079"/>
<polygon points="248.9,83.2 452.6,24.3 448.0,260.4" fill="url(#facetDark)" opacity="0.056"/>
<polygon points="595.1,573.4 528.3,713.4 345.0,764.2 250.5,643.4 415.4,507.4" fill="url(#facetDark)" opacity="0.062"/>
<polygon points="776.1,84.0 626.5,208.1 507.8,45.9 658.4,-33.7" fill="url(#facetMid)" opacity="0.147"/>
<polygon points="549.7,-59.6 738.9,-93.6 726.8,46.6 570.2,118.1 462.8,42.0" fill="url(#facetMid)" opacity="0.090"/>
<polygon points="498.3,504.5 548.3,413.5 641.7,521.0 581.4,601.7" fill="url(#facetLight)" opacity="0.057"/>
<polygon points="16.3,198.9 196.4,89.8 315.6,242.5 140.8,390.4" fill="url(#facetDark)" opacity="0.072"/>
<polygon points="484.6,204.1 520.7,113.3 590.9,222.0" fill="url(#facetDark)" opacity="0.112"/>
<polygon points="598.4,823.6 760.5,796.0 830.1,911.4 760.1,1065.3 629.9,1004.2" fill="#ffffff" opacity="0.053"/>
<polygon points="602.2,436.0 604.4,277.1 718.7,401.3" fill="url(#facetMid)" opacity="0.087"/>
<polygon points="564.4,745.1 523.0,647.6 603.7,564.6 666.8,681.5" fill="url(#facetLight)" opacity="0.090"/>
<polygon points="59.2,896.9 185.6,922.1 109.7,1048.8 -17.4,1028.4" fill="url(#facetMid)" opacity="0.138"/>
<polygon points="304.8,-4.0 397.9,-46.5 450.6,44.4 377.9,74.7" fill="url(#facetMid)" opacity="0.048"/>
<polygon points="-2.8,963.6 134.8,856.9 239.8,961.4 141.4,1096.4" fill="#ffffff" opacity="0.079"/>
<polygon points="89.6,296.4 -15.2,293.1 -62.8,158.6 65.9,195.6" fill="#ffffff" opacity="0.096"/>
<polygon points="729.1,588.3 831.0,670.3 670.6,691.1" fill="#ffffff" opacity="0.078"/>
<polygon points="611.0,74.8 639.9,216.6 487.6,177.1" fill="#ffffff" opacity="0.116"/>
<polygon points="658.9,944.6 653.2,1020.5 553.7,1069.7 537.7,948.0" fill="#ffffff" opacity="0.140"/>
<polygon points="366.1,45.1 440.2,-24.1 557.3,16.1 540.5,95.5 449.9,127.1" fill="url(#facetLight)" opacity="0.093"/>
<polygon points="431.1,991.2 347.2,917.6 435.1,809.4 506.2,894.1 503.6,960.4" fill="#ffffff" opacity="0.102"/>
<polygon points="-3.1,549.6 84.8,607.8 -31.3,662.9" fill="url(#facetMid)" opacity="0.073"/>
<polygon points="273.8,731.2 232.6,671.4 291.7,623.6 381.6,647.1 348.2,725.3" fill="url(#facetLight)" opacity="0.105"/>
<polygon points="512.3,356.1 727.5,392.7 566.1,567.6" fill="url(#facetDark)" opacity="0.054"/>
<polygon points="186.4,416.4 194.3,593.8 14.0,481.4" fill="#ffffff" opacity="0.116"/>
<polygon points="485.1,389.0 527.8,321.5 598.3,281.8 636.2,374.7 572.7,406.3" fill="#ffffff" opacity="0.088"/>
<polygon points="586.5,360.5 531.0,498.5 414.0,404.3 463.8,325.4" fill="#ffffff" opacity="0.087"/>
<polygon points="335.2,395.6 315.9,227.6 501.1,130.1 521.9,334.4" fill="#ffffff" opacity="0.049"/>
<polygon points="243.1,458.5 126.2,490.7 58.6,402.5 173.6,347.8" fill="url(#facetMid)" opacity="0.154"/>
<polygon points="415.1,938.4 301.8,996.0 239.5,859.5" fill="url(#facetDark)" opacity="0.054"/>
<polygon points="356.3,279.8 283.4,386.4 206.3,249.2" fill="url(#facetMid)" opacity="0.073"/></g>
  <rect x="26" y="26" width="668" height="988" rx="46" fill="url(#centerDark)"/>

  <rect x="30" y="30" width="660" height="980" rx="43" fill="none" stroke="url(#frame)" stroke-width="9"/>
  <rect x="48" y="48" width="624" height="944" rx="36" fill="none" stroke="#FFFFFF" stroke-opacity=".36" stroke-width="2"/>
  <rect x="66" y="66" width="588" height="908" rx="27" fill="none" stroke="#243142" stroke-opacity=".34" stroke-width="2"/>

  <g stroke="url(#frame)" stroke-width="4.5" stroke-linecap="round" fill="none" opacity=".96">
    <path d="M70 142 L70 70 L142 70"/>
    <path d="M578 70 L650 70 L650 142"/>
    <path d="M70 898 L70 970 L142 970"/>
    <path d="M578 970 L650 970 L650 898"/>
    <path d="M96 172 C110 126 126 110 172 96"/>
    <path d="M548 96 C594 110 610 126 624 172"/>
    <path d="M96 868 C110 914 126 930 172 944"/>
    <path d="M548 944 C594 930 610 914 624 868"/>
  </g>

  <g opacity=".85">
    <path d="M360 315 C450 315 512 371 512 452 C512 533 450 589 360 589 C270 589 208 533 208 452 C208 371 270 315 360 315Z" fill="#020617" opacity=".24"/>
    <circle cx="360" cy="452" r="151" fill="none" stroke="url(#frame)" stroke-width="4" opacity=".82"/>
    <circle cx="360" cy="452" r="128" fill="none" stroke="#FFFFFF" stroke-opacity=".36" stroke-width="2"/>
    <path d="M209 452 H154" stroke="url(#frame)" stroke-width="5" stroke-linecap="round"/>
    <path d="M511 452 H566" stroke="url(#frame)" stroke-width="5" stroke-linecap="round"/>
    <rect x="140" y="432" width="40" height="40" rx="6" transform="rotate(45 160 452)" fill="url(#frame)" stroke="#FFFFFF" stroke-opacity=".74" stroke-width="2"/>
    <rect x="540" y="432" width="40" height="40" rx="6" transform="rotate(45 560 452)" fill="url(#frame)" stroke="#FFFFFF" stroke-opacity=".74" stroke-width="2"/>
  </g>

  <g filter="url(#shadow)">
    <rect x="316" y="16" width="88" height="88" rx="18" transform="rotate(45 360 60)" fill="url(#frame)" stroke="#FFFFFF" stroke-opacity=".92" stroke-width="3"/>
    <rect x="337" y="37" width="46" height="46" rx="10" transform="rotate(45 360 60)" fill="#243142" opacity=".82"/>
    <circle cx="346" cy="48" r="13" fill="#fff" opacity=".26"/>
  </g>

  <g opacity=".22">
    <rect x="100" y="632" width="520" height="70" rx="16" fill="#020617" stroke="#FFFFFF" stroke-opacity=".20"/>
    <rect x="100" y="720" width="520" height="70" rx="16" fill="#020617" stroke="#FFFFFF" stroke-opacity=".18"/>
  </g>

  <g filter="url(#shadow)">
    <path d="M268 874 L316 823 H404 L452 874 L404 935 H316 Z" fill="url(#frame)" stroke="#FFFFFF" stroke-opacity=".78" stroke-width="3"/>
    <path d="M294 874 L330 840 H390 L426 874 L390 918 H330 Z" fill="#243142" opacity=".80"/>
    <path d="M250 878 C238 846 242 812 258 786" stroke="url(#frame)" stroke-width="5" stroke-linecap="round" fill="none" opacity=".78"/>
    <path d="M470 878 C482 846 478 812 462 786" stroke="url(#frame)" stroke-width="5" stroke-linecap="round" fill="none" opacity=".78"/>
  </g>
</svg>