<svg xmlns="http://www.w3.org/2000/svg" width="720" height="1040" viewBox="0 0 720 1040">
  <defs>
    <linearGradient id="body" x1="0" y1="0" x2="1" y2="1">
      <stop offset="0" stop-color="#FFF7ED" stop-opacity=".92"/>
      <stop offset=".20" stop-color="#FACC15"/>
      <stop offset=".55" stop-color="#D97706"/>
      <stop offset="1" stop-color="#422006"/>
    </linearGradient>
    <linearGradient id="frame" x1="0" y1="0" x2="1" y2="1">
      <stop offset="0" stop-color="#FFF7ED"/>
      <stop offset=".16" stop-color="#FDE68A"/>
      <stop offset=".48" stop-color="#FACC15"/>
      <stop offset=".76" stop-color="#422006"/>
      <stop offset="1" stop-color="#FFF7ED"/>
    </linearGradient>
    <linearGradient id="facetLight" x1="0" y1="0" x2="1" y2="1">
      <stop offset="0" stop-color="#FFF7ED" stop-opacity=".70"/>
      <stop offset="1" stop-color="#fff" stop-opacity=".03"/>
    </linearGradient>
    <linearGradient id="facetMid" x1="1" y1="0" x2="0" y2="1">
      <stop offset="0" stop-color="#FDE68A" stop-opacity=".36"/>
      <stop offset="1" stop-color="#FACC15" stop-opacity=".03"/>
    </linearGradient>
    <linearGradient id="facetDark" x1="1" y1="0" x2="0" y2="1">
      <stop offset="0" stop-color="#422006" stop-opacity=".62"/>
      <stop offset="1" stop-color="#D97706" stop-opacity=".04"/>
    </linearGradient>
    <radialGradient id="aura" cx="50%" cy="5%" r="92%">
      <stop offset="0" stop-color="#FFF7ED" stop-opacity=".54"/>
      <stop offset=".42" stop-color="#FACC15" stop-opacity=".22"/>
      <stop offset="1" stop-color="#422006" stop-opacity="0"/>
    </radialGradient>
    <radialGradient id="centerDark" cx="50%" cy="42%" r="46%">
      <stop offset="0" stop-color="#020617" stop-opacity=".36"/>
      <stop offset=".62" stop-color="#020617" stop-opacity=".14"/>
      <stop offset="1" stop-color="#020617" stop-opacity="0"/>
    </radialGradient>
    <filter id="shadow" x="-24%" y="-24%" width="148%" height="148%">
      <feDropShadow dx="0" dy="26" stdDeviation="22" flood-color="#000" flood-opacity=".46"/>
      <feDropShadow dx="0" dy="0" stdDeviation="18" flood-color="#FACC15" flood-opacity=".30"/>
    </filter>
    <pattern id="stripe" width="22" height="22" patternUnits="userSpaceOnUse" patternTransform="rotate(45)">
      <line x1="0" y1="0" x2="0" y2="22" stroke="#fff" stroke-opacity=".052" stroke-width="2"/>
    </pattern>
  </defs>

  <rect x="26" y="26" width="668" height="988" rx="46" fill="url(#body)" filter="url(#shadow)"/>
  <rect x="26" y="26" width="668" height="988" rx="46" fill="url(#aura)"/>
  <rect x="26" y="26" width="668" height="988" rx="46" fill="url(#stripe)" opacity=".56"/>
  <g opacity=".94"><polygon points="-38.0,675.5 -129.7,436.3 101.6,543.8" fill="#ffffff" opacity="0.152"/>
<polygon points="350.4,588.6 426.4,567.6 509.0,653.0 406.2,726.6 293.2,684.2" fill="url(#facetDark)" opacity="0.136"/>
<polygon points="-51.8,653.7 -68.6,531.7 26.9,438.4 171.7,530.3 87.9,630.0" fill="url(#facetLight)" opacity="0.056"/>
<polygon points="-35.8,238.8 86.5,177.0 89.9,320.7" fill="#ffffff" opacity="0.154"/>
<polygon points="289.9,297.3 273.0,466.5 152.9,318.1" fill="url(#facetDark)" opacity="0.141"/>
<polygon points="841.2,681.0 719.2,745.3 664.1,622.4 756.7,559.4" fill="url(#facetMid)" opacity="0.110"/>
<polygon points="724.7,186.3 643.6,60.9 778.7,9.9" fill="url(#facetDark)" opacity="0.046"/>
<polygon points="70.2,795.7 169.8,854.4 149.8,949.1 48.0,922.2" fill="#ffffff" opacity="0.158"/>
<polygon points="-58.2,-48.7 117.5,-81.4 208.3,35.8 127.8,159.2 -12.0,110.9" fill="#ffffff" opacity="0.156"/>
<polygon points="621.5,942.9 757.7,982.7 650.5,1103.0" fill="url(#facetDark)" opacity="0.154"/>
<polygon points="210.1,819.9 253.5,1125.6 -15.8,1031.5" fill="#ffffff" opacity="0.128"/>
<polygon points="181.9,999.2 50.1,975.1 -6.7,848.0 130.5,831.1 264.0,874.9" fill="url(#facetLight)" opacity="0.115"/>
<polygon points="404.2,945.9 473.3,895.3 529.5,937.9 467.4,1028.3" fill="#ffffff" opacity="0.048"/>
<polygon points="83.4,889.7 -48.7,789.5 90.7,705.8" fill="url(#facetDark)" opacity="0.104"/>
<polygon points="203.1,618.2 82.4,747.6 -24.6,752.5 -129.2,644.4 15.7,551.3" fill="url(#facetDark)" opacity="0.116"/>
<polygon points="372.1,82.6 306.7,101.5 274.4,47.6 311.2,-35.4 387.8,1.2" fill="url(#facetLight)" opacity="0.114"/>
<polygon points="741.5,964.2 666.4,1070.2 556.6,1014.0 625.0,923.9" fill="url(#facetMid)" opacity="0.066"/>
<polygon points="-57.3,294.3 -78.9,197.2 5.8,180.2 25.5,302.0" fill="url(#facetDark)" opacity="0.051"/>
<polygon points="195.4,828.8 74.0,915.2 23.9,808.4" fill="url(#facetLight)" opacity="0.096"/>
<polygon points="186.8,549.5 408.5,535.6 425.7,697.6 297.6,706.2" fill="url(#facetDark)" opacity="0.123"/>
<polygon points="651.8,622.8 477.2,668.7 437.6,465.7" fill="url(#facetDark)" opacity="0.144"/>
<polygon points="725.5,725.2 552.2,688.6 614.0,542.4 798.2,537.2" fill="url(#facetDark)" opacity="0.089"/>
<polygon points="744.8,430.0 498.8,544.4 553.1,330.5" fill="url(#facetLight)" opacity="0.070"/>
<polygon points="609.4,444.0 689.6,719.6 445.2,685.1" fill="url(#facetMid)" opacity="0.088"/>
<polygon points="352.3,-12.9 397.3,127.6 323.2,158.0 255.8,65.0" fill="url(#facetMid)" opacity="0.088"/>
<polygon points="304.1,876.5 216.2,940.3 116.1,900.3 119.2,750.1 242.9,783.0" fill="#ffffff" opacity="0.119"/>
<polygon points="383.3,715.7 395.7,823.9 267.9,875.9 219.2,790.8 284.9,700.5" fill="url(#facetMid)" opacity="0.083"/>
<polygon points="515.2,250.4 601.5,264.2 565.9,327.6" fill="url(#facetDark)" opacity="0.062"/>
<polygon points="96.4,638.1 -69.3,702.6 -89.2,544.1" fill="url(#facetDark)" opacity="0.103"/>
<polygon points="105.8,704.6 49.2,559.6 202.4,598.1" fill="url(#facetLight)" opacity="0.057"/>
<polygon points="512.3,220.9 600.1,254.6 500.9,343.4" fill="url(#facetLight)" opacity="0.108"/>
<polygon points="319.4,1138.4 75.0,1149.2 168.3,970.1" fill="#ffffff" opacity="0.089"/>
<polygon points="486.2,910.2 678.3,1053.5 410.9,1101.2" fill="url(#facetMid)" opacity="0.098"/>
<polygon points="589.7,940.6 680.4,945.2 712.1,1005.9 663.0,1063.6 553.7,1024.0" fill="url(#facetDark)" opacity="0.142"/></g>
  <rect x="26" y="26" width="668" height="988" rx="46" fill="url(#centerDark)"/>

  <rect x="30" y="30" width="660" height="980" rx="43" fill="none" stroke="url(#frame)" stroke-width="9"/>
  <rect x="48" y="48" width="624" height="944" rx="36" fill="none" stroke="#FFF7ED" stroke-opacity=".36" stroke-width="2"/>
  <rect x="66" y="66" width="588" height="908" rx="27" fill="none" stroke="#422006" stroke-opacity=".34" stroke-width="2"/>

  <g stroke="url(#frame)" stroke-width="4.5" stroke-linecap="round" fill="none" opacity=".96">
    <path d="M70 142 L70 70 L142 70"/>
    <path d="M578 70 L650 70 L650 142"/>
    <path d="M70 898 L70 970 L142 970"/>
    <path d="M578 970 L650 970 L650 898"/>
    <path d="M96 172 C110 126 126 110 172 96"/>
    <path d="M548 96 C594 110 610 126 624 172"/>
    <path d="M96 868 C110 914 126 930 172 944"/>
    <path d="M548 944 C594 930 610 914 624 868"/>
  </g>

  <g opacity=".85">
    <path d="M360 315 C450 315 512 371 512 452 C512 533 450 589 360 589 C270 589 208 533 208 452 C208 371 270 315 360 315Z" fill="#020617" opacity=".24"/>
    <circle cx="360" cy="452" r="151" fill="none" stroke="url(#frame)" stroke-width="4" opacity=".82"/>
    <circle cx="360" cy="452" r="128" fill="none" stroke="#FFF7ED" stroke-opacity=".36" stroke-width="2"/>
    <path d="M209 452 H154" stroke="url(#frame)" stroke-width="5" stroke-linecap="round"/>
    <path d="M511 452 H566" stroke="url(#frame)" stroke-width="5" stroke-linecap="round"/>
    <rect x="140" y="432" width="40" height="40" rx="6" transform="rotate(45 160 452)" fill="url(#frame)" stroke="#FFF7ED" stroke-opacity=".74" stroke-width="2"/>
    <rect x="540" y="432" width="40" height="40" rx="6" transform="rotate(45 560 452)" fill="url(#frame)" stroke="#FFF7ED" stroke-opacity=".74" stroke-width="2"/>
  </g>

  <g filter="url(#shadow)">
    <rect x="316" y="16" width="88" height="88" rx="18" transform="rotate(45 360 60)" fill="url(#frame)" stroke="#FFF7ED" stroke-opacity=".92" stroke-width="3"/>
    <rect x="337" y="37" width="46" height="46" rx="10" transform="rotate(45 360 60)" fill="#422006" opacity=".82"/>
    <circle cx="346" cy="48" r="13" fill="#fff" opacity=".26"/>
  </g>

  <g opacity=".22">
    <rect x="100" y="632" width="520" height="70" rx="16" fill="#020617" stroke="#FFF7ED" stroke-opacity=".20"/>
    <rect x="100" y="720" width="520" height="70" rx="16" fill="#020617" stroke="#FFF7ED" stroke-opacity=".18"/>
  </g>

  <g filter="url(#shadow)">
    <path d="M268 874 L316 823 H404 L452 874 L404 935 H316 Z" fill="url(#frame)" stroke="#FFF7ED" stroke-opacity=".78" stroke-width="3"/>
    <path d="M294 874 L330 840 H390 L426 874 L390 918 H330 Z" fill="#422006" opacity=".80"/>
    <path d="M250 878 C238 846 242 812 258 786" stroke="url(#frame)" stroke-width="5" stroke-linecap="round" fill="none" opacity=".78"/>
    <path d="M470 878 C482 846 478 812 462 786" stroke="url(#frame)" stroke-width="5" stroke-linecap="round" fill="none" opacity=".78"/>
  </g>
</svg>