<svg xmlns="http://www.w3.org/2000/svg" width="720" height="1040" viewBox="0 0 720 1040">
  <defs>
    <linearGradient id="body" x1="0" y1="0" x2="1" y2="1">
      <stop offset="0" stop-color="#E5E7EB" stop-opacity=".92"/>
      <stop offset=".20" stop-color="#8A94A6"/>
      <stop offset=".55" stop-color="#455260"/>
      <stop offset="1" stop-color="#111827"/>
    </linearGradient>
    <linearGradient id="frame" x1="0" y1="0" x2="1" y2="1">
      <stop offset="0" stop-color="#E5E7EB"/>
      <stop offset=".16" stop-color="#CBD5E1"/>
      <stop offset=".48" stop-color="#8A94A6"/>
      <stop offset=".76" stop-color="#111827"/>
      <stop offset="1" stop-color="#E5E7EB"/>
    </linearGradient>
    <linearGradient id="facetLight" x1="0" y1="0" x2="1" y2="1">
      <stop offset="0" stop-color="#E5E7EB" stop-opacity=".70"/>
      <stop offset="1" stop-color="#fff" stop-opacity=".03"/>
    </linearGradient>
    <linearGradient id="facetMid" x1="1" y1="0" x2="0" y2="1">
      <stop offset="0" stop-color="#CBD5E1" stop-opacity=".36"/>
      <stop offset="1" stop-color="#8A94A6" stop-opacity=".03"/>
    </linearGradient>
    <linearGradient id="facetDark" x1="1" y1="0" x2="0" y2="1">
      <stop offset="0" stop-color="#111827" stop-opacity=".62"/>
      <stop offset="1" stop-color="#455260" stop-opacity=".04"/>
    </linearGradient>
    <radialGradient id="aura" cx="50%" cy="5%" r="92%">
      <stop offset="0" stop-color="#E5E7EB" stop-opacity=".54"/>
      <stop offset=".42" stop-color="#8A94A6" stop-opacity=".22"/>
      <stop offset="1" stop-color="#111827" stop-opacity="0"/>
    </radialGradient>
    <radialGradient id="centerDark" cx="50%" cy="42%" r="46%">
      <stop offset="0" stop-color="#020617" stop-opacity=".36"/>
      <stop offset=".62" stop-color="#020617" stop-opacity=".14"/>
      <stop offset="1" stop-color="#020617" stop-opacity="0"/>
    </radialGradient>
    <filter id="shadow" x="-24%" y="-24%" width="148%" height="148%">
      <feDropShadow dx="0" dy="26" stdDeviation="22" flood-color="#000" flood-opacity=".46"/>
      <feDropShadow dx="0" dy="0" stdDeviation="18" flood-color="#8A94A6" flood-opacity=".30"/>
    </filter>
    <pattern id="stripe" width="22" height="22" patternUnits="userSpaceOnUse" patternTransform="rotate(45)">
      <line x1="0" y1="0" x2="0" y2="22" stroke="#fff" stroke-opacity=".052" stroke-width="2"/>
    </pattern>
  </defs>

  <rect x="26" y="26" width="668" height="988" rx="46" fill="url(#body)" filter="url(#shadow)"/>
  <rect x="26" y="26" width="668" height="988" rx="46" fill="url(#aura)"/>
  <rect x="26" y="26" width="668" height="988" rx="46" fill="url(#stripe)" opacity=".56"/>
  <g opacity=".94"><polygon points="529.6,821.2 379.5,880.4 374.9,663.0" fill="url(#facetDark)" opacity="0.048"/>
<polygon points="326.3,866.6 302.0,1011.1 97.7,931.4 136.0,796.6 279.0,746.0" fill="url(#facetMid)" opacity="0.083"/>
<polygon points="127.8,-16.1 184.4,-71.6 234.1,36.6" fill="url(#facetMid)" opacity="0.076"/>
<polygon points="347.7,297.8 357.4,102.3 508.4,-44.0 661.1,105.2 535.0,227.8" fill="url(#facetMid)" opacity="0.072"/>
<polygon points="406.7,54.5 312.6,-25.0 402.2,-155.2 549.5,-61.2 506.6,63.2" fill="url(#facetLight)" opacity="0.063"/>
<polygon points="490.5,147.0 646.8,169.0 564.9,330.5" fill="#ffffff" opacity="0.055"/>
<polygon points="770.6,1087.8 694.8,1081.2 682.8,1036.6 721.8,1001.6 802.9,1029.1" fill="url(#facetDark)" opacity="0.047"/>
<polygon points="185.9,387.5 82.0,454.5 35.0,312.8 160.6,265.2" fill="url(#facetMid)" opacity="0.070"/>
<polygon points="375.5,895.8 593.9,786.8 641.2,1024.1" fill="url(#facetLight)" opacity="0.101"/>
<polygon points="203.5,290.9 273.5,203.6 382.0,241.3 337.5,365.9 245.2,410.2" fill="url(#facetLight)" opacity="0.051"/>
<polygon points="78.5,748.2 64.1,571.7 211.1,695.7" fill="url(#facetLight)" opacity="0.068"/>
<polygon points="571.6,-60.4 684.5,-34.7 702.4,89.1 572.8,97.7 464.4,21.1" fill="url(#facetDark)" opacity="0.156"/>
<polygon points="654.3,360.1 564.6,229.4 725.7,223.1" fill="url(#facetDark)" opacity="0.138"/>
<polygon points="15.2,485.2 -105.5,375.1 81.5,332.0" fill="url(#facetLight)" opacity="0.094"/>
<polygon points="678.3,830.4 528.6,741.7 598.1,656.0 699.9,624.5 732.0,718.0" fill="url(#facetDark)" opacity="0.099"/>
<polygon points="0.7,297.0 -36.7,225.0 71.0,182.4 137.3,297.9" fill="#ffffff" opacity="0.108"/>
<polygon points="62.6,804.0 18.2,956.8 -162.8,850.0" fill="url(#facetMid)" opacity="0.127"/>
<polygon points="547.2,741.6 661.0,811.5 510.4,841.5" fill="url(#facetLight)" opacity="0.135"/>
<polygon points="163.6,273.4 150.7,128.8 243.5,172.0" fill="url(#facetLight)" opacity="0.048"/>
<polygon points="76.2,776.2 106.9,1053.7 -151.6,901.5" fill="url(#facetLight)" opacity="0.062"/>
<polygon points="431.3,58.8 503.7,40.9 498.4,140.1 428.9,129.0 395.0,87.6" fill="url(#facetDark)" opacity="0.064"/>
<polygon points="542.5,444.4 477.2,301.8 596.3,193.8 679.9,337.8" fill="url(#facetDark)" opacity="0.113"/>
<polygon points="111.6,76.6 65.3,210.9 -48.5,176.1 -70.1,30.5" fill="url(#facetLight)" opacity="0.073"/>
<polygon points="40.8,240.3 -170.5,133.3 51.6,10.6" fill="url(#facetDark)" opacity="0.156"/>
<polygon points="230.1,525.1 101.0,570.5 136.6,452.9" fill="url(#facetDark)" opacity="0.094"/>
<polygon points="554.1,-11.9 647.3,-110.2 698.3,-18.0 654.2,35.1" fill="url(#facetLight)" opacity="0.051"/>
<polygon points="-51.6,965.2 134.7,907.2 64.0,1114.6" fill="#ffffff" opacity="0.136"/>
<polygon points="728.6,197.1 560.8,280.5 425.3,203.6 430.2,40.4 583.4,0.9" fill="url(#facetLight)" opacity="0.156"/>
<polygon points="273.1,848.1 480.5,818.1 423.5,975.8" fill="url(#facetMid)" opacity="0.048"/>
<polygon points="512.6,984.2 598.6,1006.4 550.2,1079.7" fill="#ffffff" opacity="0.056"/>
<polygon points="493.4,258.0 367.8,349.3 309.3,235.8 408.0,113.1" fill="url(#facetDark)" opacity="0.150"/>
<polygon points="378.5,1025.5 308.9,1084.4 228.4,1052.1 283.4,978.3" fill="url(#facetDark)" opacity="0.122"/>
<polygon points="300.6,643.5 180.3,721.2 54.9,737.6 56.7,592.1 157.7,532.7" fill="url(#facetDark)" opacity="0.082"/>
<polygon points="19.4,-19.6 154.2,-71.7 199.2,39.5 149.9,109.9 56.6,105.8" fill="url(#facetLight)" opacity="0.128"/></g>
  <rect x="26" y="26" width="668" height="988" rx="46" fill="url(#centerDark)"/>

  <rect x="30" y="30" width="660" height="980" rx="43" fill="none" stroke="url(#frame)" stroke-width="9"/>
  <rect x="48" y="48" width="624" height="944" rx="36" fill="none" stroke="#E5E7EB" stroke-opacity=".36" stroke-width="2"/>
  <rect x="66" y="66" width="588" height="908" rx="27" fill="none" stroke="#111827" stroke-opacity=".34" stroke-width="2"/>

  <g stroke="url(#frame)" stroke-width="4.5" stroke-linecap="round" fill="none" opacity=".96">
    <path d="M70 142 L70 70 L142 70"/>
    <path d="M578 70 L650 70 L650 142"/>
    <path d="M70 898 L70 970 L142 970"/>
    <path d="M578 970 L650 970 L650 898"/>
    <path d="M96 172 C110 126 126 110 172 96"/>
    <path d="M548 96 C594 110 610 126 624 172"/>
    <path d="M96 868 C110 914 126 930 172 944"/>
    <path d="M548 944 C594 930 610 914 624 868"/>
  </g>

  <g opacity=".85">
    <path d="M360 315 C450 315 512 371 512 452 C512 533 450 589 360 589 C270 589 208 533 208 452 C208 371 270 315 360 315Z" fill="#020617" opacity=".24"/>
    <circle cx="360" cy="452" r="151" fill="none" stroke="url(#frame)" stroke-width="4" opacity=".82"/>
    <circle cx="360" cy="452" r="128" fill="none" stroke="#E5E7EB" stroke-opacity=".36" stroke-width="2"/>
    <path d="M209 452 H154" stroke="url(#frame)" stroke-width="5" stroke-linecap="round"/>
    <path d="M511 452 H566" stroke="url(#frame)" stroke-width="5" stroke-linecap="round"/>
    <rect x="140" y="432" width="40" height="40" rx="6" transform="rotate(45 160 452)" fill="url(#frame)" stroke="#E5E7EB" stroke-opacity=".74" stroke-width="2"/>
    <rect x="540" y="432" width="40" height="40" rx="6" transform="rotate(45 560 452)" fill="url(#frame)" stroke="#E5E7EB" stroke-opacity=".74" stroke-width="2"/>
  </g>

  <g filter="url(#shadow)">
    <rect x="316" y="16" width="88" height="88" rx="18" transform="rotate(45 360 60)" fill="url(#frame)" stroke="#E5E7EB" stroke-opacity=".92" stroke-width="3"/>
    <rect x="337" y="37" width="46" height="46" rx="10" transform="rotate(45 360 60)" fill="#111827" opacity=".82"/>
    <circle cx="346" cy="48" r="13" fill="#fff" opacity=".26"/>
  </g>

  <g opacity=".22">
    <rect x="100" y="632" width="520" height="70" rx="16" fill="#020617" stroke="#E5E7EB" stroke-opacity=".20"/>
    <rect x="100" y="720" width="520" height="70" rx="16" fill="#020617" stroke="#E5E7EB" stroke-opacity=".18"/>
  </g>

  <g filter="url(#shadow)">
    <path d="M268 874 L316 823 H404 L452 874 L404 935 H316 Z" fill="url(#frame)" stroke="#E5E7EB" stroke-opacity=".78" stroke-width="3"/>
    <path d="M294 874 L330 840 H390 L426 874 L390 918 H330 Z" fill="#111827" opacity=".80"/>
    <path d="M250 878 C238 846 242 812 258 786" stroke="url(#frame)" stroke-width="5" stroke-linecap="round" fill="none" opacity=".78"/>
    <path d="M470 878 C482 846 478 812 462 786" stroke="url(#frame)" stroke-width="5" stroke-linecap="round" fill="none" opacity=".78"/>
  </g>
</svg>